<svg xmlns="http://www.w3.org/2000/svg" xmlns:xlink="http://www.w3.org/1999/xlink" width="691.2" height="844.8" class="typst-doc" viewBox="0 0 518.4 633.6"><g class="typst-group"><g class="typst-group"><path fill="none" stroke="#00000096" stroke-width=".6" d="M367.1 85.876v34.879M367.1 85.876l-10.165-9.213M351.686 88.914v49.326M351.686 88.914l-14.375-13.03M336.272 91.951v34.879M336.272 91.951l-10.165-9.212M320.857 94.989" class="typst-shape"/><path fill="none" stroke="#aaa" stroke-width=".6" d="m107.134 105.384 246.63-48.603" class="typst-shape"/><path fill="none" stroke="#00000096" stroke-width=".6" d="M305.443 98.027v-34.88M305.443 98.027l10.165 9.212" class="typst-shape"/><path fill="none" stroke="#aaa" stroke-width=".6" d="m353.764 56.78 57.502 52.116" class="typst-shape"/><path fill="none" stroke="#00000096" stroke-width=".6" d="M243.786 110.178v34.878M243.786 110.178l-10.166-9.213M274.614 104.102V69.223M290.029 101.064V51.738M228.371 113.215v49.326M228.371 113.215l-14.375-13.029M274.614 104.102l10.166 9.213M290.029 101.064l14.375 13.03" class="typst-shape"/><path fill="none" stroke="#aaa" stroke-width=".6" d="m322.935 62.856 57.503 52.115" class="typst-shape"/><path fill="none" stroke="#00000096" stroke-width=".6" d="M212.957 116.253v34.879M212.957 116.253l-10.165-9.213" class="typst-shape"/><path fill="none" stroke="#aaa" stroke-width=".6" d="m121.51 118.413 246.63-48.604" class="typst-shape"/><path fill="none" stroke="#00000096" stroke-width=".6" d="M197.543 119.29" class="typst-shape"/><path fill="none" stroke="#aaa" stroke-width=".6" d="m292.106 68.931 57.503 52.116M261.277 75.007l57.503 52.115" class="typst-shape"/><path fill="none" stroke="#00000096" stroke-width=".6" d="M182.128 122.328V87.45" class="typst-shape"/><path fill="none" stroke="#aaa" stroke-width=".6" d="m135.885 131.442 246.63-48.604" class="typst-shape"/><path fill="none" stroke="#00000096" stroke-width=".6" d="m182.128 122.328 10.165 9.213" class="typst-shape"/><path fill="none" stroke="#aaa" stroke-width=".6" d="m230.449 81.082 57.502 52.115" class="typst-shape"/><path fill="none" stroke="#00000096" stroke-width=".6" d="M151.3 128.404V93.525M166.714 125.366V76.04" class="typst-shape"/><path fill="#0000ff32" stroke="#000" stroke-width="1.2" d="m135.885 131.442 2.466-6.669 2.467-6.57 2.466-6.378 2.466-6.09 2.467-5.717 2.466-5.259 2.466-4.726 2.466-4.127 2.467-3.47 2.466-2.767 2.466-2.026 2.467-1.263 2.466-.486 2.466.29 2.467 1.055 2.466 1.794 2.466 2.499 2.466 3.155 2.467 3.754 2.466 4.287 2.466 4.744 2.467 5.119 2.466 5.405 2.466 5.599 2.467 5.696 2.466 5.696 2.466 5.598 2.466 5.406 2.467 5.118 2.466 4.745 2.466 4.286 2.467 3.755 2.466 3.155 2.466 2.498 2.467 1.794 2.466 1.055 2.466.29 2.466-.486 2.467-1.263 2.466-2.026 2.466-2.766 2.467-3.47 2.466-4.128 2.466-4.726 2.467-5.259 2.466-5.716 2.466-6.091 2.466-6.377 2.467-6.571 2.466-6.668 2.466-6.668 2.467-6.571 2.466-6.377 2.466-6.091 2.466-5.716 2.467-5.26 2.466-4.726 2.466-4.127 2.467-3.47 2.466-2.766 2.466-2.027 2.467-1.262 2.466-.486 2.466.29 2.466 1.055 2.467 1.794 2.466 2.498 2.466 3.155 2.467 3.754 2.466 4.287 2.466 4.744 2.467 5.119 2.466 5.405 2.466 5.599 2.466 5.696 2.467 5.696 2.466 5.599 2.466 5.405 2.467 5.119 2.466 4.744 2.466 4.287 2.467 3.754 2.466 3.155 2.466 2.498 2.466 1.794 2.467 1.055 2.466.29 2.466-.486 2.467-1.262 2.466-2.027 2.466-2.766 2.467-3.47 2.466-4.127 2.466-4.727 2.466-5.259 2.467-5.716 2.466-6.09 2.466-6.378 2.467-6.57 2.466-6.669" class="typst-shape"/><path fill="none" stroke="#00000096" stroke-width=".6" d="m151.3 128.404 10.165 9.213M166.714 125.366l14.375 13.029" class="typst-shape"/><path fill="#ff000032" stroke="#000" stroke-width="1.2" d="m135.885 131.442 4.268 1.146 4.24 1.122 4.183 1.07 4.1.994 3.99.895 3.858.775 3.702.634 3.527.476 3.336.302 3.131.116 2.915-.079 2.693-.28 2.466-.487 2.24-.691 2.018-.893 1.801-1.088 1.597-1.275 1.405-1.447 1.23-1.606 1.076-1.747.942-1.868.833-1.966.749-2.042.693-2.093.665-2.12.664-2.118.693-2.094.75-2.042.832-1.966.942-1.868 1.075-1.746 1.231-1.606 1.405-1.448 1.597-1.274 1.801-1.089 2.018-.893 2.24-.69 2.466-.487 2.693-.28 2.915-.08 3.13.116 3.337.303 3.527.475 3.702.634 3.858.775 3.99.895 4.1.995 4.183 1.07 4.24 1.12 4.268 1.148 4.268 1.147 4.24 1.12 4.183 1.07 4.1.995 3.99.896 3.858.774 3.702.634 3.527.476 3.336.302 3.131.117 2.915-.08 2.693-.28 2.466-.487 2.24-.69 2.018-.894 1.801-1.088 1.597-1.274 1.405-1.448 1.23-1.606 1.076-1.747.942-1.867.833-1.967.749-2.042.693-2.093.664-2.119.665-2.119.693-2.093.75-2.042.832-1.967.942-1.867 1.075-1.747 1.23-1.606 1.406-1.448 1.597-1.274 1.801-1.088 2.018-.893 2.24-.692 2.466-.486 2.693-.28 2.915-.08 3.13.117 3.337.302 3.527.476 3.702.634 3.858.774 3.99.896 4.1.994 4.183 1.07 4.24 1.121 4.268 1.147" class="typst-shape"/><path fill="none" stroke="#aaa" stroke-width=".6" d="m199.62 87.158 57.503 52.115M150.26 144.47l246.63-48.603M168.791 93.233l57.503 52.115M137.962 99.309l57.503 52.115M107.134 105.384l57.502 52.115M164.636 157.5l246.63-48.604" class="typst-shape"/></g></g><g class="typst-group"><g class="typst-group"><g class="typst-group"><path fill="none" stroke="#000" stroke-dasharray=".9680000000000001 .9680000000000001" stroke-width=".6050000000000001" d="M239.313 333.047 193.4 369.778" class="typst-shape"/><g class="typst-group"><g class="typst-group"><use xlink:href="#a" class="typst-text" transform="matrix(1.1 0 0 -1.1 188.32 374.677)"/></g></g><path fill="none" stroke="#000" stroke-dasharray=".9680000000000001 .9680000000000001" stroke-width=".6050000000000001" d="M239.313 333.047V209.57M297.12 333.047l-45.913 36.731" class="typst-shape"/><g class="typst-group"><g class="typst-group"><use xlink:href="#b" class="typst-text" transform="matrix(1.1 0 0 -1.1 246.127 374.674)"/></g></g><path fill="none" stroke="#000" stroke-dasharray=".9680000000000001 .9680000000000001" stroke-width=".6050000000000001" d="M297.12 333.047V209.57" class="typst-shape"/><g class="typst-group"><g class="typst-group"><g class="typst-text" transform="matrix(1.1 0 0 -1.1 302.528 374.677)"><use xlink:href="#c"/><use xlink:href="#a" x="2.558"/></g></g></g><path fill="none" stroke="#000" stroke-dasharray=".9680000000000001 .9680000000000001" stroke-width=".6050000000000001" d="M239.313 333.047H354.93" class="typst-shape"/><g class="typst-group"><g class="typst-group"><g class="typst-text" transform="matrix(1.1 0 0 -1.1 362.032 335.031)"><use xlink:href="#d"/><use xlink:href="#c" x="3.025"/></g></g></g><path fill="none" stroke="#000" stroke-dasharray=".9680000000000001 .9680000000000001" stroke-width=".6050000000000001" d="M239.313 333.047V209.57M218.443 349.743h115.615" class="typst-shape"/><g class="typst-group"><g class="typst-group"><use xlink:href="#e" class="typst-text" transform="matrix(1.1 0 0 -1.1 342.826 351.727)"/></g></g><path fill="none" stroke="#000" stroke-dasharray=".9680000000000001 .9680000000000001" stroke-width=".6050000000000001" d="M218.443 349.743V226.266M197.573 366.439h115.615" class="typst-shape"/><g class="typst-group"><g class="typst-group"><use xlink:href="#f" class="typst-text" transform="matrix(1.1 0 0 -1.1 321.956 368.393)"/></g></g><path fill="none" stroke="#000" stroke-dasharray=".9680000000000001 .9680000000000001" stroke-width=".6050000000000001" d="M197.573 366.439V242.962" class="typst-shape"/><g class="typst-group"><g class="typst-group"><g class="typst-text" transform="matrix(1.1 0 0 -1.1 316.375 371.738)"><use xlink:href="#c"/><use xlink:href="#a" x="2.558"/></g></g></g><path fill="none" stroke="#000" stroke-dasharray=".9680000000000001 .9680000000000001" stroke-width=".6050000000000001" d="M239.313 333.047 193.4 369.778" class="typst-shape"/><g class="typst-group"><g class="typst-group"><use xlink:href="#a" class="typst-text" transform="matrix(1.1 0 0 -1.1 181.818 371.738)"/></g></g><path fill="none" stroke="#000" stroke-dasharray=".9680000000000001 .9680000000000001" stroke-width=".6050000000000001" d="M239.313 333.047H354.93M239.313 271.308 193.4 308.04" class="typst-shape"/><g class="typst-group"><g class="typst-group"><use xlink:href="#b" class="typst-text" transform="matrix(1.1 0 0 -1.1 181.818 309.997)"/></g></g><path fill="none" stroke="#000" stroke-dasharray=".9680000000000001 .9680000000000001" stroke-width=".6050000000000001" d="M239.313 271.308H354.93" class="typst-shape"/><g class="typst-group"><g class="typst-group"><g class="typst-text" transform="matrix(1.1 0 0 -1.1 180.412 248.261)"><use xlink:href="#c"/><use xlink:href="#a" x="2.558"/></g></g></g><path fill="none" stroke="#000" stroke-dasharray=".9680000000000001 .9680000000000001" stroke-width=".6050000000000001" d="M354.929 333.047V209.57M239.313 209.57H354.93M239.313 209.57 193.4 246.3" class="typst-shape"/><path fill="none" stroke="#b10dc9" stroke-width="1.2100000000000002" d="m235.14 336.386 3.862-3.09M237.38 333.899l1.703-.668.032.668" class="typst-shape"/><path fill="none" stroke="#7c098d" stroke-width="1.2100000000000002" d="m235.14 299.343 3.93-12.552M237.618 288.662l1.516-2.072.218 2.072" class="typst-shape"/><path fill="none" stroke="#470550" stroke-width="1.2100000000000002" d="m235.14 262.3 3.947-14.27M237.674 250.003l1.472-2.186.262 2.186" class="typst-shape"/><path fill="none" stroke="#120114" stroke-width="1.2100000000000002" d="m235.14 225.256 3.876-6.66M237.429 219.833l1.664-1.37.07 1.37" class="typst-shape"/><path fill="none" stroke="#b10dc9" stroke-width="1.2100000000000002" d="m222.617 346.404 2.144-1.715M223.14 345.292l1.702-.668.032.668" class="typst-shape"/><path fill="none" stroke="#7c098d" stroke-width="1.2100000000000002" d="m222.617 309.36 2.272-11.057M223.578 300.46l1.359-2.39.376 2.39" class="typst-shape"/><path fill="none" stroke="#470550" stroke-width="1.2100000000000002" d="m222.617 272.317 2.291-12.796M223.645 261.735l1.306-2.451.428 2.451" class="typst-shape"/><path fill="none" stroke="#120114" stroke-width="1.2100000000000002" d="m222.617 235.274 2.18-5.146M223.263 231.702l1.605-1.743.129 1.743" class="typst-shape"/><path fill="none" stroke="#b10dc9" stroke-width="1.2100000000000002" d="m210.095 356.421-.974.78M210.742 356.598l-1.702.668-.033-.668" class="typst-shape"/><path fill="none" stroke="#7c098d" stroke-width="1.2100000000000002" d="m210.095 319.378-1.175-8.184M208.321 313.063l.57-2.07 1.164 2.07" class="typst-shape"/><path fill="none" stroke="#470550" stroke-width="1.2100000000000002" d="m210.095 282.335-1.19-9.918M208.27 274.353l.61-2.144 1.124 2.144" class="typst-shape"/><path fill="none" stroke="#120114" stroke-width="1.2100000000000002" d="m210.095 245.292-1.066-2.325M208.693 244.125l.279-1.283 1.455 1.283" class="typst-shape"/><path fill="none" stroke="#b10dc9" stroke-width="1.2100000000000002" d="m197.573 366.439-3.656 2.925M195.538 368.76l-1.702.669-.033-.668" class="typst-shape"/><path fill="none" stroke="#7c098d" stroke-width="1.2100000000000002" d="m197.573 329.396-3.73-6.405M193.55 323.977l.23-1.091 1.504 1.091" class="typst-shape"/><path fill="none" stroke="#470550" stroke-width="1.2100000000000002" d="m197.573 292.353-3.748-8.097M193.491 285.407l.277-1.275 1.457 1.275" class="typst-shape"/><path fill="none" stroke="#120114" stroke-width="1.2100000000000002" d="m197.573 255.31-3.672-.61M193.75 254.82l.074-.132 1.661.131" class="typst-shape"/><path fill="none" stroke="#b10dc9" stroke-width="1.2100000000000002" d="m269.824 336.386 12.739-3.145M280.186 333.552l2.581-.362-1.626.677" class="typst-shape"/><path fill="none" stroke="#7c098d" stroke-width="1.2100000000000002" d="m269.824 299.343 12.86-12.67M280.463 287.602l2.393-1.1-1.167 2.41" class="typst-shape"/><path fill="none" stroke="#470550" stroke-width="1.2100000000000002" d="m269.824 262.3 12.893-14.383M280.53 249.02l2.35-1.286-1.03 2.486" class="typst-shape"/><path fill="none" stroke="#120114" stroke-width="1.2100000000000002" d="m269.824 225.256 12.76-6.767M280.428 218.604l2.355-.22-1.734 1.949" class="typst-shape"/><path fill="none" stroke="#b10dc9" stroke-width="1.2100000000000002" d="m257.302 346.404 10.924-1.818M265.837 344.738l2.618-.19-2.105.595" class="typst-shape"/><path fill="none" stroke="#7c098d" stroke-width="1.2100000000000002" d="m257.302 309.36 11.12-11.256M266.15 299.127l2.45-1.203-1.223 2.513" class="typst-shape"/><path fill="none" stroke="#470550" stroke-width="1.2100000000000002" d="m257.302 272.317 11.166-12.97M266.263 260.542l2.371-1.387-1.05 2.587" class="typst-shape"/><path fill="none" stroke="#120114" stroke-width="1.2100000000000002" d="m257.302 235.274 10.963-5.383M265.918 230.026l2.566-.243-1.944 1.972" class="typst-shape"/><path fill="none" stroke="#b10dc9" stroke-width="1.2100000000000002" d="m244.78 356.421 7.368.94M251.067 356.913l1.262.471-2.465-.003" class="typst-shape"/><path fill="none" stroke="#7c098d" stroke-width="1.2100000000000002" d="m244.78 319.378 7.556-8.393M250.493 311.696l1.975-.857-.749 2.167" class="typst-shape"/><path fill="none" stroke="#470550" stroke-width="1.2100000000000002" d="m244.78 282.335 7.596-10.096M250.583 273.144l1.914-1.067-.593 2.267" class="typst-shape"/><path fill="none" stroke="#120114" stroke-width="1.2100000000000002" d="m244.78 245.292 7.409-2.576M250.294 242.402l2.065.255-1.443 1.474" class="typst-shape"/><path fill="none" stroke="#b10dc9" stroke-width="1.2100000000000002" d="m232.258 366.439 5.06 2.984M237.402 368.802v.67l-1.726-.346" class="typst-shape"/><path fill="none" stroke="#7c098d" stroke-width="1.2100000000000002" d="m232.258 329.396 5.112-6.47M236.103 323.098l1.337-.26-.11 1.57" class="typst-shape"/><path fill="none" stroke="#470550" stroke-width="1.2100000000000002" d="m232.258 292.353 5.126-8.165M236.104 284.574l1.346-.492-.025 1.692" class="typst-shape"/><path fill="none" stroke="#120114" stroke-width="1.2100000000000002" d="m232.258 255.31 5.07-.62M236.261 253.917l1.148.763-.527.966" class="typst-shape"/><path fill="none" stroke="#b10dc9" stroke-width="1.2100000000000002" d="m304.508 336.386 14.353-3.159M316.463 333.492l2.611-.312-1.786.657" class="typst-shape"/><path fill="none" stroke="#7c098d" stroke-width="1.2100000000000002" d="m304.508 299.343 14.465-12.704M316.699 287.438l2.458-.96-1.335 2.371" class="typst-shape"/><path fill="none" stroke="#470550" stroke-width="1.2100000000000002" d="m304.508 262.3 14.498-14.415M316.758 248.856l2.423-1.145-1.197 2.454" class="typst-shape"/><path fill="none" stroke="#120114" stroke-width="1.2100000000000002" d="m304.508 225.256 14.373-6.793M316.675 218.498l2.414-.133-1.876 1.894" class="typst-shape"/><path fill="none" stroke="#b10dc9" stroke-width="1.2100000000000002" d="m291.986 346.404 12.556-1.833M302.18 344.675l2.596-.138-2.216.564" class="typst-shape"/><path fill="none" stroke="#7c098d" stroke-width="1.2100000000000002" d="m291.986 309.36 12.727-11.303M302.39 298.915l2.512-1.026-1.388 2.437" class="typst-shape"/><path fill="none" stroke="#470550" stroke-width="1.2100000000000002" d="m291.986 272.317 12.77-13.014M302.488 260.335l2.446-1.213-1.22 2.523" class="typst-shape"/><path fill="none" stroke="#120114" stroke-width="1.2100000000000002" d="m291.986 235.274 12.589-5.424M302.213 229.872l2.587-.118-2.05 1.879" class="typst-shape"/><path fill="none" stroke="#b10dc9" stroke-width="1.2100000000000002" d="m279.464 356.421 8.988.952M287.263 356.95l1.378.443-2.508.033" class="typst-shape"/><path fill="none" stroke="#7c098d" stroke-width="1.2100000000000002" d="m279.464 319.378 9.15-8.437M286.688 311.493l2.072-.687-.949 2.098" class="typst-shape"/><path fill="none" stroke="#470550" stroke-width="1.2100000000000002" d="m279.464 282.335 9.188-10.138M286.768 272.944l2.02-.898-.794 2.208" class="typst-shape"/><path fill="none" stroke="#120114" stroke-width="1.2100000000000002" d="m279.464 245.292 9.02-2.604M286.54 242.291l2.125.345-1.587 1.416" class="typst-shape"/><path fill="none" stroke="#b10dc9" stroke-width="1.2100000000000002" d="m266.942 366.439 6.641 2.998M273.473 368.834l.211.649-1.88-.295" class="typst-shape"/><path fill="none" stroke="#7c098d" stroke-width="1.2100000000000002" d="m266.942 329.396 6.697-6.488M272.268 322.986l1.458-.162-.335 1.574" class="typst-shape"/><path fill="none" stroke="#470550" stroke-width="1.2100000000000002" d="m266.942 292.353 6.713-8.185M272.27 284.453l1.467-.386-.24 1.696" class="typst-shape"/><path fill="none" stroke="#120114" stroke-width="1.2100000000000002" d="m266.942 255.31 6.651-.623M272.404 253.893l1.288.785-.75.975" class="typst-shape"/><path fill="none" stroke="#b10dc9" stroke-width="1.2100000000000002" d="m339.193 336.386 7.209-3.101M344.328 333.786l2.218-.563-.748.712" class="typst-shape"/><path fill="none" stroke="#7c098d" stroke-width="1.2100000000000002" d="m339.193 299.343 7.324-12.574M344.648 288.257l1.983-1.683-.364 2.346" class="typst-shape"/><path fill="none" stroke="#470550" stroke-width="1.2100000000000002" d="m339.193 262.3 7.353-14.29M344.73 249.648l1.922-1.845-.273 2.42" class="typst-shape"/><path fill="none" stroke="#120114" stroke-width="1.2100000000000002" d="m339.193 225.256 7.232-6.681M344.528 219.106l2.035-.658-.809 1.968" class="typst-shape"/><path fill="none" stroke="#b10dc9" stroke-width="1.2100000000000002" d="m326.67 346.404 5.366-1.744M329.774 345.076l2.438-.473-1.196.707" class="typst-shape"/><path fill="none" stroke="#7c098d" stroke-width="1.2100000000000002" d="m326.67 309.36 5.613-11.098M330.432 299.992l1.963-1.951-.344 2.614" class="typst-shape"/><path fill="none" stroke="#470550" stroke-width="1.2100000000000002" d="m326.67 272.317 5.656-12.829M330.561 261.334l1.866-2.075-.217 2.65" class="typst-shape"/><path fill="none" stroke="#120114" stroke-width="1.2100000000000002" d="m326.67 235.274 5.43-5.207M330 230.839l2.26-.925-1.034 2.235" class="typst-shape"/><path fill="none" stroke="#b10dc9" stroke-width="1.2100000000000002" d="m314.149 356.421 1.91.853M315.94 356.672l.22.648-1.886-.293" class="typst-shape"/><path fill="none" stroke="#7c098d" stroke-width="1.2100000000000002" d="m314.149 319.378 2.115-8.23M315.002 312.576l1.31-1.617.31 2.28" class="typst-shape"/><path fill="none" stroke="#470550" stroke-width="1.2100000000000002" d="m314.149 282.335 2.138-9.954M315.066 273.942l1.264-1.76.384 2.335" class="typst-shape"/><path fill="none" stroke="#120114" stroke-width="1.2100000000000002" d="m314.149 245.292 1.982-2.414M314.742 243.168l1.472-.391-.246 1.7" class="typst-shape"/><path fill="none" stroke="#b10dc9" stroke-width="1.2100000000000002" d="m301.627 366.439-.351 2.937M302.266 368.725l-.998.713-.845-.557" class="typst-shape"/><path fill="none" stroke="#7c098d" stroke-width="1.2100000000000002" d="m301.627 329.396-.358-6.417M300.513 323.604l.75-.727.87 1.39" class="typst-shape"/><path fill="none" stroke="#470550" stroke-width="1.2100000000000002" d="m301.627 292.353-.36-8.11M300.493 285.078l.77-.955.879 1.53" class="typst-shape"/><path fill="none" stroke="#120114" stroke-width="1.2100000000000002" d="m301.627 255.31-.353-.612M300.727 254.157l.54.529.686.78" class="typst-shape"/><path fill="none" stroke="#ff4136" stroke-linecap="square" stroke-width="1.2100000000000002" d="M193.399 369.778V246.301" class="typst-shape"/><path fill="none" stroke="#2ecc40" stroke-linecap="square" stroke-width="1.2100000000000002" d="M193.399 369.778h115.615" class="typst-shape"/><path fill="none" stroke="#0074d9" stroke-linecap="square" stroke-width="1.2100000000000002" d="m354.929 333.047-45.915 36.731" class="typst-shape"/><path fill="none" stroke="#000" stroke-dasharray=".6050000000000001 .6050000000000001" stroke-width="1.2100000000000002" d="M309.014 369.778V246.301M193.399 246.3h115.615M354.929 209.57l-45.915 36.73" class="typst-shape"/><g class="typst-group"><g class="typst-group"><use xlink:href="#g" class="typst-text" transform="matrix(1.1 0 0 -1.1 227.65 390.57)"/></g></g><g class="typst-group"><g class="typst-group"><use xlink:href="#h" class="typst-text" transform="matrix(1.1 0 0 -1.1 352.706 355.75)"/></g></g><g class="typst-group"><g class="typst-group"><use xlink:href="#i" class="typst-text" transform="matrix(1.1 0 0 -1.1 163.471 314.138)"/></g></g></g></g></g><g class="typst-group"><g class="typst-group"><path fill="none" d="M101.749 436.134V577.47H416.65V436.134Z" class="typst-shape"/><g class="typst-group"><path fill="none" stroke="#ccc" stroke-width=".5" d="M133.187 436.134V549.52M169.528 436.134V549.52M205.87 436.134V549.52M242.212 436.134V549.52M278.553 436.134V549.52M314.895 436.134V549.52M351.236 436.134V549.52M387.578 436.134V549.52M133.187 534.242H416.65M133.187 515.835H416.65M133.187 497.429H416.65M133.187 479.022H416.65M133.187 460.615H416.65M133.187 442.208H416.65" class="typst-shape"/><g class="typst-group" clip-path="url(#j)" transform="translate(133.187 436.134)"><path fill="none" stroke="#000" d="M72.683 98.108v9.204M72.683 56.693V24.48M63.598 107.312h18.17M63.598 24.481h18.17M54.512 98.108V56.693h36.342v41.415Z" class="typst-shape"/><path fill="none" stroke="#ff851b" d="M55.012 88.905h35.342" class="typst-shape"/><path fill="none" stroke="#000" stroke-width=".7" d="M71.433 73.566a1.25 1.25 0 1 1 2.502.001 1.25 1.25 0 0 1-2.502-.001" class="typst-shape"/></g><g class="typst-group" clip-path="url(#k)" transform="translate(133.187 436.134)"><path fill="none" stroke="#000" d="M145.366 70.498v18.407M145.366 42.888v-9.204M136.281 88.905h18.17M136.281 33.684h18.17M127.196 70.498v-27.61h36.341v27.61Z" class="typst-shape"/><path fill="none" stroke="#ff851b" d="M127.696 52.091h35.341" class="typst-shape"/><path fill="none" stroke="#2ecc40" stroke-width=".7" d="M127.696 58.227h35.341" class="typst-shape"/></g><g class="typst-group" clip-path="url(#l)" transform="translate(133.187 436.134)"><path fill="none" stroke="#000" d="M218.05 65.896v23.009M218.05 24.481V6.074M208.964 88.905h18.171M208.964 6.074h18.171M199.879 65.896V24.481h36.341v41.415Z" class="typst-shape"/><path fill="none" stroke="#ff851b" d="M200.379 42.888h35.341" class="typst-shape"/><path fill="none" stroke="#000" stroke-width=".7" d="M216.8 45.956a1.25 1.25 0 1 1 2.501.001 1.25 1.25 0 0 1-2.501-.001" class="typst-shape"/></g><g class="typst-group"><g class="typst-group"><g class="typst-group"><path fill="none" stroke="#000" stroke-linecap="square" stroke-width=".5" d="M133.187 549.52H416.65" class="typst-shape"/></g></g><path fill="none" stroke="#000" stroke-width=".5" d="M133.187 546.52v3" class="typst-shape"/><g class="typst-group"><use xlink:href="#m" class="typst-text" transform="matrix(1 0 0 -1 126.158 562.533)"/><use xlink:href="#n" class="typst-text" transform="matrix(1 0 0 -1 131.658 562.533)"/><use xlink:href="#m" class="typst-text" transform="matrix(1 0 0 -1 134.716 562.533)"/></g><path fill="none" stroke="#000" stroke-width=".5" d="M169.528 546.52v3" class="typst-shape"/><g class="typst-group"><use xlink:href="#m" class="typst-text" transform="matrix(1 0 0 -1 162.5 562.533)"/><use xlink:href="#n" class="typst-text" transform="matrix(1 0 0 -1 168 562.533)"/><use xlink:href="#o" class="typst-text" transform="matrix(1 0 0 -1 171.057 562.533)"/></g><path fill="none" stroke="#000" stroke-width=".5" d="M205.87 546.52v3" class="typst-shape"/><g class="typst-group"><use xlink:href="#p" class="typst-text" transform="matrix(1 0 0 -1 198.84 562.533)"/><use xlink:href="#n" class="typst-text" transform="matrix(1 0 0 -1 204.34 562.533)"/><use xlink:href="#m" class="typst-text" transform="matrix(1 0 0 -1 207.399 562.533)"/></g><path fill="none" stroke="#000" stroke-width=".5" d="M242.212 546.52v3" class="typst-shape"/><g class="typst-group"><use xlink:href="#p" class="typst-text" transform="matrix(1 0 0 -1 235.183 562.533)"/><use xlink:href="#n" class="typst-text" transform="matrix(1 0 0 -1 240.683 562.533)"/><use xlink:href="#o" class="typst-text" transform="matrix(1 0 0 -1 243.74 562.533)"/></g><path fill="none" stroke="#000" stroke-width=".5" d="M278.553 546.52v3" class="typst-shape"/><g class="typst-group"><use xlink:href="#q" class="typst-text" transform="matrix(1 0 0 -1 271.524 562.533)"/><use xlink:href="#n" class="typst-text" transform="matrix(1 0 0 -1 277.024 562.533)"/><use xlink:href="#m" class="typst-text" transform="matrix(1 0 0 -1 280.082 562.533)"/></g><path fill="none" stroke="#000" stroke-width=".5" d="M314.895 546.52v3" class="typst-shape"/><g class="typst-group"><use xlink:href="#q" class="typst-text" transform="matrix(1 0 0 -1 307.866 562.533)"/><use xlink:href="#n" class="typst-text" transform="matrix(1 0 0 -1 313.366 562.533)"/><use xlink:href="#o" class="typst-text" transform="matrix(1 0 0 -1 316.424 562.533)"/></g><path fill="none" stroke="#000" stroke-width=".5" d="M351.236 546.52v3" class="typst-shape"/><g class="typst-group"><use xlink:href="#r" class="typst-text" transform="matrix(1 0 0 -1 344.207 562.533)"/><use xlink:href="#n" class="typst-text" transform="matrix(1 0 0 -1 349.707 562.533)"/><use xlink:href="#m" class="typst-text" transform="matrix(1 0 0 -1 352.765 562.533)"/></g><path fill="none" stroke="#000" stroke-width=".5" d="M387.578 546.52v3" class="typst-shape"/><g class="typst-group"><use xlink:href="#r" class="typst-text" transform="matrix(1 0 0 -1 380.549 562.533)"/><use xlink:href="#n" class="typst-text" transform="matrix(1 0 0 -1 386.049 562.533)"/><use xlink:href="#o" class="typst-text" transform="matrix(1 0 0 -1 389.107 562.533)"/></g><path fill="none" stroke="#000" stroke-width=".5" d="M140.455 548.02v1.5M147.723 548.02v1.5M154.992 548.02v1.5M162.26 548.02v1.5M176.797 548.02v1.5M184.065 548.02v1.5M191.333 548.02v1.5M198.602 548.02v1.5M213.138 548.02v1.5M220.407 548.02v1.5M227.675 548.02v1.5M234.943 548.02v1.5M249.48 548.02v1.5M256.748 548.02v1.5M264.017 548.02v1.5M271.285 548.02v1.5M285.821 548.02v1.5M293.09 548.02v1.5M300.358 548.02v1.5M307.626 548.02v1.5M322.163 548.02v1.5M329.431 548.02v1.5M336.7 548.02v1.5M343.968 548.02v1.5M358.505 548.02v1.5M365.773 548.02v1.5M373.041 548.02v1.5M380.31 548.02v1.5M394.846 548.02v1.5M402.115 548.02v1.5M409.383 548.02v1.5M416.651 548.02v1.5" class="typst-shape"/><g class="typst-group"><g class="typst-group"><g class="typst-text" transform="matrix(1 0 0 -1 252.858 577.47)"><use xlink:href="#s"/><use xlink:href="#t" x="5.874"/><use xlink:href="#u" x="10.791"/><use xlink:href="#v" x="15.081"/><use xlink:href="#w" x="21.307"/><use xlink:href="#x" x="26.015"/><use xlink:href="#w" x="31.592"/><use xlink:href="#y" x="36.3"/><use xlink:href="#t" x="39.204"/></g></g></g></g><g class="typst-group"><g class="typst-group"><g class="typst-group"><path fill="none" stroke="#000" stroke-linecap="square" stroke-width=".5" d="M133.187 436.134H416.65" class="typst-shape"/></g></g><path fill="none" stroke="#000" stroke-width=".5" d="M133.187 436.134v3M169.528 436.134v3M205.87 436.134v3M242.212 436.134v3M278.553 436.134v3M314.895 436.134v3M351.236 436.134v3M387.578 436.134v3M140.455 436.134v1.5M147.723 436.134v1.5M154.992 436.134v1.5M162.26 436.134v1.5M176.797 436.134v1.5M184.065 436.134v1.5M191.333 436.134v1.5M198.602 436.134v1.5M213.138 436.134v1.5M220.407 436.134v1.5M227.675 436.134v1.5M234.943 436.134v1.5M249.48 436.134v1.5M256.748 436.134v1.5M264.017 436.134v1.5M271.285 436.134v1.5M285.821 436.134v1.5M293.09 436.134v1.5M300.358 436.134v1.5M307.626 436.134v1.5M322.163 436.134v1.5M329.431 436.134v1.5M336.7 436.134v1.5M343.968 436.134v1.5M358.505 436.134v1.5M365.773 436.134v1.5M373.041 436.134v1.5M380.31 436.134v1.5M394.846 436.134v1.5M402.115 436.134v1.5M409.383 436.134v1.5M416.651 436.134v1.5" class="typst-shape"/></g><g class="typst-group"><g class="typst-group"><g class="typst-group"><path fill="none" stroke="#000" stroke-linecap="square" stroke-width=".5" d="M133.187 436.134V549.52" class="typst-shape"/></g></g><path fill="none" stroke="#000" stroke-width=".5" d="M133.187 534.242h3" class="typst-shape"/><g class="typst-group"><use xlink:href="#q" class="typst-text" transform="matrix(1 0 0 -1 122.187 537.999)"/></g><path fill="none" stroke="#000" stroke-width=".5" d="M133.187 515.835h3" class="typst-shape"/><g class="typst-group"><use xlink:href="#z" class="typst-text" transform="matrix(1 0 0 -1 122.187 519.592)"/></g><path fill="none" stroke="#000" stroke-width=".5" d="M133.187 497.429h3" class="typst-shape"/><g class="typst-group"><use xlink:href="#A" class="typst-text" transform="matrix(1 0 0 -1 122.187 501.185)"/></g><path fill="none" stroke="#000" stroke-width=".5" d="M133.187 479.022h3" class="typst-shape"/><g class="typst-group"><use xlink:href="#B" class="typst-text" transform="matrix(1 0 0 -1 122.187 482.778)"/></g><path fill="none" stroke="#000" stroke-width=".5" d="M133.187 460.615h3" class="typst-shape"/><g class="typst-group"><use xlink:href="#p" class="typst-text" transform="matrix(1 0 0 -1 116.687 464.371)"/><use xlink:href="#m" class="typst-text" transform="matrix(1 0 0 -1 122.187 464.371)"/></g><path fill="none" stroke="#000" stroke-width=".5" d="M133.187 442.208h3" class="typst-shape"/><g class="typst-group"><use xlink:href="#p" class="typst-text" transform="matrix(1 0 0 -1 116.687 445.965)"/><use xlink:href="#q" class="typst-text" transform="matrix(1 0 0 -1 122.187 445.965)"/></g><path fill="none" stroke="#000" stroke-width=".5" d="M133.187 548.047h1.5M133.187 543.446h1.5M133.187 538.844h1.5M133.187 529.64h1.5M133.187 525.039h1.5M133.187 520.437h1.5M133.187 511.234h1.5M133.187 506.632h1.5M133.187 502.03h1.5M133.187 492.827h1.5M133.187 488.225h1.5M133.187 483.623h1.5M133.187 474.42h1.5M133.187 469.818h1.5M133.187 465.217h1.5M133.187 456.013h1.5M133.187 451.412h1.5M133.187 446.81h1.5M133.187 437.606h1.5" class="typst-shape"/><g class="typst-group"><g class="typst-group"><g class="typst-text" transform="matrix(0 -1 -1 0 108.987 513.276)"><use xlink:href="#C"/><use xlink:href="#D" x="7.722"/><use xlink:href="#v" x="13.563"/><use xlink:href="#w" x="17.039"/><use xlink:href="#E" x="21.747"/><use xlink:href="#F" x="27.291"/><use xlink:href="#t" x="35.981"/></g></g></g></g><g class="typst-group"><g class="typst-group"><g class="typst-group"><path fill="none" stroke="#000" stroke-linecap="square" stroke-width=".5" d="M416.651 436.134V549.52" class="typst-shape"/></g></g><path fill="none" stroke="#000" stroke-width=".5" d="M413.651 534.242h3M413.651 515.835h3M413.651 497.429h3M413.651 479.022h3M413.651 460.615h3M413.651 442.208h3M415.151 548.047h1.5M415.151 543.446h1.5M415.151 538.844h1.5M415.151 529.64h1.5M415.151 525.039h1.5M415.151 520.437h1.5M415.151 511.234h1.5M415.151 506.632h1.5M415.151 502.03h1.5M415.151 492.827h1.5M415.151 488.225h1.5M415.151 483.623h1.5M415.151 474.42h1.5M415.151 469.818h1.5M415.151 465.217h1.5M415.151 456.013h1.5M415.151 451.412h1.5M415.151 446.81h1.5M415.151 437.606h1.5" class="typst-shape"/></g></g></g></g><defs><symbol id="a" overflow="visible"><path d="M1.254-.055c.423 0 1.067.429 1.067 1.722 0 .544-.132 1.012-.374 1.33a.84.84 0 0 1-.671.358c-.545 0-1.062-.649-1.062-1.738C.214 1.028.396.478.7.176a.76.76 0 0 1 .555-.231Zm.022 3.218a.364.364 0 0 0 .248-.094c.17-.143.319-.561.319-1.298 0-.506-.017-.852-.094-1.133-.121-.451-.39-.5-.49-.5-.511 0-.566.94-.566 1.418 0 1.353.336 1.607.583 1.607Z"/></symbol><symbol id="b" overflow="visible"><path d="M1.754 1.04c0-.523-.275-.908-.605-.908C.94.132.87.27.786.379.716.474.622.555.506.555.402.555.297.463.297.352c0-.225.467-.412.781-.412.682 0 1.166.506 1.166 1.199 0 .533-.369 1.012-.985 1.012-.236 0-.44-.05-.538-.088l.11.918c.203-.022.379-.05.643-.05.165 0 .352.011.577.034l.088.373-.038.022a8.663 8.663 0 0 0-.902-.06c-.204 0-.402.011-.594.027L.418 1.744c.292.11.5.131.699.131.357 0 .637-.236.637-.835Z"/></symbol><symbol id="c" overflow="visible"><path d="M1.584.671v1.908c0 .33.005.666.016.737 0 .028-.01.028-.033.028-.302-.187-.593-.325-1.077-.55.01-.06.032-.115.082-.148.253.104.374.137.479.137.093 0 .11-.132.11-.319V.671c0-.457-.149-.484-.534-.5C.594.136.594.021.627-.012c.27.005.468.011.764.011.264 0 .397-.005.671-.011.034.033.034.149 0 .182-.384.016-.478.043-.478.5Z"/></symbol><symbol id="d" overflow="visible"><path d="M2.546 1.243c.072 0 .149.126.149.181 0 .044-.022.094-.077.094H.468C.4 1.518.33 1.413.33 1.331c0-.044.033-.088.082-.088Z"/></symbol><symbol id="e" overflow="visible"><path d="M2.365 1.204h-.457v1.607c0 .275 0 .489.012.533l-.011.011h-.177c-.038 0-.065-.033-.087-.06C1.298 2.87.66 1.963.153 1.176c.017-.083.05-.231.214-.231H1.49V.44c0-.253-.208-.253-.445-.27-.033-.033-.033-.148 0-.181a19.269 19.269 0 0 0 1.248 0c.033.033.033.149 0 .182-.269.021-.385.01-.385.269v.506h.38c.077 0 .16.105.16.17 0 .055-.022.088-.083.088ZM1.49 2.79V1.204H.44c.28.451.671 1.067 1.05 1.585Z"/></symbol><symbol id="f" overflow="visible"><path d="M1.798 1.408A1.98 1.98 0 0 0 .567.077c0-.066.023-.116.067-.143.555.165.896.396 1.204.754.341.395.512.896.512 1.33 0 1.117-.633 1.337-1.057 1.337-.72 0-1.017-.699-1.017-1.171 0-.474.253-.897 1.001-.897.143 0 .357.044.522.121Zm.05.198a.794.794 0 0 0-.457-.127c-.538 0-.66.528-.66.804 0 .605.232.88.501.88.347 0 .66-.188.66-1.128 0-.121-.011-.27-.044-.429Z"/></symbol><symbol id="g" overflow="visible"><path d="M8.695 6.154c0 .76-.742 1.139-1.567 1.139-.71 0-1.27-.38-1.7-1.139-.346.76-.923 1.139-1.765 1.139-.808 0-1.468-.38-1.996-1.122C1.22 5.527.99 5.049.99 4.735c0-.148.083-.23.248-.23.148 0 .247.082.28.23.313.957 1.007 2.08 2.112 2.08.545 0 .809-.347.809-1.024 0-.346-.298-1.633-.875-3.844C3.284.841 2.788.297 2.079.297c-.231 0-.446.05-.627.132.429.165.643.462.643.891s-.214.643-.66.643c-.544 0-.957-.462-.957-1.006 0-.759.776-1.139 1.585-1.139.692 0 1.253.38 1.699 1.139.313-.759.908-1.139 1.765-1.139.792 0 1.452.38 1.98 1.122.446.644.677 1.123.677 1.436 0 .149-.082.231-.247.231-.149 0-.232-.083-.281-.231-.28-.94-1.023-2.079-2.095-2.079-.545 0-.825.33-.825 1.006 0 .215.082.677.264 1.42l.56 2.227c.314 1.237.826 1.864 1.552 1.864.23 0 .445-.049.627-.131-.446-.149-.66-.446-.66-.891 0-.43.23-.644.676-.644.528 0 .94.479.94 1.006Z"/></symbol><symbol id="h" overflow="visible"><path d="M2.69 7.293c-.743 0-1.32-.413-1.733-1.237-.314-.644-.478-1.09-.478-1.337 0-.149.082-.231.264-.231.23 0 .247.099.313.346.38 1.304.907 1.964 1.584 1.964.214 0 .33-.149.33-.446 0-.264-.083-.643-.264-1.122-.627-1.699-.94-2.838-.94-3.448 0-1.254.775-1.996 2.046-1.996.544 0 1.055.197 1.518.593-.578-2.178-1.486-3.267-2.723-3.267-.561 0-.94.182-1.139.545.66.033.99.347.99.94 0 .413-.214.628-.66.628-.61 0-.973-.512-.973-1.122 0-.908.825-1.485 1.782-1.485 1.897 0 3.449 1.749 3.861 3.365L8.019 6.22c.05.182.066.314.066.397 0 .33-.182.495-.528.495-.264 0-.479-.133-.627-.38a12.15 12.15 0 0 1-.231-.891l-1.056-4.24C5.478 1.006 4.603.264 3.861.264c-.627 0-.94.412-.94 1.254 0 .693.28 1.749.825 3.168.214.577.33.974.33 1.205 0 .808-.578 1.402-1.386 1.402Z"/></symbol><symbol id="i" overflow="visible"><path d="m2.673 1.518-.28-.033c.792.775 1.402 1.336 1.814 1.716L5.792 4.67c.379.346.775.775 1.155 1.253.511.628.758 1.007.758 1.139 0 .148-.082.231-.247.231-.116 0-.215-.066-.297-.215-.412-.676-.792-1.006-1.155-1.006s-.627.297-.776.495c-.396.478-.792.726-1.171.726-.429 0-.875-.198-1.337-.627-.462-.429-.692-.858-.692-1.287 0-.165.082-.247.264-.247.115 0 .214.082.28.23.182.479.627.71 1.304.71.23 0 .56-.083 1.006-.231a3.735 3.735 0 0 1 1.122-.248A51.527 51.527 0 0 0 3.861 3.58L2.392 2.212a15.444 15.444 0 0 1-.907-.99C.973.577.709.198.709.05c0-.149.083-.231.265-.231.099 0 .198.082.313.247.413.643.858.974 1.32.974.264 0 .561-.199.891-.611.33-.412.71-.61 1.089-.61.561 0 1.122.296 1.716.874.594.578.891 1.138.891 1.683 0 .149-.082.231-.264.231-.115 0-.215-.083-.297-.248a1.994 1.994 0 0 0-1.881-1.32c-.396 0-1.683.479-2.079.479Z"/></symbol><symbol id="m" overflow="visible"><path d="M2.739-.242C4.29-.242 5.06 1.012 5.06 3.52c0 1.683-.352 2.805-1.045 3.355a2.047 2.047 0 0 1-1.265.451C1.199 7.326.429 6.061.429 3.52c0-2.024.539-3.762 2.31-3.762Zm1.232 6.006c.077-.385.11-1.089.11-2.112 0-1.012-.044-1.76-.121-2.244-.143-.88-.55-1.32-1.221-1.32-.253 0-.506.099-.737.286-.297.253-.473.77-.55 1.562-.033.275-.044.847-.044 1.716 0 .957.033 1.628.088 1.991.099.605.297.99.605 1.155.242.132.451.198.638.198.715 0 1.111-.583 1.232-1.232Z"/></symbol><symbol id="n" overflow="visible"><path d="M2.112.583a.587.587 0 0 1-.583.583.587.587 0 0 1-.583-.583C.946.264 1.21 0 1.529 0c.319 0 .583.264.583.583Z"/></symbol><symbol id="o" overflow="visible"><path d="M1.298 3.465c.055 0 .121.044.176.121.33.495.781.737 1.353.737.385 0 .682-.22.88-.671.121-.297.187-.748.187-1.353 0-.693-.088-1.177-.253-1.463C3.366.385 2.992.154 2.519.154c-.737 0-1.32.528-1.518 1.1.033-.011.055 0 .099 0 .33 0 .605.253.605.583 0 .341-.275.572-.605.572-.385 0-.55-.209-.55-.616 0-1.1.891-2.035 1.991-2.035a2.27 2.27 0 0 1 1.705.726c.462.484.693 1.067.693 1.738 0 .638-.187 1.188-.561 1.661-.407.517-.913.77-1.529.77-.517 0-.968-.165-1.331-.495v1.958c.297-.088.583-.132.88-.132.506 0 .946.121 1.32.374.341.209.572.418.704.616.066.088.099.154.099.187 0 .11-.055.165-.165.165-.605-.231-1.122-.352-1.54-.352a3.33 3.33 0 0 0-1.419.308.38.38 0 0 1-.143.033c-.099 0-.154-.099-.154-.308V3.795c0-.231 0-.33.198-.33Z"/></symbol><symbol id="p" overflow="visible"><path d="M2.959 7.326c-.451-.462-1.111-.693-1.98-.693v-.429c.572 0 1.045.088 1.408.264V.902c0-.198-.044-.33-.143-.385C2.145.462 1.87.429 1.43.429h-.385V0c.275.022.869.033 1.782.033S4.334.022 4.609 0v.429h-.385c-.451 0-.726.033-.814.088-.088.055-.143.187-.143.385v6.094c0 .264-.022.33-.308.33Z"/></symbol><symbol id="q" overflow="visible"><path d="M2.607 7.326a1.986 1.986 0 0 1-1.441-.594C.759 6.336.55 5.874.55 5.313c0-.374.275-.649.616-.649a.62.62 0 0 1 .605.616.595.595 0 0 1-.616.616c-.033 0-.055 0-.077-.011.209.539.693 1.012 1.386 1.012.902 0 1.408-.781 1.408-1.727 0-.737-.374-1.529-1.122-2.365L.682.473C.539.308.55.319.55 0h4.081l.319 1.98h-.363c-.088-.561-.165-.88-.231-.979-.055-.055-.385-.077-.99-.077H1.529l1.067 1.045c.748.704 1.694 1.463 2.013 2.046.22.385.33.77.33 1.155 0 1.298-1.012 2.156-2.332 2.156Z"/></symbol><symbol id="r" overflow="visible"><path d="M3.333 3.883c.726.275 1.408.968 1.408 1.903 0 .473-.231.858-.682 1.155a2.463 2.463 0 0 1-1.353.385c-.495 0-.924-.132-1.309-.385-.429-.286-.649-.66-.649-1.133 0-.363.242-.616.594-.616s.594.253.594.605c0 .363-.209.561-.627.583.286.385.737.583 1.353.583.66 0 .99-.385.99-1.166 0-.462-.088-.847-.253-1.166-.297-.528-.704-.627-1.386-.627-.132-.022-.198-.077-.198-.176 0-.165.077-.165.297-.165h.473c.825 0 1.243-.583 1.243-1.76 0-.935-.341-1.749-1.177-1.749-.715 0-1.243.242-1.562.726a.636.636 0 0 1 .671.649.63.63 0 0 1-.649.649c-.429 0-.649-.22-.649-.671 0-.539.242-.968.726-1.309.429-.297.935-.44 1.496-.44a2.43 2.43 0 0 1 1.639.616c.473.407.704.913.704 1.529 0 1.034-.814 1.749-1.694 1.98Z"/></symbol><symbol id="s" overflow="visible"><path d="M3.85 1.342v4.202c0 .704.11 1.122.506 1.122h.242c.825 0 1.342-.286 1.529-1.133.121 0 .275.011.374.055a12.682 12.682 0 0 0-.143 1.562c0 .011-.022.033-.033.033a39.118 39.118 0 0 0-2.464-.088h-.946c-.847 0-2.145.055-2.563.088-.022 0-.044-.022-.044-.033a12.434 12.434 0 0 0-.275-1.595c.11-.044.242-.055.374-.055.22.88.726 1.166 1.452 1.166h.539c.407 0 .517-.418.517-1.089V1.342c0-.913-.187-.968-1.067-1.001-.066-.066-.066-.297 0-.363.539.011 1.1.022 1.54.022.418 0 .979-.011 1.529-.022.066.066.066.297 0 .363-.88.033-1.067.088-1.067 1.001Z"/></symbol><symbol id="t" overflow="visible"><path d="M4.246 1.023C3.839.605 3.52.429 2.882.429c-.396 0-.858.231-1.199.792-.22.363-.352.869-.352 1.507l2.926-.022c.132 0 .209.066.209.187 0 .924-.33 1.914-1.859 1.914-.957 0-2.2-.913-2.2-2.585 0-.616.154-1.21.517-1.628.374-.44.891-.704 1.683-.704.836 0 1.43.385 1.87.957-.033.11-.099.165-.231.176ZM1.364 3.102c.209 1.243.979 1.342 1.243 1.342.418 0 .913-.231.913-1.155 0-.099-.044-.154-.165-.154Z"/></symbol><symbol id="u" overflow="visible"><path d="M.528 1.518A19.21 19.21 0 0 0 .605 0c.11.022.22.033.275.033.077 0 .143 0 .22-.022A3.776 3.776 0 0 1 2.101-.11c.616 0 1.749.297 1.749 1.386 0 .748-.539 1.188-1.287 1.463-.66.253-1.1.418-1.1 1.023 0 .451.396.704.77.704.242 0 .88-.088 1.023-1.023.066-.066.286-.055.352.011.033.396.055.803.066 1.166-.341.055-.869.209-1.441.209-.814 0-1.551-.528-1.551-1.232 0-.803.363-1.144 1.21-1.496.913-.374 1.122-.605 1.122-1.078 0-.539-.528-.77-.935-.77-.429 0-.671.143-.781.264-.242.253-.363.737-.429 1.012-.066.066-.275.055-.341-.011Z"/></symbol><symbol id="v" overflow="visible"><path d="M.473 4.719c-.154 0-.198-.132-.198-.22v-.143c0-.055.011-.066.055-.066h.649V.979c0-.781.341-1.089.847-1.089s1.056.242 1.485.726c-.022.11-.088.176-.198.187a1.49 1.49 0 0 0-.902-.308c-.297 0-.363.33-.363 1.012V4.29h1.144c.11 0 .264.044.264.143v.22c0 .044-.033.066-.088.066h-1.32v.429c0 .715.044 1.155.044 1.155 0 .066-.033.099-.088.099a.732.732 0 0 1-.242-.099 1.41 1.41 0 0 0-.374-.154c-.132-.044-.242-.077-.242-.154 0-.132.033-.055.033-1.276Z"/></symbol><symbol id="w" overflow="visible"><path d="M4.378 1.001c-.044.099-.132.143-.231.154C3.773.671 3.3.429 2.827.429c-.803 0-1.474.814-1.474 2.101 0 1.21.528 1.936 1.254 1.936.649 0 .737-.385.781-.77.033-.297.187-.396.418-.396.231 0 .539.143.539.484 0 .605-.627 1.045-1.683 1.045-1.089 0-2.255-.979-2.255-2.541C.407.869 1.199-.11 2.585-.11c.66 0 1.243.209 1.793 1.111Z"/></symbol><symbol id="x" overflow="visible"><path d="M2.244-1.76c.176.308.319.616.451.946.88 2.123 1.375 3.256 1.947 4.488.22.462.374.638.891.704.066.066.066.297 0 .363-.22-.011-.473-.022-.781-.022-.33 0-.671.011-1.001.022-.066-.066-.066-.297 0-.363.352-.033.704-.099.528-.495L3.19 1.364c-.077-.176-.176-.209-.264.011l-.979 2.288c-.198.462-.253.671.363.715.066.066.066.297 0 .363a47.686 47.686 0 0 0-1.243-.022c-.374 0-.671.011-.891.022-.066-.066-.066-.297 0-.363.44-.055.583-.154.869-.825L2.288.66c.099-.22.264-.726.154-1.034a10.342 10.342 0 0 0-.429-1.012c-.121-.22-.275-.319-.55-.319-.154 0-.198.033-.319.033-.319 0-.484-.33-.484-.473 0-.231.22-.407.517-.407.231 0 .671.088 1.067.792Z"/></symbol><symbol id="y" overflow="visible"><path d="M1.045 1.342C1.045.429.924.374.253.341.187.275.187.044.253-.022A42.2 42.2 0 0 0 1.485 0c.44 0 .858-.011 1.221-.022.066.066.066.297 0 .363-.671.033-.792.088-.792 1.001v5.071c0 .715.044 1.155.044 1.155 0 .077-.044.11-.143.11-.275-.11-1.1-.264-1.54-.297-.022-.088 0-.264.066-.33.638-.044.704-.077.704-.902Z"/></symbol><symbol id="z" overflow="visible"><path d="M3.883 7.447c-.099 0-.187-.055-.253-.154L.308 2.189v-.396h2.871V.891c0-.198-.044-.33-.121-.385-.077-.055-.286-.077-.649-.077h-.275V0c.319.022.825.033 1.507.033.682 0 1.188-.011 1.507-.033v.429h-.275c-.363 0-.572.022-.649.077-.077.055-.121.187-.121.385v.902h1.078v.429H4.103V7.26c0 .11-.077.187-.22.187Zm-.638-1.364V2.222H.737Z"/></symbol><symbol id="A" overflow="visible"><path d="M4.213 5.544c.363 0 .539.187.539.561 0 .792-.594 1.221-1.408 1.221-.913 0-1.639-.429-2.178-1.298C.693 5.28.462 4.433.462 3.476c0-1.397.253-2.376.77-2.959.44-.506.946-.759 1.529-.759.671 0 1.221.253 1.65.759.407.484.616 1.067.616 1.738s-.198 1.243-.594 1.716c-.418.506-.957.77-1.606.77-.572 0-1.012-.319-1.309-.935v.066c0 1.243.308 2.299.968 2.783.286.209.583.308.88.308.396 0 .682-.11.869-.341-.374 0-.561-.209-.561-.539 0-.308.231-.539.539-.539ZM3.784 3.74c.121-.253.187-.748.187-1.474 0-.715-.055-1.188-.176-1.43-.22-.451-.561-.682-1.034-.682-.319 0-.561.11-.737.33-.143.176-.242.33-.286.451-.132.341-.198.858-.198 1.562 0 .308.044.605.121.891.143.517.55 1.001 1.155 1.001.429 0 .759-.22.968-.649Z"/></symbol><symbol id="B" overflow="visible"><path d="M2.75 7.326a2.056 2.056 0 0 1-1.408-.528 1.7 1.7 0 0 1-.594-1.331c0-.451.165-.858.495-1.221.077-.088.319-.275.726-.561C.968 3.168.462 2.497.462 1.683c0-.583.242-1.056.715-1.419.44-.341.957-.506 1.562-.506a2.36 2.36 0 0 1 1.606.594c.451.396.682.913.682 1.518 0 .506-.176.957-.539 1.364-.132.143-.473.396-1.012.737.847.451 1.265 1.023 1.265 1.694 0 1.001-.957 1.661-1.991 1.661Zm1.419-1.661c0-.572-.341-1.067-1.023-1.474l-1.309.858c-.341.22-.517.506-.517.847 0 .66.715 1.067 1.419 1.067.759 0 1.43-.539 1.43-1.298ZM2.75.154c-.902 0-1.661.649-1.661 1.529 0 .737.407 1.331 1.221 1.782l1.298-.825c.528-.341.792-.726.792-1.166 0-.792-.825-1.32-1.65-1.32Z"/></symbol><symbol id="C" overflow="visible"><path d="M7.326 3.619c0 2.277-1.573 3.619-3.542 3.619C1.65 7.238.407 5.544.407 3.41.407 1.243 1.98-.11 3.85-.11c1.221 0 2.189.528 2.794 1.386.44.627.682 1.419.682 2.343ZM3.641 6.842c1.452 0 2.629-1.21 2.629-3.432 0-1.969-.946-3.124-2.2-3.124-1.342 0-2.607 1.199-2.607 3.311 0 2.31 1.089 3.245 2.178 3.245Z"/></symbol><symbol id="D" overflow="visible"><path d="M2.387-.11c.429 0 .946.22 1.485.66.055.044.154.066.165-.011.033-.275.121-.649.121-.649a.274.274 0 0 1 .209 0c.242.198.627.363 1.298.44.066.066.066.231 0 .297-.704.055-.803.264-.803.803v2.112c0 .33.044 1.133.044 1.133 0 .033-.033.066-.088.066a2.746 2.746 0 0 0-.385-.022c-.352 0-.748.011-1.122.022-.066-.066-.066-.297 0-.363.539-.033.682-.165.682-.891V1.364c0-.209-.022-.297-.176-.429-.407-.352-.825-.528-1.1-.528-.33 0-.88.154-.88 1.133v2.002c0 .33.044 1.133.044 1.133 0 .033-.033.066-.088.066a2.746 2.746 0 0 0-.385-.022c-.352 0-.748.011-1.122.022-.066-.066-.066-.297 0-.363.528-.044.682-.165.682-.88V1.386c0-.759.33-1.496 1.419-1.496Z"/></symbol><symbol id="E" overflow="visible"><path d="M.451 2.255c0-1.122.748-2.365 2.31-2.365.704 0 1.243.253 1.617.616.495.484.715 1.177.715 1.848 0 1.144-.627 2.475-2.31 2.475-.726 0-1.32-.297-1.727-.77C.66 3.586.451 2.948.451 2.255Zm2.167 2.189c.946 0 1.529-.858 1.529-2.442C4.147.616 3.432.275 2.915.275c-1.144 0-1.518 1.386-1.518 2.233 0 .957.231 1.936 1.221 1.936Z"/></symbol><symbol id="F" overflow="visible"><path d="M1.87 3.938c-.011.33-.033.726-.088.836-.022.055-.044.088-.132.088-.308-.121-.594-.22-1.353-.319-.022-.066 0-.242.022-.308.594-.055.715-.11.715-.748V1.342C1.034.44.891.385.286.341.22.275.22.044.286-.022a31.07 31.07 0 0 0 2.299 0c.066.066.066.297 0 .363-.561.055-.682.099-.682 1.001v1.804c0 .231.099.363.187.462.44.429.847.649 1.188.649.418 0 .726-.264.726-1.001V1.342c0-.902-.088-.957-.682-1.001-.055-.066-.055-.297 0-.363a29.14 29.14 0 0 0 2.2 0c.055.066.055.297 0 .363-.55.044-.649.099-.649 1.001v1.749c0 .154 0 .308-.011.44.528.583 1.023.726 1.452.726.418 0 .66-.242.66-.979V1.342c0-.902-.11-.957-.682-1.001-.055-.066-.055-.297 0-.363a29.14 29.14 0 0 0 2.255 0c.055.066.055.297 0 .363-.605.044-.704.099-.704 1.001V3.08c0 .979-.165 1.749-1.133 1.749-.561 0-1.243-.209-1.815-.814-.033-.033-.099-.088-.121.011-.099.451-.528.803-1.1.803-.638 0-1.21-.374-1.672-.891-.055-.055-.121-.132-.132 0Z"/></symbol></defs><defs><clipPath id="j"><path d="M0 0h283.465v113.386H0Z"/></clipPath><clipPath id="k"><path d="M0 0h283.465v113.386H0Z"/></clipPath><clipPath id="l"><path d="M0 0h283.465v113.386H0Z"/></clipPath></defs></svg>