<svg xmlns="http://www.w3.org/2000/svg" xmlns:xlink="http://www.w3.org/1999/xlink" width="691.2" height="844.8" class="typst-doc" viewBox="0 0 518.4 633.6"><g class="typst-text" transform="matrix(1 0 0 -1 42.52 55.548)"><use xlink:href="#a"/><use xlink:href="#b" x="10.712"/><use xlink:href="#c" x="17.919"/><use xlink:href="#d" x="26.631"/><use xlink:href="#e" x="36.472"/><use xlink:href="#f" x="41.837"/><use xlink:href="#g" x="51.817"/><use xlink:href="#h" x="62.33"/><use xlink:href="#b" x="75.002"/><use xlink:href="#c" x="82.21"/><use xlink:href="#h" x="91.06"/><use xlink:href="#c" x="98.782"/><use xlink:href="#i" x="107.633"/><use xlink:href="#b" x="116.681"/><use xlink:href="#j" x="123.889"/><use xlink:href="#k" x="132.363"/><use xlink:href="#k" x="147.965"/><use xlink:href="#i" x="158.618"/><use xlink:href="#h" x="167.666"/><use xlink:href="#l" x="180.338"/><use xlink:href="#f" x="191.07"/><use xlink:href="#m" x="201.049"/><use xlink:href="#c" x="207.306"/><use xlink:href="#n" x="216.295"/><use xlink:href="#m" x="231.264"/><use xlink:href="#k" x="237.521"/><use xlink:href="#i" x="248.173"/><use xlink:href="#m" x="257.222"/><use xlink:href="#h" x="268.429"/><use xlink:href="#o" x="276.151"/><use xlink:href="#i" x="286.427"/><use xlink:href="#m" x="295.475"/><use xlink:href="#e" x="301.732"/><use xlink:href="#i" x="307.098"/><use xlink:href="#p" x="316.147"/><use xlink:href="#n" x="326.324"/><use xlink:href="#e" x="336.343"/><use xlink:href="#h" x="341.708"/><use xlink:href="#m" x="349.43"/><use xlink:href="#f" x="355.687"/><use xlink:href="#b" x="365.666"/><use xlink:href="#m" x="373.032"/><use xlink:href="#e" x="379.289"/><use xlink:href="#f" x="384.655"/><use xlink:href="#l" x="394.634"/><use xlink:href="#h" x="405.365"/></g><g class="typst-text" transform="matrix(1 0 0 -1 42.52 81.446)"><use xlink:href="#j"/><use xlink:href="#i" x="8.474"/><use xlink:href="#l" x="17.523"/><use xlink:href="#j" x="33.205"/><use xlink:href="#i" x="41.679"/><use xlink:href="#g" x="50.728"/><use xlink:href="#h" x="61.241"/><use xlink:href="#c" x="68.963"/><use xlink:href="#h" x="82.764"/><use xlink:href="#e" x="90.486"/><use xlink:href="#q" x="95.852"/><use xlink:href="#l" x="105.752"/><use xlink:href="#e" x="116.483"/><use xlink:href="#r" x="121.849"/><use xlink:href="#j" x="132.937"/><use xlink:href="#i" x="141.412"/><use xlink:href="#l" x="150.46"/><use xlink:href="#m" x="161.192"/><use xlink:href="#n" x="172.399"/><use xlink:href="#i" x="182.417"/><use xlink:href="#s" x="191.466"/><use xlink:href="#i" x="207.108"/><use xlink:href="#q" x="216.157"/><use xlink:href="#c" x="226.057"/><use xlink:href="#m" x="239.857"/><use xlink:href="#f" x="246.114"/><use xlink:href="#n" x="261.043"/><use xlink:href="#f" x="271.062"/><use xlink:href="#j" x="281.18"/><use xlink:href="#g" x="289.654"/><use xlink:href="#s" x="300.168"/><use xlink:href="#c" x="315.81"/><use xlink:href="#l" x="324.661"/><use xlink:href="#m" x="335.392"/><use xlink:href="#h" x="341.649"/><use xlink:href="#e" x="354.321"/><use xlink:href="#l" x="359.687"/></g><g class="typst-group"><g class="typst-text" transform="matrix(1 0 0 -1 42.52 107.345)"><use xlink:href="#m"/><use xlink:href="#b" x="6.257"/><use xlink:href="#i" x="13.622"/><use xlink:href="#l" x="22.671"/><use xlink:href="#h" x="33.403"/><use xlink:href="#e" x="41.125"/><use xlink:href="#m" x="46.49"/></g><g class="typst-text" transform="matrix(1 0 0 -1 100.217 107.345)"><use xlink:href="#t"/><use xlink:href="#u" x="7.049"/><use xlink:href="#v" x="16.256"/></g><g class="typst-text" transform="matrix(1 0 0 -1 123.521 107.345)"><use xlink:href="#w"/><use xlink:href="#x" x="9.306"/><use xlink:href="#k" x="24.097"/><use xlink:href="#e" x="34.749"/><use xlink:href="#j" x="40.115"/><use xlink:href="#k" x="48.589"/><use xlink:href="#f" x="64.192"/><use xlink:href="#g" x="74.171"/><use xlink:href="#b" x="84.685"/><use xlink:href="#h" x="97"/><use xlink:href="#y" x="104.722"/><use xlink:href="#h" x="114.919"/><use xlink:href="#m" x="122.641"/><use xlink:href="#c" x="128.898"/><use xlink:href="#s" x="137.749"/><use xlink:href="#h" x="158.341"/><use xlink:href="#c" x="166.063"/><use xlink:href="#c" x="175.052"/><use xlink:href="#z" x="183.902"/><use xlink:href="#h" x="194.04"/><use xlink:href="#m" x="206.712"/><use xlink:href="#f" x="212.969"/><use xlink:href="#s" x="227.898"/><use xlink:href="#e" x="243.54"/><use xlink:href="#m" x="248.906"/><use xlink:href="#e" x="255.163"/><use xlink:href="#q" x="260.528"/><use xlink:href="#i" x="270.428"/><use xlink:href="#m" x="279.477"/><use xlink:href="#c" x="285.734"/><use xlink:href="#A" x="294.386"/></g></g><g class="typst-text" transform="matrix(1 0 0 -1 42.52 133.243)"><use xlink:href="#B"/><use xlink:href="#g" x="9.603"/><use xlink:href="#m" x="20.117"/><use xlink:href="#g" x="26.374"/><use xlink:href="#b" x="36.887"/><use xlink:href="#c" x="44.095"/><use xlink:href="#b" x="57.895"/><use xlink:href="#c" x="65.102"/><use xlink:href="#h" x="73.953"/><use xlink:href="#c" x="81.675"/><use xlink:href="#i" x="90.526"/><use xlink:href="#b" x="99.574"/><use xlink:href="#j" x="106.781"/><use xlink:href="#k" x="115.256"/><use xlink:href="#x" x="130.858"/><use xlink:href="#e" x="145.649"/><use xlink:href="#p" x="151.015"/><use xlink:href="#p" x="156.242"/><use xlink:href="#C" x="166.419"/><use xlink:href="#f" x="172.557"/><use xlink:href="#j" x="182.675"/><use xlink:href="#g" x="191.149"/><use xlink:href="#h" x="201.663"/><use xlink:href="#f" x="214.335"/><use xlink:href="#l" x="224.314"/><use xlink:href="#e" x="239.996"/><use xlink:href="#s" x="245.362"/><use xlink:href="#o" x="261.004"/><use xlink:href="#b" x="271.28"/><use xlink:href="#f" x="278.487"/><use xlink:href="#d" x="288.328"/><use xlink:href="#e" x="298.168"/><use xlink:href="#l" x="303.534"/><use xlink:href="#q" x="314.266"/><use xlink:href="#D" x="329.116"/><use xlink:href="#E" x="342.144"/><use xlink:href="#F" x="348.836"/><use xlink:href="#i" x="365.449"/><use xlink:href="#e" x="374.497"/><use xlink:href="#p" x="379.863"/><use xlink:href="#G" x="385.09"/><use xlink:href="#h" x="390.397"/></g><g class="typst-text" transform="matrix(1 0 0 -1 42.52 159.142)"><use xlink:href="#b"/><use xlink:href="#c" x="7.207"/><use xlink:href="#h" x="16.058"/><use xlink:href="#e" x="23.78"/><use xlink:href="#p" x="29.146"/><use xlink:href="#e" x="34.373"/><use xlink:href="#c" x="39.739"/><use xlink:href="#l" x="48.589"/><use xlink:href="#j" x="59.321"/><use xlink:href="#c" x="67.795"/><use xlink:href="#m" x="81.596"/><use xlink:href="#f" x="87.853"/><use xlink:href="#e" x="102.782"/><use xlink:href="#l" x="108.148"/><use xlink:href="#m" x="118.879"/><use xlink:href="#c" x="125.136"/><use xlink:href="#b" x="133.987"/><use xlink:href="#h" x="141.352"/><use xlink:href="#m" x="149.074"/><use xlink:href="#c" x="155.331"/><use xlink:href="#p" x="164.182"/><use xlink:href="#p" x="169.409"/><use xlink:href="#i" x="174.636"/><use xlink:href="#b" x="183.685"/><use xlink:href="#o" x="196"/><use xlink:href="#f" x="206.415"/><use xlink:href="#h" x="216.394"/><use xlink:href="#m" x="224.116"/><use xlink:href="#i" x="230.373"/><use xlink:href="#p" x="239.422"/><use xlink:href="#x" x="249.599"/><use xlink:href="#c" x="264.231"/><use xlink:href="#i" x="273.082"/><use xlink:href="#b" x="282.13"/><use xlink:href="#i" x="294.446"/><use xlink:href="#l" x="303.494"/><use xlink:href="#n" x="314.226"/><use xlink:href="#m" x="329.195"/><use xlink:href="#c" x="335.452"/><use xlink:href="#i" x="344.302"/><use xlink:href="#b" x="353.351"/><use xlink:href="#C" x="365.666"/><use xlink:href="#g" x="371.804"/><use xlink:href="#b" x="382.318"/><use xlink:href="#m" x="389.684"/><use xlink:href="#k" x="395.941"/><use xlink:href="#c" x="406.593"/><use xlink:href="#b" x="415.444"/><use xlink:href="#A" x="421.641"/></g><g class="typst-group"><g class="typst-text" transform="matrix(1 0 0 -1 42.52 212.661)"><use xlink:href="#H"/><use xlink:href="#I" x="18.129"/><use xlink:href="#J" x="27.055"/><use xlink:href="#K" x="42.079"/><use xlink:href="#I" x="51.088"/><use xlink:href="#L" x="60.014"/><use xlink:href="#M" x="75.288"/><use xlink:href="#N" x="89.73"/><use xlink:href="#O" x="101.594"/><use xlink:href="#P" x="115.62"/><use xlink:href="#Q" x="131.725"/><use xlink:href="#R" x="148.884"/></g></g><g class="typst-group"><g class="typst-text" transform="matrix(1 0 0 -1 42.52 240.54)"><use xlink:href="#t"/><use xlink:href="#u" x="7.049"/><use xlink:href="#v" x="16.256"/></g><g class="typst-group"><g class="typst-text" transform="matrix(1 0 0 -1 78.694 240.54)"><use xlink:href="#S"/><use xlink:href="#A" x="10.573"/><use xlink:href="#T" x="19.879"/><use xlink:href="#i" x="32.195"/><use xlink:href="#p" x="41.243"/><use xlink:href="#g" x="46.471"/><use xlink:href="#U" x="56.984"/><use xlink:href="#i" x="65.38"/><use xlink:href="#w" x="74.428"/><use xlink:href="#V" x="83.734"/><use xlink:href="#W" x="91.159"/><use xlink:href="#g" x="103.118"/><use xlink:href="#s" x="113.632"/><use xlink:href="#X" x="134.224"/><use xlink:href="#l" x="147.312"/><use xlink:href="#e" x="158.044"/><use xlink:href="#m" x="163.409"/><use xlink:href="#Y" x="169.666"/><use xlink:href="#m" x="178.715"/><use xlink:href="#h" x="184.972"/><use xlink:href="#o" x="192.694"/><use xlink:href="#b" x="202.97"/><use xlink:href="#f" x="210.177"/><use xlink:href="#Z" x="220.156"/><use xlink:href="#p" x="229.918"/><use xlink:href="#c" x="235.145"/><use xlink:href="#s" x="243.995"/><use xlink:href="#n" x="264.587"/><use xlink:href="#c" x="274.606"/><use xlink:href="#b" x="283.457"/><use xlink:href="#a" x="295.772"/><use xlink:href="#k" x="306.722"/><use xlink:href="#y" x="317.374"/><use xlink:href="#h" x="327.571"/><use xlink:href="#e" x="335.293"/><use xlink:href="#z" x="340.659"/><use xlink:href="#w" x="350.797"/><use xlink:href="#aa" x="352.737"/><use xlink:href="#e" x="365.112"/><use xlink:href="#l" x="370.478"/></g><g class="typst-text" transform="matrix(1 0 0 -1 78.694 266.18)"><use xlink:href="#ab"/><use xlink:href="#ac" x="8.989"/><use xlink:href="#ad" x="14.454"/><use xlink:href="#ae" x="20.533"/><use xlink:href="#af" x="29.165"/><use xlink:href="#ag" x="39.481"/><use xlink:href="#ah" x="49.738"/><use xlink:href="#ai" x="59.182"/><use xlink:href="#aj" x="66.172"/><use xlink:href="#ak" x="75.834"/><use xlink:href="#al" x="83.774"/><use xlink:href="#ac" x="90.842"/><use xlink:href="#am" x="96.307"/><use xlink:href="#an" x="104.009"/><use xlink:href="#ad" x="114.286"/><use xlink:href="#ak" x="120.364"/><use xlink:href="#ao" x="133.254"/><use xlink:href="#ak" x="142.936"/><use xlink:href="#al" x="150.876"/><use xlink:href="#ap" x="162.895"/><use xlink:href="#aq" x="175.507"/><use xlink:href="#ag" x="184.358"/><use xlink:href="#ac" x="194.614"/><use xlink:href="#ah" x="200.079"/><use xlink:href="#ar" x="209.524"/><use xlink:href="#ac" x="214.79"/><use xlink:href="#am" x="220.255"/><use xlink:href="#an" x="227.957"/><use xlink:href="#as" x="243.184"/><use xlink:href="#al" x="253.064"/><use xlink:href="#ak" x="259.974"/><use xlink:href="#af" x="267.914"/><use xlink:href="#at" x="278.23"/><use xlink:href="#ac" x="288.981"/><use xlink:href="#ai" x="294.446"/><use xlink:href="#am" x="301.435"/><use xlink:href="#an" x="309.137"/><use xlink:href="#ak" x="319.414"/><use xlink:href="#ag" x="327.353"/></g><g class="typst-text" transform="matrix(1 0 0 -1 78.694 292.079)"><use xlink:href="#au"/><use xlink:href="#av" x="13.207"/><use xlink:href="#aw" x="22.829"/><use xlink:href="#ao" x="32.452"/><use xlink:href="#ak" x="42.134"/><use xlink:href="#ax" x="50.074"/><use xlink:href="#ac" x="65.578"/><use xlink:href="#ak" x="71.042"/><use xlink:href="#ao" x="83.932"/><use xlink:href="#ak" x="93.614"/><use xlink:href="#al" x="101.554"/><use xlink:href="#ay" x="113.573"/><use xlink:href="#ac" x="131.571"/><use xlink:href="#ai" x="137.036"/><use xlink:href="#ai" x="144.025"/><use xlink:href="#ak" x="151.015"/><use xlink:href="#ag" x="158.954"/><use xlink:href="#ai" x="169.211"/><use xlink:href="#am" x="176.2"/><use xlink:href="#an" x="183.902"/><use xlink:href="#aw" x="194.179"/><use xlink:href="#az" x="203.801"/><use xlink:href="#ak" x="215.899"/><use xlink:href="#ag" x="223.839"/></g><g class="typst-text" transform="matrix(1 0 0 -1 312.79 292.079)"><use xlink:href="#w"/><use xlink:href="#aA" x="9.306"/><use xlink:href="#c" x="20.948"/><use xlink:href="#b" x="29.799"/><use xlink:href="#p" x="37.165"/><use xlink:href="#e" x="42.392"/><use xlink:href="#l" x="47.758"/><use xlink:href="#aB" x="58.489"/><use xlink:href="#aC" x="68.112"/><use xlink:href="#c" x="79.438"/><use xlink:href="#b" x="88.288"/><use xlink:href="#p" x="95.654"/><use xlink:href="#i" x="100.881"/><use xlink:href="#q" x="109.93"/><use xlink:href="#n" x="124.78"/><use xlink:href="#c" x="134.798"/><use xlink:href="#b" x="143.649"/></g><g class="typst-text" transform="matrix(1 0 0 -1 78.694 317.977)"><use xlink:href="#D"/><use xlink:href="#z" x="13.761"/><use xlink:href="#i" x="23.899"/><use xlink:href="#n" x="32.947"/><use xlink:href="#c" x="42.966"/><use xlink:href="#s" x="51.817"/><use xlink:href="#e" x="67.459"/><use xlink:href="#c" x="72.824"/><use xlink:href="#n" x="86.625"/><use xlink:href="#c" x="96.644"/><use xlink:href="#b" x="105.494"/><use xlink:href="#aD" x="117.81"/><use xlink:href="#e" x="136.64"/><use xlink:href="#h" x="142.006"/><use xlink:href="#h" x="149.728"/><use xlink:href="#c" x="157.45"/><use xlink:href="#l" x="166.3"/><use xlink:href="#h" x="177.032"/><use xlink:href="#j" x="184.754"/><use xlink:href="#k" x="193.228"/><use xlink:href="#i" x="203.881"/><use xlink:href="#aE" x="212.929"/><use xlink:href="#c" x="224.73"/><use xlink:href="#l" x="233.581"/><use xlink:href="#w" x="244.312"/><use xlink:href="#u" x="258.568"/><use xlink:href="#aF" x="267.775"/><use xlink:href="#aG" x="276.982"/><use xlink:href="#u" x="286.189"/><use xlink:href="#w" x="295.396"/><use xlink:href="#o" x="304.702"/><use xlink:href="#o" x="314.978"/><use xlink:href="#A" x="325.057"/><use xlink:href="#aF" x="334.363"/><use xlink:href="#aH" x="343.57"/><use xlink:href="#aH" x="352.777"/><use xlink:href="#aI" x="361.984"/></g><g class="typst-text" transform="matrix(1 0 0 -1 78.694 343.876)"><use xlink:href="#aF"/><use xlink:href="#aJ" x="9.207"/><use xlink:href="#aG" x="18.414"/><use xlink:href="#A" x="27.621"/><use xlink:href="#D" x="36.927"/><use xlink:href="#j" x="50.45"/><use xlink:href="#j" x="58.925"/><use xlink:href="#c" x="67.399"/><use xlink:href="#h" x="76.25"/><use xlink:href="#h" x="83.972"/><use xlink:href="#c" x="91.694"/><use xlink:href="#n" x="100.683"/><use xlink:href="#aB" x="110.702"/><use xlink:href="#aK" x="120.325"/><use xlink:href="#g" x="126.7"/><use xlink:href="#l" x="137.214"/><use xlink:href="#A" x="147.946"/><use xlink:href="#aL" x="157.252"/><use xlink:href="#aF" x="166.459"/><use xlink:href="#w" x="175.666"/><use xlink:href="#aG" x="184.972"/><use xlink:href="#aL" x="194.179"/><use xlink:href="#aG" x="203.386"/><use xlink:href="#aM" x="212.593"/><use xlink:href="#A" x="221.8"/><use xlink:href="#t" x="231.106"/><use xlink:href="#aN" x="237.956"/><use xlink:href="#l" x="251.856"/><use xlink:href="#p" x="262.588"/><use xlink:href="#e" x="267.815"/><use xlink:href="#l" x="273.181"/><use xlink:href="#c" x="283.912"/><use xlink:href="#v" x="292.763"/><use xlink:href="#A" x="299.812"/><use xlink:href="#D" x="314.068"/><use xlink:href="#d" x="326.542"/><use xlink:href="#i" x="336.382"/><use xlink:href="#e" x="345.431"/><use xlink:href="#p" x="350.797"/><use xlink:href="#i" x="356.024"/><use xlink:href="#Z" x="365.072"/><use xlink:href="#p" x="374.834"/><use xlink:href="#c" x="380.061"/><use xlink:href="#aB" x="388.912"/></g><g class="typst-text" transform="matrix(1 0 0 -1 78.694 369.774)"><use xlink:href="#k"/><use xlink:href="#m" x="10.652"/><use xlink:href="#m" x="16.909"/><use xlink:href="#o" x="23.166"/><use xlink:href="#h" x="33.442"/><use xlink:href="#aB" x="41.164"/><use xlink:href="#aO" x="45.837"/><use xlink:href="#aO" x="52.232"/><use xlink:href="#g" x="58.628"/><use xlink:href="#e" x="69.142"/><use xlink:href="#A" x="74.507"/><use xlink:href="#i" x="78.863"/><use xlink:href="#n" x="87.912"/><use xlink:href="#h" x="97.931"/><use xlink:href="#i" x="105.653"/><use xlink:href="#Z" x="114.701"/><use xlink:href="#h" x="124.463"/><use xlink:href="#A" x="132.185"/><use xlink:href="#k" x="136.541"/><use xlink:href="#i" x="147.193"/><use xlink:href="#b" x="156.242"/><use xlink:href="#d" x="163.904"/><use xlink:href="#i" x="173.745"/><use xlink:href="#b" x="182.794"/><use xlink:href="#n" x="190.001"/><use xlink:href="#A" x="200.02"/><use xlink:href="#c" x="204.376"/><use xlink:href="#n" x="213.365"/><use xlink:href="#g" x="223.384"/><use xlink:href="#aO" x="233.897"/><use xlink:href="#i" x="240.293"/><use xlink:href="#Z" x="249.341"/><use xlink:href="#h" x="259.103"/><use xlink:href="#aO" x="266.825"/><use xlink:href="#u" x="273.22"/><use xlink:href="#aF" x="282.427"/><use xlink:href="#aG" x="291.634"/><use xlink:href="#u" x="300.841"/><use xlink:href="#aP" x="310.048"/><use xlink:href="#a" x="319.651"/><use xlink:href="#D" x="329.195"/><use xlink:href="#aD" x="340.738"/><use xlink:href="#A" x="357.826"/><use xlink:href="#A" x="362.182"/><use xlink:href="#A" x="366.538"/><use xlink:href="#A" x="370.894"/><use xlink:href="#A" x="375.25"/><use xlink:href="#A" x="379.606"/><use xlink:href="#A" x="383.962"/></g><g class="typst-text" transform="matrix(1 0 0 -1 78.694 395.672)"><use xlink:href="#aF"/><use xlink:href="#aH" x="9.207"/><use xlink:href="#aH" x="18.414"/><use xlink:href="#T" x="27.621"/><use xlink:href="#aO" x="40.234"/><use xlink:href="#i" x="46.629"/><use xlink:href="#Z" x="55.678"/><use xlink:href="#h" x="65.439"/><use xlink:href="#m" x="73.161"/><use xlink:href="#b" x="79.418"/><use xlink:href="#i" x="86.783"/><use xlink:href="#j" x="95.832"/><use xlink:href="#m" x="104.306"/></g></g><g class="typst-text" transform="matrix(1 0 0 -1 42.52 432.46)"><use xlink:href="#t"/><use xlink:href="#aG" x="7.049"/><use xlink:href="#v" x="16.256"/></g><g class="typst-group"><g class="typst-text" transform="matrix(1 0 0 -1 78.694 432.46)"><use xlink:href="#aK"/><use xlink:href="#A" x="6.376"/><use xlink:href="#aQ" x="15.682"/><use xlink:href="#A" x="28.472"/><use xlink:href="#aR" x="37.778"/><use xlink:href="#e" x="49.401"/><use xlink:href="#j" x="54.767"/><use xlink:href="#z" x="63.241"/><use xlink:href="#p" x="73.379"/><use xlink:href="#e" x="78.606"/><use xlink:href="#l" x="83.972"/><use xlink:href="#w" x="94.703"/><use xlink:href="#aP" x="104.009"/><use xlink:href="#A" x="113.612"/><use xlink:href="#F" x="122.918"/><use xlink:href="#A" x="139.531"/><use xlink:href="#aS" x="148.837"/><use xlink:href="#i" x="163.291"/><use xlink:href="#s" x="172.339"/><use xlink:href="#s" x="187.981"/><use xlink:href="#c" x="203.623"/><use xlink:href="#p" x="212.474"/><use xlink:href="#w" x="217.701"/><use xlink:href="#B" x="227.007"/><use xlink:href="#A" x="236.135"/><use xlink:href="#aT" x="245.441"/><use xlink:href="#A" x="258.746"/><use xlink:href="#aU" x="268.052"/><use xlink:href="#i" x="279.081"/><use xlink:href="#m" x="288.13"/><use xlink:href="#f" x="294.386"/><use xlink:href="#l" x="304.366"/><use xlink:href="#w" x="315.097"/><use xlink:href="#i" x="324.403"/><use xlink:href="#l" x="333.452"/><use xlink:href="#n" x="344.183"/><use xlink:href="#aP" x="359.152"/><use xlink:href="#A" x="368.755"/><use xlink:href="#aV" x="378.061"/><use xlink:href="#A" x="388.516"/></g><g class="typst-text" transform="matrix(1 0 0 -1 78.694 458.36)"><use xlink:href="#aV"/><use xlink:href="#i" x="10.454"/><use xlink:href="#j" x="19.503"/><use xlink:href="#k" x="27.977"/><use xlink:href="#e" x="38.63"/><use xlink:href="#l" x="43.996"/><use xlink:href="#f" x="54.727"/><use xlink:href="#d" x="64.568"/><use xlink:href="#i" x="74.408"/><use xlink:href="#w" x="83.457"/><use xlink:href="#V" x="92.763"/><use xlink:href="#D" x="99.218"/><use xlink:href="#m" x="112.979"/><use xlink:href="#s" x="119.236"/><use xlink:href="#f" x="134.878"/><use xlink:href="#h" x="144.857"/><use xlink:href="#o" x="152.579"/><use xlink:href="#k" x="162.855"/><use xlink:href="#c" x="173.507"/><use xlink:href="#b" x="182.358"/><use xlink:href="#e" x="189.724"/><use xlink:href="#j" x="195.089"/><use xlink:href="#j" x="208.514"/><use xlink:href="#k" x="216.988"/><use xlink:href="#i" x="227.641"/><use xlink:href="#l" x="236.689"/><use xlink:href="#l" x="247.421"/><use xlink:href="#c" x="258.152"/><use xlink:href="#p" x="267.003"/><use xlink:href="#c" x="277.18"/><use xlink:href="#aW" x="286.031"/><use xlink:href="#c" x="297.554"/><use xlink:href="#j" x="306.544"/><use xlink:href="#m" x="315.018"/><use xlink:href="#h" x="321.275"/><use xlink:href="#f" x="333.947"/><use xlink:href="#l" x="343.926"/></g><g class="typst-text" transform="matrix(1 0 0 -1 78.694 484.258)"><use xlink:href="#C"/><use xlink:href="#b" x="6.138"/><use xlink:href="#c" x="13.345"/><use xlink:href="#c" x="22.334"/><use xlink:href="#E" x="31.185"/><use xlink:href="#h" x="37.877"/><use xlink:href="#o" x="45.599"/><use xlink:href="#i" x="55.876"/><use xlink:href="#j" x="64.924"/><use xlink:href="#c" x="73.399"/><use xlink:href="#p" x="87.199"/><use xlink:href="#i" x="92.426"/><use xlink:href="#h" x="101.475"/><use xlink:href="#c" x="109.197"/><use xlink:href="#b" x="118.048"/><use xlink:href="#j" x="130.363"/><use xlink:href="#f" x="138.838"/><use xlink:href="#s" x="148.817"/><use xlink:href="#s" x="164.459"/><use xlink:href="#g" x="180.101"/><use xlink:href="#l" x="190.615"/><use xlink:href="#e" x="201.346"/><use xlink:href="#j" x="206.712"/><use xlink:href="#i" x="215.186"/><use xlink:href="#m" x="224.235"/><use xlink:href="#e" x="230.492"/><use xlink:href="#f" x="235.858"/><use xlink:href="#l" x="245.837"/><use xlink:href="#w" x="256.568"/><use xlink:href="#aa" x="258.509"/></g><g class="typst-text" transform="matrix(1 0 0 -1 349.578 484.258)"><use xlink:href="#aX"/><use xlink:href="#al" x="9.049"/><use xlink:href="#ak" x="15.959"/><use xlink:href="#ak" x="24.037"/><use xlink:href="#aY" x="31.977"/><use xlink:href="#ab" x="38.57"/><use xlink:href="#aZ" x="47.56"/><use xlink:href="#aw" x="57.242"/><use xlink:href="#am" x="66.865"/><use xlink:href="#ak" x="74.567"/></g><g class="typst-text" transform="matrix(1 0 0 -1 78.694 510.156)"><use xlink:href="#ba"/><use xlink:href="#aw" x="10.276"/><use xlink:href="#ai" x="19.899"/><use xlink:href="#ak" x="26.888"/><use xlink:href="#al" x="34.828"/><use xlink:href="#bb" x="46.847"/><use xlink:href="#bc" x="59.044"/><use xlink:href="#ax" x="67.894"/><use xlink:href="#ax" x="83.398"/><use xlink:href="#af" x="98.901"/><use xlink:href="#ag" x="109.217"/><use xlink:href="#ac" x="119.473"/><use xlink:href="#am" x="124.938"/><use xlink:href="#aw" x="132.64"/><use xlink:href="#ad" x="142.263"/><use xlink:href="#ac" x="148.342"/><use xlink:href="#bc" x="153.806"/><use xlink:href="#ag" x="162.657"/><use xlink:href="#ai" x="172.913"/><use xlink:href="#bd" x="179.903"/><use xlink:href="#as" x="189.189"/><use xlink:href="#al" x="199.069"/><use xlink:href="#ac" x="206.138"/><use xlink:href="#ag" x="211.603"/><use xlink:href="#am" x="221.859"/><use xlink:href="#ac" x="229.561"/><use xlink:href="#aZ" x="235.026"/><use xlink:href="#ar" x="244.708"/><use xlink:href="#ak" x="249.975"/><use xlink:href="#ai" x="257.915"/><use xlink:href="#aw" x="269.854"/><use xlink:href="#ag" x="279.477"/><use xlink:href="#ao" x="289.733"/><use xlink:href="#au" x="304.366"/><use xlink:href="#ao" x="317.335"/><use xlink:href="#be" x="327.017"/><use xlink:href="#aw" x="336.362"/><use xlink:href="#ag" x="345.985"/><use xlink:href="#am" x="356.242"/><use xlink:href="#ak" x="363.944"/><use xlink:href="#ai" x="371.884"/></g><use xlink:href="#A" class="typst-text" transform="matrix(1 0 0 -1 457.567 510.156)"/><g class="typst-text" transform="matrix(1 0 0 -1 78.694 536.054)"><use xlink:href="#aP"/><use xlink:href="#o" x="9.603"/><use xlink:href="#b" x="19.879"/><use xlink:href="#e" x="27.245"/><use xlink:href="#l" x="32.611"/><use xlink:href="#q" x="43.342"/><use xlink:href="#c" x="53.242"/><use xlink:href="#b" x="62.093"/><use xlink:href="#w" x="68.29"/><use xlink:href="#bf" x="77.596"/><use xlink:href="#c" x="91.436"/><use xlink:href="#x" x="100.148"/><use xlink:href="#bg" x="119.889"/><use xlink:href="#f" x="129.868"/><use xlink:href="#b" x="139.847"/><use xlink:href="#z" x="147.213"/><use xlink:href="#w" x="157.351"/><use xlink:href="#bf" x="166.657"/><use xlink:href="#bg" x="180.972"/><use xlink:href="#w" x="191.486"/><use xlink:href="#o" x="200.792"/><use xlink:href="#o" x="211.068"/><use xlink:href="#A" x="221.146"/><use xlink:href="#aF" x="230.452"/><use xlink:href="#aI" x="239.659"/><use xlink:href="#aM" x="250.51"/><use xlink:href="#aH" x="259.717"/><use xlink:href="#w" x="268.924"/><use xlink:href="#aG" x="278.23"/><use xlink:href="#aL" x="287.437"/><use xlink:href="#aL" x="296.644"/><use xlink:href="#bh" x="305.851"/><use xlink:href="#A" x="315.058"/><use xlink:href="#n" x="324.364"/><use xlink:href="#f" x="334.382"/><use xlink:href="#e" x="344.362"/><use xlink:href="#aB" x="349.727"/></g><g class="typst-text" transform="matrix(1 0 0 -1 78.694 561.953)"><use xlink:href="#u"/><use xlink:href="#aL" x="9.207"/><use xlink:href="#A" x="18.414"/><use xlink:href="#u" x="22.77"/><use xlink:href="#aL" x="31.977"/><use xlink:href="#aL" x="41.184"/><use xlink:href="#aJ" x="50.391"/><use xlink:href="#aO" x="59.598"/><use xlink:href="#aF" x="65.993"/><use xlink:href="#aJ" x="75.2"/><use xlink:href="#bh" x="84.407"/><use xlink:href="#E" x="93.614"/><use xlink:href="#aL" x="100.307"/><use xlink:href="#E" x="109.514"/><use xlink:href="#bi" x="116.206"/><use xlink:href="#bh" x="125.413"/><use xlink:href="#aJ" x="134.62"/><use xlink:href="#E" x="143.827"/><use xlink:href="#aG" x="150.52"/><use xlink:href="#bh" x="159.727"/><use xlink:href="#aH" x="168.934"/><use xlink:href="#aJ" x="178.141"/><use xlink:href="#aJ" x="187.348"/><use xlink:href="#E" x="196.555"/><use xlink:href="#bh" x="203.247"/><use xlink:href="#bj" x="212.454"/><use xlink:href="#aG" x="222.077"/></g><use xlink:href="#A" class="typst-text" transform="matrix(1 0 0 -1 309.978 561.953)"/></g></g><defs><symbol id="a" overflow="visible"><path d="M2.06 10.355v-7.94C2.06.773 1.722.674.336.615.217.495.217.079.337-.04c.89.02 1.86.04 2.574.04.693 0 1.86-.02 2.85-.04.12.12.12.535 0 .654-1.544.079-2.019.158-2.019 1.802v3.366c.436-.139.911-.198 1.604-.198 3.604 0 4.693 2.356 4.693 4.039 0 1.168-.773 3.287-4.436 3.287-.752 0-1.92-.139-2.712-.139-.733 0-1.762.02-2.554.04-.12-.12-.12-.535 0-.654 1.386-.06 1.722-.158 1.722-1.802m1.682.614c0 .574.297 1.267 1.723 1.267 1.366 0 2.732-.455 2.732-2.97 0-2.138-1.03-3.01-2.95-3.01-.495 0-1.287.04-1.505.1Z"/></symbol><symbol id="b" overflow="visible"><path d="M3.485 7.088c-.04.792-.06 1.307-.159 1.505-.04.1-.079.159-.237.159-.555-.218-1.07-.396-2.436-.575-.04-.118 0-.435.04-.554 1.07-.099 1.287-.198 1.287-1.346V2.416C1.98.772 1.742.693.515.614.396.495.396.079.515-.04 1.208-.02 1.98 0 2.772 0s1.703-.02 2.396-.04c.119.12.119.535 0 .654-1.386.099-1.624.158-1.624 1.802v2.752c0 .515.238.97.475 1.326.218.317.674.97.911.97.178 0 .357-.039.515-.257.139-.198.376-.455.713-.455.475 0 .93.495.93.99 0 .376-.356.95-1.188.95-.93 0-1.742-.871-2.197-1.643-.12-.218-.218-.06-.218.04"/></symbol><symbol id="c" overflow="visible"><path d="M7.643 1.841C6.91 1.09 6.336.772 5.188.772c-.713 0-1.545.416-2.159 1.426-.396.653-.633 1.564-.633 2.712l5.267-.04c.237 0 .376.12.376.337 0 1.664-.594 3.446-3.346 3.446C2.97 8.653.733 7.009.733 4c0-1.11.277-2.178.93-2.93.673-.793 1.604-1.268 3.03-1.268 1.504 0 2.574.693 3.366 1.723-.06.198-.179.297-.416.316M2.455 5.584c.376 2.237 1.762 2.415 2.238 2.415.752 0 1.643-.416 1.643-2.079 0-.178-.08-.277-.297-.277Z"/></symbol><symbol id="d" overflow="visible"><path d="M6.435 7.88c1.07-.079 1.188-.316.772-1.326L5.603 2.673c-.316-.772-.415-.772-.732.06l-1.426 3.82c-.356.951-.435 1.189.614 1.327.119.12.119.535 0 .654a67 67 0 0 0-2-.04c-.653 0-1.247.02-1.841.04-.119-.119-.119-.535 0-.654 1.05-.118 1.188-.435 1.584-1.445L4.336.178c.119-.297.238-.416.495-.416.198 0 .337.12.475.456L7.94 6.415c.376.871.594 1.366 1.703 1.465.118.12.118.535 0 .654-.396-.02-.872-.04-1.386-.04-.654 0-1.327.02-1.822.04-.119-.119-.119-.535 0-.654"/></symbol><symbol id="e" overflow="visible"><path d="M3.584 2.416v3.94c0 .99.079 2.257.079 2.257 0 .08-.099.139-.257.139-.555-.218-1.347-.396-2.713-.575-.04-.118 0-.435.04-.554 1.089-.099 1.287-.218 1.287-1.346V2.416C2.02.772 1.802.713.594.614.475.495.475.079.594-.04 1.247-.02 2.02 0 2.812 0s1.544-.02 2.197-.04c.12.12.12.535 0 .654-1.207.079-1.425.158-1.425 1.802M1.782 11.86c0-.515.475-1.03.95-1.03.555 0 1.03.535 1.03.951 0 .475-.416 1.03-.95 1.03-.476 0-1.03-.476-1.03-.95"/></symbol><symbol id="f" overflow="visible"><path d="M.812 4.059c0-2.02 1.346-4.257 4.158-4.257 1.267 0 2.237.455 2.91 1.109.891.871 1.287 2.118 1.287 3.326 0 2.06-1.128 4.455-4.158 4.455-1.306 0-2.376-.534-3.108-1.386-.713-.851-1.09-2-1.09-3.247m3.9 3.94c1.703 0 2.753-1.544 2.753-4.395 0-2.495-1.287-3.109-2.218-3.109-2.06 0-2.732 2.495-2.732 4.02 0 1.722.415 3.484 2.197 3.484"/></symbol><symbol id="g" overflow="visible"><path d="M4.297-.198c.772 0 1.702.396 2.673 1.188.099.08.277.119.297-.02.059-.495.217-1.168.217-1.168a.5.5 0 0 1 .377 0c.435.356 1.128.653 2.336.792.119.119.119.416 0 .535-1.267.099-1.445.475-1.445 1.445v3.802c0 .594.079 2.039.079 2.039 0 .06-.06.119-.159.119a5 5 0 0 0-.693-.04c-.633 0-1.346.02-2.02.04-.118-.119-.118-.535 0-.654.971-.059 1.228-.297 1.228-1.603V2.455c0-.376-.04-.534-.316-.772-.733-.634-1.485-.95-1.98-.95-.594 0-1.584.277-1.584 2.039v3.604c0 .594.079 2.039.079 2.039 0 .06-.06.119-.159.119a5 5 0 0 0-.693-.04c-.633 0-1.346.02-2.02.04-.118-.119-.118-.535 0-.654.951-.079 1.228-.297 1.228-1.584V2.495c0-1.366.594-2.693 2.555-2.693"/></symbol><symbol id="h" overflow="visible"><path d="M.95 2.732c.08-.97.139-1.9.139-2.732.198.04.396.06.495.06.139 0 .257 0 .396-.04a6.8 6.8 0 0 1 1.802-.218c1.109 0 3.148.535 3.148 2.495 0 1.346-.97 2.138-2.317 2.633-1.188.456-1.98.753-1.98 1.842 0 .811.713 1.267 1.386 1.267.436 0 1.584-.159 1.842-1.842.119-.118.515-.099.633.02.06.713.1 1.446.12 2.099-.615.099-1.565.376-2.595.376-1.465 0-2.791-.95-2.791-2.217 0-1.446.653-2.06 2.178-2.693 1.643-.673 2.02-1.09 2.02-1.94 0-.97-.951-1.387-1.684-1.387-.772 0-1.208.258-1.406.476-.435.455-.653 1.326-.772 1.821-.119.119-.495.1-.614-.02"/></symbol><symbol id="i" overflow="visible"><path d="M5.801.95c.12-.613.337-1.148 1.327-1.148.752 0 1.465.337 1.881.733-.04.237-.119.415-.337.534C8.534.95 8.197.752 7.94.752c-.574 0-.594.773-.594 1.683v2.911c0 2.812-1.545 3.346-2.99 3.346-1.624 0-3.267-1.069-3.267-2.198 0-.475.238-.712.693-.712.574 0 .93.415.93.673a.9.9 0 0 1-.059.356c-.02.06-.04.178-.04.396 0 .614.832.832 1.585.832.673 0 1.603-.337 1.603-2.574 0-.139-.059-.218-.118-.238L3.98 4.811C2.079 4.336.713 3.287.713 1.941.713.316 1.822-.199 3.208-.199c.693 0 1.287.158 2.158.832l.396.316Zm0 3.663V2c0-.258-.118-.396-.277-.515C5.01 1.069 4.336.614 3.782.614c-.99 0-1.426.792-1.426 1.406 0 .89.416 1.801 1.881 2.178Z"/></symbol><symbol id="j" overflow="visible"><path d="M7.88 1.802c-.079.178-.237.257-.415.277C6.79 1.208 5.94.772 5.089.772c-1.446 0-2.654 1.465-2.654 3.782 0 2.178.95 3.485 2.258 3.485 1.168 0 1.326-.693 1.405-1.386.06-.535.337-.713.753-.713s.97.257.97.871c0 1.09-1.129 1.881-3.03 1.881-1.96 0-4.058-1.762-4.058-4.574 0-2.554 1.425-4.316 3.92-4.316 1.188 0 2.237.376 3.227 2"/></symbol><symbol id="k" overflow="visible"><path d="M3.307 5.663c0 .416.178.653.336.831.753.733 1.762 1.169 2.535 1.169.396 0 .811-.258 1.049-.713.198-.396.238-.93.238-1.525v-3.01C7.465.793 7.267.714 6.237.615c-.099-.119-.099-.535 0-.654.554.02 1.228.04 2.02.04s1.445-.02 2.098-.04c.1.12.1.535 0 .654C9.247.713 9.03.792 9.03 2.416v2.95c0 1.089-.08 2.059-.535 2.653-.336.436-.95.673-1.643.673-.97 0-2.158-.257-3.366-1.604 0-.02-.02-.02-.04-.04-.06-.078-.158-.197-.158.04l.02 4.455c0 1.287.079 2.08.079 2.08 0 .138-.08.197-.258.197-.495-.198-1.98-.475-2.772-.534-.04-.159 0-.475.12-.594h.177c.872-.06 1.09-.06 1.09-1.624V2.416C1.742.772 1.504.693.355.614.238.495.238.079.356-.04 1.01-.02 1.742 0 2.534 0c.753 0 1.406-.02 1.96-.04.12.12.12.535 0 .654-1.01.079-1.187.158-1.187 1.802Z"/></symbol><symbol id="l" overflow="visible"><path d="M3.643 7.088c-.119-.138-.237-.178-.237 0-.02.535-.06 1.307-.159 1.505-.04.1-.079.159-.237.159-.555-.218-1.07-.396-2.436-.575-.04-.118 0-.435.04-.554C1.683 7.524 1.9 7.425 1.9 6.277V2.416C1.9.792 1.703.713.515.614.396.495.396.079.515-.04a54.73 54.73 0 0 0 4.158 0c.119.12.119.535 0 .654-1.01.099-1.208.178-1.208 1.802v3.247c0 .416.178.653.337.831.752.733 1.643 1.169 2.415 1.169.396 0 .812-.258 1.05-.713.198-.396.237-.93.237-1.525v-3.01C7.504.793 7.306.714 6.277.615c-.1-.119-.1-.535 0-.654.594.02 1.227.04 2.02.04.791 0 1.504-.02 2.098-.04.099.12.099.535 0 .654-1.109.099-1.327.178-1.327 1.802v2.95c0 1.089-.079 2.04-.534 2.653-.337.436-.95.673-1.644.673-.97 0-2.079-.257-3.247-1.604"/></symbol><symbol id="m" overflow="visible"><path d="M.851 8.494c-.277 0-.356-.237-.356-.396v-.257c0-.1.02-.119.099-.119h1.168v-5.96c0-1.406.614-1.96 1.525-1.96s1.9.436 2.673 1.307c-.04.198-.159.317-.357.336A2.68 2.68 0 0 0 3.98.891c-.535 0-.654.594-.654 1.822v5.009h2.06c.198 0 .475.08.475.257v.396c0 .08-.06.12-.159.12H3.326v.771c0 1.287.08 2.08.08 2.08 0 .118-.06.178-.159.178-.079 0-.257-.08-.435-.179a2.5 2.5 0 0 0-.674-.277c-.237-.079-.435-.138-.435-.277 0-.238.06-.099.06-2.297Z"/></symbol><symbol id="n" overflow="visible"><path d="M6.613.99c.1.08.277.119.297-.02.06-.475.218-1.168.218-1.168a.5.5 0 0 1 .376 0c.436.356 1.129.653 2.337.792.118.119.118.416 0 .535-1.268.099-1.446.475-1.446 1.445v8.97c0 1.286.08 2.078.08 2.078 0 .139-.08.198-.258.198-.495-.198-1.98-.475-2.772-.534-.04-.159 0-.475.119-.594h.178c.871-.06 1.089-.06 1.089-1.624V8.534c0-.139-.04-.178-.178-.178-.08 0-.891.336-1.545.336-1.306 0-2.178-.435-2.97-1.188C1.287 6.653.772 5.484.772 4.02.772 1.584 2-.198 4.138-.198c.772 0 1.505.396 2.475 1.188m.218 1.465c0-.376-.04-.534-.317-.772-.732-.634-1.366-.95-1.861-.95-1.07 0-2.178 1.168-2.178 3.643 0 1.425.277 2.217.574 2.633.614.93 1.446.99 1.842.99.712 0 1.207-.257 1.603-.713.278-.316.337-.455.337-1.069Z"/></symbol><symbol id="o" overflow="visible"><path d="M3.089 7.286c-.02.594-.06 1.11-.159 1.307-.04.1-.079.159-.237.159-.555-.218-1.07-.396-2.436-.575-.04-.118 0-.435.04-.554 1.07-.099 1.287-.198 1.287-1.346v-8.455c0-1.643-.218-1.742-1.426-1.802-.118-.119-.118-.534 0-.653.693.02 1.426.04 2.218.04s1.742-.02 2.396-.04c.119.119.119.534 0 .653-1.406.08-1.624.159-1.624 1.802V-.04c0 .258.08.238.277.159a4.7 4.7 0 0 1 1.723-.317c1.109 0 2.099.337 2.91 1.109.931.91 1.466 2.138 1.466 3.742 0 2.099-1.485 4.04-3.505 4.04-.91 0-1.92-.595-2.712-1.486-.12-.119-.198-.119-.218.08m.376-.732c.515.633 1.426 1.227 2 1.227 1.267 0 2.356-1.425 2.356-3.663 0-1.623-.574-3.643-2.792-3.643-.356 0-1.05.1-1.406.416-.396.356-.475.475-.475 1.188v3.604c0 .415.08.594.317.87"/></symbol><symbol id="p" overflow="visible"><path d="M1.881 2.416C1.881.772 1.663.673.455.614.337.495.337.079.455-.04c.693.02 1.426.04 2.218.04s1.544-.02 2.198-.04c.119.12.119.535 0 .654-1.208.06-1.426.158-1.426 1.802v9.127c0 1.287.08 2.08.08 2.08 0 .138-.08.197-.258.197-.495-.198-1.98-.475-2.772-.534-.04-.159 0-.475.119-.594 1.148-.08 1.267-.139 1.267-1.624Z"/></symbol><symbol id="q" overflow="visible"><path d="M8.791 7.663c.376 0 .733.356.733.752 0 .416-.376.733-.911.733-.515 0-1.465-.337-1.98-1.01-.238.158-.891.554-2.06.554-1.761 0-3.385-1.188-3.385-3.01 0-1.069.475-1.682 1.03-2.217-.555-.475-.872-1.327-.872-2 0-.713.396-1.267.911-1.524C1.188-.693.634-1.604.634-2.455c0-1.723 1.623-2.257 3.148-2.257 2.673 0 5.564 1.287 5.564 3.425 0 .634-.297 1.129-.872 1.604C7.702.95 6.316.97 5.584.97c-.357 0-.852-.04-1.327-.099-.297-.02-.495-.04-.594-.04-.574 0-1.267.278-1.267 1.13 0 .395.119.811.356 1.148.475-.278 1.03-.416 1.802-.416 1.742 0 3.346 1.089 3.346 3.03 0 .93-.277 1.464-.851 2.058.138.198.534.476.792.476.138 0 .277-.06.396-.238.079-.158.336-.356.554-.356M2.614-.198c.217-.06.534-.099.792-.099.613 0 1.168.06 1.445.06.99 0 1.822-.02 2.396-.337.772-.436 1.01-.713 1.01-1.228 0-1.425-2.1-2.178-3.881-2.178C3.663-3.98 2-3.406 2-2.06c0 .674.04 1.169.614 1.862m3.702 5.722c0-1.841-.93-2.217-1.663-2.217-1.663 0-1.841 1.405-1.841 2.673 0 1.386.495 2.098 1.584 2.098 1.247 0 1.92-.91 1.92-2.554"/></symbol><symbol id="r" overflow="visible"><path d="M9.306 2.416v4.177c0 .773.08 2.04.08 2.04 0 .079-.12.119-.199.119-.594-.238-1.168-.258-1.861-.258h-3.9v1.129c0 1.88.673 3.524 2.019 3.524.851 0 1.525-.218 1.683-1.03.198-.99.614-1.286 1.228-1.286.435 0 .851.396.851.811 0 1.228-1.683 2.178-3.524 2.178-.911 0-2-.356-2.812-1.306-.832-.97-1.01-2.178-1.01-3.723v-.297h-.97c-.356 0-.455-.237-.455-.396v-.257c0-.1.02-.119.099-.119H1.86V2.416C1.861.772 1.643.693.574.614.455.495.455.079.574-.04c.673.02 1.386.04 2.08.04.692 0 1.583-.02 2.237-.04.118.12.118.535 0 .654-1.268.079-1.466.158-1.466 1.802v5.306H6.97c.613 0 .772-.396.772-1.406v-3.9C7.742.772 7.504.693 6.415.614c-.119-.119-.119-.535 0-.654.693.02 1.406.04 2.119.04.693 0 1.465-.02 2.198-.04.118.12.118.535 0 .654-1.208.079-1.426.158-1.426 1.802"/></symbol><symbol id="s" overflow="visible"><path d="M3.366 7.088c-.02.594-.06 1.307-.158 1.505-.04.1-.08.159-.238.159-.554-.218-1.07-.396-2.435-.575-.04-.118 0-.435.04-.554 1.068-.099 1.286-.198 1.286-1.346V2.416C1.861.792 1.604.693.515.614.396.495.396.079.515-.04 1.109-.02 1.86 0 2.653 0s1.406-.02 2-.04c.119.12.119.535 0 .654-1.01.099-1.228.178-1.228 1.802v3.247c0 .416.179.653.337.831.792.773 1.525 1.169 2.138 1.169.753 0 1.307-.476 1.307-1.802V2.416C7.207.792 7.05.693 5.98.614c-.1-.119-.1-.535 0-.654a47.928 47.928 0 0 0 3.96 0c.099.12.099.535 0 .654C8.95.693 8.77.792 8.77 2.416v3.148c0 .277 0 .554-.02.792.951 1.05 1.842 1.307 2.614 1.307.753 0 1.188-.436 1.188-1.763V2.416c0-1.624-.198-1.723-1.227-1.802-.1-.119-.1-.535 0-.654a53 53 0 0 0 4.059 0c.099.12.099.535 0 .654-1.09.079-1.268.178-1.268 1.802v3.128c0 1.762-.297 3.148-2.039 3.148-1.01 0-2.237-.376-3.267-1.465-.06-.06-.178-.158-.218.02-.178.812-.95 1.445-1.98 1.445-1.148 0-2.178-.673-3.01-1.604-.098-.099-.217-.237-.237 0"/></symbol><symbol id="t" overflow="visible"><path d="M2.138-3.821h4.198c.119.118.119.475 0 .594-2.732.217-2.871.514-2.871 2.237v12.098c0 1.722.158 2.02 2.871 2.217.119.12.119.476 0 .594H2.138Z"/></symbol><symbol id="u" overflow="visible"><path d="M5.702 2.416v6.87c0 1.188.02 2.396.06 2.653 0 .1-.04.1-.119.1-1.089-.674-2.138-1.169-3.88-1.98.039-.218.118-.416.296-.535.911.376 1.347.495 1.723.495.336 0 .396-.475.396-1.149V2.416c0-1.644-.535-1.743-1.92-1.802-.12-.119-.12-.535 0-.654.97.02 1.682.04 2.751.04.95 0 1.426-.02 2.416-.04.119.12.119.535 0 .654-1.386.06-1.723.158-1.723 1.802"/></symbol><symbol id="v" overflow="visible"><path d="M4.91 13.94H.713c-.119-.12-.119-.476 0-.595 2.732-.218 2.87-.515 2.87-2.237V-.99c0-1.723-.158-2.02-2.87-2.218-.119-.118-.119-.475 0-.594H4.91Z"/></symbol><symbol id="w" overflow="visible"><path d="M2.06 1.881c-.615 0-1.05-.416-1.05-.97 0-.614.515-.812.871-.871.376-.04.713-.159.713-.614 0-.416-.713-1.327-1.743-1.584 0-.198.04-.337.179-.475 1.188.217 2.336 1.168 2.336 2.554 0 1.188-.515 1.96-1.307 1.96"/></symbol><symbol id="x" overflow="visible"><path d="M4.02 7.88c.118.12.118.535 0 .654-.595-.02-1.288-.04-2-.04-.753 0-1.287.02-1.802.04-.119-.119-.119-.535 0-.654.93-.099 1.148-.297 1.564-1.326L4.376.158c.119-.277.277-.396.475-.396.178 0 .337.12.475.436l2 4.87 2.04-4.91c.118-.277.277-.396.475-.396.178 0 .336.12.455.416l2.594 6.277c.317.812.653 1.366 1.663 1.425.119.12.119.535 0 .654-.396-.02-.832-.04-1.426-.04s-1.425.02-2.02.04c-.118-.119-.118-.535 0-.654 1.486-.079 1.288-.653 1.01-1.346l-1.663-4.118c-.198-.495-.277-.495-.435-.08L8.316 6.673c-.376.93-.337 1.128.713 1.207.119.12.119.535 0 .654-.594-.02-1.386-.04-1.98-.04-.495 0-1.149.02-1.743.04-.118-.119-.118-.535 0-.654.931-.079 1.169-.653 1.525-1.544l.119-.317-1.386-3.504c-.258-.654-.297-.674-.555-.04L3.425 6.554c-.376.95-.356 1.267.594 1.326"/></symbol><symbol id="y" overflow="visible"><path d="M4.04-3.168c.316.554.573 1.109.811 1.703 1.584 3.821 2.475 5.86 3.505 8.078.396.832.673 1.149 1.603 1.267.12.12.12.535 0 .654-.396-.02-.851-.04-1.405-.04-.594 0-1.208.02-1.802.04-.119-.119-.119-.535 0-.654.633-.059 1.267-.178.95-.89l-1.96-4.535c-.139-.317-.317-.376-.475.02L3.505 6.593c-.357.832-.456 1.208.653 1.287.119.12.119.535 0 .654-.733-.02-1.525-.04-2.237-.04-.674 0-1.208.02-1.604.04-.119-.119-.119-.535 0-.654.792-.099 1.05-.277 1.564-1.485l2.237-5.207c.179-.396.476-1.307.278-1.861a19 19 0 0 0-.773-1.822c-.217-.396-.495-.574-.99-.574-.277 0-.356.06-.574.06-.574 0-.871-.595-.871-.852 0-.416.396-.733.93-.733.416 0 1.208.159 1.921 1.426"/></symbol><symbol id="z" overflow="visible"><path d="M1.703 2.416C1.703.772 1.485.693.376.614.257.495.257.079.376-.04A67 67 0 0 0 2.495 0c.693 0 1.346-.02 1.802-.04.118.12.118.535 0 .654-.812.079-1.03.158-1.03 1.802v1.722c.376-.02.653-.04.851-.099.218-.158.396-.336.634-.653l1.445-1.94C6.772.672 7.01.296 7.03.058c0-.059.02-.099.08-.099.395.02.83.04 1.227.04.614 0 1.227-.02 1.623-.04.12.12.12.535 0 .654-.673.079-1.168.158-1.702.831L5.643 4.732c-.08.1-.139.178-.139.277 0 .08 0 .12.08.198L7.326 7.01c.594.634 1.287.792 2.079.871.119.12.119.535 0 .654-.455-.02-1.01-.04-1.723-.04-.752 0-1.485.02-1.94.04-.119-.119-.119-.535 0-.654 1.109-.079.634-.772.455-1.01-.455-.574-1.069-1.247-1.584-1.623-.435-.317-.97-.554-1.346-.614v6.91c0 1.287.08 2.08.08 2.08 0 .138-.08.197-.258.197-.495-.198-1.98-.475-2.772-.534-.04-.159 0-.475.119-.594h.178c.871-.06 1.089-.06 1.089-1.624Z"/></symbol><symbol id="A" overflow="visible"><path d="M1.129.851c0-.574.475-1.049 1.049-1.049s1.05.475 1.05 1.05c0 .574-.476 1.049-1.05 1.049s-1.05-.475-1.05-1.05"/></symbol><symbol id="B" overflow="visible"><path d="M5.603 6.395c1.683 0 1.743-.455 1.802-1.346.119-.119.535-.119.654 0-.02.495-.04 1.07-.04 1.742 0 .674.02 1.188.04 1.703-.12.119-.535.119-.654 0-.06-1.089-.119-1.346-1.802-1.346H3.762v3.564c0 1.069.238 1.267 1.109 1.267h.89c2.1 0 2.595-.792 3.03-2.158.238 0 .456.04.614.099-.099.812-.396 2.712-.436 2.87 0 .04-.02.06-.079.06-.336-.06-.435-.079-.93-.079H2.91c-.633 0-1.762.02-2.554.04-.118-.12-.118-.535 0-.654 1.386-.06 1.723-.158 1.723-1.802v-7.94C2.079.773 1.742.674.356.615.238.495.238.079.356-.04 1.05-.02 2.04 0 2.93 0s1.862-.02 2.555-.04c.118.12.118.535 0 .654-1.386.06-1.723.158-1.723 1.802v3.98Z"/></symbol><symbol id="C" overflow="visible"><path d="M3.465 2.416v5.306h1.841c.179 0 .456.08.456.257v.396c0 .08-.06.12-.159.12H3.465v1.128c0 3.049.91 3.524 1.564 3.524.594 0 .911-.237 1.188-.93.159-.357.376-.634.792-.634.337 0 .812.416.812.812 0 .336-.218.693-.634 1.01-.514.356-1.03.415-1.782.415-1.663 0-3.504-1.445-3.504-4.534v-.792H.89c-.356 0-.455-.237-.455-.396v-.257c0-.1.02-.119.099-.119H1.9V2.416C1.9.772 1.584.693.515.614.396.495.396.079.515-.04 1.208-.02 1.9 0 2.693 0a92 92 0 0 0 2.435-.04c.119.12.119.535 0 .654-1.544.079-1.663.158-1.663 1.802"/></symbol><symbol id="D" overflow="visible"><path d="m3.069 1.564 1.089 2.871c.099.258.218.337.693.337h4.178l1.148-3.346c.238-.674-.515-.753-1.465-.812-.119-.119-.119-.535 0-.654.733.02 1.822.04 2.594.04.812 0 1.564-.02 2.257-.04.119.12.119.535 0 .654-.772.079-1.445.138-1.782 1.089L7.702 13.028c-.297-.178-.831-.396-1.089-.396L2.12 2.02C1.604.792 1.009.673.139.614.019.495.019.079.139-.04.653-.02 1.307 0 1.9 0c.812 0 1.802-.02 2.534-.04.119.12.119.535 0 .654-.752.06-1.683.138-1.366.95m2.138 4.04c-.435 0-.574.059-.495.257l2.02 5.128h.119l1.861-5.386Z"/></symbol><symbol id="E" overflow="visible"><path d="M5.366 4.415c.257 0 .534.555.534.792 0 .198-.079.396-.277.396H1.287c-.238 0-.495-.455-.495-.811 0-.198.119-.377.297-.377Z"/></symbol><symbol id="F" overflow="visible"><path d="M13.127 2.297c.1-1.604.02-1.624-1.267-1.683-.119-.119-.119-.535 0-.654.733.02 1.525.04 2.119.04s1.505-.02 2.158-.04c.119.12.119.535 0 .654-1.346.06-1.406.138-1.525 1.782l-.594 8.336c-.079 1.069.02 1.346 1.367 1.425.118.119.118.535 0 .654l-2.594-.04L8.593 2.732c-.079-.198-.138-.277-.178-.277s-.099.1-.158.258L4.197 12.77l-2.87.04c-.12-.12-.12-.535 0-.654 1.366-.079 1.485-.119 1.346-1.604l-.792-8.157C1.762 1.208 1.525.713.396.614.277.495.277.079.396-.04.99-.02 1.624 0 2.099 0S3.366-.02 3.96-.04c.119.12.119.535 0 .654-1.307.099-1.406.713-1.307 1.821l.753 7.94h.04L7.543.1c.06-.139.178-.297.297-.297s.198.139.277.297l4.455 10.474h.04Z"/></symbol><symbol id="G" overflow="visible"><path d="M2.554 13.82c-.614 0-1.05-.415-1.05-.97 0-.614.516-.812.872-.871.376-.04.713-.158.713-.614 0-.416-.713-1.326-1.743-1.584 0-.198.04-.336.179-.475 1.188.218 2.336 1.168 2.336 2.554 0 1.188-.515 1.96-1.307 1.96"/></symbol><symbol id="H" overflow="visible"><path d="M4.796 17.88c-1.11 0-4.27.055-4.27.055-.277-.166-.277-.776 0-.943 1.525-.083 2.301-.194 2.301-2.494V3.382c0-2.3-.776-2.412-2.3-2.495C.249.721.249.111.527-.055c0 0 3.16.055 4.269.055s2.882-.055 4.546-.055c5.682 0 7.512 2.383 7.512 5.21 0 2.44-1.22 4.02-4.158 4.796v.056c1.497.665 2.66 2.19 2.66 3.604 0 1.912-1.025 4.324-6.624 4.324-1.386 0-3.05-.056-3.936-.056m1.912-8.622h1.968c2.856 0 4.103-1.69 4.103-4.074 0-1.664-.582-4.075-4.241-4.075-1.663 0-1.83.416-1.83 1.22Zm0 6.32c0 .805.139 1.193 1.94 1.193 1.276 0 2.828-.5 2.828-3.216 0-2.218-1.247-3.132-3.215-3.132H6.708Z"/></symbol><symbol id="I" overflow="visible"><path d="M6.431 3.382v5.516c0 1.386.11 2.938.11 2.938 0 .305-.249.472-.637.472-.776-.305-3.021-.527-4.934-.776-.055-.167 0-.721.056-.888 1.524-.138 1.801-.36 1.801-1.94V3.382c0-2.3-.304-2.356-1.995-2.495C.665.721.665.111.832-.055 1.996-.028 3.16 0 4.629 0s2.606-.028 3.798-.055c.166.166.166.776 0 .942-1.691.11-1.996.194-1.996 2.495m-3.742 13.14c0-.916.665-1.83 1.774-1.83 1.247 0 1.968.998 1.968 1.718 0 .832-.638 1.83-1.802 1.83-1.303 0-1.94-.887-1.94-1.719"/></symbol><symbol id="J" overflow="visible"><path d="M2.051 3.52c0-2.3-.055-2.633-.166-3.686.333-.111.638-.194.942-.194.36.305.638.693.887 1.192C4.796 0 6.486-.278 7.762-.278c3.077 0 6.32 3.05 6.32 7.014 0 1.58-.61 3.132-1.497 4.158-.998 1.136-2.329 1.414-3.798 1.414-.86 0-2.328-.97-3.132-1.553v5.406c0 1.802.083 2.827.083 2.827 0 .25-.194.36-.443.36-1.026-.332-3.244-.637-5.212-.72-.083-.333-.055-.638.083-.887 1.747-.139 1.885-.167 1.885-2.08Zm3.604 6.127c.915.61 1.524.693 2.162.693 1.358 0 2.384-1.248 2.384-3.964 0-2.273-.388-5.489-2.578-5.489-.804 0-1.441.333-1.968.97Z"/></symbol><symbol id="K" overflow="visible"><path d="M2.772 3.52c0-2.3-.444-2.55-2.134-2.633C.47.721.47.111.638-.055 1.802-.028 3.049 0 4.574 0S7.318-.028 8.51-.055c.166.166.166.776 0 .942C6.82.97 6.376 1.22 6.376 3.52v12.64c0 1.803.083 2.828.083 2.828 0 .25-.194.36-.444.36-1.025-.332-3.243-.637-5.211-.72-.083-.333-.056-.638.083-.887 1.746-.139 1.885-.167 1.885-2.08Z"/></symbol><symbol id="L" overflow="visible"><path d="M1.026 5.738c0-3.631 2.883-6.015 6.597-6.015 1.968 0 3.604.554 4.74 1.58 1.414 1.247 1.885 3.132 1.885 4.685 0 3.63-2.467 6.32-6.597 6.32-2.301 0-4.02-.804-5.1-2.052-1.054-1.22-1.525-2.882-1.525-4.518m6.181 5.405c1.885 0 3.16-2.245 3.16-6.043 0-3.326-1.303-4.213-2.3-4.213-2.274 0-3.16 3.41-3.16 5.46 0 2.551.443 4.796 2.3 4.796"/></symbol><symbol id="M" overflow="visible"><path d="M12.945 10.922c.776 0 1.22.332 1.22 1.358 0 .527-.72 1.33-1.774 1.33-1.22 0-2.828-.914-3.631-1.635-.5.277-1.082.333-2.329.333-1.192 0-2.356-.278-3.27-.887-1.137-.721-1.886-1.802-1.886-3.216 0-1.358.804-2.827 2.135-3.548-.86-.748-2.19-2.218-2.19-2.772 0-.527.083-.86.36-1.275.25-.388.582-.61 1.137-.776C1.525-.887.305-2.467.305-2.938c0-1.026.333-2.218 1.081-2.745 1.081-.748 2.91-.914 4.241-.914 3.853 0 8.26 2.023 8.26 5.072 0 .583-.276 1.774-1.385 2.523-1.081.72-5.24.915-7.29.915-.5 0-1.248.055-1.248 1.164 0 .443.277.832.416 1.164.582-.277 1.164-.305 2.023-.305 1.414 0 2.717.36 3.66 1.192.803.72 1.358 1.691 1.358 2.939 0 1.552-.777 2.577-1.719 3.354.222.277 1.137.776 1.414.776.25 0 .443-.167.526-.333.111-.36.61-.942 1.303-.942M4.851-.693c2.134 0 6.237-.083 6.237-1.552 0-.998-.444-2.135-1.358-2.634-.86-.499-2.273-.554-3.327-.554-1.83 0-3.077 1.358-3.077 2.772 0 .942 0 1.58.305 2.134.278-.11.638-.166 1.22-.166m3.188 8.676c0-2.66-.776-2.993-1.497-2.993-1.719 0-1.94 2.05-1.94 3.465 0 2.05.498 2.8 1.58 2.8 1.302 0 1.857-1.082 1.857-3.272"/></symbol><symbol id="N" overflow="visible"><path d="M6.32 7.429c0 .998.305 1.414.665 1.83.222.277.472.47.887.47.25 0 .555-.249.777-.526.194-.222.665-.443 1.302-.443.804 0 1.58.831 1.58 1.995 0 .721-.831 1.553-1.829 1.553-.97 0-2.024-.832-3.299-2.661h-.11c-.056.831-.195 2.19-.195 2.19-.027.249-.25.47-.637.47-1.303-.332-2.772-.72-4.602-.914-.055-.166 0-.693.056-.86 1.524-.138 1.802-.387 1.802-1.968V3.382c0-2.3-.305-2.356-1.996-2.495C.554.721.554.111.72-.055 1.885-.028 3.049 0 4.518 0s2.606-.028 3.798-.055c.166.166.166.776 0 .942-1.69.11-1.996.194-1.996 2.495Z"/></symbol><symbol id="O" overflow="visible"><path d="M8.177 1.358C8.371.222 9.12-.277 10.34-.277c1.524 0 2.605.582 3.63 1.552-.055.333-.165.555-.498.776-.36-.277-.638-.388-1.164-.388-.61 0-.776.5-.776 1.857l.055 3.992c0 3.992-2.467 4.796-4.74 4.796-2.024 0-5.128-1.165-5.128-2.994 0-.776.332-1.386 1.413-1.386.998 0 1.719.61 1.719 1.275 0 .139-.028.305-.055.471-.056.277-.111.555-.056.832.028.305.25.637 1.164.637 1.165 0 2.135-.499 2.135-4.019l-1.857-.582C3.27 5.627 1.22 4.823 1.22 2.633c0-1.912 1.053-2.91 3.465-2.91.804 0 2.411.887 3.326 1.608ZM8.04 6.043v-3.66c-.693-.553-1.386-.997-1.885-.997-1.192 0-1.608.804-1.608 1.663 0 1.026.083 1.885 2.051 2.523Z"/></symbol><symbol id="P" overflow="visible"><path d="M2.633 8.565V-3.049c0-2.301-.305-2.356-1.995-2.495-.167-.166-.167-.776 0-.942 1.164.027 2.328.055 3.797.055s2.606-.028 3.798-.055c.166.166.166.776 0 .942-1.691.11-1.996.194-1.996 2.495V.194c.61-.305 1.192-.471 1.857-.471 4.214 0 6.958 2.772 6.958 6.847 0 1.552-.582 3.27-1.663 4.352-.97.97-2.356 1.386-3.798 1.386-.804 0-2.3-.97-3.27-1.858h-.167c-.056.777-.139 1.386-.139 1.386-.027.333-.25.472-.637.472a36 36 0 0 0-4.602-.915c-.055-.166 0-.72.056-.887 1.524-.139 1.801-.36 1.801-1.94m3.604-6.763v7.567c.804.721 1.83 1.081 2.467 1.081 1.137 0 2.467-1.386 2.467-4.629 0-2.328-.831-4.934-3.243-4.934-.305 0-.998.166-1.691.915"/></symbol><symbol id="Q" overflow="visible"><path d="M14.636 3.548v4.324c0 3.05-1.303 4.436-3.687 4.436-1.025 0-2.993-1.026-4.573-1.996v5.849c0 1.802.083 2.827.083 2.827 0 .25-.194.36-.444.36-1.025-.332-3.243-.637-5.211-.72-.083-.333-.056-.638.083-.887 1.746-.139 1.885-.167 1.885-2.08V3.522C2.772 1.22 2.328.97.638.886.47.721.47.111.638-.055 1.802-.028 3.049 0 4.574 0c1.33 0 2.19-.028 3.382-.055.166.166.166.776 0 .942-1.165.083-1.58.333-1.58 2.633v5.683c1.164.72 2.079 1.053 2.578 1.053 1.108 0 2.079-.499 2.079-2.079V3.548c0-2.328-.444-2.578-1.58-2.661-.167-.166-.167-.776 0-.942 1.164.027 2.05.055 3.381.055 1.525 0 2.745-.028 3.937-.055.166.166.166.776 0 .942-1.691.083-2.135.333-2.135 2.661"/></symbol><symbol id="R" overflow="visible"><path d="M6.708-4.657c.444.776.86 1.774 1.192 2.606 2.218 5.35 3.576 8.343 5.045 11.448.388.804 1.22 1.663 2.246 1.746.166.167.166.777 0 .943-.693-.028-1.192-.056-1.969-.056-.97 0-1.912.028-2.938.056-.166-.166-.166-.776 0-.943.887-.083 1.774-.221 1.33-1.22L8.76 3.52c0-.027 0-.027-.028-.055 0 .028 0 .055-.028.11L6.126 9.37c-.028.028-.028.056-.028.084-.499 1.08-.693 1.552.943 1.69.166.167.166.777 0 .943a166 166 0 0 0-3.687-.056c-.942 0-2.522.028-3.077.056-.166-.166-.166-.776 0-.943 1.22-.11 1.442-.304 2.19-2.05L6.043.886c.083-.139.194-.25.277-.36.36-.5.665-.915.5-1.303l-.666-1.525c-.36-.86-.693-1.358-1.47-1.358-.498 0-.581.11-.97.11-1.053 0-1.663-.72-1.663-1.274 0-.36.083-.804.333-1.11.25-.304.72-.498 1.081-.498.36 0 1.192.11 1.58.277.582.277 1.358.943 1.663 1.497"/></symbol><symbol id="S" overflow="visible"><path d="M6.93 2.416v7.563c0 1.267.198 2.02.91 2.02h.436c1.485 0 2.416-.515 2.753-2.04.217 0 .495.02.673.1-.139.91-.238 1.92-.258 2.811 0 .02-.04.06-.059.06-.673-.06-2.871-.159-4.435-.159H5.247c-1.525 0-3.861.099-4.613.158-.04 0-.08-.04-.08-.059-.079-.891-.277-1.92-.495-2.871.198-.08.436-.099.674-.099.396 1.584 1.306 2.099 2.613 2.099h.97c.733 0 .931-.753.931-1.96V2.416C5.247.772 4.91.673 3.327.614c-.12-.119-.12-.535 0-.654.97.02 1.98.04 2.771.04.753 0 1.763-.02 2.753-.04.118.12.118.535 0 .654C7.267.674 6.93.772 6.93 2.416"/></symbol><symbol id="T" overflow="visible"><path d="M3.782 2.416v3.702c.673-.02 1.247-.237 1.643-.752l3.109-3.92C8.93.93 9.207.395 9.247.078c0-.06.02-.119.099-.119.396.02.653.04 1.069.04.673 0 1.346-.02 2-.04.118.12.118.535 0 .654-.575.06-1.129.119-1.743.831L6.336 6.593c-.158.179-.257.337-.257.495 0 .139.02.278.693.97l2.91 2.99c.911.97 1.703 1.05 2.495 1.11.119.118.119.534 0 .653-.614-.02-1.247-.04-1.881-.04-.733 0-1.505.02-2.237.04-.12-.12-.12-.535 0-.654.712-.06 1.386-.138.554-1.03L5.346 7.644c-.416-.456-.871-.713-1.564-.772v3.484c0 1.644.336 1.743 1.722 1.802.12.119.12.535 0 .654-.91-.02-1.841-.04-2.574-.04-.752 0-1.663.02-2.554.04-.119-.12-.119-.535 0-.654C1.762 12.097 2.1 12 2.1 10.355v-7.94C2.099.773 1.762.674.376.615.257.495.257.079.376-.04 1.267-.02 2.178 0 2.95 0c.753 0 1.663-.02 2.554-.04.12.12.12.535 0 .654-1.386.06-1.722.158-1.722 1.802"/></symbol><symbol id="U" overflow="visible"><path d="M1.406 8.692c-.04 0-.119-.079-.119-.119-.02-.89-.119-1.584-.297-2.554.178-.079.416-.119.653-.06.396 1.446 1.01 1.783 1.604 1.803l2.535.059C4.435 5.564 2.455 2.713.91.634.733.396.733.337.733.238.733.099.89 0 1.188 0l6.178-.06c.237.674.495 1.703.633 2.693-.119.08-.356.12-.594.12l-.277-.575c-.495-1.05-.91-1.485-1.94-1.505H2.554c1.465 1.861 3.525 4.97 4.752 6.99.297.495.357.653.357.732 0 .08-.1.139-.238.139-.099 0-.653-.04-1.228-.04H2.574c-.634 0-.871.1-1.168.198"/></symbol><symbol id="V" overflow="visible"><path d="M2.257 10.058c.614 0 1.05.416 1.05.97 0 .634-.515.812-.872.872-.376.04-.712.158-.712.614 0 .415.712 1.326 1.742 1.584 0 .198-.04.336-.178.475C2.099 14.355.95 13.405.95 12.019c0-1.188.515-1.96 1.307-1.96m3.109 0c.614 0 1.05.416 1.05.97 0 .634-.516.812-.872.872-.376.04-.713.158-.713.614 0 .415.713 1.326 1.743 1.584 0 .198-.04.336-.179.475-1.188-.218-2.336-1.168-2.336-2.554 0-1.188.515-1.96 1.307-1.96"/></symbol><symbol id="W" overflow="visible"><path d="M10.91-.04c.099 1.11.297 2.277.534 3.307-.138.04-.356.099-.613.099C10.217 1.96 9.72.871 7.564.832L3.742.752c-.336 0-.495.1-.495.278 0 .099.06.217.159.396C4.85 3.524 8.494 8.692 10.83 11.702c.415.534.475.673.475.89 0 .14-.1.219-.258.219-.237 0-.851-.04-1.445-.04H5.227c-.93 0-2.851.099-3.584.158-.079-1.069-.277-2.197-.435-3.01.198-.059.376-.098.594-.098.416 1.366 1.168 2.079 2.653 2.099l4.178.079c.119 0 .198-.06.198-.178 0-.1-.06-.218-.159-.357C6.752 9.03 2.99 3.762.97.752A.75.75 0 0 1 .812.297C.812.099.91 0 1.188 0h7.207c.535 0 2.515-.04 2.515-.04"/></symbol><symbol id="X" overflow="visible"><path d="M3.406 10.355c0 1.644.297 1.743 1.821 1.802.119.119.119.535 0 .654-.93-.02-1.9-.04-2.673-.04-.772 0-1.584.02-2.356.04-.119-.12-.119-.535 0-.654 1.188-.06 1.525-.158 1.525-1.802V4.613c0-4.039 2.613-4.811 4.633-4.811 4.059 0 5.029 2.515 5.029 6.039v4.514c0 1.584.337 1.664 1.525 1.802.118.119.118.535 0 .654a96 96 0 0 0-2.02-.04c-.416 0-1.386.02-2.297.04-.119-.12-.119-.535 0-.654 1.485-.138 1.822-.198 1.822-1.802v-4.87c0-2.218-.297-4.871-3.643-4.871-.95 0-1.763.356-2.357.93-.97.931-1.01 2.436-1.01 3.723Z"/></symbol><symbol id="Y" overflow="visible"><path d="M5.801.95c.12-.613.337-1.148 1.327-1.148.752 0 1.465.337 1.881.733-.04.237-.119.415-.337.534C8.534.95 8.197.752 7.94.752c-.574 0-.594.773-.594 1.683v2.911c0 2.812-1.545 3.346-2.99 3.346-1.624 0-3.267-1.069-3.267-2.198 0-.475.238-.712.693-.712.574 0 .93.415.93.673a.9.9 0 0 1-.059.356c-.02.06-.04.178-.04.396 0 .614.832.832 1.585.832.673 0 1.603-.337 1.603-2.574 0-.139-.059-.218-.118-.238L3.98 4.811C2.079 4.336.713 3.287.713 1.941.713.316 1.822-.199 3.208-.199c.693 0 1.287.158 2.158.832l.396.316Zm0 3.663V2c0-.258-.118-.396-.277-.515C5.01 1.069 4.336.614 3.782.614c-.99 0-1.426.792-1.426 1.406 0 .89.416 1.801 1.881 2.178Zm-4.158 6.772a.93.93 0 1 1 1.862 0c0 .515-.416.95-.931.95s-.93-.435-.93-.95m3.347 0a.93.93 0 1 1 1.86 0c0 .515-.415.95-.93.95s-.93-.435-.93-.95"/></symbol><symbol id="Z" overflow="visible"><path d="M3.307 7.801c-.12-.119-.198-.079-.198.1v3.642c0 1.287.079 2.08.079 2.08 0 .138-.08.197-.258.197-.495-.198-1.98-.475-2.772-.534-.04-.159 0-.475.12-.594h.177c.872-.06 1.09-.06 1.09-1.624V1.406c0-.772-.02-1.129-.08-1.406.1-.158.198-.238.436-.238.119.12.317.297.475.476.198.237.317.237.535.059.455-.376 1.049-.495 1.742-.495 2.02 0 4.376 1.841 4.376 4.99 0 2.415-1.782 3.9-3.505 3.9-.851 0-1.604-.336-2.217-.89m.138-.614a2.5 2.5 0 0 0 1.683.634c1.208 0 2.198-1.465 2.198-3.386 0-2.257-.91-3.96-2.792-3.96-.614 0-1.03.436-1.425.93v4.95c0 .417.079.615.336.832"/></symbol><symbol id="aa" overflow="visible"><path d="M2.079 13.82c-.614 0-1.05-.415-1.05-.97 0-.614.515-.812.872-.871.376-.04.713-.158.713-.614 0-.416-.713-1.326-1.743-1.584 0-.198.04-.336.178-.475 1.188.218 2.337 1.168 2.337 2.554 0 1.188-.515 1.96-1.307 1.96m3.109 0c-.614 0-1.05-.415-1.05-.97 0-.614.515-.812.871-.871.377-.04.713-.158.713-.614 0-.416-.713-1.326-1.742-1.584 0-.198.04-.336.178-.475 1.188.218 2.336 1.168 2.336 2.554 0 1.188-.514 1.96-1.306 1.96"/></symbol><symbol id="ab" overflow="visible"><path d="M9.761 12.395c-1.01.158-.89.633-2.653.633-1.663 0-3.821-1.128-4.237-3.227a4 4 0 0 1-.06-.653c0-1.763 1.525-2.693 2.911-3.386.911-.456 1.644-1.09 1.644-2.277 0-.218-.02-.456-.08-.733C6.97 1.148 6 .515 4.554.515c-1.683 0-2.673.831-2.693 2.811l-.594-.059c-.06-1.505-.099-2.158-.257-3.168 1.148 0 1.643-.297 3.247-.297 2.198 0 4.297 1.624 4.693 3.643.059.258.079.515.079.753 0 1.762-1.366 2.633-2.693 3.247-.653.297-2.099 1.128-2.099 2.495 0 .118.02.257.04.396.237 1.207 1.267 2.02 2.514 2.02 1.822 0 2.08-1.169 2.198-2.476l.614-.04c0 .951.099 1.486.158 2.555"/></symbol><symbol id="ac" overflow="visible"><path d="M4.851 6.336c.178.772.416 1.544.416 1.881 0 .277-.159.416-.416.416-.634 0-1.525-.139-2.455-.258-.139-.158-.1-.376.02-.554l.792-.06c.237-.02.356-.197.356-.395 0-.179-.04-.456-.178-1.01l-.93-4.079c-.14-.634-.337-1.445-.337-1.822 0-.376.217-.653.811-.653.95 0 1.842.673 2.753 1.841-.06.179-.179.337-.456.337C4.712 1.386 4.138.99 3.94.99c-.138 0-.198.099-.198.337 0 .178.1.613.218 1.128Zm-.871 4.95c0-.515.435-.95.95-.95s.95.435.95.95-.435.95-.95.95a.964.964 0 0 1-.95-.95"/></symbol><symbol id="ad" overflow="visible"><path d="m3.683 8.494-1.05-.06c-.376-.019-.514-.177-.554-.336a3 3 0 0 1-.08-.336c0-.04.06-.04.12-.04h1.386L2.297 2.336C2.158 1.703 2.02 1.09 2.02.713c0-.713.356-.911.97-.911.89 0 2.198.812 2.87 2.04-.059.257-.197.376-.435.376C4.515 1.188 4.158.99 3.841.99a.26.26 0 0 0-.257.277c0 .178.06.574.218 1.248L4.97 7.722h1.94c.238.099.416.614.198.772h-1.96l.198.891c.08.376.257.95.257 1.188 0 .337-.158.535-.792.535-.712 0-.673-.891-.87-1.624Z"/></symbol><symbol id="ae" overflow="visible"><path d="M8.672 8.791c-.455-.515-.752-.633-1.069-.633-.356 0-.633.079-1.564.277-.95.158-1.544.257-2.099.257-.693 0-1.584-1.287-1.92-2.455.138-.139.316-.158.534-.158.416.91.753 1.108 1.663 1.108.891 0 1.644-.178 2.218-.178.277 0 .436 0 .634.04L2.297 1.802C1.9 1.346 1.148.416 1.069.139 1.13 0 1.228-.1 1.346-.12c.159-.06.297-.099.456-.119.435.733.93 1.05 1.128 1.05.337 0 .872-.119 1.505-.515C4.93 0 5.584-.198 6.138-.198c.851 0 1.505.495 2.435 2.633-.118.139-.257.198-.495.198-.752-1.207-1.326-1.306-1.88-1.306-1.01 0-.892.693-2.713.693C4.87 3.564 7.049 5.782 8.158 7.168c.495.594.89 1.01 1.089 1.326Z"/></symbol><symbol id="af" overflow="visible"><path d="M10.019 6.97c.079.356.257.95.257 1.188 0 .336-.198.534-.831.534-.753 0-.713-.871-.911-1.623L7.96 4.89C6.494 2.396 5.524.99 4.534.99c-.356 0-.594.198-.594.733 0 .316.04.732.178 1.267l.852 3.227c.158.634.416 1.446.416 1.822s-.12.653-.713.653c-.95 0-2.08-.673-2.99-1.841.06-.178.178-.337.455-.337.515.594 1.169.99 1.367.99.138 0 .198-.099.198-.336 0-.179-.12-.614-.258-1.129l-.871-3.326a5.1 5.1 0 0 1-.198-1.327c0-1.129.634-1.584 1.327-1.584 1.544 0 2.534 1.228 3.94 3.287l.06-.04-.219-.772C7.306 1.643 7.148.832 7.148.455c0-.376.138-.653.732-.653.95 0 1.842.673 2.753 1.841-.06.179-.179.337-.456.337C9.662 1.386 9.088.99 8.89.99c-.138 0-.198.099-.198.337 0 .178.1.613.218 1.128Z"/></symbol><symbol id="ag" overflow="visible"><path d="m8.573 2.455.753 3.148c.158.693.257 1.149.257 1.505 0 1.188-.534 1.584-1.307 1.584-1.03 0-1.88-.416-3.702-2.554l-.02.02.06.178c.257.733.435 1.584.435 1.881 0 .277-.158.416-.416.416-.633 0-1.564-.119-2.495-.258C2 8.217 2.04 8 2.158 7.821l.792-.06c.238-.02.357-.197.357-.395 0-.159-.06-.456-.179-1.01L2.02 1.426c-.1-.396-.258-.891-.258-1.09 0-.316.218-.534.852-.534.752 0 .732.871.91 1.624l.753 3.286c1.247 1.624 2.336 2.792 3.049 2.792.416 0 .693-.099.693-.713 0-.237-.119-.792-.257-1.346l-.753-3.168C6.851 1.643 6.673.832 6.673.455c0-.376.217-.653.811-.653.95 0 1.901.673 2.812 1.841-.06.179-.178.337-.455.337-.515-.594-1.09-.99-1.287-.99-.139 0-.198.099-.198.337 0 .178.099.613.217 1.128"/></symbol><symbol id="ah" overflow="visible"><path d="M8.217 5.762c0 .534-.119 1.247-.396 1.643.297.277.792.495.93.495.179 0 .238-.099.298-.198.099-.158.237-.336.554-.336.356 0 .614.277.614.653 0 .356-.317.673-.772.673-.515 0-1.268-.198-1.96-.831-.436.514-1.07.831-1.941.831-2.218 0-3.089-1.505-3.089-3.089 0-.87.376-1.702.911-2.336-.495-.515-1.07-1.465-1.07-2.158 0-.198 0-.654.516-.95C1.762-.417.139-1.506.139-2.694c0-1.604 2.197-2.02 3.801-2.02 2.713 0 4.515.773 4.515 2.733 0 1.287-.95 1.94-2.02 2.257-1.584.475-3.03.515-3.03 1.465 0 .396.278.872.456 1.208.317-.198.792-.336 1.346-.336 1.723 0 3.01 1.188 3.01 3.148M3.187-.06c.357-.08 1.743-.515 2.397-.812 1.108-.515 1.584-.95 1.584-1.644 0-.752-.674-1.544-2.416-1.544-2.218 0-3.287.733-3.287 1.822 0 .95 1.228 1.821 1.723 2.178m3.565 5.82c0-1.227-.258-2.553-1.446-2.553-1.207 0-1.386 1.425-1.386 2.376 0 1.425.238 2.514 1.545 2.514.851 0 1.287-.99 1.287-2.336"/></symbol><symbol id="ai" overflow="visible"><path d="M3.445-.198h.297c1.94 0 3.109 1.07 3.109 2.534 0 .931-.535 1.842-2.356 3.05-.594.396-.792.752-.792 1.247 0 .693.396 1.406 1.247 1.406.495 0 .832-.159.891-.574.06-.476.396-1.03.91-1.03.555 0 .714.356.714.673 0 .713-1.03 1.584-2.258 1.584-1.722 0-2.772-1.267-2.772-2.475 0-.792.436-1.643 1.723-2.514 1.05-.713 1.208-1.367 1.208-1.782C5.366.83 4.574.455 3.683.455c-.515 0-.792.1-.852.535-.059.455-.336 1.05-.93 1.05-.574 0-.733-.476-.733-.694 0-.732.911-1.465 2.277-1.544"/></symbol><symbol id="aj" overflow="visible"><path d="M5.643 11.543c.297 1.287.495 2.08.495 2.08 0 .138-.06.197-.238.197-.534-.198-1.96-.455-2.772-.514l-.059-.476c0-.059.02-.099.099-.099l.614-.04c.257 0 .416-.118.416-.554 0-.217-.04-.554-.139-.99L2.019 2.1C1.743.87 2.258-.198 4.04-.198c.614 0 1.386.257 2.08.733C7.92 1.782 9.741 4.316 9.741 6.336c0 1.346-.278 2.356-2.08 2.356-1.366 0-2.375-1.247-3.068-2.059l-.04.02ZM8.118 5.96c0-2.871-2.475-5.465-3.98-5.465-.713 0-.831.772-.515 2.119l.674 2.85c.93 1.09 1.821 2.298 2.772 2.298.594 0 1.049-.456 1.049-1.802"/></symbol><symbol id="ak" overflow="visible"><path d="M3.307 3.94c5.088.99 5.088 2.495 5.088 3.247v.04c0 .495-.455 1.465-1.88 1.465-3.446 0-4.872-3.366-4.872-5.88 0-1.683.792-3.01 2.436-3.01C5.405-.198 6.613.495 7.78 2c-.099.218-.217.317-.455.317C6.197 1.168 5.742.99 4.792.99c-.891 0-1.505.475-1.505 2.277 0 .099 0 .515.02.673m3.722 3.386c0-1.782-2.079-2.435-3.584-2.633.693 2.811 1.782 3.385 2.614 3.385.713 0 .97-.178.97-.752"/></symbol><symbol id="al" overflow="visible"><path d="m4.376 5.643.158.693c.178.772.357 1.465.357 1.802 0 .297-.179.495-.436.495-.634 0-1.445-.139-2.376-.258-.139-.158-.099-.376.02-.554l.792-.06c.237-.02.356-.197.356-.395 0-.179 0-.456-.138-1.01l-1.09-4.93c-.098-.416-.257-.773-.257-1.09 0-.316.178-.534.753-.534.693 0 .712.851.91 1.624L4 3.742c.95 1.723 2.059 3.564 2.514 3.564.198 0 .297-.099.416-.237.139-.159.396-.416.673-.416.535 0 .891.574.891 1.109 0 .415-.297.93-1.03.93-.99 0-2.138-1.227-3.009-3.069Z"/></symbol><symbol id="am" overflow="visible"><path d="M4.138-.198c1.426 0 2.713 1.03 3.663 2.356a.48.48 0 0 1-.435.337C6.593 1.624 5.8.97 4.752.97c-.337 0-.713.08-.99.456-.297.376-.495.772-.495 1.96 0 2.95 1.386 4.692 2.91 4.692.278 0 .832-.099.832-.752a.8.8 0 0 0-.099-.376c-.06-.08-.099-.297-.099-.416 0-.317.198-.634.535-.634.534 0 1.03.396 1.03.891 0 .773-.06 1.901-2.218 1.901-.792 0-2.06-.515-2.891-1.386-.97-1.05-1.624-2.574-1.624-4.356 0-.653.139-1.544.594-2.198a2.3 2.3 0 0 1 1.901-.95"/></symbol><symbol id="an" overflow="visible"><path d="m3.485 1.426.752 3.286c1.248 1.624 2.535 2.792 3.247 2.792.416 0 .693-.119.693-.732 0-.278-.04-.654-.198-1.327l-.752-3.168C7.069 1.643 6.89.832 6.89.455c0-.376.218-.653.812-.653.95 0 1.842.673 2.752 1.841-.059.179-.178.337-.455.337C9.484 1.386 8.91.99 8.712.99c-.139 0-.198.099-.198.337 0 .178.099.613.218 1.128l.752 3.148c.159.693.258 1.149.258 1.505 0 1.188-.535 1.584-1.307 1.584-1.03 0-2.06-.416-3.881-2.514l1.208 5.365c.297 1.287.495 2.08.495 2.08 0 .138-.06.197-.238.197-.534-.198-1.96-.455-2.772-.514l-.06-.476c0-.059.02-.099.1-.099l.614-.04c.257 0 .415-.118.415-.554 0-.217-.04-.554-.138-.99L2.02 1.426c-.1-.396-.258-.891-.258-1.09 0-.316.178-.534.812-.534.752 0 .733.871.91 1.624"/></symbol><symbol id="ao" overflow="visible"><path d="m6.831 2.297-.139-.515c-.118-.475-.198-.851-.198-1.089 0-.376.139-.891.812-.891 1.228 0 2.02.792 2.535 1.92-.1.179-.198.317-.456.317C8.851 1.307 8.475.99 8.276.99c-.059 0-.237.04-.237.277 0 .178.119.733.198 1.109l2.099 9.167c.297 1.287.495 2.08.495 2.08 0 .138-.06.197-.238.197-.535-.198-1.96-.455-2.772-.514l-.06-.476c0-.059.02-.099.1-.099l.613-.04c.258 0 .416-.118.416-.554 0-.217-.04-.554-.138-.99l-.733-3.544h-.02c-.237.594-.812 1.09-1.564 1.09-2.119 0-4.831-2.931-4.831-6.04 0-1.089.277-2.851 2.02-2.851 1.029 0 1.96.792 3.148 2.534Zm0 1.544C5.861 2.06 4.732.713 3.96.713c-.634 0-.772 1.148-.772 2.257 0 2.099 1.485 5.01 3.306 5.01.753 0 1.248-1.03 1.248-1.723 0-.456-.337-1.366-.911-2.416"/></symbol><symbol id="ap" overflow="visible"><path d="m4.217 11.266-1.92-9.761C2.178.95 1.88.673 1.069.594L.455.534C.376.456.337.14.415-.04 1.308-.02 2.02 0 2.793 0c.752 0 1.643-.02 2.514-.04.06.08.12.476.06.575l-.673.059c-.773.06-.99.317-.872.91l.95 4.872-.039-.258c.673 0 1.168-.218 1.465-.752l2.337-3.92c.138-.258.198-.515.198-.753 0-.218-.04-.396-.08-.574L8.633 0l.02-.04C9.05-.02 9.426 0 10 0c.733 0 1.07-.02 1.96-.04l.08.04.059.376c.02.1-.06.139-.139.159l-.119.02c-.534.079-.95.277-1.306.89L7.366 6.593c-.139.198-.159.337-.139.495.04.139.139.278.891.97l3.247 2.99c1.07.97 1.822 1.09 2.614 1.188.099 0 .218.06.237.159l.08.376-.06.04c-.89-.02-1.109-.04-1.861-.04-.772 0-1.307.02-2.198.04l-.06-.04-.059-.376c-.02-.1.04-.159.12-.159l.375-.04c.317-.039.456-.138.456-.276 0-.179-.218-.456-.574-.792L6.554 7.643c-.475-.436-.95-.733-1.683-.772l.871 4.395c.119.555.416.832 1.228.911l.613.06c.08.079.12.395.04.574-.891-.02-1.604-.04-2.376-.04-.752 0-1.643.02-2.515.04-.059-.08-.118-.476-.059-.575l.673-.059c.772-.06.99-.317.871-.91"/></symbol><symbol id="aq" overflow="visible"><path d="M1.544 3.208c0-1.05.258-3.406 2.772-3.406.634 0 1.248.08 1.822.376 1.723.871 3.069 2.97 3.069 5.307 0 1.425-.356 3.207-2.792 3.207-3.306 0-4.87-3.108-4.87-5.484m1.644.158c0 1.782.772 4.673 2.87 4.673.595 0 .912-.317 1.209-.871.237-.495.297-1.228.297-1.822 0-.792-.12-2.495-.852-3.604C6.158.891 5.366.535 4.613.535c-.574 0-1.425.752-1.425 2.831m.574 7.98c0-.496.416-.911.91-.911.496 0 .912.415.912.91s-.416.911-.911.911a.92.92 0 0 1-.911-.91m3.168 0c0-.496.416-.911.91-.911.496 0 .912.415.912.91s-.416.911-.911.911a.92.92 0 0 1-.911-.91"/></symbol><symbol id="ar" overflow="visible"><path d="M5.663 11.543c.297 1.287.495 2.08.495 2.08 0 .138-.06.197-.238.197-.534-.198-1.96-.455-2.772-.514l-.06-.476c0-.059.02-.099.1-.099l.614-.04c.257 0 .415-.118.415-.554 0-.217-.04-.554-.138-.99l-1.96-8.79C1.98 1.722 1.84 1.048 1.84.672s.1-.871.832-.871c.891 0 1.98.515 2.871 2-.08.198-.178.336-.436.336C4.514 1.426 3.881.99 3.643.99c-.158 0-.237.119-.237.277s.059.456.237 1.248Z"/></symbol><symbol id="as" overflow="visible"><path d="M2.277 1.406C2.178.85 1.841.634 1.069.574L.574.534C.475.535.416.476.396.377L.316 0l.04-.04A92 92 0 0 0 2.792 0c.752 0 1.703-.02 2.594-.04l.04.04.078.376c.02.1-.04.159-.118.159l-.693.04c-.614.039-.891.177-.891.593 0 .06 0 .139.02.238l.85 4.376c.397-.139.733-.198 1.407-.198 3.465 0 4.91 2.356 5.227 4.039.04.198.06.396.06.633 0 1.169-.674 2.693-3.604 2.693-.495 0-1.723-.178-2.495-.178-.753 0-1.723.02-2.416.04l-.06-.04-.078-.416c-.02-.079.02-.119.099-.119l.732-.04c.277-.019.693-.158.693-.633 0-.06 0-.138-.02-.198Zm3.485 9.96c.099.573.356.91 1.722.91 1.129 0 2.198-.356 2.198-1.98 0-.297-.04-.634-.119-1.03-.415-2.138-1.603-3.01-3.445-3.01-.475 0-1.128.04-1.326.1Z"/></symbol><symbol id="at" overflow="visible"><path d="m5.089 7.405.297 1.347c.475 2.138 1.069 4.435 3.128 4.435.832 0 1.208-.456 1.208-1.188 0-1.98-2.198-3.564-2.713-3.9l-.06-.258C8.1 6.79 8.93 5.465 8.93 4 8.93 2.396 7.842.455 6.89.455c-.396 0-.89 0-.89.436 0 .337.435.436.435 1.129 0 .237-.238.396-.554.396-.377 0-.812-.238-.812-1.307 0-.693.356-1.307 1.663-1.307 2.396 0 4.02 2.594 4.02 4.475 0 1.802-1.406 2.93-2.535 3.821v.04c1.465.95 3.089 2.237 3.089 3.86 0 .872-.673 1.822-2.475 1.822-2.08 0-3.881-1.168-4.752-4.375-.159-.535-.436-.95-1.05-.95-.475 0-.594-.476-.594-.634 0-.1.06-.139.159-.139h.812c.198 0 .237 0 .237-.218-.376-1.821-.633-3.386-.871-4.712C2.475 1.109 2-2 1.426-3.188c-.238-.495-.634-.871-.99-.871-.258 0-.377.198-.535.455a.96.96 0 0 1-.832.476c-.495 0-.693-.337-.693-.634 0-.376.297-.95 1.664-.95.752 0 1.445.316 2.02 1.108 1.425 2.04 1.999 6.317 3.029 11.01"/></symbol><symbol id="au" overflow="visible"><path d="M3.188 1.564 4.85 4.435c.139.258.277.337.733.337h3.96l.495-3.346c.02-.06.02-.12.02-.179 0-.435-.317-.613-.97-.673l-.555-.04c-.08 0-.139-.059-.159-.158L8.335 0l.02-.04c.713.02 1.783.04 2.515.04.772 0 1.545-.02 2.238-.04l.04.04.039.376c.02.1-.06.159-.159.159l-.198.02c-.752.079-1.069.376-1.188 1.148L9.821 12.434c-.06.377-.119.594-.396.594s-.456-.178-.772-.712L2.416 2.02C1.683.792 1.129.594.297.535.198.535.139.475.119.376L.059 0l.02-.04C.792-.02 1.11 0 1.841 0c.773 0 1.782-.02 2.475-.04l.06.04.04.376c.02.1-.04.159-.12.159l-.534.04c-.495.039-.713.237-.713.534 0 .138.04.297.139.455m2.89 4.04c-.316 0-.455.039-.455.138 0 .04.02.08.04.119l2.87 5.029h.04l.812-5.287Z"/></symbol><symbol id="av" overflow="visible"><path d="M1.762 1.426c-.099-.396-.257-.891-.257-1.09 0-.316.178-.534.812-.534.752 0 .752.891.91 1.624l.713 3.207c.159.06.297.06.436.06.158 0 .297-.139.396-.317.356-.634.574-1.644.97-2.535C6.395.416 6.89-.198 7.702-.198c.673 0 1.366.614 2 1.723-.139.158-.218.257-.436.257-.396-.574-.811-.95-1.03-.95-.375 0-.514.356-.712.752C6.97 2.673 6.712 3.445 6.435 4c-.317.613-.436.89-1.089 1.069v.079l1.03.91c.97.872 1.504 1.228 1.9 1.228.515 0 .436-.277 1.11-.277.276 0 .91.376.91.99 0 .555-.436.693-.97.693-.634 0-1.842-.752-3.267-2.02L5.267 6c-.337-.297-.753-.613-1.168-.613l1.425 6.157c.297 1.287.495 2.08.495 2.08 0 .138-.06.197-.237.197-.535-.198-1.96-.455-2.772-.514l-.06-.476c0-.059.02-.099.1-.099l.613-.04c.257 0 .416-.118.416-.554 0-.217-.04-.554-.139-.99Z"/></symbol><symbol id="aw" overflow="visible"><path d="M8.118 8.573c-.535.06-.792.12-1.584.12-2.119 0-4.99-3.11-4.99-6.218 0-1.109.258-2.673 1.921-2.673 1.05 0 2.158 1.089 3.346 2.851l.04-.04-.258-.831c-.138-.455-.198-.851-.198-1.089 0-.376.139-.891.812-.891 1.228 0 2.02.792 2.535 1.92-.1.179-.198.317-.456.317C8.752 1.307 8.376.99 8.177.99c-.059 0-.237.04-.237.277 0 .178.119.733.198 1.109l1.366 6.158h-.396c-.356-.02-.693-.04-.99.04m-.99-4.237C6.158 2.554 4.633.891 4 .891c-.674 0-.872.792-.872 1.9 0 2.1 1.644 5.287 3.465 5.287.416 0 .852-.138 1.228-.376 0 0-.198-2.099-.693-3.366"/></symbol><symbol id="ax" overflow="visible"><path d="m3.604 6.356-1.129-4.93c-.099-.396-.257-.891-.257-1.09 0-.316.178-.534.811-.534.753 0 .713.871.911 1.624l.792 3.187C6.277 6.851 7.385 7.504 8.02 7.504c.396 0 .515-.138.515-.732 0-.238-.02-.713-.159-1.327l-.95-4.02c-.099-.395-.257-.89-.257-1.088 0-.317.178-.535.811-.535.753 0 .733.871.911 1.624l.753 3.108c1.683 2.356 2.455 2.97 3.088 2.97.377 0 .575-.138.575-.732 0-.218-.02-.792-.179-1.406l-.772-3.109C12.157 1.445 12 .634 12 .455c0-.396.356-.653.633-.653 1.169 0 2.258.574 2.93 2.198-.039.178-.177.277-.435.277-.475-.752-1.03-1.287-1.386-1.287-.099 0-.138.119-.138.218 0 .079.04.574.099.792l.93 3.524c.119.456.198 1.07.198 1.446 0 1.247-.594 1.722-1.208 1.722-1.405 0-2.494-1.208-3.643-2.653.06.317.08.673.08.93 0 1.387-.595 1.723-1.149 1.723-1.426 0-2.713-1.05-3.88-2.554l-.04.02.04.178c.197.772.455 1.544.455 1.881 0 .277-.159.416-.416.416-.634 0-1.525-.139-2.455-.258-.139-.158-.1-.376.02-.554l.791-.06c.238-.02.357-.197.357-.395 0-.179-.06-.456-.178-1.01"/></symbol><symbol id="ay" overflow="visible"><path d="M4.297 10.81 5.485.239c.04-.337.079-.436.277-.436.158 0 .218.08.416.436l3.88 7.088c.297.535.594 1.109.733 1.327.02 0 .08 0 .099-.04.04-.436.099-.653.178-1.346L11.9.237c.04-.356.158-.435.336-.435.159 0 .218.06.416.416l5.96 10.731c.376.654.851 1.169 1.9 1.287.12.12.12.456 0 .575-.653-.02-1.425-.04-1.94-.04s-1.445.02-2.237.04c-.119-.12-.119-.456 0-.575.99-.079 1.703-.356 1.267-1.128L13.9 4.257l-.733-1.366-.139 1.208-.633 5.524c-.08.673-.218 1.94-.218 1.94h-.851L7.425 4.277 6.673 3.01l-.139 1.306-.673 7.01c-.06.653.713.87 1.406.91.118.12.118.456 0 .575-.654-.02-1.644-.04-2.376-.04-.654 0-1.426.02-2.139.04-.119-.12-.119-.456 0-.575.95-.158 1.426-.356 1.545-1.425"/></symbol><symbol id="az" overflow="visible"><path d="M1.564-3.465c-.218-.337-.614-.594-.91-.594-.278 0-.357.139-.476.337-.178.257-.554.633-.99.633-.554 0-.732-.376-.732-.713 0-.435.475-.91 1.821-.91.812 0 1.683.396 2.297 1.247.554.772.99 2.277 1.762 6.039.317 1.544.634 3.148.93 4.811l.06.337h4.198L8.316 2.336c-.139-.633-.277-1.247-.277-1.623 0-.713.356-.911.97-.911.891 0 2.198.812 2.871 2.04-.06.257-.198.376-.436.376C10.534 1.188 10.177.99 9.86.99a.26.26 0 0 0-.257.277c0 .178.06.574.218 1.248l1.168 5.207h1.94c.238.099.416.614.198.772h-1.96l.198.891c.08.376.258.95.258 1.188 0 .337-.159.535-.792.535-.713 0-.674-.891-.872-1.624l-.257-.99H5.465l.218 1.129c.297 1.485.574 2.376.851 2.91.297.555.653.713.891.713.297 0 .653-.099.713-.416.079-.415.237-.93.871-.93.436 0 .713.336.713.693 0 .752-.95 1.227-2.139 1.227-.415 0-1.049-.217-1.445-.534-.634-.515-1.465-1.267-2.218-4.792l-1.306-.06c-.357-.019-.515-.177-.555-.336a3 3 0 0 1-.079-.336c0-.04.04-.04.099-.04h1.663c-.475-2.257-.554-3.445-.812-4.93C2.614.91 2.277-2.336 1.564-3.465"/></symbol><symbol id="aA" overflow="visible"><path d="M2.93 12.771c-.712 0-1.782.02-2.554.04-.119-.12-.119-.535 0-.654C1.762 12.097 2.1 12 2.1 10.355v-7.94C2.099.773 1.762.674.376.615.257.495.257.079.376-.04 1.148-.02 2.218 0 2.95 0c.713 0 1.228-.04 2.891-.04 3.94 0 4.99 1.98 4.99 3.683 0 1.901-1.327 2.99-3.05 3.485v.04c.99.495 1.881 1.524 1.881 2.593 0 1.327-.574 3.05-4.257 3.05-.693 0-1.762-.04-2.475-.04m.852-6.197h1.366c2.713 0 3.841-1.525 3.841-3.307 0-1.445-.554-2.653-3.564-2.653-1.386 0-1.643.515-1.643 1.722Zm0 4.316c0 1.05 0 1.247 1.722 1.247 1.11 0 2.555-.594 2.555-2.613 0-1.683-1.169-2.277-2.812-2.277H3.782Z"/></symbol><symbol id="aB" overflow="visible"><path d="M1.386 1.188c0-.574.475-1.05 1.05-1.05.574 0 1.049.476 1.049 1.05s-.475 1.05-1.05 1.05c-.574 0-1.049-.476-1.049-1.05m0 5.9c0-.574.475-1.049 1.05-1.049.574 0 1.049.475 1.049 1.05 0 .574-.475 1.049-1.05 1.049-.574 0-1.049-.475-1.049-1.05"/></symbol><symbol id="aC" overflow="visible"><path d="M8.87 12.157c1.466-.099 1.466-.633 1.05-1.703L6.79 2.514h-.079l-3.168 8.06c-.455 1.187-.336 1.445 1.01 1.583.119.119.119.535 0 .654-.792-.02-1.683-.04-2.396-.04s-1.406.02-2.059.04c-.119-.12-.099-.535.02-.654 1.089-.099 1.247-.435 1.782-1.802L5.8.218c.12-.317.258-.456.456-.456.218 0 .356.179.475.456l4.099 10.098c.376.93.693 1.703 1.94 1.841.119.119.119.535 0 .654-.594-.02-1.287-.04-1.742-.04s-1.347.02-2.159.04c-.118-.12-.118-.535 0-.654"/></symbol><symbol id="aD" overflow="visible"><path d="m16.038 11.187-3.089-8.593-.06.02-2.732 8.355c-.336 1.07.357 1.129 1.03 1.188.119.119.119.535 0 .654-.812-.02-1.683-.04-2.475-.04-.653 0-1.346.02-1.98.04-.119-.12-.119-.535 0-.654 1.05-.06 1.485-.673 1.663-1.188l.456-1.307c.079-.237.138-.435.138-.613 0-.198-.02-.357-.178-.693L6.257 2.554l-.1.02-2.89 8.752c-.238.693.297.792.99.831.119.119.119.535 0 .654-.653-.02-1.525-.04-2.297-.04-.693 0-1.267.02-1.841.04-.119-.12-.119-.535 0-.654.89-.06 1.03-.079 1.406-1.148L5.247.297c.099-.317.218-.535.436-.535.257 0 .376.198.514.535l2.95 6.633c.179.396.238.495.337.495.08 0 .159-.218.277-.554L12.038.297c.12-.337.218-.535.456-.535.218 0 .356.218.455.515l3.98 10.672c.257.693.614 1.149 1.703 1.208.119.119.119.535 0 .654-.574-.02-1.208-.04-1.723-.04s-1.386.02-2.178.04c-.119-.12-.119-.535 0-.654.812-.06 1.604-.119 1.307-.97"/></symbol><symbol id="aE" overflow="visible"><path d="M3.465 7.722h3.841v-5.96c0-1.406.614-1.96 1.525-1.96s1.9.436 2.673 1.307c-.04.198-.159.317-.357.336A2.68 2.68 0 0 0 9.524.891c-.535 0-.654.594-.654 1.822v5.009h2.06c.198 0 .475.08.475.257v.396c0 .08-.06.12-.159.12H8.87v.771c0 1.287.08 2.08.08 2.08 0 .138-.08.197-.258.197l-1.148-.514a.4.4 0 0 0-.1-.06c-.098-.04-.177-.099-.177-.198.04-.435.04-.614.04-2.059v-.218H3.464v2.099c-.02.832-.04 1.465.08 1.802.158.475.593.752.89.752.555 0 .832-.336 1.07-.91.138-.337.376-.555.772-.555.376 0 .653.297.653.713 0 .317-.178.653-.574.95s-.99.475-1.743.475c-.574 0-1.485-.316-1.96-.95-.594-.792-.752-1.841-.752-3.584v-.792H.89c-.356 0-.455-.237-.455-.396v-.257c0-.1.02-.119.099-.119H1.9V2.416C1.9.772 1.683.693.614.614.495.495.495.079.614-.04 1.287-.02 2 0 2.693 0s1.544-.02 2.336-.04c.119.12.119.535 0 .654-1.346.079-1.564.158-1.564 1.802Z"/></symbol><symbol id="aF" overflow="visible"><path d="M6.475 5.069C5.94 3.267 4.673 1.267 2.039.277c0-.237.08-.416.238-.515 2 .594 3.227 1.426 4.336 2.713 1.228 1.426 1.842 3.227 1.842 4.792 0 4.019-2.277 4.811-3.802 4.811C2.059 12.078.99 9.563.99 7.861c0-1.703.91-3.228 3.604-3.228.514 0 1.287.159 1.88.436m.178.713c-.654-.436-1.307-.456-1.644-.456-1.94 0-2.376 1.901-2.376 2.891 0 2.178.832 3.168 1.802 3.168 1.248 0 2.376-.673 2.376-4.059 0-.436-.04-.97-.158-1.544"/></symbol><symbol id="aG" overflow="visible"><path d="M1.208 9.266c0-.415.376-.772.792-.772.336 0 .93.357.93.792 0 .159-.04.277-.079.416-.04.139-.158.317-.158.475 0 .495.515 1.208 1.96 1.208.713 0 1.723-.495 1.723-2.396 0-1.267-.456-2.297-1.624-3.485L3.287 4.06C1.347 2.079 1.03 1.129 1.03-.04c0 0 1.01.04 1.643.04h3.465c.634 0 1.544-.04 1.544-.04.258 1.05.456 2.535.476 3.129-.12.099-.377.138-.575.099-.336-1.406-.673-1.901-1.386-1.901H2.673c0 .95 1.366 2.297 1.465 2.396l2 1.92c1.129 1.09 1.98 1.96 1.98 3.465 0 2.139-1.742 3.01-3.346 3.01-2.198 0-3.564-1.624-3.564-2.812"/></symbol><symbol id="aH" overflow="visible"><path d="M2.851 6.791c.535 1.802 1.802 3.802 4.435 4.792 0 .238-.079.416-.237.515-2-.594-3.228-1.426-4.336-2.713C1.485 7.96.87 6.158.87 4.594c0-4.02 2.277-4.812 3.802-4.812C7.267-.218 8.336 2.297 8.336 4s-.911 3.227-3.604 3.227c-.515 0-1.287-.158-1.88-.436m-.178-.712c.653.435 1.307.455 1.643.455 1.94 0 2.376-1.9 2.376-2.89 0-2.179-.831-3.169-1.801-3.169-1.248 0-2.376.673-2.376 4.06 0 .455.04.97.158 1.544"/></symbol><symbol id="aI" overflow="visible"><path d="M1.307 4.712h7.999c.257 0 .515.396.515.634 0 .178-.06.337-.277.337h-8c-.237 0-.514-.396-.514-.634 0-.158.059-.337.277-.337"/></symbol><symbol id="aJ" overflow="visible"><path d="M3.366 10.593H6.91C5.366 6.752 3.802 2.891 2.455-.119l.159-.138 1.346.059C5.089 3.168 6.178 6.455 8.395 11.86l-.317.238a4.9 4.9 0 0 0-1.524-.218H2.475c-.673 0-.634.198-.99.277-.06 0-.08 0-.08-.06-.019-.95-.237-2.138-.395-3.167.218-.06.416-.08.633-.06.436 1.584 1.09 1.723 1.723 1.723"/></symbol><symbol id="aK" overflow="visible"><path d="M4.475 10.355c0 1.644.336 1.743 1.524 1.802.12.119.12.535 0 .654-.752-.02-1.603-.04-2.376-.04-.712 0-1.762.02-2.752.04-.119-.12-.119-.535 0-.654 1.584-.06 1.92-.158 1.92-1.802V1.604c0-3.564-1.029-4.119-1.682-4.119-.376 0-.654.238-.792.535-.119.238-.297.495-.792.495-.277 0-.871-.416-.871-.851 0-.713 1.049-1.07 1.485-1.07.89 0 1.504.159 2.316.852.871.732 2.02 1.762 2.02 4.593Z"/></symbol><symbol id="aL" overflow="visible"><path d="M4.514-.198c1.525 0 3.842 1.544 3.842 6.197 0 1.96-.476 3.644-1.347 4.792-.515.693-1.346 1.287-2.415 1.287-1.96 0-3.822-2.336-3.822-6.257 0-2.118.654-4.098 1.743-5.187a2.74 2.74 0 0 1 2-.832m.08 11.583c.336 0 .653-.119.89-.337.614-.514 1.149-2.02 1.149-4.672 0-1.822-.06-3.07-.337-4.08C5.861.674 4.891.496 4.534.496c-1.841 0-2.04 3.386-2.04 5.108 0 4.871 1.209 5.782 2.1 5.782"/></symbol><symbol id="aM" overflow="visible"><path d="M6.316 3.742c0-1.88-.99-3.267-2.178-3.267-.752 0-1.01.495-1.307.891-.257.337-.594.634-1.01.634-.376 0-.752-.337-.752-.733 0-.812 1.683-1.485 2.812-1.485 2.455 0 4.197 1.822 4.197 4.317 0 1.92-1.326 3.643-3.544 3.643-.851 0-1.584-.178-1.94-.317l.396 3.307c.732-.08 1.366-.179 2.316-.179.594 0 1.268.04 2.08.12l.316 1.346-.138.079c-1.129-.119-2.198-.218-3.248-.218-.732 0-1.445.04-2.138.099l-.673-5.702c1.05.396 1.802.475 2.514.475 1.287 0 2.297-.852 2.297-3.01"/></symbol><symbol id="aN" overflow="visible"><path d="M13.187 6.514c0 4.099-2.832 6.514-6.376 6.514-3.841 0-6.078-3.049-6.078-6.89 0-3.9 2.831-6.336 6.197-6.336 2.198 0 3.94.95 5.03 2.495.791 1.128 1.227 2.554 1.227 4.217m-6.633 5.802c2.613 0 4.732-2.178 4.732-6.178 0-3.544-1.703-5.623-3.96-5.623-2.416 0-4.693 2.158-4.693 5.96 0 4.158 1.96 5.84 3.92 5.84"/></symbol><symbol id="aO" overflow="visible"><path d="M5.801 12.79H4.99L.297-1.167h.812Z"/></symbol><symbol id="aP" overflow="visible"><path d="M7.821 12.494c-1.148.158-1.109.534-3.05.534-1.999 0-3.761-1.326-3.761-3.425 0-2.079 1.722-3.03 3.465-3.703 1.188-.455 2.653-1.01 2.653-2.95 0-1.604-.891-2.435-2.475-2.435-1.841 0-3.03.851-3.465 2.811a.82.82 0 0 1-.653-.059C.614 1.742.693 1.227.93.257c1.247 0 1.801-.455 3.564-.455.89 0 1.742.218 2.435.653 1.148.713 1.861 1.921 1.861 3.188 0 2.099-1.584 3.03-3.207 3.643-1.188.436-3.168 1.188-3.168 2.852 0 1.108 1.01 2.217 2.178 2.217 1.92 0 2.534-1.227 2.93-2.534.218-.04.475-.02.653.119-.079.95-.158 1.504-.356 2.554"/></symbol><symbol id="aQ" overflow="visible"><path d="M7.069-.198c1.92 0 3.682.91 5.029 2.673-.1.178-.238.297-.456.297C10.237 1.228 8.89.614 7.05.614c-2.673 0-4.515 3.01-4.515 5.9 0 1.703.456 3.129 1.169 4.02.99 1.207 2.138 1.762 3.168 1.762 2.732 0 3.821-1.624 4.336-3.327.237-.079.435-.02.653.1a36 36 0 0 1-.435 3.068c-1.01.1-1.901.891-4.337.891-1.683 0-3.088-.613-4.257-1.683C1.525 10.138.733 8.197.733 6.138c0-3.445 2.079-6.336 6.336-6.336"/></symbol><symbol id="aR" overflow="visible"><path d="M3.742 2.416v3.346c1.663 0 2.04-.297 2.317-.753l2.118-3.445c.575-.93 1.426-1.762 2.614-1.762.297 0 .634.04.832.139.079.138.059.316-.02.475-.891 0-1.386.673-1.901 1.524L7.207 6.098c.852.278 2.634 1.307 2.634 3.386 0 .99-.337 1.802-1.05 2.475-.95.891-2.178.95-3.425.95-.93 0-1.762-.138-2.475-.138-.693 0-1.624.02-2.554.04-.12-.12-.12-.535 0-.654 1.386-.06 1.722-.158 1.722-1.802v-7.94C2.06.773 1.723.674.337.615.217.495.217.079.337-.04c.89.02 1.821.04 2.574.04s1.683-.02 2.554-.04c.119.12.119.535 0 .654-1.386.06-1.723.158-1.723 1.802m1.644 9.82c1.207 0 2.633-.435 2.633-2.772 0-2.475-1.406-3.029-3.326-3.029h-.95v4.534c0 .574.237 1.267 1.643 1.267"/></symbol><symbol id="aS" overflow="visible"><path d="M12.236 2.416v7.94c0 1.643.337 1.742 1.723 1.801.119.119.119.535 0 .654-.812-.02-1.822-.04-2.574-.04-.733 0-1.683.02-2.554.04-.119-.12-.119-.535 0-.654 1.386-.06 1.722-.158 1.722-1.802V7.187H3.782v3.168c0 1.644.336 1.743 1.722 1.802.12.119.12.535 0 .654-.752-.02-1.564-.04-2.574-.04-.99 0-1.801.02-2.554.04-.119-.12-.119-.535 0-.654C1.762 12.097 2.1 12 2.1 10.355v-7.94C2.099.773 1.762.674.376.615.257.495.257.079.376-.04 1.247-.02 2.198 0 2.95 0c.713 0 1.683-.02 2.554-.04.12.12.12.535 0 .654-1.386.06-1.722.158-1.722 1.802v3.94h6.771v-3.94c0-1.644-.336-1.743-1.722-1.802-.119-.119-.119-.535 0-.654.89.02 1.841.04 2.574.04s1.683-.02 2.554-.04c.119.12.119.535 0 .654-1.386.06-1.723.158-1.723 1.802"/></symbol><symbol id="aT" overflow="visible"><path d="M2.93 12.771c-.712 0-1.762.02-2.554.04-.119-.12-.119-.535 0-.654C1.762 12.097 2.1 12 2.1 10.355v-7.94C2.099.773 1.762.674.376.615.257.495.257.079.376-.04 1.148-.02 2.198 0 2.95 0c.733 0 1.564-.04 3.604-.04 2.792 0 6.474 1.268 6.474 6.138 0 3.683-3.029 6.713-6.83 6.713-1.406 0-2.495-.04-3.268-.04m.852-11.108v9.504c0 .693.693.97 1.663.97 4.277 0 5.683-3.465 5.683-6.514 0-4-2.396-4.99-5.188-4.99-1.94 0-2.158.397-2.158 1.03"/></symbol><symbol id="aU" overflow="visible"><path d="M5.564 7.148H3.762v3.564c0 .871.238 1.267 1.307 1.267h1.485c1.485 0 1.802-.792 2.237-2.158.238-.04.456 0 .654.099-.1.812-.396 2.712-.436 2.87 0 .04-.02.06-.08.06a4.5 4.5 0 0 0-.97-.079H2.912c-.594 0-1.763.02-2.555.04-.118-.12-.118-.535 0-.654 1.386-.06 1.723-.158 1.723-1.802v-7.94C2.079.773 1.742.674.356.615.238.495.238.079.356-.04 1.09-.02 2.277 0 2.93 0h4.257c.95 0 2.535-.04 2.535-.04.277.99.574 2.297.732 3.307a.92.92 0 0 1-.693.099C9.365 1.94 8.672.772 7.168.772H4.87c-.832 0-1.109.317-1.109 1.248v4.375h1.802c1.683 0 1.742-.455 1.802-1.346.118-.119.534-.119.653 0-.02.515-.04 1.07-.04 1.742 0 .555.02 1.228.04 1.703-.119.119-.535.119-.653 0-.06-1.089-.12-1.346-1.802-1.346"/></symbol><symbol id="aV" overflow="visible"><path d="M2.95 0h4.218c.534 0 2.356-.04 2.356-.04.198.99.396 2.277.515 3.307-.198.099-.416.139-.654.099C8.99 1.94 8.257.772 6.158.772H4.91c-.772 0-1.128.376-1.128 1.386v8.197c0 1.644.336 1.743 1.722 1.802.12.119.12.535 0 .654-.89-.02-1.821-.04-2.574-.04-.712 0-1.643.02-2.554.04-.119-.12-.119-.535 0-.654C1.762 12.097 2.1 12 2.1 10.355v-7.94C2.099.773 1.762.674.376.615.257.495.257.079.376-.04 1.148-.02 2.277 0 2.95 0"/></symbol><symbol id="aW" overflow="visible"><path d="M8.85 2.416v5.306h1.822c.198 0 .475.08.475.257v.396c0 .08-.059.12-.158.12H8.851v1.049c0 .396.02 1.287.138 1.96.277 1.445.792 1.623 1.228 1.623a1.17 1.17 0 0 0 1.069-.673c.198-.416.396-.792.93-.792.397 0 .694.297.694.693 0 .812-.911 1.465-2.376 1.465-.733 0-1.862-.435-2.535-1.485-.257.476-1.148 1.149-2.732 1.149-.535 0-1.05-.139-1.465-.376-1.367-.792-2.02-2.198-2.02-4.614h-.97c-.357 0-.456-.237-.456-.396v-.257c0-.1.02-.119.1-.119h1.326V2.416C1.782.772 1.564.693.495.614.376.495.376.079.495-.04c.653.02 1.366.04 2.079.04.634 0 1.307-.02 1.94-.04.12.12.12.535 0 .654-.91.079-1.168.158-1.168 1.802v5.306h3.94V2.416C7.286.772 7.07.693 6.197.614c-.118-.119-.118-.535 0-.654.575.02 1.208.04 1.881.04.634 0 1.485-.02 2.337-.04.119.12.119.535 0 .654C9.068.693 8.85.772 8.85 2.416m-1.366 8.751c-.178-.713-.198-1.485-.198-1.88v-.793h-3.94v.178c0 1.347.159 2.04.277 2.416.416 1.584 1.307 1.802 1.604 1.802.693 0 1.05-.475 1.267-.97.179-.396.357-.792.872-.792.04 0 .099.02.118.04"/></symbol><symbol id="aX" overflow="visible"><path d="M7.108 6.395c.594 0 .832-.138.832-.594 0-.04-.02-.099-.02-.158l-.04-.495c-.02-.06 0-.158.1-.158h.415l.1.059c.078.792.177 1.327.257 1.723q.089.594.415 1.782l-.059.079h-.416c-.079 0-.158-.08-.178-.159l-.139-.495c-.178-.554-.455-.831-1.108-.831H4.85l.792 4.158c.099.475.376.673.832.673h1.98c1.425 0 1.623-.792 1.782-2.158l.554.099c.06.812.158 2.712.158 2.87q0 .06-.059.06c-.356-.06-.455-.079-.91-.079H5.147c-.733 0-1.505.02-2.396.04l-.04-.04-.079-.396c-.02-.06-.02-.139.12-.139l.554-.04c.613-.039.851-.197.851-.593 0-.1-.02-.178-.04-.297l-1.92-9.84C2.098.91 1.822.633 1.01.573L.495.534C.396.535.337.476.317.377L.237 0l.04-.04C1.168-.02 1.94 0 2.673 0c.772 0 1.544-.02 2.435-.04l.04.04.08.376c.019.1-.04.159-.14.159l-.475.04c-.633.059-.89.217-.89.633 0 .079 0 .158.02.257l.95 4.93Z"/></symbol><symbol id="aY" overflow="visible"><path d="M6.217 4.415c.297 0 .693.654.693.95 0 .14-.06.238-.218.238H2.158c-.198 0-.633-.514-.633-.851 0-.158.059-.337.198-.337Z"/></symbol><symbol id="aZ" overflow="visible"><path d="M5.267 8c.079.356.257.95.257 1.187 0 .337-.198.535-.831.535-.753 0-.753-.871-.911-1.624L3.524 6.93c-.99-.713-1.722-1.307-2.277-2 .08-.277.258-.416.614-.416.436.575.871.931 1.426 1.386l-2.04-9.088C1.13-3.742.832-3.98.198-4.078l-.376-.06c-.1-.02-.198-.04-.198-.159v-.376l.04-.04s1.346.1 2.059.1c.772 0 2.118-.04 2.118-.04l.04.04v.396c0 .099-.04.138-.119.158l-.376.06c-.297.039-.812.138-.654.811L3.604.455c.297-.316.87-.653 1.445-.653 1.406 0 2.554.792 3.425 1.841 1.07 1.307 1.604 2.654 1.604 4.08 0 1.662-.554 2.97-2.534 2.97-1.01 0-1.743-.377-2.277-.694m3.188-2.595c0-.95-.396-2.336-1.149-3.484C6.791 1.089 6 .495 5.247.495c-.515 0-1.05.257-1.465.832l1.307 5.781c.495.317 1.069.673 1.821.673 1.347 0 1.545-1.405 1.545-2.376"/></symbol><symbol id="ba" overflow="visible"><path d="M2.317 1.505C2.217.95 1.9.673 1.089.594L.475.534C.396.456.356.14.435-.04 1.328-.02 2.04 0 2.813 0H6.83c.515 0 2.257-.04 2.257-.04.297 1.11.733 2.238 1.149 3.267-.12.12-.357.179-.555.139C9.128 2.158 8.217.772 6.772.772H4.594c-.476 0-.733.277-.733.733 0 .079 0 .158.02.257l1.861 9.504c.119.555.416.832 1.228.911l.613.06c.08.079.12.395.04.574-.891-.02-1.604-.04-2.376-.04-.752 0-1.643.02-2.515.04-.059-.08-.118-.476-.059-.575l.673-.059c.772-.06.99-.317.871-.91Z"/></symbol><symbol id="bb" overflow="visible"><path d="M6.692-.198c1.842 0 3.723.91 5.346 2.673-.059.178-.158.297-.376.297C10.02 1.228 8.593.614 6.831.614c-2.376 0-3.366 2.02-3.366 4.336 0 .535.06 1.109.158 1.663.792 4.02 3.802 5.683 5.307 5.683 2.633 0 3.425-1.604 3.584-3.307l.574.08c.02 1.029.06 2 .178 3.068-1.07.06-1.643.891-3.98.891-3.148 0-6.633-2.89-7.385-6.791a7.3 7.3 0 0 1-.139-1.465c0-2.634 1.485-4.97 4.93-4.97"/></symbol><symbol id="bc" overflow="visible"><path d="M1.544 3.208c0-1.05.258-3.406 2.772-3.406.634 0 1.248.08 1.822.376 1.723.871 3.069 2.97 3.069 5.307 0 1.425-.356 3.207-2.792 3.207-3.306 0-4.87-3.108-4.87-5.484m1.644.158c0 1.782.772 4.673 2.87 4.673.595 0 .912-.317 1.209-.871.237-.495.297-1.228.297-1.822 0-.792-.12-2.495-.852-3.604C6.158.891 5.366.535 4.613.535c-.574 0-1.425.752-1.425 2.831"/></symbol><symbol id="bd" overflow="visible"><path d="M3.88 8.158c-.712 0-1.227-.654-1.227-1.188 0-.515.396-.911.911-.911.693 0 1.228.633 1.228 1.227 0 .495-.396.872-.911.872m-1.266-5.92c-.713 0-1.228-.654-1.228-1.189 0-.514.396-.91.91-.91.694 0 1.228.633 1.228 1.227 0 .495-.396.871-.91.871"/></symbol><symbol id="be" overflow="visible"><path d="m6.039 1.505-.673 4.613C5.089 7.96 4.85 8.692 4.118 8.692c-.653 0-1.801-1.168-2.494-2.217a.445.445 0 0 1 .415-.357c.555.535 1.01.95 1.386.95.198 0 .297-.336.456-1.207l.831-4.831c.159-.872.357-1.268.634-1.268.218 0 .475.317.851.733a28 28 0 0 1 1.664 2.04c.415.593 1.326 1.801 1.88 3.108.298.693.535 1.406.535 2.119 0 .554-.257.93-1.03.93-.574 0-.91-.257-.91-.732 0-.12.04-.317.099-.396.297-.456.416-.872.416-1.188 0-.872-.733-2.416-1.485-3.426-.258-.336-.97-1.267-1.248-1.485Z"/></symbol><symbol id="bf" overflow="visible"><path d="M11.009 10.138V3.663c0-.376 0-.594-.139-.594-.079 0-.376.356-.95 1.089l-6.792 8.613-2.673.04c-.118-.12-.118-.535 0-.654.852-.06 1.446-.752 1.565-1.267V2.633C2.02.871 1.683.753.297.613.178.496.178.08.297-.04c.851.02 1.742.04 2.218.04.455 0 1.366-.02 2.197-.04.12.12.12.535 0 .654C3.326.752 2.99.832 2.99 2.634v6.058c0 .673 0 .97.158.97.119 0 .337-.217.673-.653l6.91-8.732c.218-.297.476-.475.793-.475.277 0 .455.238.455.614v9.722c0 1.762.337 1.88 1.723 2.02.118.118.118.534 0 .653-.812-.02-1.743-.04-2.218-.04-.416 0-1.327.02-2.198.04-.119-.12-.119-.535 0-.654 1.386-.138 1.723-.218 1.723-2.02"/></symbol><symbol id="bg" overflow="visible"><path d="M6.673 2.416v2.692c0 .594.02.911.356 1.505l2.356 4.277c.555 1.01.99 1.188 1.881 1.267.119.119.119.535 0 .654-.554-.02-1.188-.04-1.643-.04s-1.168.02-1.802.04c-.119-.12-.119-.535 0-.654.871-.06 1.188-.257.772-1.05L6.395 6.97c-.158-.297-.257-.278-.435.04l-2.297 4.058c-.475.832-.396 1.03.713 1.09.119.118.119.534 0 .653-.713-.02-1.465-.04-2.257-.04-.773 0-1.426.02-2.02.04-.119-.12-.099-.535.02-.654.831-.06 1.168-.178 1.861-1.326l2.594-4.376c.356-.574.416-.792.416-1.525V2.416C4.99.772 4.653.673 3.069.614c-.119-.119-.119-.535 0-.654.97.02 2 .04 2.772.04s1.762-.02 2.752-.04c.119.12.119.535 0 .654-1.584.06-1.92.158-1.92 1.802"/></symbol><symbol id="bh" overflow="visible"><path d="M7.781 9.603c0 1.426-1.108 2.475-3.049 2.475-2.02 0-3.326-1.208-3.326-2.732 0-1.11.534-1.921 1.742-2.673l.515-.317a8 8 0 0 1-1.604-1.09C1.247 4.555.911 3.664.911 2.892.91.87 2.336-.198 4.435-.198c2.594 0 3.861 1.9 3.861 3.406 0 1.148-.495 2.158-1.544 2.791l-1.406.852c.93.455 2.435 1.485 2.435 2.752M4.475.495c-.891 0-2.238.614-2.238 2.396 0 .594.258 1.98 1.96 3.108l.931-.554c1.228-.752 1.723-1.683 1.723-2.633C6.85.832 5.366.495 4.475.495m.158 10.89c1.287 0 1.762-.851 1.762-1.762 0-1.07-1.049-1.96-1.584-2.356l-.613.376c-1.248.812-1.386 1.465-1.386 2.079 0 .91.633 1.663 1.821 1.663"/></symbol><symbol id="bi" overflow="visible"><path d="M4.257 11.385c.851 0 1.643-.515 1.643-1.782 0-.99-1.148-2.515-3.108-2.792l.099-.633c.336.04.693.04.95.04 1.129 0 2.594-.318 2.594-2.555C6.435 1.03 4.673.495 3.98.495c-1.01 0-1.188.455-1.426.812-.198.277-.455.515-.851.515-.416 0-.832-.377-.832-.693 0-.792 1.663-1.327 2.851-1.327 2.357 0 4.455 1.525 4.455 4.138 0 2.158-1.623 2.93-2.791 3.129l-.02.04c1.623.771 2.079 1.583 2.079 2.633 0 .594-.139 1.069-.614 1.564-.436.435-1.129.772-2.158.772-2.91 0-3.742-1.9-3.742-2.554 0-.277.198-.673.673-.673.693 0 .772.653.772 1.03 0 1.266 1.366 1.504 1.881 1.504"/></symbol><symbol id="bj" overflow="visible"><path d="M9.425-2.178H.198c-.158-.158-.158-.713 0-.871h9.227c.158.158.158.713 0 .871"/></symbol></defs></svg>