<svg xmlns="http://www.w3.org/2000/svg" xmlns:xlink="http://www.w3.org/1999/xlink" width="691.2" height="844.8" class="typst-doc" viewBox="0 0 518.4 633.6"><g class="typst-group"><g class="typst-group"><path fill="#ff9" stroke="#000" stroke-width=".45" d="M249.835 64.43a76.535 76.535 0 0 0-18.495 2.435l18.551 69.455-.056-71.89Z" class="typst-shape"/><path fill="none" d="M244.509 92.176v6.516-6.516Z" class="typst-shape"/><path fill="#ffc" stroke="#000" stroke-width=".45" d="M230.05 67.21c-32.903 9.125-55.782 38.941-56.08 73.084l75.74.06-19.66-73.144Z" class="typst-shape"/><path fill="none" d="M199.395 108.577h29.352v8.86h-29.352v-8.86Z" class="typst-shape"/><g class="typst-group"><g class="typst-group"><g class="typst-text" transform="matrix(.9 0 0 -.9 199.395 115.093)"><use xlink:href="#a"/><use xlink:href="#b" x="6.279"/><use xlink:href="#c" x="11.569"/><use xlink:href="#d" x="15.474"/><use xlink:href="#e" x="18.332"/><use xlink:href="#f" x="23.311"/><use xlink:href="#g" x="27.049"/></g></g></g><path fill="#9f9" stroke="#000" stroke-width=".45" d="M173.97 141.63a76.535 76.535 0 0 0 2.435 18.495l69.455-18.552-71.89.057Z" class="typst-shape"/><path fill="none" d="M204.974 143.698v6.516-6.516Z" class="typst-shape"/><path fill="#cfc" stroke="#000" stroke-width=".45" d="M176.75 161.415c9.126 32.903 38.942 55.782 73.085 56.08l.06-75.74-73.144 19.66Z" class="typst-shape"/><path fill="none" d="M206.23 172.964h32.635v8.86H206.23v-8.86Z" class="typst-shape"/><g class="typst-group"><g class="typst-group"><g class="typst-text" transform="matrix(.9 0 0 -.9 206.23 179.48)"><use xlink:href="#a"/><use xlink:href="#e" x="6.059"/><use xlink:href="#h" x="11.038"/><use xlink:href="#i" x="13.809"/><use xlink:href="#j" x="19.384"/><use xlink:href="#d" x="24.1"/><use xlink:href="#f" x="26.958"/><use xlink:href="#g" x="30.696"/></g></g></g><path fill="#99f" stroke="#000" stroke-width=".45" d="M251.17 217.495a76.536 76.536 0 0 0 18.496-2.435l-18.552-69.455.057 71.89Z" class="typst-shape"/><path fill="none" d="M256.497 183.232v6.517-6.517Z" class="typst-shape"/><path fill="#ccf" stroke="#000" stroke-width=".45" d="M270.956 214.714c32.903-9.125 55.781-38.94 56.08-73.084l-75.74-.06 19.66 73.144Z" class="typst-shape"/><path fill="none" d="M271.596 165.61h30.677v6.614h-30.677v-6.613Z" class="typst-shape"/><g class="typst-group"><g class="typst-group"><g class="typst-text" transform="matrix(.9 0 0 -.9 271.596 172.127)"><use xlink:href="#a"/><use xlink:href="#i" x="6.059"/><use xlink:href="#h" x="11.559"/><use xlink:href="#k" x="14.33"/><use xlink:href="#l" x="20.233"/><use xlink:href="#e" x="29.106"/></g></g></g><path fill="#ffdb99" stroke="#000" stroke-width=".45" d="M327.035 140.294A76.536 76.536 0 0 0 324.6 121.8l-69.455 18.552 71.89-.057Z" class="typst-shape"/><path fill="none" d="M296.031 131.71v6.516-6.516Z" class="typst-shape"/><path fill="#ffedcc" stroke="#000" stroke-width=".45" d="M324.255 120.509c-9.125-32.903-38.941-55.781-73.084-56.08l-.06 75.74 73.144-19.66Z" class="typst-shape"/><path fill="none" d="M261.759 100.1h33.398v8.86h-33.398v-8.86Z" class="typst-shape"/><g class="typst-group"><g class="typst-group"><g class="typst-text" transform="matrix(.9 0 0 -.9 261.759 106.616)"><use xlink:href="#a"/><use xlink:href="#e" x="6.059"/><use xlink:href="#c" x="11.038"/><use xlink:href="#b" x="14.942"/><use xlink:href="#j" x="20.233"/><use xlink:href="#d" x="24.949"/><use xlink:href="#f" x="27.806"/><use xlink:href="#g" x="31.544"/></g></g></g><path fill="none" stroke="#000" stroke-width=".45" d="M338.518 140.962c0-45.834-35.034-83.486-79.783-87.636" class="typst-shape"/><path stroke="#000" stroke-width=".45" d="m255.648 53.105 3.92-1.158-1.057 1.363.851 1.5-3.714-1.705Z" class="typst-shape"/><path fill="none" d="M338.251 121.561h49.47v12.489h-49.47V121.56Z" class="typst-shape"/><g class="typst-group"><g class="typst-group"><g class="typst-text" transform="matrix(.9 0 0 -.9 340.951 129.474)"><use xlink:href="#m"/><use xlink:href="#n" x="4.83"/><use xlink:href="#o" x="7.116"/><use xlink:href="#m" x="11.503"/><use xlink:href="#p" x="18.532"/><use xlink:href="#q" x="22.597"/><use xlink:href="#r" x="26.83"/><use xlink:href="#n" x="29.954"/><use xlink:href="#q" x="32.239"/><use xlink:href="#s" x="36.472"/><use xlink:href="#t" x="41.211"/><use xlink:href="#u" x="44.984"/></g></g></g><path fill="none" d="M257.415 42.52h51.872v10.694h-51.872V42.52Z" class="typst-shape"/><g class="typst-group"><g class="typst-group"><g class="typst-text" transform="matrix(.9 0 0 -.9 260.115 50.433)"><use xlink:href="#r"/><use xlink:href="#u" x="3.055"/><use xlink:href="#v" x="7.038"/><use xlink:href="#u" x="9.801"/><use xlink:href="#r" x="13.784"/><use xlink:href="#u" x="16.839"/><use xlink:href="#s" x="20.823"/><use xlink:href="#t" x="25.562"/><use xlink:href="#u" x="29.335"/><use xlink:href="#w" x="35.518"/><use xlink:href="#q" x="40.18"/><use xlink:href="#x" x="44.413"/><use xlink:href="#q" x="47.403"/></g></g></g><path fill="none" stroke="#000" stroke-width=".45" d="M250.503 52.946c-45.835 0-83.486 35.035-87.636 79.784" class="typst-shape"/><path stroke="#000" stroke-width=".45" d="m162.646 135.817-1.158-3.92 1.363 1.057 1.5-.852-1.705 3.715Z" class="typst-shape"/><path fill="none" d="M214.184 46.125h29.406v7.089h-29.406v-7.089Z" class="typst-shape"/><g class="typst-group"><g class="typst-group"><g class="typst-text" transform="matrix(.9 0 0 -.9 214.184 51.338)"><use xlink:href="#y"/><use xlink:href="#n" x="4.426"/><use xlink:href="#z" x="6.712"/><use xlink:href="#A" x="8.929"/><use xlink:href="#B" x="13.329"/><use xlink:href="#C" x="17.763"/><use xlink:href="#x" x="22.215"/><use xlink:href="#u" x="25.205"/><use xlink:href="#D" x="29.189"/></g></g></g><path fill="none" d="M127.047 121.561h35.707v12.489h-35.707V121.56Z" class="typst-shape"/><g class="typst-group"><g class="typst-group"><g class="typst-text" transform="matrix(.9 0 0 -.9 129.747 129.474)"><use xlink:href="#x"/><use xlink:href="#u" x="2.991"/><use xlink:href="#r" x="6.974"/><use xlink:href="#q" x="10.098"/><use xlink:href="#B" x="14.33"/><use xlink:href="#C" x="18.764"/><use xlink:href="#x" x="23.216"/><use xlink:href="#u" x="26.207"/><use xlink:href="#D" x="30.19"/></g></g></g><path fill="none" stroke="#000" stroke-width=".45" d="M162.487 140.962c0 45.835 35.035 83.486 79.783 87.636" class="typst-shape"/><path stroke="#000" stroke-width=".45" d="m245.358 228.819-3.92 1.158 1.057-1.363-.852-1.5 3.715 1.705Z" class="typst-shape"/><path fill="none" d="M139.573 142.528h23.181v10.694h-23.18v-10.694Z" class="typst-shape"/><g class="typst-group"><g class="typst-group"><g class="typst-text" transform="matrix(.9 0 0 -.9 142.273 150.44)"><use xlink:href="#D"/><use xlink:href="#x" x="3.485"/><use xlink:href="#q" x="6.475"/><use xlink:href="#x" x="10.708"/><use xlink:href="#n" x="13.698"/><use xlink:href="#t" x="15.984"/></g></g></g><path fill="none" d="M210.072 228.71h33.518V241.2h-33.518V228.71Z" class="typst-shape"/><g class="typst-group"><g class="typst-group"><g class="typst-text" transform="matrix(.9 0 0 -.9 212.772 236.623)"><use xlink:href="#w"/><use xlink:href="#C" x="4.662"/><use xlink:href="#s" x="9.114"/><use xlink:href="#q" x="13.853"/><use xlink:href="#E" x="18.086"/><use xlink:href="#n" x="25.184"/><use xlink:href="#t" x="27.47"/></g></g></g><path fill="none" stroke="#000" stroke-width=".45" d="M250.503 228.978c45.834 0 83.486-35.035 87.636-79.784" class="typst-shape"/><path stroke="#000" stroke-width=".45" d="m338.36 146.107 1.158 3.92-1.363-1.057-1.5.852 1.704-3.715Z" class="typst-shape"/><path fill="none" d="M250.503 228.978h35.038v10.694h-35.038v-10.694Z" class="typst-shape"/><g class="typst-group"><g class="typst-group"><g class="typst-text" transform="matrix(.9 0 0 -.9 253.203 236.89)"><use xlink:href="#t"/><use xlink:href="#z" x="3.773"/><use xlink:href="#F" x="5.99"/><use xlink:href="#D" x="10.712"/><use xlink:href="#x" x="14.197"/><use xlink:href="#u" x="17.188"/><use xlink:href="#r" x="21.171"/><use xlink:href="#u" x="24.226"/><use xlink:href="#w" x="28.269"/></g></g></g><path fill="none" d="M338.251 147.875h53.102v12.488H338.25v-12.488Z" class="typst-shape"/><g class="typst-group"><g class="typst-group"><g class="typst-text" transform="matrix(.9 0 0 -.9 340.951 155.788)"><use xlink:href="#m"/><use xlink:href="#u" x="4.83"/><use xlink:href="#x" x="8.813"/><use xlink:href="#u" x="11.804"/><use xlink:href="#r" x="15.787"/><use xlink:href="#A" x="18.842"/><use xlink:href="#o" x="23.242"/><use xlink:href="#u" x="27.629"/><use xlink:href="#s" x="31.612"/><use xlink:href="#u" x="36.352"/><use xlink:href="#A" x="40.395"/><use xlink:href="#F" x="44.795"/><use xlink:href="#D" x="49.517"/></g></g></g></g></g><g class="typst-group"><g class="typst-group"><g class="typst-group"><g class="typst-group"><path fill="none" stroke="#000" stroke-width=".588" d="M72.285 297.214H83.28M97.636 297.214h6.72M121.268 297.214h6.72M141.738 297.214h6.72M174.096 297.214h6.72M198.533 297.214h185.338M383.87 297.214h13.899M72.285 313.87h18.173M90.458 313.87h22.354M112.812 313.87h15.176M141.738 313.87h47.937M189.675 313.87h15.578M219.609 313.87h6.72M240.08 313.87h6.72M272.437 313.87h6.72M304.795 313.87h6.72M325.266 313.87h58.605M383.87 313.87h13.899M72.285 347.185h62.578M134.863 347.185h26.414M161.277 347.185h71.927M233.204 347.185h26.415M259.619 347.185h32.357M291.976 347.185h19.539M325.266 347.185h6.72M346.341 347.185h6.72M369.973 347.185h13.898M383.87 347.185h13.899M72.285 363.842h88.992M161.277 363.842h28.398M189.675 363.842h69.944M259.619 363.842h32.357M291.976 363.842h19.539M325.266 363.842h13.898M339.164 363.842h22.353M361.517 363.842h15.176M391.049 363.842h6.72M112.812 313.87v-10.428M161.277 347.185v-43.743M259.619 347.185V320.1M189.675 363.842v-60.4M291.976 363.842V320.1M361.517 363.842v-10.428" class="typst-shape"/><g class="typst-group"><g class="typst-group"><use xlink:href="#G" class="typst-text" transform="matrix(.8 0 0 -.8 55.113 300.082)"/><use xlink:href="#H" class="typst-text" transform="matrix(.8 0 0 -.8 57.448 300.082)"/><use xlink:href="#I" class="typst-text" transform="matrix(.8 0 0 -.8 60.909 302.157)"/><use xlink:href="#J" class="typst-text" transform="matrix(.8 0 0 -.8 64.725 300.082)"/></g></g><g class="typst-group"><path fill="#fff" stroke="#000" stroke-width=".588" d="M83.28 290.985v12.457h14.356v-12.457Z" class="typst-shape"/><use xlink:href="#K" class="typst-text" transform="matrix(.8 0 0 -.8 86.64 300.082)"/></g><g class="typst-group"><path fill="#fff" stroke="#000" stroke-width=".588" d="M104.356 290.985v12.457h16.912v-12.457Z" class="typst-shape"/><use xlink:href="#L" class="typst-text" transform="matrix(.8 0 0 -.8 107.716 300.082)"/><use xlink:href="#M" class="typst-text" transform="matrix(.8 0 0 -.8 114.091 302.157)"/></g><g class="typst-group"><use xlink:href="#N" class="typst-text" transform="matrix(.8 0 0 -.8 131.348 297.659)"/></g><g class="typst-group"><path fill="#fff" stroke="#000" stroke-width=".588" d="M148.458 290.985v12.457h25.638v-12.457Z" class="typst-shape"/><use xlink:href="#L" class="typst-text" transform="matrix(.8 0 0 -.8 151.818 300.082)"/><use xlink:href="#O" class="typst-text" transform="matrix(.8 0 0 -.8 158.194 302.157)"/><use xlink:href="#P" class="typst-text" transform="matrix(.8 0 0 -.8 162.345 302.157)"/><use xlink:href="#I" class="typst-text" transform="matrix(.8 0 0 -.8 166.92 302.157)"/></g><g class="typst-group"><path fill="#fff" stroke="#000" stroke-width=".588" d="M180.816 290.985v12.457h17.717v-12.457Z" class="typst-shape"/><use xlink:href="#L" class="typst-text" transform="matrix(.8 0 0 -.8 184.176 300.082)"/><use xlink:href="#O" class="typst-text" transform="matrix(.8 0 0 -.8 190.552 302.157)"/></g><g class="typst-group"><g class="typst-group"><g class="typst-group"><use xlink:href="#G" class="typst-text" transform="matrix(.8 0 0 -.8 401.129 300.082)"/><use xlink:href="#Q" class="typst-text" transform="matrix(.8 0 0 -.8 403.464 300.082)"/><use xlink:href="#J" class="typst-text" transform="matrix(.8 0 0 -.8 407.664 300.082)"/><use xlink:href="#R" class="typst-text" transform="matrix(.8 0 0 -.8 413.73 300.082)"/><use xlink:href="#S" class="typst-text" transform="matrix(.8 0 0 -.8 422.132 300.082)"/><g class="typst-group"><use xlink:href="#M" class="typst-text" transform="matrix(.8 0 0 -.8 426.047 297.033)"/><use xlink:href="#T" class="typst-text" transform="matrix(.8 0 0 -.8 429.393 297.033)"/><use xlink:href="#U" class="typst-text" transform="matrix(.8 0 0 -.8 433.344 297.033)"/><use xlink:href="#V" class="typst-text" transform="matrix(.8 0 0 -.8 435.72 297.033)"/><use xlink:href="#W" class="typst-text" transform="matrix(.8 0 0 -.8 439.065 297.033)"/><use xlink:href="#X" class="typst-text" transform="matrix(.8 0 0 -.8 441.059 297.033)"/><use xlink:href="#Y" class="typst-text" transform="matrix(.8 0 0 -.8 443.84 298.485)"/><use xlink:href="#Z" class="typst-text" transform="matrix(.8 0 0 -.8 447.03 297.033)"/><use xlink:href="#X" class="typst-text" transform="matrix(.8 0 0 -.8 451.95 297.033)"/><use xlink:href="#aa" class="typst-text" transform="matrix(.8 0 0 -.8 454.732 298.485)"/></g><use xlink:href="#G" class="typst-text" transform="matrix(.8 0 0 -.8 459.232 300.082)"/><use xlink:href="#ab" class="typst-text" transform="matrix(.8 0 0 -.8 461.567 300.082)"/><use xlink:href="#J" class="typst-text" transform="matrix(.8 0 0 -.8 465.767 300.082)"/></g></g></g><g class="typst-group"><g class="typst-group"><use xlink:href="#G" class="typst-text" transform="matrix(.8 0 0 -.8 55.113 316.74)"/><use xlink:href="#H" class="typst-text" transform="matrix(.8 0 0 -.8 57.448 316.74)"/><use xlink:href="#M" class="typst-text" transform="matrix(.8 0 0 -.8 60.909 318.814)"/><use xlink:href="#J" class="typst-text" transform="matrix(.8 0 0 -.8 64.725 316.74)"/></g></g><g class="typst-group"><use xlink:href="#N" class="typst-text" transform="matrix(.8 0 0 -.8 131.348 314.316)"/></g><g class="typst-group"><path fill="#fff" stroke="#000" stroke-width=".588" d="M205.253 307.642V320.1h14.356v-12.457Z" class="typst-shape"/><use xlink:href="#K" class="typst-text" transform="matrix(.8 0 0 -.8 208.613 316.74)"/></g><g class="typst-group"><use xlink:href="#N" class="typst-text" transform="matrix(.8 0 0 -.8 229.689 314.316)"/></g><g class="typst-group"><path fill="#fff" stroke="#000" stroke-width=".588" d="M246.8 307.642V320.1h25.637v-12.457Z" class="typst-shape"/><use xlink:href="#L" class="typst-text" transform="matrix(.8 0 0 -.8 250.16 316.74)"/><use xlink:href="#O" class="typst-text" transform="matrix(.8 0 0 -.8 256.535 318.814)"/><use xlink:href="#P" class="typst-text" transform="matrix(.8 0 0 -.8 260.687 318.814)"/><use xlink:href="#M" class="typst-text" transform="matrix(.8 0 0 -.8 265.261 318.814)"/></g><g class="typst-group"><path fill="#fff" stroke="#000" stroke-width=".588" d="M279.157 307.642V320.1h25.638v-12.457Z" class="typst-shape"/><use xlink:href="#L" class="typst-text" transform="matrix(.8 0 0 -.8 282.517 316.74)"/><use xlink:href="#O" class="typst-text" transform="matrix(.8 0 0 -.8 288.893 318.814)"/><use xlink:href="#P" class="typst-text" transform="matrix(.8 0 0 -.8 293.044 318.814)"/><use xlink:href="#I" class="typst-text" transform="matrix(.8 0 0 -.8 297.619 318.814)"/></g><g class="typst-group"><use xlink:href="#N" class="typst-text" transform="matrix(.8 0 0 -.8 314.875 314.316)"/></g><g class="typst-group"><g class="typst-group"><g class="typst-group"><use xlink:href="#G" class="typst-text" transform="matrix(.8 0 0 -.8 401.129 316.74)"/><use xlink:href="#Q" class="typst-text" transform="matrix(.8 0 0 -.8 403.464 316.74)"/><use xlink:href="#J" class="typst-text" transform="matrix(.8 0 0 -.8 407.664 316.74)"/><use xlink:href="#R" class="typst-text" transform="matrix(.8 0 0 -.8 413.73 316.74)"/><use xlink:href="#S" class="typst-text" transform="matrix(.8 0 0 -.8 422.132 316.74)"/><g class="typst-group"><use xlink:href="#M" class="typst-text" transform="matrix(.8 0 0 -.8 426.047 313.69)"/><use xlink:href="#T" class="typst-text" transform="matrix(.8 0 0 -.8 429.393 313.69)"/><use xlink:href="#U" class="typst-text" transform="matrix(.8 0 0 -.8 433.344 313.69)"/><use xlink:href="#V" class="typst-text" transform="matrix(.8 0 0 -.8 435.72 313.69)"/><use xlink:href="#W" class="typst-text" transform="matrix(.8 0 0 -.8 439.065 313.69)"/><use xlink:href="#X" class="typst-text" transform="matrix(.8 0 0 -.8 441.059 313.69)"/><use xlink:href="#ac" class="typst-text" transform="matrix(.8 0 0 -.8 443.84 315.143)"/><use xlink:href="#Z" class="typst-text" transform="matrix(.8 0 0 -.8 447.03 313.69)"/><use xlink:href="#X" class="typst-text" transform="matrix(.8 0 0 -.8 451.95 313.69)"/><use xlink:href="#aa" class="typst-text" transform="matrix(.8 0 0 -.8 454.732 315.143)"/></g><use xlink:href="#G" class="typst-text" transform="matrix(.8 0 0 -.8 459.232 316.74)"/><use xlink:href="#ab" class="typst-text" transform="matrix(.8 0 0 -.8 461.567 316.74)"/><use xlink:href="#J" class="typst-text" transform="matrix(.8 0 0 -.8 465.767 316.74)"/></g></g></g><g class="typst-group"><use xlink:href="#ad" class="typst-text" transform="matrix(.8 0 0 -.8 71.37 333.397)"/></g><g class="typst-group"><use xlink:href="#ad" class="typst-text" transform="matrix(.8 0 0 -.8 111.896 333.397)"/></g><g class="typst-group"><g class="typst-group"><g class="typst-group"><use xlink:href="#G" class="typst-text" transform="matrix(.8 0 0 -.8 46.387 350.054)"/><use xlink:href="#H" class="typst-text" transform="matrix(.8 0 0 -.8 48.722 350.054)"/><use xlink:href="#O" class="typst-text" transform="matrix(.8 0 0 -.8 52.183 352.129)"/><use xlink:href="#P" class="typst-text" transform="matrix(.8 0 0 -.8 56.334 352.129)"/><use xlink:href="#I" class="typst-text" transform="matrix(.8 0 0 -.8 60.909 352.129)"/><use xlink:href="#J" class="typst-text" transform="matrix(.8 0 0 -.8 64.725 350.054)"/></g></g></g><g class="typst-group"><use xlink:href="#N" class="typst-text" transform="matrix(.8 0 0 -.8 314.875 347.63)"/></g><g class="typst-group"><path fill="#fff" stroke="#000" stroke-width=".588" d="M331.986 340.957v12.457h14.355v-12.457Z" class="typst-shape"/><use xlink:href="#K" class="typst-text" transform="matrix(.8 0 0 -.8 335.346 350.054)"/></g><g class="typst-group"><path fill="#fff" stroke="#000" stroke-width=".588" d="M353.061 340.957v12.457h16.912v-12.457Z" class="typst-shape"/><use xlink:href="#L" class="typst-text" transform="matrix(.8 0 0 -.8 356.421 350.054)"/><use xlink:href="#M" class="typst-text" transform="matrix(.8 0 0 -.8 362.797 352.129)"/></g><g class="typst-group"><g class="typst-group"><g class="typst-group"><use xlink:href="#G" class="typst-text" transform="matrix(.8 0 0 -.8 401.129 350.054)"/><use xlink:href="#Q" class="typst-text" transform="matrix(.8 0 0 -.8 403.464 350.054)"/><use xlink:href="#J" class="typst-text" transform="matrix(.8 0 0 -.8 407.664 350.054)"/><use xlink:href="#R" class="typst-text" transform="matrix(.8 0 0 -.8 413.73 350.054)"/><use xlink:href="#S" class="typst-text" transform="matrix(.8 0 0 -.8 422.132 350.054)"/><g class="typst-group"><use xlink:href="#M" class="typst-text" transform="matrix(.8 0 0 -.8 426.047 347.005)"/><use xlink:href="#T" class="typst-text" transform="matrix(.8 0 0 -.8 429.393 347.005)"/><use xlink:href="#U" class="typst-text" transform="matrix(.8 0 0 -.8 433.344 347.005)"/><use xlink:href="#V" class="typst-text" transform="matrix(.8 0 0 -.8 435.72 347.005)"/><use xlink:href="#W" class="typst-text" transform="matrix(.8 0 0 -.8 439.065 347.005)"/><use xlink:href="#X" class="typst-text" transform="matrix(.8 0 0 -.8 441.059 347.005)"/><use xlink:href="#aa" class="typst-text" transform="matrix(.8 0 0 -.8 443.84 348.457)"/><use xlink:href="#ae" class="typst-text" transform="matrix(.8 0 0 -.8 447.54 348.457)"/><use xlink:href="#Y" class="typst-text" transform="matrix(.8 0 0 -.8 450.808 348.457)"/><use xlink:href="#X" class="typst-text" transform="matrix(.8 0 0 -.8 453.997 347.005)"/><use xlink:href="#aa" class="typst-text" transform="matrix(.8 0 0 -.8 456.778 348.457)"/></g><use xlink:href="#G" class="typst-text" transform="matrix(.8 0 0 -.8 461.278 350.054)"/><use xlink:href="#ab" class="typst-text" transform="matrix(.8 0 0 -.8 463.613 350.054)"/><use xlink:href="#J" class="typst-text" transform="matrix(.8 0 0 -.8 467.813 350.054)"/></g></g></g><g class="typst-group"><g class="typst-group"><use xlink:href="#G" class="typst-text" transform="matrix(.8 0 0 -.8 54.307 366.711)"/><use xlink:href="#H" class="typst-text" transform="matrix(.8 0 0 -.8 56.642 366.711)"/><use xlink:href="#O" class="typst-text" transform="matrix(.8 0 0 -.8 60.103 368.786)"/><use xlink:href="#J" class="typst-text" transform="matrix(.8 0 0 -.8 64.725 366.711)"/></g></g><g class="typst-group"><use xlink:href="#N" class="typst-text" transform="matrix(.8 0 0 -.8 314.875 364.288)"/></g><g class="typst-group"><path fill="#fff" stroke="#000" stroke-width=".588" d="M376.693 357.614v12.457h14.356v-12.457Z" class="typst-shape"/><use xlink:href="#K" class="typst-text" transform="matrix(.8 0 0 -.8 380.053 366.711)"/></g><g class="typst-group"><g class="typst-group"><g class="typst-group"><use xlink:href="#G" class="typst-text" transform="matrix(.8 0 0 -.8 401.129 366.711)"/><use xlink:href="#Q" class="typst-text" transform="matrix(.8 0 0 -.8 403.464 366.711)"/><use xlink:href="#J" class="typst-text" transform="matrix(.8 0 0 -.8 407.664 366.711)"/><use xlink:href="#R" class="typst-text" transform="matrix(.8 0 0 -.8 413.73 366.711)"/><use xlink:href="#S" class="typst-text" transform="matrix(.8 0 0 -.8 422.132 366.711)"/><g class="typst-group"><use xlink:href="#M" class="typst-text" transform="matrix(.8 0 0 -.8 426.047 363.662)"/><use xlink:href="#T" class="typst-text" transform="matrix(.8 0 0 -.8 429.393 363.662)"/><use xlink:href="#U" class="typst-text" transform="matrix(.8 0 0 -.8 433.344 363.662)"/><use xlink:href="#V" class="typst-text" transform="matrix(.8 0 0 -.8 435.72 363.662)"/><use xlink:href="#W" class="typst-text" transform="matrix(.8 0 0 -.8 439.065 363.662)"/><use xlink:href="#X" class="typst-text" transform="matrix(.8 0 0 -.8 441.059 363.662)"/><use xlink:href="#aa" class="typst-text" transform="matrix(.8 0 0 -.8 443.84 365.114)"/></g><use xlink:href="#G" class="typst-text" transform="matrix(.8 0 0 -.8 448.34 366.711)"/><use xlink:href="#ab" class="typst-text" transform="matrix(.8 0 0 -.8 450.675 366.711)"/><use xlink:href="#J" class="typst-text" transform="matrix(.8 0 0 -.8 454.875 366.711)"/></g></g></g><g class="typst-group"><path d="M110.88 313.87a1.933 1.933 0 0 1 3.864 0 1.933 1.933 0 0 1-3.864 0" class="typst-shape"/></g><g class="typst-group"><path d="M159.345 347.185a1.933 1.933 0 0 1 3.864 0 1.933 1.933 0 0 1-3.864 0" class="typst-shape"/></g><g class="typst-group"><path d="M257.687 347.185a1.933 1.933 0 0 1 3.864 0 1.933 1.933 0 0 1-3.864 0" class="typst-shape"/></g><g class="typst-group"><path d="M187.743 363.842a1.933 1.933 0 0 1 3.864 0 1.933 1.933 0 0 1-3.864 0" class="typst-shape"/></g><g class="typst-group"><path d="M290.044 363.842a1.933 1.933 0 0 1 3.864 0 1.933 1.933 0 0 1-3.864 0" class="typst-shape"/></g><g class="typst-group"><path d="M359.585 363.842a1.933 1.933 0 0 1 3.864 0 1.933 1.933 0 0 1-3.864 0" class="typst-shape"/></g></g></g></g></g><g class="typst-group"><g class="typst-group"><g class="typst-group"><path fill="none" stroke="#000" stroke-linecap="round" d="M200.176 475.881v12.335M187.47 537.01a5 5 0 0 1-5-5M200.176 537.01H187.47M182.47 532.01v-8.265" class="typst-shape"/><path d="m184.863 529.3-2.394-6.578-2.394 6.577" class="typst-shape"/><path fill="none" stroke="#000" stroke-linecap="round" d="M199.274 537.01a5 5 0 0 1-5-5M200.176 537.01h-.902M194.274 532.01v-8.265" class="typst-shape"/><path d="m196.668 529.3-2.394-6.578-2.394 6.577" class="typst-shape"/><path fill="none" stroke="#000" stroke-linecap="round" d="M201.079 537.01a5 5 0 0 0 5-5M200.176 537.01h.903M206.079 532.01v-8.265" class="typst-shape"/><path d="m208.473 529.3-2.394-6.578-2.394 6.577" class="typst-shape"/><path fill="none" stroke="#000" stroke-linecap="round" d="M212.883 537.01a5 5 0 0 0 5-5M200.176 537.01h12.707M217.883 532.01v-8.265" class="typst-shape"/><path d="m220.278 529.3-2.395-6.578-2.394 6.577" class="typst-shape"/><path fill="none" stroke="#000" stroke-linecap="round" d="M200.176 537.01v23.094" class="typst-shape"/><path fill="none" stroke="#000" stroke-dasharray="3 3" stroke-dashoffset="54.024" stroke-linecap="round" d="M146.153 544.895a5 5 0 0 1-5-5" class="typst-shape"/><path fill="none" stroke="#000" stroke-dasharray="3 3" stroke-linecap="round" d="M200.176 544.895h-54.023" class="typst-shape"/><path fill="none" stroke="#000" stroke-dasharray="3 3" stroke-dashoffset="130.73" stroke-linecap="round" d="M141.153 471.042a5 5 0 0 1 5-5" class="typst-shape"/><path fill="none" stroke="#000" stroke-dasharray="3 3" stroke-dashoffset="61.878" stroke-linecap="round" d="M141.153 539.895v-68.853" class="typst-shape"/><path fill="none" stroke="#000" stroke-dasharray="3 3" stroke-dashoffset="138.584" stroke-linecap="round" d="M146.153 466.042h8.77" class="typst-shape"/><path d="m149.37 468.437 6.577-2.395-6.578-2.394" class="typst-shape"/><path fill="none" stroke="#000" stroke-linecap="round" d="M200.176 447.417a5 5 0 0 1 5-5M200.176 456.203v-8.786M254.2 442.417a5 5 0 0 1 5 5M205.176 442.417H254.2M259.2 539.895a5 5 0 0 0 5 5M259.2 447.417v92.478M313.224 544.895a5 5 0 0 0 5-5M264.2 544.895h49.024M318.224 539.895v-16.15" class="typst-shape"/><path d="m320.618 529.3-2.394-6.578-2.395 6.577" class="typst-shape"/><path fill="none" stroke="#000" stroke-dasharray="3 3" stroke-dashoffset="34.426" stroke-linecap="round" d="M259.2 539.895a5 5 0 0 0 5 5" class="typst-shape"/><path fill="none" stroke="#000" stroke-dasharray="3 3" stroke-linecap="round" d="M259.2 505.469v34.426" class="typst-shape"/><path fill="none" stroke="#000" stroke-dasharray="3 3" stroke-dashoffset="150.327" stroke-linecap="round" d="M372.247 544.895a5 5 0 0 0 5-5" class="typst-shape"/><path fill="none" stroke="#000" stroke-dasharray="3 3" stroke-dashoffset="42.28" stroke-linecap="round" d="M264.2 544.895h108.047" class="typst-shape"/><path fill="none" stroke="#000" stroke-dasharray="3 3" stroke-dashoffset="227.034" stroke-linecap="round" d="M377.247 471.042a5 5 0 0 0-5-5" class="typst-shape"/><path fill="none" stroke="#000" stroke-dasharray="3 3" stroke-dashoffset="158.181" stroke-linecap="round" d="M377.247 539.895v-68.853" class="typst-shape"/><path fill="none" stroke="#000" stroke-dasharray="3 3" stroke-dashoffset="234.888" stroke-linecap="round" d="M372.247 466.042h-8.77" class="typst-shape"/><path d="m369.03 463.648-6.577 2.394 6.578 2.395" class="typst-shape"/><path fill="none" stroke="#000" stroke-linecap="round" d="M318.224 440.558v15.645" class="typst-shape"/><path d="m315.83 446.113 2.394-6.578 2.394 6.578" class="typst-shape"/><path fill="none" stroke="#000" stroke-linecap="round" d="M318.224 475.881v12.335" class="typst-shape"/><path fill="#fff199" stroke="#ccb000" d="m238.725 475.881 5.68-9.839-5.68-9.839h-77.098l-5.68 9.84 5.68 9.838h77.098Z" class="typst-shape"/><path fill="none" d="M166.491 462.203h67.37v7.678h-67.37v-7.678Z" class="typst-shape"/><g class="typst-group"><g class="typst-group"><g class="typst-group"><g class="typst-text" transform="matrix(1 0 0 -1 170.07 469.881)"><use xlink:href="#af"/><use xlink:href="#ag" x="7.051"/><use xlink:href="#ag" x="13.431"/><use xlink:href="#ah" x="22.407"/><use xlink:href="#ai" x="32.637"/><use xlink:href="#aj" x="40.414"/><use xlink:href="#ak" x="46.574"/><use xlink:href="#al" x="50.611"/></g></g></g></g><path fill="#ffcea4" stroke="#cc6a16" d="M165.491 488.216c-2.759 0-5 2.24-5 5v24.506c0 2.759 2.241 5 5 5h69.37c2.76 0 5-2.241 5-5v-24.506c0-2.76-2.24-5-5-5h-69.37Z" class="typst-shape"/><path fill="none" d="M166.491 494.216h67.37v22.506h-67.37v-22.506Z" class="typst-shape"/><g class="typst-group"><g class="typst-group"><g class="typst-group"><g class="typst-text" transform="matrix(1 0 0 -1 172.583 501.894)"><use xlink:href="#am"/><use xlink:href="#an" x="8.932"/><use xlink:href="#ao" x="15.18"/><use xlink:href="#ap" x="18.117"/><use xlink:href="#aq" x="21.978"/><use xlink:href="#ar" x="24.728"/><use xlink:href="#as" x="29.117"/><use xlink:href="#at" x="36.894"/><use xlink:href="#au" x="42.933"/><use xlink:href="#ag" x="48.807"/></g><g class="typst-text" transform="matrix(1 0 0 -1 177.23 516.722)"><use xlink:href="#af"/><use xlink:href="#ap" x="7.007"/><use xlink:href="#ap" x="10.769"/><use xlink:href="#at" x="14.586"/><use xlink:href="#av" x="20.625"/><use xlink:href="#ap" x="26.873"/><use xlink:href="#aq" x="30.734"/><use xlink:href="#aj" x="33.484"/><use xlink:href="#av" x="39.644"/></g></g></g></g><path fill="#ffb3af" stroke="#cc342b" d="M180.608 591.08v-19.678l19.568-11.298 19.569 11.298v19.678h-39.137Z" class="typst-shape"/><path fill="none" d="M186.608 577.402h27.137v7.678h-27.137v-7.678Z" class="typst-shape"/><g class="typst-group"><g class="typst-group"><g class="typst-group"><g class="typst-text" transform="matrix(1 0 0 -1 186.608 585.08)"><use xlink:href="#aw"/><use xlink:href="#av" x="4.4"/><use xlink:href="#ax" x="10.648"/><use xlink:href="#an" x="17.028"/><use xlink:href="#ap" x="23.276"/></g></g></g></g><path fill="#abebb3" stroke="#25a333" d="M283.539 419.857c-2.76 0-5 2.241-5 5v9.678c0 2.759 2.24 5 5 5h69.37c2.759 0 5-2.241 5-5v-9.678c0-2.759-2.241-5-5-5h-69.37Z" class="typst-shape"/><path fill="none" d="M284.539 425.857h67.37v7.678h-67.37v-7.678Z" class="typst-shape"/><g class="typst-group"><g class="typst-group"><g class="typst-group"><g class="typst-text" transform="matrix(1 0 0 -1 297.742 433.535)"><use xlink:href="#ay"/><use xlink:href="#aj" x="6.391"/><use xlink:href="#az" x="12.485"/><use xlink:href="#ap" x="16.049"/><use xlink:href="#al" x="19.91"/><use xlink:href="#au" x="29.513"/><use xlink:href="#aA" x="35.387"/></g></g></g></g><path fill="#fff199" stroke="#ccb000" d="m356.773 475.881 5.68-9.839-5.68-9.839h-77.098l-5.68 9.84 5.68 9.838h77.098Z" class="typst-shape"/><path fill="none" d="M284.539 462.203h67.37v7.678h-67.37v-7.678Z" class="typst-shape"/><g class="typst-group"><g class="typst-group"><g class="typst-group"><g class="typst-text" transform="matrix(1 0 0 -1 288.117 469.881)"><use xlink:href="#af"/><use xlink:href="#ag" x="7.051"/><use xlink:href="#ag" x="13.431"/><use xlink:href="#ah" x="22.407"/><use xlink:href="#ai" x="32.637"/><use xlink:href="#aj" x="40.414"/><use xlink:href="#ak" x="46.574"/><use xlink:href="#al" x="50.611"/></g></g></g></g><path fill="#99c7f0" stroke="#005dae" d="M283.539 488.216c-2.76 0-5 2.24-5 5v24.506c0 2.759 2.24 5 5 5h69.37c2.759 0 5-2.241 5-5v-24.506c0-2.76-2.241-5-5-5h-69.37Z" class="typst-shape"/><path fill="none" d="M284.539 494.216h67.37v22.506h-67.37v-22.506Z" class="typst-shape"/><g class="typst-group"><g class="typst-group"><g class="typst-group"><g class="typst-text" transform="matrix(1 0 0 -1 306.058 501.894)"><use xlink:href="#aB"/><use xlink:href="#at" x="5.874"/><use xlink:href="#at" x="11.913"/><use xlink:href="#ag" x="17.952"/></g><g class="typst-text" transform="matrix(1 0 0 -1 297.874 516.722)"><use xlink:href="#aB"/><use xlink:href="#aj" x="5.874"/><use xlink:href="#ak" x="12.034"/><use xlink:href="#aC" x="16.126"/><use xlink:href="#au" x="24.475"/><use xlink:href="#ak" x="30.349"/><use xlink:href="#ag" x="34.32"/></g></g></g></g></g></g></g><defs><symbol id="a" overflow="visible"><path d="M3.566 1.456q.065.145.269.617l.293.68.282.658q.193.45.295.706.102.255.266.655.164.4.266.674l.22.596q.118.323.204.589.086.265.145.496.188-.032.5-.032.241 0 .435.032Q4.608 2.444 3.497-.107H3.19q-.365.87-1.058 2.578Q1.44 4.179.93 5.406.42 6.633.177 7.127q.306-.032.66-.032.296 0 .602.032.688-2.395 2.1-5.671h.027Z"/></symbol><symbol id="b" overflow="visible"><path d="m3.41 2.476-.934-.252q-.607-.167-.849-.435-.241-.269-.241-.666 0-.264.225-.468.226-.204.591-.204.44 0 1.01.43.156.107.156.285l.043 1.31Zm0-1.95h-.042Q2.928.15 2.624.021q-.304-.128-.755-.128-.639 0-1.007.295-.368.295-.368.892 0 .558.489.982.489.425 1.337.613l1.026.23q.075.022.075.13 0 .354-.077.612-.078.258-.178.384-.1.126-.263.199-.164.072-.274.088-.11.016-.266.016-.628 0-1.208-.934l-.145.01-.183.736.032.043q.758.64 1.617.64 1.816 0 1.816-1.784l-.017-.757q-.016-.72-.016-.902 0-.693.183-.86.091-.08.322-.08.134 0 .296.059L5.146.23q-.323-.338-.876-.338-.312 0-.54.16-.228.162-.32.473Z"/></symbol><symbol id="c" overflow="visible"><path d="m1.837 3.674.032-.022q.387.661.677.919.29.258.72.258.134 0 .397-.076l.043-.043-.22-.816-.086-.021q-.167.155-.575.155-.365 0-.612-.386-.376-.57-.376-1.09v-.57q0-1.23.097-1.982l-.022-.032Q1.713 0 1.396 0 1.08 0 .881-.032L.859 0q.097.682.097 1.982v.601q0 1.52-.097 2.138l.022.032q.483-.043.891.033.065 0 .065-.113v-1Z"/></symbol><symbol id="d" overflow="visible"><path d="M.88 6.569q0 .22.17.39.17.168.39.168t.392-.169q.171-.169.171-.39 0-.22-.171-.391-.172-.172-.393-.172-.22 0-.389.172-.17.172-.17.392Zm.108-3.986q0 1.461-.096 2.138l.021.032q.473-.032.956.011.065 0 .083-.016.02-.016.02-.097-.097-.923-.103-1.89v-.78Q1.87.785 1.971 0l-.027-.032Q1.746 0 1.43 0T.913-.032L.892 0q.096.747.096 1.982v.601Z"/></symbol><symbol id="e" overflow="visible"><path d="M1.375 3.002H3.4q.156 0 .156.156 0 .586-.282.908-.282.322-.645.322-.362 0-.746-.314t-.508-1.072Zm2.938-1.858.22-.274Q4.216.43 3.71.161 3.2-.107 2.616-.107 1.472-.107.87.618q-.494.596-.494 1.68 0 1.156.677 1.843.676.688 1.573.688.989 0 1.448-.626.46-.626.46-1.453 0-.188-.2-.188H1.343q0-.978.263-1.396.397-.629 1.198-.629.95 0 1.509.607Z"/></symbol><symbol id="f" overflow="visible"><path d="M1.047 4.721q0 .65.043 1.407l.022.033q.166.021.282.059.115.037.263.11.148.072.223.105.097 0 .102-.108-.054-.703-.06-1.606h.522q.21 0 .768.022l.054-.08q-.086-.221-.13-.452-.22.021-.794.021h-.42V2.847q0-.376-.015-.857-.016-.48-.016-.604 0-.849.365-.903.424-.07.865.086l.134-.274q-.64-.408-1.273-.402-.408 0-.69.274Q1.01.44 1.01.945q0 .124.019.766.018.642.018 1.018v1.503q-.515 0-.784-.021l-.054.08q.156.242.242.452.156-.022.596-.022Z"/></symbol><symbol id="g" overflow="visible"><path d="M.306 4.753q.156-.032.575-.032.397 0 .537.032Q1.783 3.631 2.89.961h.021q.741 1.58 1.445 3.792.107-.032.43-.032.365 0 .472.032-.472-.956-1.694-3.711T2.068-2.605q-.188.054-.537.054-.199 0-.387-.054.79 1.332 1.3 2.498-.226.59-2.138 4.86Z"/></symbol><symbol id="h" overflow="visible"><path d="M.988 2.202v3.1q0 1.573-.096 2.12l.021.038q.494.033.956.22.097 0 .102-.112Q1.875 6.236 1.87 5.5V2.202Q1.87.73 1.971 0l-.027-.032Q1.746 0 1.43 0T.913-.032L.892 0q.096.704.096 2.202Z"/></symbol><symbol id="i" overflow="visible"><path d="M.419 2.256q0 1.165.647 1.869t1.727.704q1.101 0 1.695-.666.593-.666.593-1.81 0-1.102-.626-1.781-.625-.68-1.705-.68-1.069 0-1.7.672-.631.671-.631 1.692Zm2.299 2.132q-.484 0-.798-.295-.314-.296-.424-.71-.11-.413-.11-.94 0-.493.11-.934.11-.44.462-.81.352-.371.889-.371.548 0 .907.518.36.518.36 1.308 0 1.112-.29 1.673-.29.561-1.106.561Z"/></symbol><symbol id="j" overflow="visible"><path d="M2.75 4.388q-.57 0-.967-.526-.397-.527-.397-1.407 0-.935.403-1.475Q2.19.44 2.814.44q.661 0 1.177.462h.048l.21-.23q-.618-.78-1.623-.78-1.01 0-1.608.68-.6.68-.6 1.824 0 1.068.715 1.75.715.683 1.628.683.87 0 1.46-.307l.028-.032-.258-.902-.14-.01q-.473.81-1.101.81Z"/></symbol><symbol id="k" overflow="visible"><path d="M4.018 1.01Q3.71.537 3.268.215q-.443-.322-.915-.322-.758 0-1.099.437-.34.438-.34 1.088v1.321q0 1.279-.098 1.982l.022.032q.199-.032.516-.032.316 0 .515.032l.022-.032q-.097-.66-.097-1.982V1.65q0-.693.193-.919.194-.225.543-.225.387 0 .808.346.422.347.701.809v1.08q0 1.25-.102 1.981l.021.032q.2-.032.519-.032.32 0 .518.032l.022-.032q-.097-.66-.102-1.982v-.628q0-1.112.188-2.111L5.08-.032Q4.861 0 4.592 0q-.182 0-.435-.032-.043 0-.043.032l-.053.978-.043.032Z"/></symbol><symbol id="l" overflow="visible"><path d="m1.783 3.873.032-.033q.935.989 1.848.989.462 0 .776-.237.314-.236.39-.634.827.87 1.858.87.816 0 1.09-.445.274-.446.274-1.305V1.982q0-1.278.102-1.982l-.027-.032Q7.928 0 7.611 0t-.516-.032L7.074 0q.096.671.096 1.982V3.19q0 .538-.21.758-.209.22-.67.22-.806 0-1.397-.66.01-.135.01-.42V1.982q0-1.278.103-1.982l-.022-.032Q4.786 0 4.466 0t-.518-.032L3.926 0q.097.671.102 1.982V3.19q0 .978-.73.978-.296 0-.715-.236-.418-.237-.8-.623V1.982Q1.783.704 1.88 0l-.022-.032Q1.66 0 1.34 0T.827-.032L.806 0q.096.671.096 1.982v.601q0 1.52-.096 2.138l.021.032q.484-.043.886.033.065 0 .07-.113v-.8Z"/></symbol><symbol id="m" overflow="visible"><path d="m1.495 3.098.017-.026q.68.79 1.526.79.58 0 .836-.343.255-.344.255-1.048 0-.142-.01-.445-.011-.303-.011-.44 0-1.023.081-1.586l-.017-.026Q4.013 0 3.758 0q-.256 0-.415-.026L3.326 0q.077.537.081 1.586v.859q0 .52-.141.705-.142.184-.495.184-.262 0-.614-.176t-.662-.546V1.586q0-.976.082-1.586l-.022-.026Q1.396 0 1.143 0 .889 0 .73-.026L.713 0q.078.571.078 1.586v2.646Q.79 5.5.713 5.938l.017.03q.396.026.765.177.078 0 .082-.09Q1.5 5.04 1.495 4.408V3.098Z"/></symbol><symbol id="n" overflow="visible"><path d="M.705 5.255q0 .176.135.312.135.135.312.135.176 0 .313-.135.138-.136.138-.312t-.138-.314q-.137-.137-.313-.137-.177 0-.312.137-.135.138-.135.314ZM.79 2.067q0 1.169-.078 1.71l.017.026q.379-.026.765.008.052 0 .067-.013.015-.012.015-.077-.077-.739-.082-1.512v-.623q0-.959.082-1.586l-.022-.026Q1.396 0 1.143 0 .889 0 .73-.026L.713 0q.078.597.078 1.586v.48Z"/></symbol><symbol id="o" overflow="visible"><path d="M.89-.915q0-.413.328-.602.329-.189.823-.189.606 0 1.042.22.436.218.436.597 0 .43-.344.635-.253.15-.932.147-.043 0-.337-.013-.295-.013-.445-.013-.236-.133-.404-.353-.168-.219-.168-.43Zm2.543 3.424q0-.545-.402-.928Q2.63 1.2 1.972 1.2q-.42 0-.653.12-.236-.202-.236-.49 0-.253.135-.335.136-.081.376-.081l.254.017q.335.043.704.047.898 0 1.242-.292.37-.318.37-.873 0-.623-.591-1.01-.591-.386-1.6-.386-.748 0-1.219.25-.47.248-.47.743 0 .27.202.58.386.3.747.447-.34.06-.513.266Q.546.408.546.696q0 .344.563.73-.623.362-.623 1.1 0 .615.461.976.462.36 1.034.36.296 0 .537-.076.374.021.812.088.438.066.576.08l.026-.031q-.026-.125-.026-.228 0-.103.026-.227l-.026-.026q-.82.086-.915.09.442-.292.442-1.023Zm-.687-.008q0 1.031-.8 1.027-.378 0-.577-.256-.2-.256-.2-.702 0-1.023.829-1.023.378 0 .563.262.185.262.185.692Z"/></symbol><symbol id="p" overflow="visible"><path d="M1.779-.026Q1.023 1.955.176 3.803q.142-.026.512-.026.326 0 .438.026l.182-.582.204-.647q.065-.202.185-.557.12-.354.234-.644.114-.29.239-.578h.021q.18.382.357.887.176.505.38 1.141.204.636.329.98.077-.026.297-.026.253 0 .335.026Q2.797 1.34 2.316-.026 2.239 0 2.052 0t-.273-.026Z"/></symbol><symbol id="q" overflow="visible"><path d="M2.729 1.98 1.98 1.78q-.486-.133-.679-.348-.193-.215-.193-.533 0-.21.18-.374.18-.163.473-.163.352 0 .808.344.124.086.124.227l.035 1.049Zm0-1.559h-.035Q2.342.121 2.1.017q-.243-.103-.604-.103-.511 0-.805.236Q.395.387.395.864q0 .447.391.786.391.34 1.07.49l.821.185q.06.017.06.103 0 .283-.062.49-.063.206-.142.307-.08.1-.21.159-.132.058-.22.07-.088.014-.212.014-.503 0-.967-.748l-.116.009-.146.588.025.035q.606.51 1.294.51 1.452 0 1.452-1.426L3.42 1.83q-.013-.575-.013-.721 0-.555.147-.688.073-.064.257-.064.108 0 .237.047l.068-.22q-.257-.27-.7-.27-.25 0-.432.129T2.73.421Z"/></symbol><symbol id="r" overflow="visible"><path d="m1.47 2.94.025-.018q.31.528.542.735.232.206.575.206.108 0 .318-.06l.035-.035-.176-.653-.07-.017q-.132.125-.459.125-.292 0-.49-.31-.3-.455-.3-.872v-.455q0-.984.077-1.586L1.53-.026Q1.37 0 1.117 0T.705-.026L.688 0q.077.546.077 1.586v.48q0 1.217-.078 1.711l.018.026q.386-.035.713.026.052 0 .052-.09v-.8Z"/></symbol><symbol id="s" overflow="visible"><path d="M4.048 1.586q0-1.002.081-1.586l-.021-.026Q3.948 0 3.695 0t-.412-.026L3.266 0q.077.589.077 1.586v.859q0 .52-.14.705-.14.184-.492.184-.27 0-.618-.176t-.658-.546V1.586q0-1.023.077-1.586l-.017-.026Q1.336 0 1.083 0 .829 0 .67-.026L.653 0Q.73.537.73 1.586v.48q0 1.217-.077 1.711l.017.026q.387-.035.714.026.051 0 .051-.09v-.641l.017-.026q.68.79 1.521.79.58 0 .836-.343.256-.344.256-1.048 0-.142-.009-.443-.008-.3-.008-.442Z"/></symbol><symbol id="t" overflow="visible"><path d="M2.2 3.51q-.455 0-.773-.42-.318-.422-.318-1.126 0-.748.322-1.18.322-.432.82-.432.53 0 .942.37h.038L3.4.537Q2.905-.086 2.1-.086q-.808 0-1.287.544Q.335 1 .335 1.916q0 .855.572 1.401.571.546 1.302.546.696 0 1.168-.245l.022-.026-.206-.722-.112-.008q-.378.649-.881.649Z"/></symbol><symbol id="u" overflow="visible"><path d="M1.1 2.402h1.62q.125 0 .125.125 0 .468-.226.726-.226.258-.516.258-.29 0-.597-.252-.307-.251-.406-.857ZM3.45.915l.177-.219Q3.373.344 2.967.13q-.406-.215-.874-.215-.916 0-1.397.58Q.301.971.301 1.84q0 .924.541 1.474.542.55 1.26.55.79 0 1.157-.5.368-.501.368-1.163 0-.15-.16-.15H1.075q0-.782.21-1.118.319-.502.959-.502.76 0 1.207.485Z"/></symbol><symbol id="v" overflow="visible"><path d="M.872 3.777v.34q0 .738.482 1.349.244.318.638.498.393.18.805.18.254 0 .396-.09L3.2 6.03q-.133-.263-.245-.722l-.094-.009q-.168.31-.512.31-.378 0-.599-.226-.221-.226-.221-.595 0-.06.023-.408.024-.349.024-.525v-.077h.378q.245 0 .615.017l.042-.064q-.068-.176-.103-.361-.176.017-.636.017h-.296V1.753q0-1.16.086-1.753l-.017-.026Q1.486 0 1.222 0T.8-.026L.782 0q.086.554.09 1.753v1.633H.864q-.404 0-.653-.017l-.043.064q.124.194.193.361.133-.017.511-.017Z"/></symbol><symbol id="w" overflow="visible"><path d="M3.175.993v2.006q-.167.262-.352.387-.185.125-.481.125-.185 0-.361-.067t-.361-.22q-.185-.152-.294-.483-.11-.33-.11-.795 0-.782.245-1.179T2.093.37q.588 0 1.082.623Zm0-.482q-.468-.597-1.134-.597-.705 0-1.15.567-.444.567-.444 1.392 0 .89.56 1.44.561.55 1.43.55.395 0 .738-.193v.571q0 1.259-.077 1.697l.017.03q.396.026.765.177.077 0 .082-.09-.078-.976-.082-1.655V1.689q0-.89.15-1.689l-.017-.026Q3.837 0 3.623 0q-.104 0-.306-.026-.077 0-.077.026l-.047.511h-.018Z"/></symbol><symbol id="x" overflow="visible"><path d="M.838 3.777q0 .52.034 1.126l.017.026q.134.017.226.047t.21.088q.119.058.179.084.077 0 .082-.086-.043-.563-.048-1.285h.417q.168 0 .615.017l.042-.064q-.068-.176-.103-.361-.176.017-.636.017h-.335V2.277q0-.3-.013-.685-.012-.385-.012-.483 0-.68.292-.722.34-.056.691.068l.108-.219Q2.093-.09 1.586-.086q-.327 0-.553.22Q.808.351.808.755q0 .1.015.613t.015.814v1.203q-.413 0-.627-.017l-.043.064q.124.194.193.361.125-.017.477-.017Z"/></symbol><symbol id="y" overflow="visible"><path d="M.79 1.762V4.24Q.79 5.5.714 5.938l.017.03q.396.026.765.177.078 0 .082-.09Q1.5 4.988 1.495 4.4V2.114q.24.022.387.129.27.21.694.668.423.458.698.866.722 0 .89.026l.017-.026q-.864-.73-1.779-1.684.378-.447.7-.795.323-.348.692-.714.37-.365.572-.584l-.018-.026Q4.215 0 3.82 0q-.361 0-.58-.026l-.52.744q-.133.189-.361.466-.228.277-.503.57-.099.085-.36.094v-.086q0-1.178.081-1.762l-.022-.026Q1.396 0 1.143 0 .889 0 .73-.026L.713 0q.078.563.078 1.762Z"/></symbol><symbol id="z" overflow="visible"><path d="M.79 1.762V4.24Q.79 5.5.714 5.938l.017.03q.396.026.765.177.078 0 .082-.09Q1.5 4.988 1.495 4.4V1.762q0-1.178.082-1.762l-.022-.026Q1.396 0 1.143 0 .889 0 .73-.026L.713 0q.078.563.078 1.762Z"/></symbol><symbol id="A" overflow="visible"><path d="M.335 1.805q0 .932.518 1.495.518.563 1.381.563.881 0 1.356-.533.475-.533.475-1.448 0-.88-.5-1.424Q3.063-.086 2.2-.086q-.855 0-1.36.537Q.335.988.335 1.805Zm1.84 1.706q-.387 0-.639-.237-.251-.236-.34-.567-.087-.33-.087-.752 0-.395.088-.748.088-.352.37-.648.28-.297.71-.297.439 0 .727.415.287.414.287 1.046 0 .89-.232 1.339-.232.449-.885.449Z"/></symbol><symbol id="B" overflow="visible"><path d="M1.427.713q.141-.176.36-.313.22-.138.413-.138.606 0 .883.432t.277 1.278q0 .774-.286 1.156-.285.383-.724.383-.253 0-.449-.119-.195-.118-.474-.401V.713Zm0 3.687v-.975q.403.438 1.1.438.661 0 1.14-.52.48-.52.48-1.302 0-1.04-.57-1.583-.57-.544-1.325-.544-.538 0-1.036.43-.142-.262-.292-.43-.176 0-.245.069.043.228.043.662V4.24q0 1.109-.108 1.697l.018.03q.395.026.769.177.077 0 .077-.09-.051-.688-.051-1.655Z"/></symbol><symbol id="C" overflow="visible"><path d="M.245 3.803q.125-.026.46-.026.318 0 .43.026.292-.898 1.177-3.034h.017q.593 1.263 1.156 3.034.086-.026.344-.026.292 0 .378.026-.378-.765-1.356-2.97-.978-2.204-1.197-2.917-.15.043-.43.043-.158 0-.309-.043.632 1.066 1.04 1.998-.18.473-1.71 3.889Z"/></symbol><symbol id="D" overflow="visible"><path d="m.438.89.133.008q.456-.632 1.04-.636.361 0 .585.196.223.195.223.535 0 .3-.215.446-.215.147-.674.267-.494.133-.774.372-.279.238-.279.71 0 .512.395.793.396.282.933.282.679 0 1.186-.262l.017-.03-.176-.65-.12-.008q-.168.194-.248.277-.08.084-.281.202-.202.119-.413.119-.292 0-.48-.144-.19-.144-.19-.41 0-.495.816-.688.546-.133.873-.396.326-.262.326-.756 0-.202-.066-.395-.067-.193-.22-.387-.152-.193-.466-.307-.313-.114-.743-.114-.653 0-1.328.236l.146.74Z"/></symbol><symbol id="E" overflow="visible"><path d="m1.427 3.098.025-.026q.748.79 1.478.79.37 0 .621-.188.252-.19.312-.507.662.696 1.487.696.653 0 .872-.357.219-.356.219-1.044v-.876q0-1.023.082-1.586L6.5-.026Q6.342 0 6.09 0q-.254 0-.413-.026L5.66 0q.077.537.077 1.586v.966q0 .43-.167.606-.168.176-.537.176-.645 0-1.118-.528.009-.108.009-.335v-.885q0-1.023.082-1.586l-.017-.026Q3.828 0 3.573 0q-.256 0-.415-.026L3.141 0q.077.537.082 1.586v.966q0 .782-.585.782-.236 0-.571-.189-.335-.189-.64-.498V1.586q0-1.023.077-1.586l-.017-.026Q1.327 0 1.072 0q-.256 0-.41-.026L.645 0q.077.537.077 1.586v.48q0 1.217-.077 1.711l.017.026q.386-.035.709.026.051 0 .056-.09v-.641Z"/></symbol><symbol id="F" overflow="visible"><path d="M3.214.808Q2.97.43 2.614.172q-.354-.258-.732-.258-.606 0-.879.35t-.273.87v1.057q0 1.023-.077 1.586l.017.026q.16-.026.413-.026t.412.026l.017-.026q-.077-.529-.077-1.586V1.32q0-.554.155-.735.155-.18.434-.18.31 0 .647.277t.56.647v.863q0 1.002-.081 1.586l.017.026q.159-.026.414-.026.256 0 .415.026l.017-.026q-.077-.529-.081-1.586V1.69q0-.89.15-1.689l-.017-.026Q3.889 0 3.674 0q-.146 0-.348-.026-.035 0-.035.026l-.043.782-.034.026Z"/></symbol><symbol id="G" overflow="visible"><path d="M1.39-2.5c.13 0 .2.08.2.24v9.52c0 .16-.07.24-.2.24s-.2-.08-.2-.24v-9.52c0-.16.07-.24.2-.24Z"/></symbol><symbol id="H" overflow="visible"><path d="M3.97 6.21c0 .27-.14.4-.41.4-.28 0-.56-.28-.56-.56 0-.27.13-.4.4-.4.28 0 .57.28.57.56Zm-1.3-1.77c-.53 0-.98-.4-1.2-.75-.27-.43-.4-.7-.4-.82 0-.09.05-.13.15-.13.05 0 .08.01.11.02.05.08.08.15.11.2.32.79.72 1.18 1.2 1.18.18 0 .27-.14.27-.41 0-.15-.02-.32-.07-.5L1.92-.46c-.14-.58-.54-1.29-1.17-1.29-.09 0-.18.01-.27.04.25.1.37.28.37.53 0 .26-.14.39-.41.39-.32 0-.57-.29-.57-.61 0-.44.43-.65.9-.65.43 0 .83.15 1.2.45.35.29.57.66.68 1.09l.91 3.62c.03.13.05.26.05.38 0 .55-.39.95-.94.95Z"/></symbol><symbol id="I" overflow="visible"><path d="M2.121 4.648c-.301-.294-.749-.441-1.358-.441v-.308c.413 0 .742.063.994.182V.595c0-.091-.007-.147-.028-.175-.035-.077-.245-.119-.63-.119H.812V0l1.246.028L3.311 0v.301h-.287c-.385 0-.595.042-.637.119a.456.456 0 0 0-.021.175v3.829c0 .189-.028.224-.245.224Z"/></symbol><symbol id="J" overflow="visible"><path d="m2.68 7.534 2.31-4.531-2.31-4.536-.312.156 2.26 4.38-2.26 4.37.313.161Z"/></symbol><symbol id="K" overflow="visible"><path d="M8.81 6.68c0 .1-.06.15-.18.15L7.36 6.8l-1.27.03c-.16 0-.23-.09-.23-.24 0-.07.03-.12.08-.13.1-.01.18-.02.23-.02.31-.01.48-.03.53-.04.05-.01.08-.04.08-.09-.01-.03-.02-.09-.04-.18l-.59-2.38H3.21l.58 2.27c.05.21.14.34.27.39.07.02.24.03.52.03.27 0 .38 0 .38.24 0 .1-.06.15-.18.15L3.51 6.8l-1.28.03c-.16 0-.23-.09-.23-.24 0-.07.03-.12.09-.13.1-.01.18-.02.23-.02.31-.01.49-.03.54-.04.05-.01.07-.04.07-.09a.84.84 0 0 0-.04-.18L1.56.82c-.05-.22-.15-.35-.3-.4C1.19.4 1.01.39.7.39.48.39.39.37.39.15.39.05.45 0 .57 0l1.26.03.63-.01c.11 0 .53-.02.64-.02.16 0 .24.08.24.24 0 .1-.11.15-.32.15-.4 0-.6.04-.6.13 0 0 .01.03.03.16l.67 2.68h2.93L5.38.68C5.35.53 5.23.43 5.03.4 4.98.39 4.81.39 4.52.39c-.19 0-.28-.08-.28-.24 0-.1.06-.15.18-.15l1.26.03.63-.01c.11 0 .52-.02.65-.02.16 0 .24.08.24.24 0 .1-.11.15-.32.15-.41 0-.61.04-.61.13 0 0 .01.03.03.16l1.34 5.34c.05.21.14.34.27.39.06.02.23.03.52.03.26 0 .38 0 .38.24Z"/></symbol><symbol id="L" overflow="visible"><path d="M7.39 5.31c0 .51-.26.9-.77 1.18-.41.23-.9.34-1.45.34H2.35c-.23 0-.33-.01-.33-.24 0-.07.03-.12.09-.13.1-.01.18-.02.23-.02.3-.01.47-.03.52-.04.05-.01.08-.04.08-.09a.84.84 0 0 0-.04-.18L1.58.82C1.53.6 1.43.46 1.28.41 1.21.39 1.03.38.72.38.5.38.41.37.41.15.41.04.47-.01.59 0l1.24.03L3.09 0c.16-.01.24.08.24.23 0 .1-.11.15-.32.15-.4 0-.6.05-.6.14 0 0 .01.02.03.16l.64 2.59h1.15c.69 0 1.04-.29 1.04-.86 0-.09-.05-.31-.14-.67-.11-.42-.16-.7-.16-.85 0-.76.59-1.11 1.35-1.11.28 0 .55.13.82.38.27.25.41.52.41.8 0 .1-.05.15-.16.15-.07 0-.13-.05-.16-.16-.11-.31-.25-.54-.41-.67-.16-.13-.31-.2-.46-.2-.23 0-.35.19-.35.56 0 .24.03.61.1 1.12.03.21.04.36.04.47 0 .53-.28.92-.84 1.16.94.23 2.08.9 2.08 1.92Zm-1.3.85c.2-.13.3-.35.3-.66 0-.2-.04-.43-.13-.7-.27-.82-.95-1.23-2.04-1.23H3.16l.63 2.53c.05.21.13.32.24.33.05.01.25.01.6.01.65 0 1.03-.02 1.46-.28Z"/></symbol><symbol id="M" overflow="visible"><path d="M.833 2.968c.224 0 .392.168.392.392 0 .252-.133.385-.392.392.154.329.504.595.959.595.616 0 1.022-.462 1.022-1.078 0-.336-.119-.658-.364-.973a3.284 3.284 0 0 0-.273-.336L.518.315C.427.231.441.21.441 0h2.884l.217 1.316h-.294C3.199.945 3.143.728 3.08.679 3.045.658 2.828.644 2.415.644h-1.19c.469.413.903.784 1.316 1.113.315.245.539.462.679.651.21.273.315.56.315.861 0 .434-.168.777-.511 1.029-.301.231-.679.35-1.127.35-.385 0-.714-.112-1.001-.336-.301-.245-.455-.553-.455-.931 0-.238.175-.413.392-.413Z"/></symbol><symbol id="N" overflow="visible"><path d="M7.51.53c0 .3-.26.53-.56.53-.31 0-.57-.23-.57-.53 0-.3.26-.53.57-.53.3 0 .56.23.56.53Zm-2.76 0c0 .3-.26.53-.56.53-.31 0-.56-.23-.56-.53 0-.3.25-.53.56-.53.3 0 .56.23.56.53ZM2 .53c0 .3-.26.53-.57.53-.3 0-.56-.23-.56-.53 0-.3.26-.53.56-.53.3 0 .57.23.57.53Z"/></symbol><symbol id="O" overflow="visible"><path d="M1.148 3.087c-.231 0-.42-.126-.567-.385a2.18 2.18 0 0 1-.252-.693c0-.077.049-.119.147-.119.133 0 .14.077.175.224.119.483.28.728.483.728.133 0 .196-.105.196-.315 0-.077-.035-.259-.112-.56L.847.469a4.317 4.317 0 0 1-.07-.294c0-.161.091-.245.266-.245.133 0 .231.056.294.168.021.042.063.189.126.434l.147.616c.084.329.133.511.147.553.056.182.14.357.259.518.294.413.63.623 1.015.623.252 0 .378-.154.378-.455 0-.273-.133-.756-.406-1.456-.07-.182-.105-.308-.105-.385 0-.378.308-.616.686-.616.329 0 .595.168.784.504.161.287.238.476.238.574 0 .077-.049.119-.14.119-.049-.007-.098-.042-.147-.112-.007-.007-.007-.021-.007-.028-.161-.539-.399-.812-.707-.812-.098 0-.147.07-.147.217 0 .098.056.28.161.546.245.623.364 1.071.364 1.337 0 .322-.112.546-.329.665a1.21 1.21 0 0 1-.595.147c-.455 0-.84-.196-1.148-.588-.063.343-.364.588-.763.588Z"/></symbol><symbol id="P" overflow="visible"><path d="M4.872 1.911H.574c-.14 0-.182-.07-.182-.161s.042-.161.182-.161h4.298c.14 0 .182.07.182.161 0 .084-.042.161-.182.161Z"/></symbol><symbol id="Q" overflow="visible"><path d="M2.49-.22C3.9-.22 4.6.92 4.6 3.2c0 1.53-.32 2.55-.95 3.05-.35.27-.74.41-1.15.41C1.09 6.66.39 5.51.39 3.2c0-1.84.49-3.42 2.1-3.42Zm1.12 5.46c.07-.35.1-.99.1-1.92 0-.92-.04-1.6-.11-2.04-.13-.8-.5-1.2-1.11-1.2-.23 0-.46.09-.67.26-.27.23-.43.7-.5 1.42-.03.25-.04.77-.04 1.56 0 .87.03 1.48.08 1.81.09.55.27.9.55 1.05.22.12.41.18.58.18.65 0 1.01-.53 1.12-1.12Z"/></symbol><symbol id="R" overflow="visible"><path d="M6.98 2.74H4.13v2.85c0 .16-.08.24-.24.24-.16 0-.24-.08-.24-.24V2.74H.8c-.16 0-.24-.08-.24-.24 0-.16.08-.24.24-.24h2.85V-.59c0-.16.08-.24.24-.24.16 0 .24.08.24.24v2.85h2.85c.16 0 .24.08.24.24 0 .13-.11.24-.24.24Z"/></symbol><symbol id="S" overflow="visible"><path d="M1.24 1.29c0 .24.05.57.15.98h.49c.65 0 1.15.08 1.51.23.33.14.55.34.66.59.07.17.1.33.1.46 0 .55-.52.87-1.08.87-.39 0-.78-.1-1.17-.3A2.76 2.76 0 0 1 .46 1.71c0-1.02.59-1.82 1.58-1.82.53 0 1 .13 1.41.38.34.21.59.42.75.63.07.09.1.16.1.19 0 .11-.05.17-.16.17-.05 0-.1-.04-.16-.12C3.65.7 3.24.42 2.77.3 2.46.22 2.23.18 2.06.18c-.57 0-.82.54-.82 1.11Zm2.51 2.26c0-.66-.64-.99-1.93-.99h-.35c.19.66.47 1.1.85 1.31.3.17.55.26.75.26.36 0 .68-.22.68-.58Z"/></symbol><symbol id="T" overflow="visible"><path d="M3.136-.07c.175 0 .35.161.35.336a.504.504 0 0 1-.056.168c-.168.315-.252.714-.252 1.197 0 .259.028.546.091.861h.84c.266 0 .399.098.399.301 0 .147-.105.224-.322.224H1.582c-.28 0-.553-.119-.812-.357a3.185 3.185 0 0 1-.294-.343c-.105-.14-.161-.231-.161-.266 0-.077.049-.112.147-.112.056 0 .105.028.147.084.224.315.525.469.91.469h.385c-.147-.525-.441-1.225-.868-2.114A.31.31 0 0 0 .987.294.696.696 0 0 1 .966.175c0-.161.091-.245.266-.245.154 0 .28.126.385.378.021.063.077.252.161.574l.42 1.61h.77C2.8 1.827 2.716 1.309 2.716.938c0-.413.105-1.008.42-1.008Z"/></symbol><symbol id="U" overflow="visible"><path d="M2.275 4.347a.293.293 0 0 1-.301.294c-.21 0-.413-.196-.413-.406 0-.168.133-.294.301-.294.21 0 .413.196.413.406Zm-.931-1.239c-.329 0-.588-.168-.777-.504-.161-.28-.238-.476-.238-.588 0-.077.049-.112.14-.112.077 0 .126.042.154.126.161.553.392.826.7.826.098 0 .147-.07.147-.217 0-.091-.07-.315-.21-.679L.826.847A.86.86 0 0 1 .763.546c0-.364.315-.616.679-.616.329 0 .581.168.77.511.161.28.238.469.238.574 0 .077-.049.119-.14.119-.042-.007-.091-.042-.14-.112a.053.053 0 0 1-.014-.028C1.995.455 1.764.182 1.463.182c-.098 0-.147.07-.147.21 0 .105.035.252.112.434l.553 1.435a.672.672 0 0 1 .042.231c0 .364-.315.616-.679.616Z"/></symbol><symbol id="V" overflow="visible"><path d="M3.612 2.233c0 .791-.14 1.393-.413 1.806-.224.35-.672.609-1.211.609a1.49 1.49 0 0 1-.602-.112C.616 4.214.364 3.318.364 2.233c0-.238.014-.462.035-.679C.518.637.945-.14 1.988-.14c.224 0 .427.035.602.112.77.315 1.022 1.19 1.022 2.261Zm-.798 1.554c.077-.259.119-.742.119-1.463 0-.686-.028-1.169-.091-1.456-.084-.413-.378-.756-.854-.756a.851.851 0 0 0-.511.175c-.217.161-.35.476-.406.959-.021.161-.028.518-.028 1.078 0 .679.035 1.148.105 1.4.119.448.399.672.84.672.42 0 .728-.273.826-.609Z"/></symbol><symbol id="W" overflow="visible"><path d="M1.589.399a.4.4 0 0 1-.399.406.4.4 0 0 1-.406-.399A.4.4 0 0 1 1.183 0a.4.4 0 0 1 .406.399Z"/></symbol><symbol id="X" overflow="visible"><path d="M3.073 4.347a.293.293 0 0 1-.301.294c-.203 0-.413-.203-.413-.406 0-.168.133-.294.301-.294.21 0 .413.196.413.406ZM2.058 3.101c-.392 0-.735-.259-.917-.504-.21-.301-.315-.497-.315-.588 0-.077.049-.112.14-.112.07 0 .126.049.168.14.077.168.168.315.273.448.203.245.413.364.63.364.133 0 .203-.105.203-.308a.784.784 0 0 0-.021-.203L1.561-.315c-.098-.399-.413-.861-.861-.861a.705.705 0 0 0-.175.021.382.382 0 0 1 .189.343c0 .189-.098.287-.294.287A.43.43 0 0 1 0-.966c0-.322.35-.462.707-.462a1.506 1.506 0 0 1 1.456 1.12l.623 2.478c.021.091.035.175.035.252 0 .406-.357.679-.763.679Z"/></symbol><symbol id="Y" overflow="visible"><path d="M1.8 3.33c-.23-.21-.555-.315-.98-.315H.715v-.26H.82c.255 0 .485.045.695.13V.445c0-.055-.005-.095-.02-.115C1.47.28 1.31.255 1.015.255H.75V0c.195.015.53.02 1.01.02S2.575.015 2.77 0v.255h-.265C2.21.255 2.05.28 2.02.33a.299.299 0 0 0-.015.115V3.16c0 .17-.02.17-.205.17Z"/></symbol><symbol id="Z" overflow="visible"><path d="M5.257.371c0 .21-.182.371-.392.371-.217 0-.399-.161-.399-.371S4.648 0 4.865 0c.21 0 .392.161.392.371Zm-1.932 0c0 .21-.182.371-.392.371-.217 0-.392-.161-.392-.371S2.716 0 2.933 0c.21 0 .392.161.392.371ZM1.4.371c0 .21-.182.371-.399.371C.791.742.609.581.609.371S.791 0 1.001 0c.21 0 .399.161.399.371Z"/></symbol><symbol id="aa" overflow="visible"><path d="M2.65 2.21c-.355 0-.66-.15-.92-.455-.035.29-.325.455-.62.455a.498.498 0 0 1-.36-.16 1.133 1.133 0 0 1-.255-.465 3.153 3.153 0 0 0-.04-.155c0-.06.04-.09.125-.09.07 0 .115.035.13.11.095.37.225.555.38.555.12 0 .18-.08.18-.24 0-.04-.025-.165-.08-.38L1.085.94.97.505a3.375 3.375 0 0 1-.085-.37c0-.125.07-.19.205-.19.115 0 .2.06.255.175l.095.385c.075.325.135.555.175.69.065.135.165.28.3.445.195.245.43.365.705.365.215 0 .325-.11.325-.335 0-.185-.105-.535-.32-1.06a.57.57 0 0 1-.05-.215c0-.275.275-.45.56-.45.165 0 .31.06.445.175.25.215.375.415.375.605 0 .06-.04.09-.125.09-.06 0-.095-.015-.11-.05-.08-.215-.165-.37-.25-.46C3.37.2 3.265.15 3.155.15c-.085 0-.13.055-.13.17 0 .07.02.155.065.25.205.495.31.84.31 1.035 0 .415-.315.605-.75.605Z"/></symbol><symbol id="ab" overflow="visible"><path d="M2.69 6.66c-.41-.42-1.01-.63-1.8-.63v-.39c.52 0 .95.08 1.28.24V.82c0-.18-.04-.3-.13-.35C1.95.42 1.7.39 1.3.39H.95V0c.25.02.79.03 1.62.03C3.4.03 3.94.02 4.19 0v.39h-.35c-.41 0-.66.03-.74.08-.08.05-.13.17-.13.35v5.54c0 .24-.02.3-.28.3Z"/></symbol><symbol id="ac" overflow="visible"><path d="M.76 2.12a.3.3 0 0 1 .31.31c0 .175-.09.28-.265.31.155.225.395.335.72.335.475 0 .855-.295.855-.755 0-.315-.22-.66-.66-1.035L.52.26C.48.225.46.195.455.17V0H2.78l.17.995H2.7c-.045-.27-.09-.42-.135-.455-.025-.015-.2-.025-.515-.025h-.905c.645.475.785.57 1.2.865.2.145.34.28.425.405a.975.975 0 0 1 .175.54.86.86 0 0 1-.43.77c-.245.155-.54.235-.89.235a1.41 1.41 0 0 1-.78-.22c-.26-.165-.39-.39-.39-.67 0-.19.15-.32.305-.32Z"/></symbol><symbol id="ad" overflow="visible"><path d="M1.62 5.26c0 .3-.23.56-.53.56-.3 0-.53-.26-.53-.56 0-.31.23-.57.53-.57.3 0 .53.27.53.57Zm0-2.76c0 .3-.23.56-.53.56-.3 0-.53-.25-.53-.56 0-.31.23-.56.53-.56.3 0 .53.26.53.56Zm0-2.76c0 .31-.23.57-.53.57C.79.31.56.05.56-.26c0-.3.23-.56.53-.56.3 0 .53.26.53.56Z"/></symbol><symbol id="ae" overflow="visible"><path d="M3.47 1.38H.42c-.1 0-.14-.065-.14-.13s.04-.13.14-.13h3.05c.1 0 .14.065.14.13 0 .06-.04.13-.14.13Z"/></symbol><symbol id="af" overflow="visible"><path d="m5.83 0-.77 2.266H1.958L1.188 0H.253l2.684 7.678h1.177L6.798 0H5.83ZM3.531 6.82h-.055L2.178 3.08h2.651L3.531 6.82Z"/></symbol><symbol id="ag" overflow="visible"><path d="M4.565.924h-.044Q4.004-.132 2.86-.132q-.528 0-.957.209-.429.209-.732.594-.302.385-.462.935-.159.55-.159 1.232 0 .682.16 1.232.159.55.462.935.302.385.731.594.429.209.957.209.594 0 1.018-.258.423-.259.643-.798h.044V8.14h.88V0h-.88v.924ZM3.102.66q.297 0 .567.077.269.077.467.226.198.148.313.362.116.215.116.49v2.112q0 .231-.116.435-.115.203-.313.346-.198.143-.468.226-.269.082-.566.082-.748 0-1.177-.468-.429-.467-.429-1.226v-.968q0-.759.429-1.227Q2.354.66 3.102.66Z"/></symbol><symbol id="ah" overflow="visible"><path d="M5.379.902Q5.258.759 5.071.577 4.884.397 4.614.242q-.269-.154-.637-.264-.369-.11-.831-.11-.572 0-1.012.165-.44.165-.737.457Q1.1.78.946 1.166q-.154.385-.154.825 0 .429.132.759t.358.588q.225.259.506.457.28.198.577.363-.396.418-.633.853-.236.434-.236.951 0 .385.143.726.143.341.402.588.258.248.627.391.368.143.819.143.407 0 .748-.121t.583-.335q.242-.215.38-.523.137-.308.137-.671 0-.385-.138-.688-.137-.302-.379-.555-.242-.253-.561-.468-.319-.214-.682-.412l1.727-1.859q.165.418.253.891.088.473.11.968h1.496v-.748H6.38q-.077-.484-.209-.908-.132-.423-.319-.786L7.348 0H6.204l-.825.902ZM3.443 7.073q-.473 0-.776-.297-.302-.297-.302-.737v-.132q0-.33.203-.665.204-.336.534-.71.264.143.511.303.248.159.44.346.193.187.314.39.121.204.121.435v.132q0 .451-.314.693-.313.242-.731.242ZM3.223.638q.561 0 .968.215.407.214.693.577L2.827 3.652q-.22-.121-.423-.253-.204-.132-.358-.313-.154-.182-.247-.418-.094-.237-.094-.556v-.165q0-.605.413-.957Q2.53.638 3.223.638Z"/></symbol><symbol id="ai" overflow="visible"><path d="m2.882 4.686-.924 1.705h-.033V0h-.902v7.678H2.09l2.805-4.686.924-1.705h.033v6.391h.902V0H5.687L2.882 4.686Z"/></symbol><symbol id="aj" overflow="visible"><path d="M3.08-.132q-.572 0-1.045.209t-.809.6q-.335.39-.522.934-.187.545-.187 1.227 0 .671.187 1.221t.522.94q.336.391.809.6.473.209 1.045.209t1.04-.209q.467-.209.808-.6.341-.39.528-.94.187-.55.187-1.221 0-.682-.187-1.227-.187-.544-.528-.934-.341-.391-.808-.6-.468-.209-1.04-.209Zm0 .781q.715 0 1.166.44.451.44.451 1.342v.814q0 .902-.451 1.342-.451.44-1.166.44-.715 0-1.166-.44-.451-.44-.451-1.342v-.814q0-.902.451-1.342.451-.44 1.166-.44Z"/></symbol><symbol id="ak" overflow="visible"><path d="M.935 0v5.676h.88V4.631h.055q.154.407.55.726t1.089.319h.341v-.88h-.517q-.715 0-1.117-.27-.401-.269-.401-.676V0h-.88Z"/></symbol><symbol id="al" overflow="visible"><path d="M.935 0v5.676h.88v-.924h.044q.099.22.225.412.127.193.308.336.182.143.424.226.242.082.572.082.561 0 1.034-.27.473-.269.704-.885h.022q.154.462.578.809.423.346 1.149.346.869 0 1.358-.566.49-.567.49-1.601V0h-.88v3.487q0 .759-.297 1.144-.297.385-.946.385-.264 0-.5-.066-.237-.066-.424-.198t-.297-.335q-.11-.204-.11-.479V0h-.88v3.487q0 .759-.297 1.144-.297.385-.924.385-.264 0-.506-.066t-.429-.198q-.187-.132-.302-.335-.116-.204-.116-.479V0h-.88Z"/></symbol><symbol id="am" overflow="visible"><path d="M7.007 6.468h-.055l-.649-1.287-1.837-3.344-1.837 3.344-.649 1.287h-.055V0h-.902v7.678h1.232l2.2-4.136h.055l2.211 4.136h1.188V0h-.902v6.468Z"/></symbol><symbol id="an" overflow="visible"><path d="M4.433.924h-.044q-.088-.198-.215-.39Q4.048.34 3.861.191 3.674.045 3.41-.043t-.616-.088q-.88 0-1.397.567Q.88 1 .88 2.034v3.641h.88V2.189Q1.76.66 3.058.66q.264 0 .512.066.247.066.44.198.192.132.308.336.115.203.115.489v3.927h.88V0h-.88v.924Z"/></symbol><symbol id="ao" overflow="visible"><path d="M1.87 0q-.462 0-.699.259Q.935.516.935.913V8.14h.88V.77h.836V0H1.87Z"/></symbol><symbol id="ap" overflow="visible"><path d="M2.189 0q-.462 0-.699.259-.236.258-.236.676v3.971H.319v.77h.528q.286 0 .39.115.105.116.105.402v1.056h.792V5.676h1.243v-.77H2.134V.77h1.155V0h-1.1Z"/></symbol><symbol id="aq" overflow="visible"><path d="M1.375 7.007q-.286 0-.412.138-.127.137-.127.357v.143q0 .22.127.357.126.138.412.138t.413-.138q.126-.137.126-.357v-.143q0-.22-.126-.357-.127-.138-.413-.138Zm-.44-1.331h.88V0h-.88v5.676Z"/></symbol><symbol id="ar" overflow="visible"><path d="M.759 2.871v.946H3.63v-.946H.759Z"/></symbol><symbol id="as" overflow="visible"><path d="M5.83 3.476H1.947V0h-.924v7.678h.924V4.29H5.83v3.388h.924V0H5.83v3.476Z"/></symbol><symbol id="at" overflow="visible"><path d="M3.069-.132q-.583 0-1.05.209-.468.209-.804.6-.335.39-.517.934-.181.545-.181 1.227 0 .671.181 1.221.182.55.518.94.335.391.802.6.468.209 1.051.209.572 0 1.023-.209.451-.209.77-.578.319-.368.49-.874.17-.506.17-1.111v-.418H1.441v-.264q0-.363.115-.677.116-.313.33-.544.215-.231.528-.363.314-.132.71-.132.539 0 .94.253.402.253.622.726l.627-.451q-.275-.583-.858-.94-.583-.358-1.386-.358Zm0 5.203q-.363 0-.66-.127-.297-.126-.511-.357-.215-.231-.336-.544-.121-.314-.121-.688v-.077h3.135v.121q0 .759-.412 1.215-.413.457-1.095.457Z"/></symbol><symbol id="au" overflow="visible"><path d="M5.06 0q-.495 0-.71.264-.214.264-.269.66h-.055Q3.839.396 3.41.132T2.387-.132q-.902 0-1.402.462Q.484.792.484 1.584q0 .803.589 1.232.588.429 1.831.429h1.122v.561q0 .605-.33.924-.33.319-1.012.319-.517 0-.864-.231-.346-.231-.577-.616l-.528.495q.231.462.737.787.506.324 1.276.324 1.034 0 1.606-.506.572-.506.572-1.408V.77h.649V0H5.06ZM2.53.616q.33 0 .605.077.275.077.473.22.198.143.308.33.11.187.11.407v.935H2.86q-.759 0-1.105-.22-.347-.22-.347-.638v-.231q0-.418.302-.649.303-.231.82-.231Z"/></symbol><symbol id="av" overflow="visible"><path d="M.935 0v5.676h.88v-.924h.044q.209.484.588.77.38.286 1.018.286.88 0 1.391-.566.512-.567.512-1.601V0h-.88v3.487q0 1.529-1.287 1.529-.264 0-.512-.066-.247-.066-.445-.198t-.314-.335q-.115-.204-.115-.479V0h-.88Z"/></symbol><symbol id="aw" overflow="visible"><path d="M.66 0v.77h1.078v6.138H.66v.77h3.08v-.77H2.662V.77H3.74V0H.66Z"/></symbol><symbol id="ax" overflow="visible"><path d="M.935 5.676h.88v-.924h.044q.22.539.643.798.424.258 1.018.258.528 0 .957-.209.429-.209.731-.594.303-.385.462-.935.16-.55.16-1.232 0-.682-.16-1.232-.159-.55-.462-.935-.302-.385-.731-.594-.429-.209-.957-.209-1.155 0-1.661 1.056h-.044V-2.2h-.88v7.876ZM3.278.66q.748 0 1.177.467.429.468.429 1.227v.968q0 .759-.429 1.226-.429.468-1.177.468-.297 0-.567-.082-.269-.083-.467-.226-.198-.143-.314-.346-.115-.204-.115-.435V1.815q0-.275.116-.49.115-.214.313-.362.198-.149.467-.226.27-.077.567-.077Z"/></symbol><symbol id="ay" overflow="visible"><path d="M3.179-.132q-.935 0-1.595.358-.66.357-1.122.984l.682.572q.407-.539.902-.82.495-.28 1.166-.28.825 0 1.26.396.434.396.434 1.056 0 .55-.33.847-.33.297-1.089.473l-.627.143q-1.056.242-1.611.732-.556.489-.556 1.38 0 .506.187.902t.523.66q.335.264.802.402.468.137 1.029.137.869 0 1.49-.319.622-.319 1.051-.935l-.693-.506q-.319.44-.77.693-.451.253-1.122.253-.737 0-1.16-.314-.424-.313-.424-.94 0-.55.357-.83.358-.281 1.084-.446l.627-.143q1.133-.253 1.639-.77t.506-1.375q0-.528-.181-.957-.182-.429-.523-.726t-.83-.462q-.49-.165-1.106-.165Z"/></symbol><symbol id="az" overflow="visible"><path d="M1.243 4.906H.319v.77h.924V6.82q0 .594.308.957t.935.363h.858v-.77H2.123V5.676h1.221v-.77H2.123V0h-.88v4.906Z"/></symbol><symbol id="aA" overflow="visible"><path d="m.231 0 2.101 2.86L.319 5.676h1.034l1.441-2.112h.033l1.496 2.112h.979L3.3 2.926 5.346 0H4.312L2.838 2.222h-.033L1.21 0H.231Z"/></symbol><symbol id="aB" overflow="visible"><path d="M1.023 0v7.678h4.576v-.814H1.947V4.29H5.28v-.814H1.947V0h-.924Z"/></symbol><symbol id="aC" overflow="visible"><path d="M.341 5.676h.858l.605-2.453.605-2.486h.022l.693 2.486.715 2.453h.781l.737-2.453.704-2.486h.022l.583 2.486.616 2.453h.825L6.6 0H5.511l-.792 2.728-.495 1.727h-.022l-.484-1.727L2.926 0H1.859L.341 5.676Z"/></symbol></defs></svg>