<svg xmlns="http://www.w3.org/2000/svg" xmlns:xlink="http://www.w3.org/1999/xlink" width="691.2" height="844.8" class="typst-doc" viewBox="0 0 518.4 633.6"><g class="typst-group"><use xlink:href="#a" class="typst-text" transform="matrix(1 0 0 -1 136.513 123.157)"/><use xlink:href="#b" class="typst-text" transform="matrix(1 0 0 -1 123.445 122.981)"/><use xlink:href="#c" class="typst-text" transform="matrix(1 0 0 -1 136.03 128.415)"/><use xlink:href="#d" class="typst-text" transform="matrix(1 0 0 -1 150.657 122.981)"/><use xlink:href="#e" class="typst-text" transform="matrix(1 0 0 -1 176.084 108.087)"/><use xlink:href="#f" class="typst-text" transform="matrix(1 0 0 -1 176.326 138.073)"/><path fill="none" stroke="#000" stroke-width="1.056" d="M176.084 117.481h10.56" class="typst-shape"/><use xlink:href="#g" class="typst-text" transform="matrix(1 0 0 -1 192.51 122.981)"/><use xlink:href="#h" class="typst-text" transform="matrix(1 0 0 -1 205.615 147.243)"/><use xlink:href="#a" class="typst-text" transform="matrix(1 0 0 -1 241.013 123.157)"/><use xlink:href="#b" class="typst-text" transform="matrix(1 0 0 -1 227.945 122.981)"/><use xlink:href="#h" class="typst-text" transform="matrix(1 0 0 -1 240.53 128.415)"/><use xlink:href="#i" class="typst-text" transform="matrix(1 0 0 -1 247.32 122.981)"/><g class="typst-group"><use xlink:href="#j" class="typst-text" transform="matrix(1 0 0 -1 271.665 108.087)"/><use xlink:href="#k" class="typst-text" transform="matrix(1 0 0 -1 284.733 108.087)"/><use xlink:href="#j" class="typst-text" transform="matrix(1 0 0 -1 269.364 138.073)"/><use xlink:href="#b" class="typst-text" transform="matrix(1 0 0 -1 282.432 138.073)"/><use xlink:href="#c" class="typst-text" transform="matrix(1 0 0 -1 295.016 143.507)"/><path fill="none" stroke="#000" stroke-width="1.056" d="M269.364 117.481h34.169" class="typst-shape"/></g><use xlink:href="#l" class="typst-text" transform="matrix(1 0 0 -1 310.622 122.981)"/><g class="typst-group"><use xlink:href="#j" class="typst-text" transform="matrix(1 0 0 -1 334.826 105.737)"/><use xlink:href="#k" class="typst-text" transform="matrix(1 0 0 -1 347.894 105.737)"/><use xlink:href="#c" class="typst-text" transform="matrix(1 0 0 -1 364.394 111.171)"/><use xlink:href="#j" class="typst-text" transform="matrix(1 0 0 -1 337.647 138.073)"/><use xlink:href="#b" class="typst-text" transform="matrix(1 0 0 -1 350.715 138.073)"/><use xlink:href="#h" class="typst-text" transform="matrix(1 0 0 -1 363.299 143.507)"/><path fill="none" stroke="#000" stroke-width="1.056" d="M334.826 117.481h38.085" class="typst-shape"/></g><use xlink:href="#m" class="typst-text" transform="matrix(1 0 0 -1 375.11 122.981)"/><use xlink:href="#l" class="typst-text" transform="matrix(1 0 0 -1 173.884 197.777)"/><g class="typst-group"><use xlink:href="#j" class="typst-text" transform="matrix(1 0 0 -1 193.2 180.533)"/><use xlink:href="#k" class="typst-text" transform="matrix(1 0 0 -1 206.268 180.533)"/><use xlink:href="#c" class="typst-text" transform="matrix(1 0 0 -1 222.768 185.967)"/><use xlink:href="#j" class="typst-text" transform="matrix(1 0 0 -1 201.737 212.869)"/><use xlink:href="#n" class="typst-text" transform="matrix(1 0 0 -1 214.805 212.869)"/><path fill="none" stroke="#000" stroke-width="1.056" d="M193.2 192.277h38.084" class="typst-shape"/></g><use xlink:href="#l" class="typst-text" transform="matrix(1 0 0 -1 238.373 197.777)"/><use xlink:href="#f" class="typst-text" transform="matrix(1 0 0 -1 260.378 197.777)"/><g class="typst-group"><use xlink:href="#j" class="typst-text" transform="matrix(1 0 0 -1 276.01 182.883)"/><use xlink:href="#o" class="typst-text" transform="matrix(1 0 0 -1 289.078 182.883)"/><use xlink:href="#j" class="typst-text" transform="matrix(1 0 0 -1 272.654 212.869)"/><use xlink:href="#b" class="typst-text" transform="matrix(1 0 0 -1 285.722 212.869)"/><use xlink:href="#c" class="typst-text" transform="matrix(1 0 0 -1 298.306 218.303)"/><path fill="none" stroke="#000" stroke-width="1.056" d="M272.654 192.277h34.168" class="typst-shape"/></g></g><g class="typst-group"><use xlink:href="#p" class="typst-text" transform="matrix(1 0 0 -1 98.864 343.823)"/><use xlink:href="#q" class="typst-text" transform="matrix(1 0 0 -1 110.59 349.257)"/><use xlink:href="#r" class="typst-text" transform="matrix(1 0 0 -1 121.293 349.257)"/><use xlink:href="#s" class="typst-text" transform="matrix(1 0 0 -1 126.514 349.257)"/><use xlink:href="#d" class="typst-text" transform="matrix(1 0 0 -1 143.328 343.823)"/><g class="typst-group"><use xlink:href="#t" class="typst-text" transform="matrix(1 0 0 -1 166.555 400.653)"/><use xlink:href="#u" class="typst-text" transform="matrix(1 0 0 -1 166.555 368.507)"/><use xlink:href="#u" class="typst-text" transform="matrix(1 0 0 -1 166.555 358.624)"/><use xlink:href="#u" class="typst-text" transform="matrix(1 0 0 -1 166.555 348.742)"/><use xlink:href="#u" class="typst-text" transform="matrix(1 0 0 -1 166.555 338.86)"/><use xlink:href="#u" class="typst-text" transform="matrix(1 0 0 -1 166.555 328.978)"/><use xlink:href="#u" class="typst-text" transform="matrix(1 0 0 -1 166.555 319.096)"/><use xlink:href="#v" class="typst-text" transform="matrix(1 0 0 -1 166.555 308.884)"/></g><g class="typst-group"><use xlink:href="#w" class="typst-text" transform="matrix(1 0 0 -1 201.506 298.116)"/><use xlink:href="#l" class="typst-text" transform="matrix(1 0 0 -1 185.805 327.548)"/><use xlink:href="#x" class="typst-text" transform="matrix(1 0 0 -1 202.921 327.548)"/><use xlink:href="#y" class="typst-text" transform="matrix(1 0 0 -1 218.52 332.982)"/><use xlink:href="#x" class="typst-text" transform="matrix(1 0 0 -1 194.063 356.98)"/><use xlink:href="#z" class="typst-text" transform="matrix(1 0 0 -1 209.661 362.413)"/><use xlink:href="#A" class="typst-text" transform="matrix(1 0 0 -1 189.487 386.411)"/><use xlink:href="#B" class="typst-text" transform="matrix(1 0 0 -1 197.077 386.411)"/><use xlink:href="#C" class="typst-text" transform="matrix(1 0 0 -1 213.313 391.845)"/><use xlink:href="#x" class="typst-text" transform="matrix(1 0 0 -1 248.526 298.116)"/><use xlink:href="#y" class="typst-text" transform="matrix(1 0 0 -1 264.124 303.55)"/><use xlink:href="#w" class="typst-text" transform="matrix(1 0 0 -1 255.669 327.548)"/><use xlink:href="#l" class="typst-text" transform="matrix(1 0 0 -1 239.206 356.98)"/><use xlink:href="#x" class="typst-text" transform="matrix(1 0 0 -1 256.322 356.98)"/><use xlink:href="#C" class="typst-text" transform="matrix(1 0 0 -1 271.92 362.413)"/><use xlink:href="#A" class="typst-text" transform="matrix(1 0 0 -1 244.112 386.411)"/><use xlink:href="#B" class="typst-text" transform="matrix(1 0 0 -1 251.702 386.411)"/><use xlink:href="#z" class="typst-text" transform="matrix(1 0 0 -1 267.938 391.845)"/><use xlink:href="#l" class="typst-text" transform="matrix(1 0 0 -1 294.131 298.116)"/><use xlink:href="#x" class="typst-text" transform="matrix(1 0 0 -1 311.247 298.116)"/><use xlink:href="#z" class="typst-text" transform="matrix(1 0 0 -1 326.845 303.55)"/><use xlink:href="#x" class="typst-text" transform="matrix(1 0 0 -1 302.227 327.548)"/><use xlink:href="#C" class="typst-text" transform="matrix(1 0 0 -1 317.825 332.982)"/><use xlink:href="#w" class="typst-text" transform="matrix(1 0 0 -1 310.132 356.98)"/><use xlink:href="#A" class="typst-text" transform="matrix(1 0 0 -1 298.875 386.411)"/><use xlink:href="#B" class="typst-text" transform="matrix(1 0 0 -1 306.465 386.411)"/><use xlink:href="#y" class="typst-text" transform="matrix(1 0 0 -1 322.701 391.845)"/><use xlink:href="#l" class="typst-text" transform="matrix(1 0 0 -1 348.132 298.116)"/><use xlink:href="#A" class="typst-text" transform="matrix(1 0 0 -1 365.248 298.116)"/><use xlink:href="#B" class="typst-text" transform="matrix(1 0 0 -1 372.838 298.116)"/><use xlink:href="#C" class="typst-text" transform="matrix(1 0 0 -1 389.074 303.55)"/><use xlink:href="#l" class="typst-text" transform="matrix(1 0 0 -1 348.594 327.548)"/><use xlink:href="#A" class="typst-text" transform="matrix(1 0 0 -1 365.71 327.548)"/><use xlink:href="#B" class="typst-text" transform="matrix(1 0 0 -1 373.3 327.548)"/><use xlink:href="#z" class="typst-text" transform="matrix(1 0 0 -1 389.536 332.982)"/><use xlink:href="#l" class="typst-text" transform="matrix(1 0 0 -1 348.895 356.98)"/><use xlink:href="#A" class="typst-text" transform="matrix(1 0 0 -1 366.01 356.98)"/><use xlink:href="#B" class="typst-text" transform="matrix(1 0 0 -1 373.6 356.98)"/><use xlink:href="#y" class="typst-text" transform="matrix(1 0 0 -1 389.837 362.413)"/><use xlink:href="#w" class="typst-text" transform="matrix(1 0 0 -1 368.709 386.411)"/></g><g class="typst-group"><use xlink:href="#D" class="typst-text" transform="matrix(1 0 0 -1 400.286 400.653)"/><use xlink:href="#E" class="typst-text" transform="matrix(1 0 0 -1 400.286 368.507)"/><use xlink:href="#E" class="typst-text" transform="matrix(1 0 0 -1 400.286 358.624)"/><use xlink:href="#E" class="typst-text" transform="matrix(1 0 0 -1 400.286 348.742)"/><use xlink:href="#E" class="typst-text" transform="matrix(1 0 0 -1 400.286 338.86)"/><use xlink:href="#E" class="typst-text" transform="matrix(1 0 0 -1 400.286 328.978)"/><use xlink:href="#E" class="typst-text" transform="matrix(1 0 0 -1 400.286 319.096)"/><use xlink:href="#F" class="typst-text" transform="matrix(1 0 0 -1 400.286 308.884)"/></g></g><g class="typst-group"><use xlink:href="#G" class="typst-text" transform="matrix(1 0 0 -1 56.315 502.787)"/><g class="typst-group"><use xlink:href="#H" fill="#ff4136" class="typst-text" transform="matrix(1 0 0 -1 64.873 502.787)"/><use xlink:href="#b" fill="#ff4136" class="typst-text" transform="matrix(1 0 0 -1 76.511 502.787)"/></g><use xlink:href="#I" class="typst-text" transform="matrix(1 0 0 -1 93.984 502.787)"/><use xlink:href="#J" fill="#0074d9" class="typst-text" transform="matrix(1 0 0 -1 115.989 502.787)"/><use xlink:href="#K" class="typst-text" transform="matrix(1 0 0 -1 125.735 502.787)"/><use xlink:href="#G" class="typst-text" transform="matrix(1 0 0 -1 134.293 502.787)"/><g class="typst-group"><use xlink:href="#f" fill="#ff4136" class="typst-text" transform="matrix(1 0 0 -1 142.85 502.787)"/><use xlink:href="#b" fill="#ff4136" class="typst-text" transform="matrix(1 0 0 -1 152.927 502.787)"/></g><use xlink:href="#I" class="typst-text" transform="matrix(1 0 0 -1 170.4 502.787)"/><use xlink:href="#L" fill="#0074d9" class="typst-text" transform="matrix(1 0 0 -1 192.405 502.787)"/><use xlink:href="#K" class="typst-text" transform="matrix(1 0 0 -1 204.373 502.787)"/><use xlink:href="#d" class="typst-text" transform="matrix(1 0 0 -1 219.042 502.787)"/><g class="typst-group"><use xlink:href="#H" fill="#ff4136" class="typst-text" transform="matrix(1 0 0 -1 242.269 502.787)"/><use xlink:href="#f" fill="#ff4136" class="typst-text" transform="matrix(1 0 0 -1 253.907 502.787)"/><use xlink:href="#b" fill="#ff4136" class="typst-text" transform="matrix(1 0 0 -1 263.983 502.787)"/><use xlink:href="#M" fill="#ff4136" class="typst-text" transform="matrix(1 0 0 -1 276.567 494.801)"/></g><use xlink:href="#I" class="typst-text" transform="matrix(1 0 0 -1 291.45 502.787)"/><g class="typst-group"><use xlink:href="#G" fill="#b10dc9" class="typst-text" transform="matrix(1 0 0 -1 313.455 502.787)"/><use xlink:href="#H" fill="#b10dc9" class="typst-text" transform="matrix(1 0 0 -1 322.013 502.787)"/><use xlink:href="#L" fill="#b10dc9" class="typst-text" transform="matrix(1 0 0 -1 333.651 502.787)"/><use xlink:href="#I" fill="#b10dc9" class="typst-text" transform="matrix(1 0 0 -1 350.508 502.787)"/><use xlink:href="#J" fill="#b10dc9" class="typst-text" transform="matrix(1 0 0 -1 372.513 502.787)"/><use xlink:href="#f" fill="#b10dc9" class="typst-text" transform="matrix(1 0 0 -1 382.26 502.787)"/><use xlink:href="#K" fill="#b10dc9" class="typst-text" transform="matrix(1 0 0 -1 392.335 502.787)"/><use xlink:href="#b" fill="#b10dc9" class="typst-text" transform="matrix(1 0 0 -1 400.893 502.787)"/></g><use xlink:href="#I" class="typst-text" transform="matrix(1 0 0 -1 418.366 502.787)"/><g class="typst-group"><use xlink:href="#J" fill="#0074d9" class="typst-text" transform="matrix(1 0 0 -1 440.37 502.787)"/><use xlink:href="#L" fill="#0074d9" class="typst-text" transform="matrix(1 0 0 -1 450.117 502.787)"/></g></g><g class="typst-group"><g class="typst-group"><g class="typst-group"><path fill="none" d="M64.873 490.863v14.366h24.222v-14.366H64.873ZM115.989 485.319v19.91h9.746v-19.91h-9.746ZM142.85 490.863v14.366h22.66v-14.366h-22.66ZM192.405 485.319v19.91h11.968v-19.91h-11.968Z" class="typst-shape"/><path fill="none" stroke="#ff4136" d="M76.984 505.229c23.46 19.594 48.667 19.968 75.63 1.116" class="typst-shape"/><path fill="none" stroke="#ff4136" d="m149.636 511.076 3.385-5.02-5.851 1.556" class="typst-shape"/><path fill="none" stroke="#b10dc9" d="M76.984 505.229c28.77 45.288 68.748 45.716 119.956 1.267" class="typst-shape"/><path fill="none" stroke="#b10dc9" d="m194.449 511.499 2.868-5.333-5.667 2.132M120.862 485.319c12.852-20.072 23.728-18.827 32.631 3.747" class="typst-shape"/><path fill="none" stroke="#b10dc9" d="m149.66 484.998 4.012 4.535-.04-6.055" class="typst-shape"/><path fill="none" stroke="#0074d9" d="M120.862 485.319c12.675-42.188 38.077-42.668 76.226-1.418" class="typst-shape"/><path fill="none" stroke="#0074d9" d="m192.026 481.53 5.4 2.74-2.267-5.615" class="typst-shape"/></g></g></g><defs><symbol id="a" overflow="visible"><path d="M-4.642 13.728c0 .638-.528 1.166-1.166 1.166-.638 0-1.188-.528-1.188-1.166 0-.638.528-1.166 1.166-1.166.638 0 1.188.528 1.188 1.166Z"/></symbol><symbol id="b" overflow="visible"><path d="M11.594 8.206c0 1.012-.99 1.518-2.09 1.518-.946 0-1.694-.506-2.266-1.518-.462 1.012-1.232 1.518-2.354 1.518-1.078 0-1.958-.506-2.662-1.496-.594-.858-.902-1.496-.902-1.914 0-.198.11-.308.33-.308.198 0 .33.11.374.308.418 1.276 1.342 2.772 2.816 2.772.726 0 1.078-.462 1.078-1.364 0-.462-.396-2.178-1.166-5.126-.374-1.474-1.034-2.2-1.98-2.2-.308 0-.594.066-.836.176.572.22.858.616.858 1.188s-.286.858-.88.858c-.726 0-1.276-.616-1.276-1.342C.638.264 1.672-.242 2.75-.242c.924 0 1.672.506 2.266 1.518C5.434.264 6.226-.242 7.37-.242c1.056 0 1.936.506 2.64 1.496.594.858.902 1.496.902 1.914 0 .198-.11.308-.33.308-.198 0-.308-.11-.374-.308C9.834 1.914 8.844.396 7.414.396c-.726 0-1.1.44-1.1 1.342 0 .286.11.902.352 1.892l.748 2.97c.418 1.65 1.1 2.486 2.068 2.486.308 0 .594-.066.836-.176-.594-.198-.88-.594-.88-1.188 0-.572.308-.858.902-.858.704 0 1.254.638 1.254 1.342Z"/></symbol><symbol id="c" overflow="visible"><path d="M6.76 9.563c0 .37-.292.647-.662.647-.446 0-.908-.446-.908-.893 0-.37.292-.647.662-.647.462 0 .909.431.909.893Zm-2.232-2.74c-.863 0-1.617-.57-2.018-1.11-.462-.662-.693-1.093-.693-1.293 0-.17.108-.247.308-.247.154 0 .277.108.37.308.17.37.37.693.6.986.447.539.909.8 1.386.8.293 0 .447-.23.447-.677 0-.185-.015-.339-.046-.446L3.434-.693c-.215-.878-.908-1.894-1.894-1.894-.139 0-.262.015-.385.046a.84.84 0 0 1 .416.755c0 .415-.216.631-.647.631C.4-1.155 0-1.602 0-2.125c0-.709.77-1.017 1.555-1.017.355 0 .74.062 1.14.2.955.324 1.817 1.233 2.064 2.264l1.37 5.452c.046.2.077.385.077.554 0 .894-.785 1.494-1.678 1.494Z"/></symbol><symbol id="d" overflow="visible"><path d="M15.356 8.074H1.76c-.352 0-.528-.176-.528-.506s.176-.506.528-.506h13.596c.352 0 .528.176.528.506 0 .264-.242.506-.528.506Zm0-4.136H1.76c-.352 0-.528-.176-.528-.506s.176-.506.528-.506h13.596c.352 0 .528.176.528.506a.517.517 0 0 1-.528.506Z"/></symbol><symbol id="e" overflow="visible"><path d="M8.184 8.294c-.44.946-1.122 1.43-2.024 1.43-1.43 0-2.684-.726-3.762-2.2C1.386 6.16.88 4.752.88 3.278c0-1.914 1.1-3.564 2.926-3.564.792 0 1.584.374 2.398 1.122l-.902-3.608c-.066-.33-.264-.528-.572-.594-.11-.022-.396-.044-.902-.044-.132-.022-.22-.022-.264-.022-.198-.022-.308-.198-.308-.506v-.088a.385.385 0 0 1 .374-.242c.418 0 1.738.066 2.156.066.418 0 1.804-.066 2.222-.066.308 0 .462.176.462.528 0 .22-.22.33-.638.33-.396 0-.946-.022-.946.242 0 .088.022.242.088.462l2.97 12.1c0 .198-.11.308-.308.308-.396 0-1.232-1.1-1.452-1.408Zm-.704-.088c.198-.462.308-.77.308-.968 0-.022-.022-.154-.066-.352l-.528-2.134c-.418-1.584-.616-2.398-.638-2.442C6.138 1.54 4.928.352 3.872.352c-.858 0-1.298.66-1.298 1.958 0 1.012.682 3.476.99 4.29.418 1.034 1.386 2.464 2.596 2.464.594 0 1.034-.286 1.32-.858Z"/></symbol><symbol id="f" overflow="visible"><path d="M7.216 7.15c0-.55.286-.836.88-.836.792 0 1.298.682 1.298 1.474 0 1.232-1.298 1.936-2.618 1.936-1.518 0-2.904-.66-4.092-1.958C1.496 6.468.902 5.038.902 3.498c0-2.156 1.43-3.74 3.586-3.74 1.166 0 2.2.286 3.102.836.748.462 1.298.924 1.65 1.386.154.198.22.352.22.418 0 .242-.11.374-.352.374-.11 0-.22-.088-.352-.264C8.03 1.54 7.128.924 6.094.66 5.412.484 4.906.396 4.532.396c-1.254 0-1.87.77-1.87 2.288 0 1.364.638 3.344 1.166 4.29.528.968 1.65 2.112 2.948 2.112.836 0 1.408-.242 1.716-.704-.682-.066-1.276-.506-1.276-1.232Z"/></symbol><symbol id="g" overflow="visible"><path d="m27.83-9.9 2.728 7.172h-.748c-.418-1.1-1.122-2.024-2.134-2.772C25.19-7.348 22-7.832 17.402-7.832H4.4l11 12.936c.154.154.22.308.22.418L5.368 19.668h11.814c4.158 0 7.612-.528 9.878-1.98 1.32-.836 2.244-1.87 2.772-3.102h.726L27.83 20.9H1.936c-.396 0-.616-.066-.682-.198-.022-.066-.022-.33-.022-.792l11.55-15.796L1.496-9.13c-.154-.176-.242-.33-.242-.44 0-.22.22-.33.682-.33Z"/></symbol><symbol id="h" overflow="visible"><path d="M2.91 9.687c0-.047-.015-.154-.046-.324L1.016 1.848a1.878 1.878 0 0 1-.061-.493c0-.893.724-1.509 1.617-1.509.662 0 1.155.493 1.509 1.478.17.462.262.77.262.909 0 .17-.093.262-.293.262-.17 0-.292-.139-.354-.431-.062-.293-.154-.555-.231-.786C3.249.693 2.972.4 2.633.4c-.292 0-.446.231-.446.678 0 .17.03.37.092.616l2.064 8.455c.015.03.03.123.061.261 0 .185-.092.278-.292.278-.17 0-.801-.047-1.91-.154-.246-.016-.37-.154-.37-.416 0-.17.14-.262.432-.262.262 0 .647 0 .647-.17Z"/></symbol><symbol id="i" overflow="visible"><path d="M5.456 5.5c2.64 1.408 5.654 4.576 5.654 8.228v16.456c0 1.452.506 2.86 1.518 4.246 1.012 1.386 2.178 2.31 3.564 2.794.286.11.418.308.418.616 0 .44-.22.66-.66.66-.066 0-.132-.022-.22-.044-1.782-.66-3.366-1.716-4.73-3.19-1.518-1.65-2.266-3.344-2.266-5.082V13.728c0-1.562-.484-3.08-1.452-4.554-.99-1.518-2.2-2.552-3.63-3.058-.286-.11-.418-.308-.418-.616s.132-.506.418-.616c1.43-.506 2.64-1.54 3.608-3.036s1.474-3.014 1.474-4.576v-16.456c0-1.738.748-3.432 2.266-5.082 1.364-1.474 2.948-2.53 4.73-3.19.088-.022.154-.044.22-.044.44 0 .66.22.66.66 0 .308-.132.506-.418.616-1.386.484-2.552 1.408-3.564 2.794-1.012 1.386-1.518 2.794-1.518 4.246v16.456C11.11.924 8.096 4.07 5.456 5.5Z"/></symbol><symbol id="j" overflow="visible"><path d="M5.632 12.628c0 .506-.33.792-.968.836.682 1.034 1.672 1.562 2.97 1.562 2.024 0 3.014-1.694 3.014-3.85 0-.902-.176-2.002-.506-3.344-.374 1.518-1.32 2.288-2.794 2.288-1.694 0-3.168-.704-4.488-2.068C1.54 6.688.88 5.17.88 3.476c0-.814.286-1.65.858-2.486C2.42 0 3.476-.484 4.95-.484c1.98 0 3.63.924 4.928 2.794 1.232 1.804 2.574 4.928 2.574 7.722 0 1.562-.396 2.882-1.188 3.938-.858 1.188-2.068 1.782-3.586 1.782-1.474 0-2.574-.506-3.322-1.54-.594-.814-.902-1.474-.902-1.98 0-.572.308-.858.924-.858.66 0 1.254.594 1.254 1.254Zm4.026-5.962c0-1.386-.418-2.75-1.276-4.092C7.436 1.056 6.314.308 5.016.308c-1.452 0-2.288.946-2.288 2.354 0 .616.154 1.474.462 2.574.308 1.1.616 1.87.946 2.332.88 1.254 1.958 1.892 3.212 1.892 1.606 0 2.31-1.188 2.31-2.794Z"/></symbol><symbol id="k" overflow="visible"><path d="M3.014.066C3.41.066 4.774 0 5.192 0c.33 0 .484.176.484.506 0 .198-.132.33-.418.352-.638.022-.946.242-.946.66 0 .198.198.638.616 1.298.594.99 1.012 1.716 1.298 2.2h5.346c0-.154.022-.462.088-.946.154-1.606.242-2.486.242-2.596 0-.418-.484-.616-1.474-.616-.418 0-.616-.176-.616-.528 0-.22.132-.33.396-.33.528 0 2.2.066 2.728.066.44 0 2.002-.066 2.442-.066.33 0 .484.176.484.528 0 .22-.198.33-.594.33-.616 0-.99.044-1.1.11-.11.066-.198.264-.22.594l-1.32 13.596c-.066.418-.044.594-.506.594-.264 0-.484-.132-.638-.418L3.916 2.64C3.256 1.54 2.376.946 1.298.858.946.836.77.66.77.33.77.11.902 0 1.144 0c.352 0 1.518.066 1.87.066Zm7.81 12.628.66-6.82h-4.73Z"/></symbol><symbol id="l" overflow="visible"><path d="M15.356 5.94H1.76c-.352 0-.528-.154-.528-.44 0-.286.176-.44.528-.44h13.596c.352 0 .528.154.528.44 0 .264-.264.44-.528.44Z"/></symbol><symbol id="m" overflow="visible"><path d="M14.388 5.5C11.748 4.092 8.734.924 8.734-2.728v-16.456c0-1.452-.506-2.86-1.518-4.246-1.012-1.386-2.178-2.31-3.564-2.794-.286-.11-.418-.308-.418-.616 0-.44.22-.66.66-.66.066 0 .132.022.22.044 1.782.66 3.366 1.716 4.73 3.19 1.518 1.65 2.266 3.344 2.266 5.082v16.456c0 1.562.506 3.08 1.474 4.576.968 1.496 2.178 2.53 3.608 3.036.286.11.418.308.418.616s-.132.506-.418.616c-1.43.506-2.64 1.54-3.63 3.058-.968 1.474-1.452 2.992-1.452 4.554v16.456c0 1.738-.748 3.432-2.266 5.082-1.364 1.474-2.948 2.53-4.73 3.19-.088.022-.154.044-.22.044-.44 0-.66-.22-.66-.66 0-.308.132-.506.418-.616 1.386-.484 2.552-1.408 3.564-2.794 1.012-1.386 1.518-2.794 1.518-4.246V13.728c0-3.652 3.014-6.798 5.654-8.228Z"/></symbol><symbol id="n" overflow="visible"><path d="M7.26 9.218c0 .198-.22.308-.682.308H4.796c.572 2.288.858 3.476.858 3.564 0 .462-.242.682-.704.682-.506 0-.814-.286-.946-.858L3.19 9.526H1.232c-.484 0-.726-.022-.726-.484 0-.242.22-.352.682-.352H2.97C1.892 4.4 1.364 2.134 1.364 1.848c0-1.232.836-2.09 2.068-2.09.836 0 1.562.374 2.2 1.144.528.638.902 1.254 1.144 1.848.088.242.132.374.132.44 0 .198-.11.308-.33.308-.176 0-.308-.11-.396-.352C5.434 1.32 4.532.418 3.454.418c-.374 0-.572.308-.572.902 0 .33.044.682.132 1.034L4.576 8.69h1.958c.572 0 .726.044.726.528Z"/></symbol><symbol id="o" overflow="visible"><path d="M11.066 9.724c-.374 0-.704-.066-1.034-.176-1.386-.462-2.354-1.826-2.904-3.08-.924-2.046-1.188-2.882-1.87-5.192-2.266.462-3.41 1.496-3.41 3.124 0 1.474 1.034 3.608 1.76 4.444.132.154.198.264.198.33 0 .198-.11.308-.352.308-.374 0-.858-.638-1.452-1.914-.594-1.276-.902-2.42-.902-3.41C1.1 1.87 2.838.418 4.84-.066L3.718-3.63c-.088-.242-.132-.396-.132-.462 0-.462.242-.704.726-.704.418 0 .704.22.88.638L5.94-.264c.242-.022.44-.022.638-.022 1.804 0 3.41.704 4.862 2.112 1.452 1.408 2.178 3.014 2.178 4.818 0 1.716-.902 3.08-2.552 3.08Zm1.76-3.564c0-1.386-.66-2.596-2.002-3.63-1.254-.924-2.596-1.386-4.048-1.386-.132 0-.264 0-.374.022-.132 0-.198 0-.198-.022.33 1.738.528 2.772.616 3.08.506 1.738 2.002 4.07 4.026 4.07 1.232 0 1.98-.88 1.98-2.134Z"/></symbol><symbol id="p" overflow="visible"><path d="M4.378 14.432c0-.22.242-.33.704-.33.88 0 1.32-.088 1.32-.286 0-.066-.044-.22-.11-.506L3.432 1.804c-.132-.484-.352-.77-.66-.88C2.618.88 2.222.858 1.54.858 1.056.858.836.814.836.352.836.11.968 0 1.254 0l2.86.066L7.37 0c.352 0 .528.176.528.506 0 .374-.242.352-.814.352-.968 0-1.518.044-1.65.154-.066.022-.088.11-.088.22l1.408 5.83H8.8c1.012 0 1.716-.044 1.716-.88a4.2 4.2 0 0 0-.154-1.056 3.61 3.61 0 0 1-.066-.242c0-.242.11-.352.352-.352.11.022.264.176.418.506l1.188 4.73c.044.176.066.308.066.374-.066.198-.198.308-.352.308-.176 0-.308-.176-.396-.506-.22-.836-.528-1.364-.88-1.628-.352-.264-.968-.396-1.848-.396h-1.87l1.364 5.412c.176.748.176.77 1.1.77h2.86c2.134 0 3.102-.33 3.102-2.288 0-.44-.022-.836-.066-1.166-.022-.242-.044-.374-.044-.396 0-.242.11-.352.33-.352.22 0 .352.198.396.616l.44 3.762c.066.616-.088.682-.682.682H5.126c-.506 0-.748-.022-.748-.528Z"/></symbol><symbol id="q" overflow="visible"><path d="M8.362 6.637c-.292 0-.523-.138-.677-.4a14.347 14.347 0 0 1-.247-.893l-.785-3.157c-.062-.262-.139-.462-.231-.6C5.852.77 5.19.353 4.466.353c-.785 0-1.186.431-1.186 1.294 0 .23.077.708.247 1.401l.785 3.188c0 .37-.2.554-.585.554-.385 0-.647-.246-.786-.754L.831-2.418A1.482 1.482 0 0 1 .77-2.74c0-.37.185-.555.57-.555.4 0 .662.262.8.801l.678 2.71c.431-.261.955-.4 1.586-.4.601 0 1.17.2 1.71.616.077.062.215.2.446.416.247-.693.786-1.032 1.602-1.032.508 0 .924.277 1.247.832.124.215.54 1.263.54 1.555 0 .17-.108.247-.309.247a.328.328 0 0 1-.184-.047c-.108-.184-.185-.338-.2-.462C8.993.878 8.638.354 8.207.354c-.292 0-.446.231-.446.693 0 .17.077.57.23 1.186l.324 1.37.354 1.34c.17.678.262 1.063.262 1.155 0 .308-.262.54-.57.54Z"/></symbol><symbol id="r" overflow="visible"><path d="M2.603 1.771c-.493 0-.878-.4-.878-.909 0-.539.37-.939.893-.939.2 0 .385.062.539.17-.03-1.017-.4-1.88-1.109-2.572-.077-.077-.123-.139-.123-.216 0-.185.092-.277.262-.277.108 0 .262.123.493.37.508.554 1 1.678 1 2.679 0 .847-.307 1.694-1.077 1.694Z"/></symbol><symbol id="s" overflow="visible"><path d="M2.48 5.79c0-.03-.016-.092-.047-.2l-.847-3.434C1.278.939 1.124.308 1.124.277c0-.185.123-.277.354-.277h.247c.77.123 1.601.385 2.48.77 2.047.924 3.788 2.526 4.588 4.635.108.293.185.493.2.601l.047.231c0 .37-.185.554-.57.554a.856.856 0 0 1-.354-.061c-.2-.093-.354-.37-.478-.832-.338-1.155-.985-2.217-1.925-3.172C4.774 1.77 3.711 1.109 2.556.755l1.386 5.528c.016.077.031.17.031.247-.061.169-.061.277-.308.261l-.985-.077c-.308-.015-.97-.077-1.078-.107-.17-.031-.247-.154-.247-.37 0-.185.154-.277.447-.277.292 0 .677.015.677-.17Z"/></symbol><symbol id="t" overflow="visible"><path d="M17.556 0c.374 0 .55.176.55.55 0 .198-.088.33-.242.418-1.782 1.364-3.388 3.476-4.84 6.38-2.596 5.17-4.554 12.518-4.554 19.976v5.566H6.094v-5.566c0-7.216 2.442-14.674 5.17-19.734 1.804-3.344 3.806-5.83 5.984-7.48a.526.526 0 0 1 .308-.11Z"/></symbol><symbol id="u" overflow="visible"><path d="M6.094 0H8.47v10.956H6.094Z"/></symbol><symbol id="v" overflow="visible"><path d="M17.886 31.9c.154.11.22.264.22.44 0 .374-.176.55-.55.55a.526.526 0 0 1-.308-.11c-1.914-1.474-3.74-3.652-5.456-6.556-3.014-5.192-5.698-12.958-5.698-20.658V0H8.47v5.566c0 3.388.396 6.798 1.166 10.252C11 21.978 13.86 28.886 17.886 31.9Z"/></symbol><symbol id="w" overflow="visible"><path d="M5.478-.484c3.102 0 4.642 2.508 4.642 7.524 0 3.366-.704 5.61-2.09 6.71-.77.594-1.628.902-2.53.902-3.102 0-4.642-2.53-4.642-7.612 0-4.048 1.078-7.524 4.62-7.524Zm2.464 12.012c.154-.77.22-2.178.22-4.224 0-2.024-.088-3.52-.242-4.488-.286-1.76-1.1-2.64-2.442-2.64-.506 0-1.012.198-1.474.572-.594.506-.946 1.54-1.1 3.124-.066.55-.088 1.694-.088 3.432 0 1.914.066 3.256.176 3.982.198 1.21.594 1.98 1.21 2.31.484.264.902.396 1.276.396 1.43 0 2.222-1.166 2.464-2.464Z"/></symbol><symbol id="x" overflow="visible"><path d="M16.632 11.946c0 2.002-1.98 3.08-4.136 3.08H5.192c-.506 0-.726-.022-.726-.528 0-.352.44-.33.704-.33.66-.022 1.056-.066 1.166-.088.11-.022.154-.088.154-.198 0-.044-.022-.176-.088-.396L3.498 1.804c-.11-.484-.33-.77-.66-.88C2.684.88 2.288.858 1.606.858 1.144.858.924.682.924.33c0-.22.22-.33.682-.33h7.766c1.43 0 2.75.44 4.004 1.298 1.386.946 2.09 2.112 2.09 3.476 0 1.738-1.43 2.794-2.992 3.102 1.936.462 4.158 1.936 4.158 4.07Zm-4.444 2.222c1.518 0 2.288-.704 2.288-2.134 0-1.122-.44-2.046-1.364-2.794a4.768 4.768 0 0 0-3.08-1.1H6.974l1.32 5.28c.176.748.176.748 1.1.748Zm.616-7.59c.308-.506.462-1.012.462-1.562 0-1.144-.44-2.134-1.342-2.948-.902-.814-1.914-1.21-3.08-1.21h-2.97c-.22 0-.374 0-.462.022-.132 0-.198.044-.198.11 0 .022 0 .088.022.176.682 2.794 1.21 4.906 1.562 6.314h4.048c.946 0 1.584-.308 1.958-.902Z"/></symbol><symbol id="y" overflow="visible"><path d="M6.19 5.174c-.415-.415-1.046-.97-1.94-1.678-.893-.709-1.54-1.263-1.94-1.663-.339-.34-.585-.601-.755-.801C1.14.554.94.23.94.092c0-.169.108-.246.324-.246.123 0 .23.062.308.185.416.6.862.893 1.34.893.23 0 .477-.123.754-.354.385-.339.616-.524.678-.57.185-.108.4-.154.631-.154.508 0 .986.17 1.432.508.478.37 1.263 1.201 1.263 1.894 0 .17-.108.262-.308.262-.154 0-.262-.092-.339-.277-.23-.631-1-1.078-1.863-1.078-.416 0-1.756.323-2.187.308h-.2c.477.462 1.078.986 1.833 1.586 1.016.816 1.647 1.34 1.91 1.602 1 1 1.508 1.632 1.508 1.894 0 .17-.107.246-.323.246-.123 0-.231-.061-.308-.184-.385-.601-.755-.894-1.093-.894-.216 0-.524.185-.94.54-.416.354-.785.538-1.124.538-.447 0-.893-.2-1.37-.6-.478-.4-.709-.801-.709-1.232 0-.17.108-.247.308-.247.123 0 .231.062.308.2.277.447.524.57 1.278.57.416 0 1.74-.292 2.14-.308Z"/></symbol><symbol id="z" overflow="visible"><path d="M8.07 6.637a.721.721 0 0 1-.678-.4c-.03-.046-.108-.339-.246-.893l-.924-3.696c-.108-.17-.2-.324-.308-.447C5.42.631 4.913.354 4.404.354c-.646 0-.97.4-.97 1.201 0 .57.262 1.556.801 2.926.17.462.262.786.262.955 0 .801-.693 1.355-1.494 1.355-.74 0-1.324-.37-1.756-1.108C.893 5.082.724 4.65.724 4.404c0-.169.108-.261.323-.261.17 0 .277.092.324.292.354 1.201.893 1.802 1.586 1.802.2 0 .308-.154.308-.462 0-.231-.062-.508-.2-.862-.324-.817-.509-1.325-.586-1.525-.2-.6-.292-1.14-.292-1.586 0-1.31.847-1.987 2.156-1.987.57 0 1.078.185 1.555.57-.23-.878-.539-1.555-.94-2.033-.554-.631-1.139-.94-1.77-.94-.478 0-.832.124-1.047.386.43.108.785.4.785.893 0 .416-.216.631-.662.631-.555 0-.94-.508-.94-1.062 0-.909.894-1.402 1.864-1.402.908 0 1.725.308 2.48.909.754.6 1.231 1.355 1.447 2.233l1.447 5.744c.047.17.062.277.062.354a.54.54 0 0 1-.554.54Z"/></symbol><symbol id="A" overflow="visible"><path d="M6.248 13.662c0 .594-.286.88-.88.88-.616 0-1.232-.616-1.232-1.232 0-.594.308-.88.902-.88.616 0 1.21.616 1.21 1.232Zm-.55-10.626C5.214 1.298 4.51.418 3.608.418c-.286 0-.44.198-.44.616 0 .374.638 2.266 1.936 5.698.176.506.264.902.264 1.188 0 1.078-.748 1.87-1.826 1.87-.946 0-1.694-.55-2.244-1.672-.44-.902-.66-1.496-.66-1.782 0-.198.11-.286.352-.286.286 0 .33.132.418.44.506 1.76 1.188 2.64 2.068 2.64.286 0 .44-.198.44-.616 0-.308-.066-.66-.22-1.078C3.19 6.05 2.662 4.576 2.222 3.41c-.33-.88-.506-1.474-.506-1.782 0-1.078.792-1.87 1.848-1.87.946 0 1.694.55 2.244 1.65.418.858.638 1.452.638 1.782 0 .198-.11.308-.352.308-.066 0-.396-.198-.396-.462Z"/></symbol><symbol id="B" overflow="visible"><path d="M4.378 14.432c0-.22.242-.33.704-.33.88 0 1.32-.088 1.32-.286 0-.066-.044-.22-.11-.506L3.432 1.804c-.11-.484-.33-.77-.66-.88C2.618.88 2.222.858 1.54.858 1.056.858.836.814.836.352.836.11 1.078 0 1.54 0h11.286c.528 0 .572.044.748.418l.88 1.98c.594 1.364 1.012 2.376 1.254 3.058-.044.198-.11.33-.352.33-.154 0-.286-.11-.374-.308-.55-1.298-1.078-2.288-1.606-2.992C12.496 1.298 11.198.858 9.13.858H5.94c-.22 0-.374 0-.462.022-.132 0-.198.044-.198.11 0 .044.044.198.11.484l1.452 5.874h2.09c1.034 0 1.584-.132 1.694-.418.044-.11.066-.264.066-.484a4.2 4.2 0 0 0-.154-1.056.76.76 0 0 1-.066-.264c0-.22.132-.33.374-.33.198 0 .33.176.418.506l1.232 5.104c0 .22-.11.33-.352.33-.176 0-.308-.154-.374-.462-.22-.858-.506-1.408-.88-1.672s-.99-.396-1.892-.396H7.062l1.276 5.126c.176.748.176.77 1.1.77h3.058c1.122 0 1.892-.11 2.31-.33.616-.33.924-.99.924-1.98 0-.374-.022-.77-.088-1.144 0-.044 0-.11-.022-.198v-.198c0-.242.11-.352.33-.352.22 0 .352.198.396.616l.44 3.762c.066.616-.088.682-.682.682H5.126c-.506 0-.748-.022-.748-.528Z"/></symbol><symbol id="C" overflow="visible"><path d="M8.978 5.621c0 .785-.8 1.17-1.632 1.17-.693 0-1.263-.338-1.694-1.016-.37.678-.986 1.016-1.833 1.016-.57 0-1.17-.246-1.77-.754-.632-.524-.956-1.063-.956-1.617 0-.17.108-.262.308-.262.17 0 .278.092.355.293.277.831 1.031 1.801 2.017 1.801.57 0 .847-.308.847-.939 0-.2-.108-.724-.308-1.57l-.524-2.064C3.65 1.093 3.08.385 2.418.385c-.262 0-.493.046-.678.154.308.139.585.477.585.832 0 .37-.292.631-.662.631-.523 0-.924-.462-.924-.986 0-.77.816-1.17 1.648-1.17.708 0 1.278.339 1.694 1.016.37-.677.97-1.016 1.817-1.016S7.423.185 7.946.862c.447.601.678 1.063.678 1.356 0 .169-.092.261-.293.261-.169 0-.292-.107-.354-.308C7.715 1.355 6.93.385 5.96.385c-.57 0-.863.308-.863.924 0 .231.262 1.386.786 3.434.262 1.001.724 1.51 1.417 1.51l.138-.016c.185 0 .37-.046.54-.123-.386-.17-.57-.447-.57-.847 0-.37.292-.632.662-.632.523 0 .908.462.908.986Z"/></symbol><symbol id="D" overflow="visible"><path d="M13.156 27.324v5.566H10.78v-5.566c0-3.388-.396-6.798-1.166-10.252C8.25 10.868 5.412 4.048 1.386.968A.448.448 0 0 1 1.144.55c0-.374.176-.55.55-.55.11 0 .22.044.308.11 1.914 1.452 3.74 3.63 5.456 6.556 3.036 5.192 5.698 12.958 5.698 20.658Z"/></symbol><symbol id="E" overflow="visible"><path d="M10.78 0h2.376v10.956H10.78Z"/></symbol><symbol id="F" overflow="visible"><path d="M10.78 0h2.376v5.566c0 7.216-2.442 14.674-5.17 19.734-1.804 3.322-3.806 5.83-5.984 7.48a.526.526 0 0 1-.308.11c-.374 0-.55-.176-.55-.55 0-.176.066-.33.22-.44 1.782-1.342 3.388-3.476 4.862-6.38 2.618-5.192 4.554-12.474 4.554-19.954Z"/></symbol><symbol id="G" overflow="visible"><path d="M6.996-5.456c.198 0 .308.11.308.308 0 .066-.044.154-.11.242-1.144.88-2.068 2.332-2.75 4.334-.594 1.738-.902 3.454-.902 5.148v1.848c0 1.694.308 3.41.902 5.148.682 2.002 1.606 3.454 2.75 4.334.066.066.11.154.11.242 0 .198-.11.308-.308.308a.383.383 0 0 1-.154-.066c-1.32-1.012-2.42-2.508-3.322-4.51-.858-1.914-1.298-3.718-1.298-5.456V4.576c0-1.738.44-3.542 1.298-5.456.902-2.002 2.002-3.498 3.322-4.51a.383.383 0 0 1 .154-.066Z"/></symbol><symbol id="H" overflow="visible"><path d="M10.956 3.168c0 .198-.11.308-.352.308-.176 0-.308-.154-.374-.462C9.79 1.276 9.262.396 8.668.396c-.374 0-.572.308-.572.924 0 .286.088.814.286 1.584l1.254 4.95c.11.418.154.66.154.77 0 .44-.242.66-.726.66-.462 0-.77-.264-.924-.77-.462.814-1.122 1.21-1.958 1.21-1.43 0-2.684-.726-3.784-2.178C1.386 6.182.88 4.774.88 3.3c0-1.914 1.122-3.542 2.97-3.542.946 0 1.87.506 2.75 1.518A2.077 2.077 0 0 1 8.624-.242c1.518 0 1.98 1.782 2.332 3.41Zm-3.454 5.06c.198-.462.308-.77.308-.968 0-.088-.022-.198-.044-.352L6.688 2.684c-.066-.242-.22-.506-.418-.77C5.456.902 4.664.396 3.894.396c-.858 0-1.298.66-1.298 1.958 0 .528.132 1.32.396 2.376.462 1.87 1.122 3.124 1.936 3.806.44.374.858.55 1.276.55.594 0 1.034-.286 1.298-.858Z"/></symbol><symbol id="I" overflow="visible"><path d="M15.356 6.028h-6.27v6.27c0 .352-.176.528-.528.528-.352 0-.528-.176-.528-.528v-6.27H1.76c-.352 0-.528-.176-.528-.528 0-.352.176-.528.528-.528h6.27v-6.27c0-.352.176-.528.528-.528.352 0 .528.176.528.528v6.27h6.27c.352 0 .528.176.528.528a.535.535 0 0 1-.528.528Z"/></symbol><symbol id="J" overflow="visible"><path d="M6.182 9.79c-.792 0-1.584-.374-2.354-1.122l1.518 6.27c-.044.198-.11.33-.374.33-.726 0-2.332-.198-2.618-.22-.33-.044-.506-.198-.506-.528 0-.22.198-.33.616-.33s.99.022.99-.286c0-.088-.11-.528-.308-1.342l-1.76-7.084c-.242-.924-.352-1.672-.352-2.222 0-1.892 1.012-3.498 2.816-3.498 1.43 0 2.684.726 3.784 2.2.99 1.364 1.496 2.794 1.496 4.268 0 1.914-1.122 3.564-2.948 3.564Zm-.044-.66c.858 0 1.276-.66 1.276-1.958 0-.594-.132-1.386-.396-2.376C6.534 2.926 5.896 1.65 5.126.968c-.44-.374-.858-.55-1.276-.55-.902 0-1.342.704-1.342 2.112 0 .484.11 1.21.33 2.178l.484 1.98c.066.33.176.572.308.748.858 1.122 1.694 1.694 2.508 1.694Z"/></symbol><symbol id="K" overflow="visible"><path d="M1.716-5.39c1.32 1.012 2.42 2.508 3.322 4.51.858 1.914 1.298 3.718 1.298 5.456v1.848c0 1.738-.44 3.542-1.298 5.456-.902 2.002-2.002 3.498-3.322 4.51a.383.383 0 0 1-.154.066c-.198 0-.308-.11-.308-.308 0-.088.044-.176.11-.242 1.144-.88 2.068-2.332 2.75-4.334.594-1.738.902-3.454.902-5.148V4.576c0-1.694-.308-3.41-.902-5.148-.682-2.002-1.606-3.454-2.75-4.334-.066-.088-.11-.176-.11-.242 0-.198.11-.308.308-.308.022 0 .088.022.154.066Z"/></symbol><symbol id="L" overflow="visible"><path d="M9.438 13.904 8.14 8.558c-.462.814-1.1 1.232-1.958 1.232-1.43 0-2.684-.726-3.784-2.2C1.386 6.226.88 4.796.88 3.322c0-1.936 1.122-3.564 2.97-3.564.946 0 1.87.506 2.75 1.54.242-.836.99-1.54 2.024-1.54 1.518 0 2.002 1.804 2.332 3.432 0 .198-.11.308-.33.308-.198 0-.33-.154-.396-.462C9.79 1.298 9.262.418 8.668.418c-.374 0-.572.308-.572.902 0 .33.044.682.132 1.034l3.124 12.584v.088a.385.385 0 0 1-.374.242c-.506 0-1.43-.088-2.75-.242-.242-.022-.374-.198-.374-.506 0-.22.198-.33.594-.33.418 0 .99.022.99-.286ZM7.502 8.272c.22-.462.33-.77.33-.968a3.453 3.453 0 0 1-.066-.352L6.688 2.684c-.066-.242-.22-.506-.418-.77C5.456.924 4.664.418 3.894.418c-.858 0-1.298.66-1.298 1.958 0 .528.132 1.32.396 2.376.462 1.87 1.122 3.146 1.936 3.828.44.374.858.55 1.276.55.594 0 1.034-.286 1.298-.858Z"/></symbol><symbol id="M" overflow="visible"><path d="M1.833 6.53c.492 0 .862.37.862.862 0 .554-.293.847-.862.862a2.307 2.307 0 0 0 2.11 1.31c1.355 0 2.248-1.017 2.248-2.372 0-.74-.262-1.448-.801-2.14a7.225 7.225 0 0 0-.6-.74L1.14.693C.94.508.97.462.97 0h6.345l.477 2.895h-.646c-.108-.816-.231-1.293-.37-1.401-.077-.046-.554-.077-1.463-.077H2.695A77.745 77.745 0 0 0 5.59 3.865c.693.54 1.186 1.017 1.494 1.433.462.6.693 1.232.693 1.894 0 .955-.37 1.71-1.124 2.264-.662.508-1.494.77-2.48.77-.847 0-1.57-.247-2.202-.74-.662-.539-1-1.216-1-2.048 0-.523.384-.908.862-.908Z"/></symbol></defs></svg>
