<svg xmlns="http://www.w3.org/2000/svg" xmlns:xlink="http://www.w3.org/1999/xlink" width="691.2" height="844.8" class="typst-doc" viewBox="0 0 518.4 633.6"><g class="typst-group"><path fill="none" stroke="#aaa" stroke-dasharray="3 3" stroke-width=".4" d="M182.094 73.872V245.97M224.063 73.872V245.97M266.033 73.872V245.97M308.002 73.872V245.97M349.972 73.872V245.97M391.941 73.872V245.97M433.91 73.872V245.97M140.124 89.636H475.88M140.124 105.514H475.88M140.124 123.346H475.88M140.124 141.081H475.88M140.124 158.93H475.88M140.124 176.78H475.88M140.124 194.41H475.88M140.124 212.18H475.88M140.124 228.085H475.88M140.124 245.97H475.88" class="typst-shape"/><path fill="none" stroke="#000" d="M42.52 73.872V245.97h433.36V73.872H42.52Z" class="typst-shape"/><path fill="none" stroke="#000" stroke-dasharray="3 3" d="M297.51 73.872V250.97M412.926 73.872V250.97" class="typst-shape"/><path fill="none" d="M68.185 73.872h46.274v15.764H68.185V73.872Z" class="typst-shape"/><g class="typst-group"><g class="typst-group"><g class="typst-text" transform="matrix(1 0 0 -1 73.185 84.548)"><use xlink:href="#a"/><use xlink:href="#b" x="6.301"/><use xlink:href="#c" x="10.604"/><use xlink:href="#b" x="14.362"/><use xlink:href="#d" x="18.665"/><use xlink:href="#e" x="23.118"/><use xlink:href="#f" x="26.814"/><use xlink:href="#g" x="30.826"/></g></g></g><path fill="none" d="M49.569 89.636h83.506v15.878H49.57V89.636Z" class="typst-shape"/><g class="typst-group"><g class="typst-group"><g class="typst-text" transform="matrix(1 0 0 -1 54.569 100.426)"><use xlink:href="#h"/><use xlink:href="#i" x="5.166"/><use xlink:href="#j" x="9.099"/><use xlink:href="#i" x="12.531"/><use xlink:href="#k" x="16.465"/><use xlink:href="#l" x="20.486"/><use xlink:href="#m" x="23.69"/><use xlink:href="#n" x="27.456"/><use xlink:href="#o" x="34.39"/><use xlink:href="#n" x="37.171"/><use xlink:href="#i" x="41.906"/><use xlink:href="#p" x="48.039"/><use xlink:href="#k" x="54.991"/><use xlink:href="#l" x="59.013"/><use xlink:href="#q" x="62.286"/><use xlink:href="#i" x="66.792"/><use xlink:href="#o" x="70.726"/></g></g></g><path fill="none" d="M47.36 105.514h87.924v17.832H47.36v-17.832Z" class="typst-shape"/><g class="typst-group"><g class="typst-group"><g class="typst-text" transform="matrix(1 0 0 -1 52.36 116.304)"><use xlink:href="#r"/><use xlink:href="#s" x="5.685"/><use xlink:href="#t" x="10.12"/><use xlink:href="#u" x="14.89"/><use xlink:href="#v" x="19.342"/><use xlink:href="#m" x="24.015"/><use xlink:href="#o" x="27.782"/><use xlink:href="#v" x="32.762"/><use xlink:href="#j" x="37.435"/><use xlink:href="#i" x="40.867"/><use xlink:href="#l" x="44.801"/><use xlink:href="#j" x="50.274"/><use xlink:href="#v" x="53.706"/><use xlink:href="#l" x="58.379"/><use xlink:href="#w" x="61.785"/><use xlink:href="#i" x="66.088"/><use xlink:href="#x" x="69.96"/><use xlink:href="#j" x="74.492"/></g></g></g><path fill="none" d="M59.698 123.346h63.248v17.735H59.698v-17.735Z" class="typst-shape"/><g class="typst-group"><g class="typst-group"><g class="typst-text" transform="matrix(1 0 0 -1 64.698 134.022)"><use xlink:href="#y"/><use xlink:href="#b" x="6.459"/><use xlink:href="#z" x="10.701"/><use xlink:href="#b" x="15.286"/><use xlink:href="#A" x="19.589"/><use xlink:href="#B" x="22.449"/><use xlink:href="#C" x="27.298"/><use xlink:href="#D" x="32.41"/><use xlink:href="#b" x="40.374"/><use xlink:href="#E" x="44.678"/><use xlink:href="#F" x="50.098"/></g></g></g><path fill="none" d="M55.76 141.081h71.124v17.85H55.76v-17.85Z" class="typst-shape"/><g class="typst-group"><g class="typst-group"><g class="typst-text" transform="matrix(1 0 0 -1 60.76 151.872)"><use xlink:href="#r"/><use xlink:href="#l" x="5.685"/><use xlink:href="#i" x="8.888"/><use xlink:href="#k" x="12.822"/><use xlink:href="#o" x="16.843"/><use xlink:href="#i" x="19.624"/><use xlink:href="#p" x="25.758"/><use xlink:href="#s" x="32.71"/><use xlink:href="#m" x="37.206"/><use xlink:href="#q" x="40.973"/><use xlink:href="#G" x="45.478"/><use xlink:href="#v" x="48.453"/><use xlink:href="#H" x="53.126"/><use xlink:href="#j" x="57.693"/></g></g></g><path fill="none" d="M50.41 158.93h81.825v17.85H50.409v-17.85Z" class="typst-shape"/><g class="typst-group"><g class="typst-group"><g class="typst-text" transform="matrix(1 0 0 -1 55.41 169.721)"><use xlink:href="#I"/><use xlink:href="#i" x="6.169"/><use xlink:href="#w" x="10.041"/><use xlink:href="#i" x="14.344"/><use xlink:href="#J" x="18.278"/><use xlink:href="#s" x="20.601"/><use xlink:href="#H" x="25.036"/><use xlink:href="#k" x="31.803"/><use xlink:href="#H" x="35.825"/><use xlink:href="#H" x="40.392"/><use xlink:href="#J" x="44.959"/><use xlink:href="#K" x="47.282"/><use xlink:href="#m" x="49.667"/><use xlink:href="#k" x="53.434"/><use xlink:href="#o" x="57.455"/><use xlink:href="#K" x="60.236"/><use xlink:href="#s" x="62.621"/><use xlink:href="#t" x="67.056"/></g></g></g><path fill="none" d="M80.303 176.78h22.038v17.63H80.303v-17.63Z" class="typst-shape"/><g class="typst-group"><g class="typst-group"><g class="typst-text" transform="matrix(1 0 0 -1 85.303 187.57)"><use xlink:href="#L"/><use xlink:href="#M" x="5.922"/></g></g></g><path fill="none" d="M65.413 194.41h51.818v17.77H65.413v-17.77Z" class="typst-shape"/><g class="typst-group"><g class="typst-group"><g class="typst-text" transform="matrix(1 0 0 -1 70.413 205.086)"><use xlink:href="#N"/><use xlink:href="#d" x="7.911"/><use xlink:href="#e" x="12.364"/><use xlink:href="#O" x="16.13"/><use xlink:href="#b" x="21.525"/><use xlink:href="#F" x="25.828"/><use xlink:href="#P" x="28.978"/><use xlink:href="#E" x="31.812"/><use xlink:href="#Q" x="37.233"/></g></g></g><path fill="none" d="M64.238 212.18h54.168v15.905H64.238V212.18Z" class="typst-shape"/><g class="typst-group"><g class="typst-group"><g class="typst-text" transform="matrix(1 0 0 -1 69.238 222.97)"><use xlink:href="#R"/><use xlink:href="#l" x="4.761"/><use xlink:href="#i" x="7.964"/><use xlink:href="#j" x="11.898"/><use xlink:href="#j" x="15.33"/><use xlink:href="#u" x="20.962"/><use xlink:href="#i" x="25.414"/><use xlink:href="#p" x="29.348"/><use xlink:href="#s" x="36.3"/><use xlink:href="#j" x="40.735"/></g></g></g><path fill="none" d="M42.52 228.085h97.604v17.885H42.52v-17.885Z" class="typst-shape"/><g class="typst-group"><g class="typst-group"><g class="typst-text" transform="matrix(1 0 0 -1 47.52 238.876)"><use xlink:href="#S"/><use xlink:href="#s" x="4.268"/><use xlink:href="#m" x="8.765"/><use xlink:href="#K" x="12.531"/><use xlink:href="#k" x="14.916"/><use xlink:href="#J" x="18.938"/><use xlink:href="#p" x="23.461"/><use xlink:href="#i" x="30.413"/><use xlink:href="#u" x="34.408"/><use xlink:href="#K" x="38.861"/><use xlink:href="#k" x="41.246"/><use xlink:href="#k" x="47.467"/><use xlink:href="#u" x="51.489"/><use xlink:href="#w" x="55.942"/><use xlink:href="#i" x="60.245"/><use xlink:href="#l" x="64.178"/><use xlink:href="#o" x="67.452"/><use xlink:href="#K" x="70.233"/><use xlink:href="#j" x="72.618"/><use xlink:href="#K" x="76.05"/><use xlink:href="#t" x="78.434"/><use xlink:href="#T" x="83.204"/></g></g></g><path fill="none" d="M140.124 58.196h41.97v15.676h-41.97V58.196Z" class="typst-shape"/><g class="typst-group"><g class="typst-group"><g class="typst-text" transform="matrix(1 0 0 -1 155.636 68.872)"><use xlink:href="#U"/><use xlink:href="#V" x="6.424"/></g></g></g><path fill="none" d="M182.094 58.196h41.97v15.676h-41.97V58.196Z" class="typst-shape"/><g class="typst-group"><g class="typst-group"><g class="typst-text" transform="matrix(1 0 0 -1 197.605 68.872)"><use xlink:href="#U"/><use xlink:href="#W" x="6.424"/></g></g></g><path fill="none" d="M224.063 58.196h41.97v15.676h-41.97V58.196Z" class="typst-shape"/><g class="typst-group"><g class="typst-group"><g class="typst-text" transform="matrix(1 0 0 -1 239.574 68.872)"><use xlink:href="#U"/><use xlink:href="#X" x="6.424"/></g></g></g><path fill="none" d="M266.033 58.196h41.97v15.676h-41.97V58.196Z" class="typst-shape"/><g class="typst-group"><g class="typst-group"><g class="typst-text" transform="matrix(1 0 0 -1 281.544 68.872)"><use xlink:href="#U"/><use xlink:href="#Y" x="6.424"/></g></g></g><path fill="none" stroke="#000" d="M140.124 58.196v15.676h167.878V58.196H140.124Z" class="typst-shape"/><path fill="none" d="M308.002 58.196h41.97v15.676h-41.97V58.196Z" class="typst-shape"/><g class="typst-group"><g class="typst-group"><g class="typst-text" transform="matrix(1 0 0 -1 323.513 68.872)"><use xlink:href="#U"/><use xlink:href="#V" x="6.424"/></g></g></g><path fill="none" d="M349.972 58.196h41.97v15.676h-41.97V58.196Z" class="typst-shape"/><g class="typst-group"><g class="typst-group"><g class="typst-text" transform="matrix(1 0 0 -1 365.483 68.872)"><use xlink:href="#U"/><use xlink:href="#W" x="6.424"/></g></g></g><path fill="none" d="M391.941 58.196h41.97v15.676h-41.97V58.196Z" class="typst-shape"/><g class="typst-group"><g class="typst-group"><g class="typst-text" transform="matrix(1 0 0 -1 407.452 68.872)"><use xlink:href="#U"/><use xlink:href="#X" x="6.424"/></g></g></g><path fill="none" d="M433.91 58.196h41.97v15.676h-41.97V58.196Z" class="typst-shape"/><g class="typst-group"><g class="typst-group"><g class="typst-text" transform="matrix(1 0 0 -1 449.422 68.872)"><use xlink:href="#U"/><use xlink:href="#Y" x="6.424"/></g></g></g><path fill="none" stroke="#000" d="M308.002 58.196v15.676H475.88V58.196H308.002Z" class="typst-shape"/><path fill="none" d="M140.124 42.52h167.878v15.676H140.124V42.52Z" class="typst-shape"/><g class="typst-group"><g class="typst-group"><g class="typst-text" transform="matrix(1 0 0 -1 215.017 53.196)"><use xlink:href="#W"/><use xlink:href="#Z" x="4.523"/><use xlink:href="#W" x="9.046"/><use xlink:href="#X" x="13.57"/></g></g></g><path fill="none" stroke="#000" d="M140.124 42.52v15.676h167.878V42.52H140.124Z" class="typst-shape"/><path fill="none" d="M308.002 42.52H475.88v15.676H308.002V42.52Z" class="typst-shape"/><g class="typst-group"><g class="typst-group"><g class="typst-text" transform="matrix(1 0 0 -1 382.895 53.196)"><use xlink:href="#W"/><use xlink:href="#Z" x="4.523"/><use xlink:href="#W" x="9.046"/><use xlink:href="#Y" x="13.57"/></g></g></g><path fill="none" stroke="#000" d="M308.002 42.52v15.676H475.88V42.52H308.002Z" class="typst-shape"/><path fill="none" stroke="#000" stroke-width="2.75" d="M140.124 81.754h125.909" class="typst-shape"/><path fill="none" stroke="#aaa" stroke-width="2" d="M140.124 97.575h83.94M182.094 114.43h83.939" class="typst-shape"/><path fill="none" stroke="#000" stroke-width="2.75" d="M224.063 132.214h167.878" class="typst-shape"/><path fill="none" stroke="#aaa" stroke-width="2" d="M224.063 150.006h41.97M266.033 167.856h83.939M287.018 185.595H391.94" class="typst-shape"/><path fill="none" stroke="#000" stroke-width="2.75" d="M287.018 203.295h167.878" class="typst-shape"/><path fill="none" stroke="#aaa" stroke-width="2" d="M287.018 220.133H433.91M391.941 237.028h62.955" class="typst-shape"/><path fill="none" stroke="#000" d="M42.52 73.872v49.474h433.36V73.872H42.52ZM42.52 123.346v71.064h433.36v-71.064H42.52ZM42.52 194.41v51.56h433.36v-51.56H42.52ZM140.124 73.872V245.97" class="typst-shape"/><path fill="none" d="M262.402 255.97h70.216v17.362h-70.216V255.97Z" class="typst-shape"/><g class="typst-group"><g class="typst-group"><g class="typst-text" transform="matrix(1 0 0 -1 262.402 261.646)"><use xlink:href="#aa"/><use xlink:href="#B" x="6.213"/><use xlink:href="#E" x="11.062"/><use xlink:href="#ab" x="16.482"/><use xlink:href="#b" x="19.923"/><use xlink:href="#e" x="24.226"/><use xlink:href="#b" x="27.922"/><use xlink:href="#E" x="32.226"/><use xlink:href="#f" x="37.646"/><use xlink:href="#b" x="41.659"/><use xlink:href="#ac" x="48.162"/><use xlink:href="#b" x="53.099"/><use xlink:href="#D" x="57.402"/><use xlink:href="#B" x="65.366"/></g><g class="typst-text" transform="matrix(1 0 0 -1 281.26 273.156)"><use xlink:href="#I"/><use xlink:href="#i" x="6.169"/><use xlink:href="#m" x="10.164"/><use xlink:href="#ad" x="16.13"/><use xlink:href="#ae" x="20.222"/><use xlink:href="#ad" x="24.314"/><use xlink:href="#af" x="28.406"/></g></g></g><path fill="none" d="M378.751 255.97h68.35v21.34h-68.35v-21.34Z" class="typst-shape"/><g class="typst-group"><g class="typst-group"><g class="typst-text" transform="matrix(1 0 0 -1 378.751 261.646)"><use xlink:href="#ag"/><use xlink:href="#C" x="6.512"/><use xlink:href="#C" x="11.625"/><use xlink:href="#c" x="18.938"/><use xlink:href="#F" x="22.695"/><use xlink:href="#B" x="25.846"/><use xlink:href="#e" x="30.694"/><use xlink:href="#b" x="34.39"/><use xlink:href="#A" x="40.894"/><use xlink:href="#d" x="43.754"/><use xlink:href="#ah" x="48.206"/><use xlink:href="#E" x="53.469"/><use xlink:href="#f" x="58.89"/><use xlink:href="#g" x="62.902"/></g><g class="typst-text" transform="matrix(1 0 0 -1 396.197 273.156)"><use xlink:href="#M"/><use xlink:href="#v" x="5.817"/><use xlink:href="#T" x="10.49"/><use xlink:href="#ad" x="17.09"/><use xlink:href="#ae" x="21.182"/><use xlink:href="#ad" x="25.274"/><use xlink:href="#ai" x="29.366"/></g></g></g></g><g class="typst-group"><path fill="none" stroke="#1a1a1a" stroke-width=".7" d="M42.17 305.564h434.06M42.17 334.116h434.06" class="typst-shape"/><path fill="none" stroke="#a6a6a6" stroke-width=".7" d="M42.17 362.668h434.06M42.17 391.22h434.06M42.17 419.77h434.06M42.17 448.322h434.06M42.17 476.874h434.06M42.17 505.426h434.06M42.17 533.977h434.06" class="typst-shape"/><path fill="none" stroke="#1a1a1a" stroke-width=".7" d="M42.17 562.529h434.06M42.17 591.08h434.06" class="typst-shape"/><g class="typst-text" transform="matrix(1 0 0 -1 388.737 324.876)"><use xlink:href="#aj"/><use xlink:href="#ak" x="8.448"/><use xlink:href="#al" x="16.249"/><use xlink:href="#am" x="20.209"/><use xlink:href="#an" x="28.208"/><use xlink:href="#ao" x="40.194"/><use xlink:href="#ap" x="43.6"/><use xlink:href="#aq" x="55.123"/><use xlink:href="#ar" x="63.32"/><use xlink:href="#as" x="73.049"/></g><g class="typst-text" transform="matrix(1 0 0 -1 47.52 353.428)"><use xlink:href="#at"/><use xlink:href="#au" x="3.313"/><use xlink:href="#av" x="10.916"/><use xlink:href="#aw" x="13.913"/><use xlink:href="#av" x="18.678"/><use xlink:href="#ax" x="21.674"/><use xlink:href="#ay" x="29.278"/><use xlink:href="#az" x="36.63"/><use xlink:href="#ax" x="44.959"/><use xlink:href="#ay" x="52.562"/><use xlink:href="#aA" x="56.153"/><use xlink:href="#aB" x="63.782"/></g><g class="typst-group"><g class="typst-group"><g class="typst-text" transform="matrix(1 0 0 -1 405.672 353.428)"><use xlink:href="#aC"/><use xlink:href="#aD" x="8.448"/><use xlink:href="#aE" x="16.896"/><use xlink:href="#aF" x="19.932"/><use xlink:href="#aF" x="28.38"/><use xlink:href="#aG" x="36.828"/></g></g><g class="typst-group"><g class="typst-text" transform="matrix(1 0 0 -1 450.948 353.428)"><use xlink:href="#aH"/><use xlink:href="#aI" x="3.036"/><use xlink:href="#aJ" x="11.484"/></g></g></g><g class="typst-text" transform="matrix(1 0 0 -1 47.52 381.98)"><use xlink:href="#aK"/><use xlink:href="#au" x="8.131"/><use xlink:href="#aL" x="15.734"/><use xlink:href="#av" x="24.103"/><use xlink:href="#au" x="27.1"/><use xlink:href="#aM" x="34.703"/><use xlink:href="#az" x="46.781"/><use xlink:href="#ax" x="55.11"/><use xlink:href="#ay" x="62.713"/><use xlink:href="#aA" x="66.304"/><use xlink:href="#aB" x="73.933"/></g><g class="typst-group"><g class="typst-group"><g class="typst-text" transform="matrix(1 0 0 -1 405.672 381.98)"><use xlink:href="#aN"/><use xlink:href="#aO" x="8.448"/><use xlink:href="#aE" x="16.896"/><use xlink:href="#aI" x="19.932"/><use xlink:href="#aP" x="28.38"/><use xlink:href="#aI" x="36.828"/></g></g><g class="typst-group"><g class="typst-text" transform="matrix(1 0 0 -1 450.948 381.98)"><use xlink:href="#aH"/><use xlink:href="#aI" x="3.036"/><use xlink:href="#aJ" x="11.484"/></g></g></g><g class="typst-text" transform="matrix(1 0 0 -1 47.52 410.53)"><use xlink:href="#aQ"/><use xlink:href="#aB" x="9.662"/><use xlink:href="#aR" x="17.965"/><use xlink:href="#aS" x="26.334"/><use xlink:href="#aT" x="34.769"/><use xlink:href="#av" x="42.121"/><use xlink:href="#aw" x="45.118"/><use xlink:href="#aT" x="49.883"/><use xlink:href="#aU" x="57.169"/><use xlink:href="#aV" x="63.162"/><use xlink:href="#av" x="77.339"/><use xlink:href="#aw" x="80.335"/><use xlink:href="#aW" x="85.1"/><use xlink:href="#aL" x="92.717"/><use xlink:href="#aX" x="101.086"/><use xlink:href="#ax" x="105.692"/><use xlink:href="#aY" x="113.296"/><use xlink:href="#ax" x="124.12"/><use xlink:href="#ay" x="131.723"/><use xlink:href="#aT" x="135.379"/></g><g class="typst-group"><g class="typst-group"><g class="typst-text" transform="matrix(1 0 0 -1 405.672 410.53)"><use xlink:href="#aF"/><use xlink:href="#aD" x="8.448"/><use xlink:href="#aE" x="16.896"/><use xlink:href="#aG" x="19.932"/><use xlink:href="#aG" x="28.38"/><use xlink:href="#aG" x="36.828"/></g></g></g><g class="typst-text" transform="matrix(1 0 0 -1 47.52 439.082)"><use xlink:href="#aZ"/><use xlink:href="#av" x="8.897"/><use xlink:href="#aB" x="11.893"/><use xlink:href="#ay" x="20.196"/><use xlink:href="#aL" x="23.509"/></g><g class="typst-group"><g class="typst-group"><g class="typst-text" transform="matrix(1 0 0 -1 414.12 439.082)"><use xlink:href="#aJ"/><use xlink:href="#aE" x="8.448"/><use xlink:href="#aN" x="11.484"/><use xlink:href="#aF" x="19.932"/><use xlink:href="#aI" x="28.38"/></g></g></g><g class="typst-text" transform="matrix(1 0 0 -1 47.52 467.634)"><use xlink:href="#ba"/><use xlink:href="#bb" x="12.619"/><use xlink:href="#bc" x="20.988"/><use xlink:href="#bd" x="31.931"/><use xlink:href="#aT" x="41.092"/><use xlink:href="#aT" x="48.444"/><use xlink:href="#aB" x="55.796"/><use xlink:href="#aw" x="63.901"/></g><g class="typst-text" transform="matrix(1 0 0 -1 60.72 496.186)"><use xlink:href="#be"/><use xlink:href="#bf" x="18.295"/><use xlink:href="#aw" x="27.179"/><use xlink:href="#aS" x="31.733"/><use xlink:href="#bg" x="40.168"/><use xlink:href="#bh" x="48.114"/><use xlink:href="#aT" x="55.268"/></g><g class="typst-group"><g class="typst-group"><g class="typst-text" transform="matrix(1 0 0 -1 414.12 496.186)"><use xlink:href="#aI"/><use xlink:href="#aE" x="8.448"/><use xlink:href="#aO" x="11.484"/><use xlink:href="#aD" x="19.932"/><use xlink:href="#aF" x="28.38"/></g></g></g><g class="typst-text" transform="matrix(1 0 0 -1 60.72 524.737)"><use xlink:href="#be"/><use xlink:href="#bi" x="18.295"/><use xlink:href="#aS" x="27.403"/><use xlink:href="#au" x="35.838"/><use xlink:href="#aL" x="43.441"/><use xlink:href="#aT" x="51.81"/></g><g class="typst-group"><g class="typst-group"><g class="typst-text" transform="matrix(1 0 0 -1 425.604 524.737)"><use xlink:href="#aP"/><use xlink:href="#aP" x="8.448"/><use xlink:href="#aN" x="16.896"/></g></g></g><g class="typst-text" transform="matrix(1 0 0 -1 60.72 553.289)"><use xlink:href="#be"/><use xlink:href="#bj" x="18.295"/><use xlink:href="#aA" x="25.846"/><use xlink:href="#aw" x="33.475"/><use xlink:href="#aA" x="38.24"/><use xlink:href="#aX" x="45.87"/><use xlink:href="#aB" x="50.384"/><use xlink:href="#aT" x="58.687"/></g><g class="typst-group"><g class="typst-group"><g class="typst-text" transform="matrix(1 0 0 -1 414.12 553.289)"><use xlink:href="#aF"/><use xlink:href="#aE" x="8.448"/><use xlink:href="#aD" x="11.484"/><use xlink:href="#aF" x="19.932"/><use xlink:href="#aG" x="28.38"/></g></g></g><g class="typst-text" transform="matrix(1 0 0 -1 47.52 581.84)"><use xlink:href="#bk"/><use xlink:href="#am" x="10.124"/><use xlink:href="#bl" x="18.124"/><use xlink:href="#am" x="30.043"/><use xlink:href="#al" x="38.042"/><use xlink:href="#ak" x="42.029"/><use xlink:href="#bm" x="49.83"/><use xlink:href="#ao" x="54.886"/><use xlink:href="#bn" x="58.291"/><use xlink:href="#an" x="65.327"/><use xlink:href="#as" x="77.312"/><use xlink:href="#an" x="86.222"/><use xlink:href="#bm" x="94.591"/><use xlink:href="#am" x="99.647"/><use xlink:href="#bo" x="107.646"/><use xlink:href="#ap" x="112.807"/></g><g class="typst-text" transform="matrix(1 0 0 -1 423.783 581.84)"><use xlink:href="#bp"/><use xlink:href="#bq" x="8.448"/><use xlink:href="#br" x="16.896"/><use xlink:href="#bp" x="19.932"/><use xlink:href="#bs" x="28.38"/><use xlink:href="#bt" x="36.828"/></g></g><defs><symbol id="a" overflow="visible"><path d="M3.186 5.755c-.352 0-2.561-.061-2.913-.061-.088-.053-.088-.247 0-.3.484-.026.73-.061.73-.792V1.074c0-.73-.246-.766-.73-.792-.088-.053-.088-.247 0-.3C.625-.008 1.276 0 1.628 0c.352 0 .986-.009 1.338-.018.088.053.088.247 0 .3-.484.026-.73.061-.73.792V2.49c.694 0 .774-.061.897-.264l1.03-1.53c.272-.397.633-.784 1.161-.784.352 0 .81.026.898.07.035.062.026.23-.01.3-.395 0-.598.21-.844.58L4.171 2.71c.475.194 1.162.652 1.162 1.55 0 .351-.132.88-.678 1.205-.325.193-.81.29-1.47.29Zm.818-1.645c0-1.083-.651-1.25-1.39-1.25h-.379v1.751c0 .599.203.783.669.783.51 0 1.1-.21 1.1-1.284Z"/></symbol><symbol id="b" overflow="visible"><path d="M3.793 1.135C3.432.765 2.957.67 2.623.67c-.687 0-1.11.396-1.11 1.258 0 .062.01.097.01.141h2.111c.212 0 .256.15.256.273 0 .748-.29 1.566-1.584 1.566-.924 0-1.98-.818-1.98-2.165 0-.51.184-1.047.563-1.39.334-.3.765-.44 1.39-.44.607 0 1.206.308 1.646.95 0 .115-.044.273-.132.273ZM1.558 2.42c.008.308.052.642.176.818.14.212.378.3.475.3.237 0 .563-.23.563-.933 0-.053 0-.167-.018-.185Z"/></symbol><symbol id="c" overflow="visible"><path d="M.422 1.285C.458.854.502.44.572.105c.167-.052.73-.193 1.223-.193.678 0 1.523.37 1.523 1.135 0 .3-.07.537-.273.757-.247.282-.616.502-1.021.678-.352.15-.475.43-.475.686 0 .202.167.37.422.37.308 0 .607-.282.827-.819.159-.026.256-.017.344.044 0 .317-.036.651-.115.933a2.077 2.077 0 0 1-.985.211c-.467 0-.907-.176-1.188-.457a.972.972 0 0 1-.3-.687c0-.264.106-.475.273-.66.273-.299.757-.607 1.021-.73a.743.743 0 0 0 .449-.687c0-.281-.282-.43-.52-.43C1.383.255.96.66.775 1.301a.685.685 0 0 1-.352-.017Z"/></symbol><symbol id="d" overflow="visible"><path d="M2.596.431c.062-.36.3-.519.686-.519.484 0 .828.185 1.153.493a.324.324 0 0 1-.158.246.523.523 0 0 0-.37-.123c-.193 0-.246.158-.246.59l.017 1.267c0 1.267-.783 1.522-1.504 1.522-.643 0-1.628-.37-1.628-.95 0-.247.105-.44.448-.44.317 0 .546.193.546.405 0 .044-.009.096-.018.15a.671.671 0 0 0-.017.263c.009.097.079.203.37.203.369 0 .677-.159.677-1.276l-.59-.185C1.038 1.787.387 1.53.387.836c0-.607.335-.924 1.1-.924.255 0 .766.282 1.056.51Zm-.044 1.487V.757C2.332.58 2.112.44 1.954.44c-.379 0-.51.255-.51.528 0 .326.026.598.65.8Z"/></symbol><symbol id="e" overflow="visible"><path d="M2.006 2.358c0 .317.097.45.212.581.07.088.15.15.281.15.08 0 .176-.08.247-.167.061-.07.21-.141.413-.141.255 0 .502.264.502.633 0 .23-.264.493-.581.493-.308 0-.642-.264-1.047-.845h-.035c-.018.264-.062.696-.062.696-.009.079-.08.15-.202.15-.414-.106-.88-.23-1.461-.291a.716.716 0 0 1 .017-.273c.484-.044.572-.123.572-.625V1.074C.862.344.766.326.23.282c-.053-.053-.053-.247 0-.3.37.01.739.018 1.205.018.467 0 .828-.009 1.206-.018.053.053.053.247 0 .3-.537.035-.634.061-.634.792Z"/></symbol><symbol id="f" overflow="visible"><path d="M3.714.766c0 .105-.018.272-.115.272-.352-.325-.651-.492-.906-.492-.66 0-1.18.475-1.18 1.53 0 .978.22 1.462.687 1.462.326 0 .458-.344.484-.625.026-.238.264-.414.546-.414a.48.48 0 0 1 .484.493c0 .396-.476.915-1.435.915-1.038 0-1.953-.836-1.953-2.138 0-.572.202-1.074.545-1.4.343-.325.748-.457 1.373-.457.528 0 1.135.37 1.47.854Z"/></symbol><symbol id="g" overflow="visible"><path d="M4.646 1.126V2.5c0 .968-.413 1.408-1.17 1.408-.326 0-.95-.325-1.452-.633V5.13c0 .572.026.898.026.898 0 .08-.061.114-.14.114C1.584 6.037.88 5.94.255 5.914a.38.38 0 0 1 .027-.282c.554-.044.598-.053.598-.66V1.118C.88.388.74.308.202.282.15.229.15.035.202-.018c.37.01.766.018 1.25.018.422 0 .695-.009 1.074-.018.052.053.052.247 0 .3-.37.026-.502.105-.502.836v1.804c.37.228.66.334.818.334.352 0 .66-.158.66-.66v-1.47c0-.739-.14-.818-.501-.844-.053-.053-.053-.247 0-.3.37.01.651.018 1.073.018.484 0 .872-.009 1.25-.018.053.053.053.247 0 .3-.537.026-.678.105-.678.844Z"/></symbol><symbol id="h" overflow="visible"><path d="M1.663 1.074V2.56c.74 0 .907-.132 1.03-.335l.941-1.53c.256-.414.634-.784 1.162-.784.132 0 .282.018.37.062.035.061.026.14-.01.21-.395 0-.615.3-.844.678L3.203 2.71c.379.124 1.17.581 1.17 1.505 0 .44-.149.801-.466 1.1-.422.396-.968.423-1.522.423-.414 0-.783-.062-1.1-.062-.308 0-.722.009-1.135.018-.053-.053-.053-.238 0-.29.616-.027.765-.071.765-.802V1.074C.915.344.765.299.15.273.097.22.097.035.15-.017.546-.01.96 0 1.294 0c.334 0 .748-.009 1.135-.018.053.053.053.238 0 .29-.616.027-.766.071-.766.802Zm.73 4.364c.537 0 1.171-.193 1.171-1.232 0-1.1-.625-1.346-1.478-1.346h-.423v2.015c0 .255.106.563.73.563Z"/></symbol><symbol id="i" overflow="visible"><path d="M3.397.818C3.07.484 2.816.343 2.306.343c-.317 0-.687.185-.96.634-.176.29-.281.695-.281 1.205l2.34-.017c.106 0 .168.053.168.15 0 .739-.264 1.53-1.487 1.53-.766 0-1.76-.73-1.76-2.067 0-.493.123-.968.413-1.303.3-.352.713-.563 1.347-.563.668 0 1.144.308 1.496.766-.027.088-.08.132-.185.14ZM1.09 2.482c.167.994.783 1.073.995 1.073.334 0 .73-.185.73-.924 0-.079-.035-.123-.132-.123Z"/></symbol><symbol id="j" overflow="visible"><path d="M.422 1.214C.458.784.484.37.484 0c.088.018.176.026.22.026.062 0 .114 0 .176-.017.238-.062.475-.097.8-.097.494 0 1.4.238 1.4 1.109 0 .598-.431.95-1.03 1.17-.528.203-.88.335-.88.819 0 .36.317.563.616.563.194 0 .704-.07.819-.819.053-.052.229-.044.281.01.027.316.044.642.053.932-.273.044-.695.167-1.153.167-.65 0-1.24-.422-1.24-.985 0-.643.29-.916.968-1.197.73-.3.897-.484.897-.863 0-.43-.422-.616-.748-.616-.343 0-.537.115-.625.212-.193.202-.29.59-.343.81-.053.052-.22.043-.273-.01Z"/></symbol><symbol id="k" overflow="visible"><path d="M2.578.422c.053-.272.15-.51.59-.51.334 0 .651.15.836.326-.018.105-.053.184-.15.237-.061-.053-.21-.14-.325-.14-.255 0-.264.343-.264.747v1.294c0 1.25-.687 1.487-1.329 1.487-.722 0-1.452-.475-1.452-.977 0-.21.106-.316.308-.316.255 0 .414.184.414.299a.396.396 0 0 1-.027.158.608.608 0 0 0-.017.176c0 .273.37.37.704.37.299 0 .712-.15.712-1.144 0-.062-.026-.097-.052-.106l-.757-.185C.924 1.928.317 1.461.317.862c0-.721.493-.95 1.109-.95.308 0 .572.07.959.37l.176.14Zm0 1.628V.89c0-.115-.052-.176-.123-.229-.229-.185-.528-.387-.774-.387-.44 0-.634.352-.634.625 0 .396.185.8.836.968Z"/></symbol><symbol id="l" overflow="visible"><path d="M1.549 3.15c-.018.352-.027.581-.07.67-.018.043-.036.07-.106.07-.247-.097-.475-.176-1.083-.256a.586.586 0 0 1 .018-.246C.783 3.344.88 3.3.88 2.79V1.074C.88.344.774.308.229.273.176.22.176.035.229-.017.537-.01.88 0 1.232 0c.352 0 .757-.009 1.065-.018.053.053.053.238 0 .29-.616.045-.722.071-.722.802v1.223c0 .229.106.431.211.59.097.14.3.43.405.43.08 0 .159-.017.229-.114.062-.088.167-.202.317-.202.211 0 .413.22.413.44 0 .167-.158.422-.528.422-.413 0-.774-.387-.976-.73-.053-.097-.097-.027-.097.017Z"/></symbol><symbol id="m" overflow="visible"><path d="M3.502.8c-.035.08-.105.115-.184.124-.3-.387-.678-.58-1.056-.58-.643 0-1.18.65-1.18 1.68 0 .968.423 1.549 1.004 1.549.519 0 .59-.308.624-.616.027-.238.15-.317.335-.317.185 0 .431.114.431.387 0 .484-.502.836-1.346.836-.872 0-1.804-.783-1.804-2.033C.326.695.959-.088 2.068-.088c.528 0 .994.167 1.434.889Z"/></symbol><symbol id="n" overflow="visible"><path d="M1.47 2.517c0 .185.079.29.15.37.334.325.782.519 1.126.519.176 0 .36-.115.466-.317.088-.176.106-.414.106-.678V1.074c0-.722-.088-.757-.546-.801-.044-.053-.044-.238 0-.29.246.008.546.017.898.017s.642-.009.932-.018c.044.053.044.238 0 .29-.492.045-.59.08-.59.802v1.31c0 .485-.034.916-.237 1.18-.15.194-.422.3-.73.3-.431 0-.96-.115-1.496-.714 0-.008-.009-.008-.018-.017-.026-.035-.07-.088-.07.017l.009 1.98c0 .572.035.924.035.924 0 .062-.035.088-.115.088-.22-.088-.88-.21-1.232-.237-.017-.07 0-.211.053-.264h.08c.387-.027.483-.027.483-.722V1.074C.774.344.67.308.158.273.106.22.106.035.158-.017.448-.01.774 0 1.126 0c.335 0 .625-.009.872-.018.052.053.052.238 0 .29-.45.036-.528.071-.528.802Z"/></symbol><symbol id="o" overflow="visible"><path d="M.378 3.775C.255 3.775.22 3.67.22 3.6v-.114c0-.044.009-.053.044-.053h.52V.783c0-.625.272-.871.677-.871s.845.194 1.188.58c-.018.089-.07.142-.159.15A1.191 1.191 0 0 0 1.77.396c-.238 0-.29.264-.29.81v2.226h.915c.088 0 .21.035.21.114v.176c0 .036-.026.053-.07.053H1.478v.343c0 .572.036.924.036.924 0 .053-.027.08-.07.08a.585.585 0 0 1-.194-.08 1.127 1.127 0 0 0-.3-.123c-.105-.035-.193-.061-.193-.123 0-.106.026-.044.026-1.02Z"/></symbol><symbol id="p" overflow="visible"><path d="M1.496 3.15c-.009.264-.026.581-.07.67-.018.043-.036.07-.106.07-.246-.097-.475-.176-1.082-.256a.586.586 0 0 1 .017-.246C.73 3.344.827 3.3.827 2.79V1.074C.827.352.713.308.23.273.176.22.176.035.229-.017a24.857 24.857 0 0 0 1.84 0c.052.052.052.237-.001.29-.449.044-.546.079-.546.8v1.444c0 .185.08.29.15.37.352.343.678.519.95.519.335 0 .581-.212.581-.801V1.074c0-.722-.07-.766-.545-.801-.044-.053-.044-.238 0-.29a23.312 23.312 0 0 0 1.76 0c.044.052.044.237 0 .29-.44.035-.52.079-.52.8v1.4c0 .123 0 .246-.008.352.422.466.818.58 1.161.58.335 0 .528-.193.528-.783V1.074c0-.722-.088-.766-.545-.801-.044-.053-.044-.238 0-.29a23.312 23.312 0 0 0 1.804 0c.044.052.044.237 0 .29-.484.035-.564.079-.564.8v1.391c0 .783-.132 1.4-.906 1.4-.449 0-.994-.168-1.452-.652-.026-.026-.08-.07-.097.009-.079.36-.422.642-.88.642-.51 0-.968-.299-1.337-.713-.044-.044-.097-.105-.106 0Z"/></symbol><symbol id="q" overflow="visible"><path d="M.757 1.074C.757.344.66.308.167.273.114.22.114.035.167-.017.457-.01.757 0 1.11 0c.308 0 .598-.009.8-.018.053.053.053.238 0 .29-.36.036-.457.071-.457.802v.765a1.78 1.78 0 0 0 .378-.044c.097-.07.176-.15.282-.29l.642-.863c.256-.343.361-.51.37-.616 0-.026.009-.044.035-.044a11.295 11.295 0 0 0 1.267 0c.053.053.053.238 0 .29-.299.036-.519.071-.756.37L2.508 2.103c-.035.044-.062.08-.062.123 0 .036 0 .053.036.088l.774.801c.264.282.572.352.924.387.053.053.053.238 0 .29a16.896 16.896 0 0 0-.766-.017c-.334 0-.66.009-.862.018-.053-.053-.053-.238 0-.29.493-.036.282-.344.202-.45-.202-.255-.475-.554-.704-.721a1.555 1.555 0 0 0-.598-.273V5.13c0 .572.035.924.035.924 0 .062-.035.088-.114.088-.22-.088-.88-.21-1.232-.237-.018-.07 0-.211.053-.264h.079c.387-.027.484-.027.484-.722Z"/></symbol><symbol id="r" overflow="visible"><path d="M3.142-.088c.853 0 1.636.405 2.235 1.188-.044.08-.106.132-.203.132C4.55.546 3.951.272 3.133.272c-1.188 0-2.007 1.338-2.007 2.623 0 .757.203 1.39.52 1.787.44.536.95.783 1.408.783 1.214 0 1.698-.722 1.927-1.479.105-.035.193-.008.29.044-.044.458-.105.88-.193 1.364-.45.044-.845.396-1.928.396-.748 0-1.372-.272-1.892-.748-.58-.536-.932-1.399-.932-2.314 0-1.531.924-2.816 2.816-2.816Z"/></symbol><symbol id="s" overflow="visible"><path d="M.36 1.804C.36.906.96-.088 2.21-.088c.563 0 .994.202 1.293.493.396.387.572.941.572 1.478 0 .915-.501 1.98-1.848 1.98-.58 0-1.056-.237-1.381-.616C.528 2.87.36 2.358.36 1.804Zm1.734 1.751c.757 0 1.224-.686 1.224-1.953C3.318.492 2.746.22 2.332.22c-.915 0-1.214 1.109-1.214 1.786 0 .766.184 1.55.976 1.55Z"/></symbol><symbol id="t" overflow="visible"><path d="M1.62 3.15c-.054-.061-.106-.079-.106 0-.01.238-.027.581-.07.67-.018.043-.036.07-.106.07-.247-.097-.476-.176-1.083-.256a.586.586 0 0 1 .018-.246c.475-.044.572-.088.572-.598V1.074C.845.352.757.317.229.273.176.22.176.035.229-.017.493-.01.845 0 1.197 0s.616-.009.88-.018c.053.053.053.238 0 .29-.449.045-.537.08-.537.802v1.443c0 .185.08.29.15.37.334.325.73.519 1.073.519.176 0 .361-.115.467-.317.088-.176.105-.414.105-.678V1.074c0-.722-.088-.757-.545-.801-.044-.053-.044-.238 0-.29a25.395 25.395 0 0 0 1.83 0c.044.052.044.237 0 .29-.493.044-.59.079-.59.8v1.312c0 .484-.035.906-.237 1.179-.15.194-.423.3-.73.3-.432 0-.925-.115-1.444-.714Z"/></symbol><symbol id="u" overflow="visible"><path d="M2.94.44c.043.035.122.053.131-.009.027-.211.097-.519.097-.519a.219.219 0 0 1 .167 0c.194.158.502.29 1.039.352.052.053.052.185 0 .238-.564.044-.643.21-.643.642V5.13c0 .572.035.924.035.924 0 .062-.035.088-.114.088-.22-.088-.88-.21-1.232-.237-.018-.07 0-.211.053-.264h.079c.387-.027.484-.027.484-.722V3.793c0-.062-.018-.08-.08-.08-.034 0-.395.15-.686.15-.58 0-.968-.193-1.32-.528-.378-.378-.607-.897-.607-1.549C.343.704.89-.088 1.84-.088c.343 0 .669.176 1.1.528Zm.096.651c0-.167-.018-.237-.14-.343C2.57.466 2.287.326 2.067.326c-.475 0-.968.519-.968 1.619 0 .633.123.985.255 1.17.273.414.643.44.819.44a.881.881 0 0 0 .712-.317c.124-.14.15-.202.15-.475Z"/></symbol><symbol id="v" overflow="visible"><path d="M1.91-.088c.343 0 .756.176 1.188.528.044.035.123.053.132-.009.026-.22.096-.519.096-.519a.219.219 0 0 1 .168 0c.193.158.501.29 1.038.352.053.053.053.185 0 .238-.563.044-.642.21-.642.642v1.69c0 .264.035.906.035.906 0 .026-.027.053-.07.053a2.197 2.197 0 0 0-.309-.018c-.281 0-.598.009-.897.018-.053-.053-.053-.238 0-.29.431-.027.545-.133.545-.713V1.09c0-.167-.017-.237-.14-.343-.326-.282-.66-.422-.88-.422-.264 0-.704.123-.704.906v1.602c0 .264.035.906.035.906 0 .026-.027.053-.07.053a2.197 2.197 0 0 0-.309-.018c-.281 0-.598.009-.897.018-.053-.053-.053-.238 0-.29.422-.036.545-.133.545-.705v-1.69c0-.606.264-1.196 1.136-1.196Z"/></symbol><symbol id="w" overflow="visible"><path d="M2.86 3.502c.475-.035.528-.14.343-.59L2.49 1.189c-.14-.343-.184-.343-.325.026L1.53 2.913c-.158.422-.193.528.273.59.053.052.053.237 0 .29-.29-.009-.598-.018-.889-.018-.29 0-.554.009-.818.018-.053-.053-.053-.238 0-.29.466-.053.528-.194.704-.643L1.927.08c.053-.133.106-.186.22-.186.088 0 .15.053.211.203l1.17 2.754c.168.387.265.607.758.651.052.053.052.238 0 .29a12.237 12.237 0 0 0-.616-.017c-.29 0-.59.009-.81.018-.053-.053-.053-.238 0-.29Z"/></symbol><symbol id="x" overflow="visible"><path d="M1.795-1.408c.141.246.255.493.361.757a86.752 86.752 0 0 0 1.558 3.59c.176.37.299.51.712.563.053.053.053.238 0 .29a11.998 11.998 0 0 0-.624-.017c-.264 0-.537.009-.801.018-.053-.053-.053-.238 0-.29.281-.027.563-.08.422-.397l-.871-2.015c-.062-.14-.14-.167-.211.009l-.783 1.83c-.159.37-.203.537.29.572.053.053.053.238 0 .29a38.148 38.148 0 0 0-.994-.017c-.3 0-.537.009-.713.018-.053-.053-.053-.238 0-.29.352-.045.466-.124.695-.66L1.83.527c.08-.176.212-.58.124-.827a8.273 8.273 0 0 0-.344-.81c-.096-.176-.22-.255-.44-.255-.123 0-.158.026-.255.026-.255 0-.387-.264-.387-.378 0-.185.176-.326.414-.326.184 0 .536.07.853.634Z"/></symbol><symbol id="y" overflow="visible"><path d="M1.628 0c.352 0 1.074-.018 1.426-.018.774 0 1.645.194 2.27.74.422.37.713 1.1.713 1.997 0 1.628-1.056 2.966-3.221 2.966-.466 0-.836-.009-1.188-.009s-1.355.018-1.355.018c-.088-.053-.088-.247 0-.3.484-.026.73-.061.73-.792V1.074c0-.73-.246-.766-.73-.792-.088-.053-.088-.247 0-.3 0 0 1.003.018 1.355.018Zm.607 1.047v3.608c0 .484.229.66.546.66 1.733 0 1.927-1.487 1.927-2.816C4.708.898 3.748.352 3.08.352c-.616 0-.845.106-.845.695Z"/></symbol><symbol id="z" overflow="visible"><path d="M3.01 3.538c.475-.036.536-.176.343-.625l-.695-1.61c-.036-.08-.07-.018-.097.043l-.555 1.567a1.067 1.067 0 0 0-.044.123c-.123.334-.176.458.317.502.053.052.053.246 0 .299a38.936 38.936 0 0 0-1.109-.018c-.308 0-.756.009-1.082.018-.053-.053-.053-.247 0-.3.51-.061.528-.237.704-.677L1.945.08c.053-.133.202-.186.317-.186.088 0 .264.018.343.203L3.81 2.85c.176.396.29.643.757.687.053.052.053.246 0 .299a16.962 16.962 0 0 0-1.557 0c-.053-.053-.053-.247 0-.3Z"/></symbol><symbol id="A" overflow="visible"><path d="M.88 1.118C.88.388.74.308.202.282.15.229.15.035.202-.018c.37.01.766.018 1.25.018s.871-.009 1.25-.018c.052.053.052.247 0 .3-.537.026-.678.105-.678.836V5.13c0 .572.026.898.026.898 0 .08-.061.114-.14.114C1.584 6.037.88 5.94.255 5.914a.38.38 0 0 1 .027-.282c.554-.044.598-.053.598-.66Z"/></symbol><symbol id="B" overflow="visible"><path d="M.326 1.822c0-1.153.915-1.91 2.094-1.91.625 0 1.144.176 1.505.502.449.396.598.994.598 1.487 0 1.153-.783 2.006-2.094 2.006-.73 0-1.276-.255-1.62-.651-.334-.387-.483-.915-.483-1.434Zm1.962 1.716c.598 0 1.003-.713 1.003-1.919 0-1.056-.413-1.337-.73-1.337-.722 0-1.003 1.082-1.003 1.733 0 .81.14 1.523.73 1.523Z"/></symbol><symbol id="C" overflow="visible"><path d="M.836 2.72V-.969c0-.73-.097-.748-.634-.792-.052-.053-.052-.246 0-.3.37.01.74.018 1.206.018.466 0 .827-.008 1.206-.017.052.053.052.246 0 .299-.537.035-.634.062-.634.792v1.03c.194-.097.378-.15.59-.15 1.337 0 2.208.88 2.208 2.174 0 .492-.184 1.038-.528 1.381-.308.308-.748.44-1.205.44-.255 0-.73-.308-1.039-.59h-.052c-.018.247-.044.44-.044.44-.01.106-.08.15-.203.15a11.428 11.428 0 0 0-1.46-.29.762.762 0 0 1 .017-.282c.484-.044.572-.114.572-.616ZM1.98.571v2.403c.255.228.58.343.783.343.361 0 .783-.44.783-1.47 0-.74-.264-1.566-1.03-1.566-.096 0-.316.052-.536.29Z"/></symbol><symbol id="D" overflow="visible"><path d="M2.006 1.074v1.883c.344.211.652.299.801.299.352 0 .616-.158.616-.66v-1.47c0-.739-.14-.818-.501-.844-.053-.053-.053-.247 0-.3.37.01.65.018 1.073.018.423 0 .695-.009 1.074-.018.053.053.053.247 0 .3-.352.026-.502.105-.502.844V2.5c0 .22-.009.396-.035.484.334.167.713.273.854.273.352 0 .598-.158.598-.66v-1.47c0-.739-.14-.818-.502-.844-.052-.053-.052-.247 0-.3.37.01.652.018 1.074.018.484 0 .871-.009 1.25-.018.052.053.052.247 0 .3-.537.026-.678.105-.678.844V2.5c0 .968-.352 1.408-1.109 1.408-.325 0-1.065-.352-1.575-.633-.132.378-.484.633-1.003.633-.317 0-.95-.334-1.452-.616-.027.264-.053.467-.053.467-.009.105-.08.15-.202.15a11.428 11.428 0 0 0-1.461-.291.762.762 0 0 1 .017-.282c.484-.044.572-.114.572-.616V1.074C.862.344.766.326.23.282c-.053-.053-.053-.247 0-.3.37.01.739.018 1.205.018.405 0 .652-.009 1.03-.018.053.053.053.247 0 .3-.37.035-.458.061-.458.792Z"/></symbol><symbol id="E" overflow="visible"><path d="M2.006 1.074v1.768c.352.238.704.414.863.414.352 0 .616-.158.616-.66v-1.47c0-.739-.141-.818-.502-.844-.053-.053-.053-.247 0-.3.37.01.651.018 1.074.018.484 0 .871-.009 1.25-.018.052.053.052.247 0 .3-.537.026-.678.105-.678.844V2.5c0 .968-.414 1.408-1.17 1.408-.353 0-.977-.387-1.461-.721-.027.308-.062.572-.062.572-.009.105-.08.15-.202.15a11.428 11.428 0 0 0-1.461-.291.762.762 0 0 1 .017-.282c.484-.044.572-.114.572-.616V1.074C.862.344.766.326.23.282c-.053-.053-.053-.247 0-.3.37.01.739.018 1.205.018.405 0 .652-.009 1.03-.018.053.053.053.247 0 .3-.37.035-.458.061-.458.792Z"/></symbol><symbol id="F" overflow="visible"><path d="M.554 3.82a.562.562 0 0 1-.37-.133v-.255c0-.044.01-.053.045-.053H.8C.783 2.49.774 1.364.774.924c0-.308.08-.607.264-.766.203-.167.52-.246.73-.246.485 0 1.022.246 1.198.493 0 .105-.053.158-.159.246-.114-.088-.334-.123-.501-.123-.194 0-.388.15-.388.59 0 .44-.008 1.381-.008 2.261h.888c.088 0 .212.035.212.115v.272c0 .036-.027.053-.07.053H1.91l.008.3c.018.589.044.994.044.994 0 .053-.026.079-.07.079-.062 0-.387-.097-.528-.158-.15-.062-.405-.115-.466-.194C.836 4.76.8 4.523.8 3.82Z"/></symbol><symbol id="G" overflow="visible"><path d="M2.385 1.962c.114 0 .237.247.237.352 0 .088-.035.176-.123.176H.572c-.106 0-.22-.202-.22-.36 0-.088.053-.168.132-.168Z"/></symbol><symbol id="H" overflow="visible"><path d="M1.373 3.238c-.009.264-.027.493-.07.581-.018.044-.036.07-.106.07C.95 3.794.722 3.715.114 3.635a.586.586 0 0 1 .018-.246c.475-.044.572-.088.572-.598V-.968c0-.73-.097-.774-.634-.8-.052-.054-.052-.238 0-.291.308.009.634.017.986.017s.774-.008 1.065-.017c.053.053.053.237 0 .29-.625.035-.722.07-.722.801v.95c0 .115.035.106.123.07.22-.087.484-.14.766-.14.493 0 .933.15 1.294.493.413.405.65.95.65 1.663 0 .933-.66 1.795-1.557 1.795-.405 0-.853-.264-1.205-.66-.053-.053-.088-.053-.097.035Zm.167-.325c.229.281.634.545.889.545.563 0 1.047-.633 1.047-1.628 0-.721-.255-1.619-1.24-1.619-.16 0-.467.044-.626.185-.176.158-.21.211-.21.528v1.602c0 .184.034.264.14.387Z"/></symbol><symbol id="I" overflow="visible"><path d="M1.302 5.676c-.316 0-.783.009-1.135.018-.053-.053-.053-.238 0-.29.616-.027.766-.071.766-.802V1.074c0-.73-.15-.775-.766-.801C.114.22.114.035.167-.017.51-.01.977 0 1.311 0c.326 0 .695-.018 1.602-.018 1.24 0 2.877.564 2.877 2.728 0 1.637-1.346 2.984-3.036 2.984-.624 0-1.108-.018-1.452-.018ZM1.681.739v4.224c0 .308.308.431.739.431 1.9 0 2.526-1.54 2.526-2.895C4.946.722 3.88.282 2.64.282c-.862 0-.96.176-.96.457Z"/></symbol><symbol id="J" overflow="visible"><path d="M.836 1.074C.836.344.739.299.202.273.15.22.15.035.202-.017.51-.01.836 0 1.188 0s.686-.009.977-.018c.053.053.053.238 0 .29-.537.027-.634.071-.634.802V5.13c0 .572.035.924.035.924 0 .062-.035.088-.114.088-.22-.088-.88-.21-1.232-.237-.018-.07 0-.211.053-.264.51-.035.563-.062.563-.722Z"/></symbol><symbol id="K" overflow="visible"><path d="M1.593 1.074v1.75c0 .44.035 1.004.035 1.004 0 .035-.044.062-.114.062-.247-.097-.599-.176-1.206-.256a.586.586 0 0 1 .018-.246c.484-.044.572-.097.572-.598V1.074C.898.344.8.317.264.273.211.22.211.035.264-.017.554-.01.898 0 1.25 0s.686-.009.976-.018c.053.053.053.238 0 .29-.536.036-.633.071-.633.802ZM.792 5.27c0-.229.211-.457.422-.457.247 0 .458.237.458.422 0 .211-.185.458-.422.458-.212 0-.458-.212-.458-.423Z"/></symbol><symbol id="L" overflow="visible"><path d="M5.86 2.895c0 1.822-1.258 2.895-2.833 2.895C1.32 5.79.326 4.435.326 2.728.326 1.135 1.39.097 2.719-.07a4.488 4.488 0 0 1-1.337-1.074 1.145 1.145 0 0 1-.159-.202l.343-.176c.106.15.22.281.335.404a.555.555 0 0 0 .308.115c.378 0 .695-.167 1.038-.361.414-.238.854-.475 1.479-.475.554 0 .924.229 1.267.721l-.15.106c-.193-.238-.51-.326-.765-.326-.37 0-.722.159-1.092.335-.413.193-.853.387-1.364.387-.052 0-.114 0-.176-.009.44.317.872.502 1.153.581.74.123 1.329.502 1.716 1.065.352.501.546 1.135.546 1.874ZM2.914 5.474c1.161 0 2.103-.968 2.103-2.746 0-1.575-.757-2.5-1.76-2.5-1.074 0-2.086.96-2.086 2.65 0 1.848.872 2.596 1.743 2.596Z"/></symbol><symbol id="M" overflow="visible"><path d="m1.364.695.484 1.276c.044.115.097.15.308.15h1.857l.51-1.487c.106-.3-.229-.335-.651-.361-.053-.053-.053-.238 0-.29a34.455 34.455 0 0 0 2.156 0c.053.052.053.237 0 .29-.343.035-.642.061-.792.484L3.423 5.79c-.132-.079-.37-.176-.484-.176L.942.898C.712.352.449.299.062.273.009.22.009.035.062-.017.29-.01.58 0 .845 0c.36 0 .8-.009 1.126-.018.053.053.053.238 0 .29-.334.027-.748.062-.607.423Zm.95 1.795c-.193 0-.255.027-.22.115l.898 2.279h.053l.827-2.394Z"/></symbol><symbol id="N" overflow="visible"><path d="M5.834 1.02c.044-.712.01-.712-.563-.738-.053-.053-.053-.247 0-.3.414.01 1.206.018 1.47.018s.669-.009.959-.018c.053.053.053.247 0 .3-.598.026-.625.052-.678.783L6.758 4.77c-.035.475.01.59.608.624.052.053.052.247 0 .3l-1.77-.018-1.671-3.907H3.88L2.306 5.676l-1.804.018c-.053-.053-.053-.247 0-.3.607-.035.66-.044.598-.704L.748 1.065C.695.537.59.325.088.282c-.053-.053-.053-.247 0-.3.264.01.546.018.757.018.211 0 .739-.009 1.003-.018.053.053.053.247 0 .3-.58.044-.625.308-.58.8l.228 3.3h.035L3.265.044c.026-.062.123-.114.176-.114.053 0 .132.035.167.114l1.98 4.655h.018Z"/></symbol><symbol id="O" overflow="visible"><path d="M.88 1.118C.88.388.74.308.202.282.15.229.15.035.202-.018c.37.01.766.018 1.25.018.387 0 .774-.009.986-.018.052.053.052.247 0 .3-.264.035-.414.105-.414.836v.721c.246 0 .52-.026.607-.167.203-.3.449-.66.599-.986.114-.246.14-.325.14-.457V0l.018-.018S3.784 0 4.092 0c.36 0 .854-.009 1.18-.018.052.053.052.247 0 .3-.344.035-.538.008-.802.404L3.45 2.191c-.044.062-.062.132-.027.176l.44.484c.282.308.52.616 1.188.687.053.052.053.246 0 .299a33.706 33.706 0 0 0-.977-.018c-.325 0-.739.009-1.064.018-.053-.053-.053-.247 0-.3.475-.035.616-.114.36-.466a4.186 4.186 0 0 0-.563-.633c-.114-.097-.519-.247-.783-.247v2.94c0 .571.026.897.026.897 0 .08-.061.114-.14.114C1.584 6.037.88 5.94.255 5.914a.38.38 0 0 1 .027-.282c.554-.044.598-.053.598-.66Z"/></symbol><symbol id="P" overflow="visible"><path d="M2.042 1.074v1.75c0 .44.035.934.035.934 0 .096-.08.15-.203.15C1.628 3.81.915 3.74.308 3.66a.762.762 0 0 1 .018-.282c.484-.044.572-.114.572-.616v-1.69C.898.344.8.327.264.283c-.053-.053-.053-.247 0-.3.37.01.74.018 1.206.018.466 0 .827-.009 1.205-.018.053.053.053.247 0 .3-.537.035-.633.061-.633.792ZM.854 5.244c0-.29.21-.58.563-.58.396 0 .625.317.625.546 0 .264-.203.58-.572.58-.414 0-.616-.281-.616-.545Z"/></symbol><symbol id="Q" overflow="visible"><path d="M4.11 3.467c.246 0 .387.106.387.431 0 .168-.229.423-.563.423-.388 0-.898-.29-1.153-.52-.159.089-.343.106-.74.106-.378 0-.747-.088-1.038-.281-.36-.23-.598-.572-.598-1.021 0-.431.255-.898.677-1.127C.81 1.241.387.774.387.598c0-.167.027-.272.115-.404C.58.07.686 0 .862-.053.484-.282.097-.783.097-.933c0-.325.105-.704.343-.871.343-.238.924-.29 1.346-.29 1.224 0 2.623.642 2.623 1.61 0 .185-.088.563-.44.8-.343.23-1.663.291-2.315.291-.158 0-.396.018-.396.37 0 .14.088.264.132.37.185-.089.37-.097.643-.097.449 0 .862.114 1.161.378.256.229.432.537.432.933 0 .493-.247.818-.546 1.065.07.088.36.246.449.246.079 0 .14-.053.167-.106a.464.464 0 0 1 .414-.299ZM1.54-.22c.678 0 1.98-.026 1.98-.493 0-.317-.14-.677-.431-.836-.273-.158-.722-.176-1.056-.176-.581 0-.977.431-.977.88 0 .3 0 .502.097.678.088-.035.202-.053.387-.053Zm1.012 2.754c0-.844-.246-.95-.475-.95-.546 0-.616.651-.616 1.1 0 .651.158.889.501.889.414 0 .59-.343.59-1.039Z"/></symbol><symbol id="R" overflow="visible"><path d="M.915 4.602V1.074C.915.344.765.299.15.273.097.22.097.035.15-.017.546-.01.977 0 1.294 0c.308 0 .827-.009 1.267-.018.053.053.053.238 0 .29-.687.036-.898.071-.898.802V2.57c.194-.062.405-.088.713-.088 1.602 0 2.086 1.047 2.086 1.795 0 .519-.344 1.46-1.972 1.46-.334 0-.853-.061-1.205-.061a51.2 51.2 0 0 0-1.135.018c-.053-.053-.053-.238 0-.29.616-.027.765-.071.765-.802Zm.748.273c0 .255.132.563.766.563.607 0 1.214-.202 1.214-1.32 0-.95-.457-1.337-1.311-1.337-.22 0-.572.017-.669.044Z"/></symbol><symbol id="S" overflow="visible"><path d="M3.476 5.553c-.51.07-.493.237-1.355.237-.889 0-1.672-.59-1.672-1.522 0-.924.765-1.346 1.54-1.646.528-.202 1.179-.448 1.179-1.31 0-.714-.396-1.083-1.1-1.083-.818 0-1.346.378-1.54 1.25a.363.363 0 0 1-.29-.027C.273.774.308.546.414.114c.554 0 .8-.202 1.584-.202.396 0 .774.097 1.082.29.51.317.827.854.827 1.417 0 .933-.704 1.347-1.425 1.62-.528.193-1.408.527-1.408 1.267 0 .492.448.985.968.985.853 0 1.126-.545 1.302-1.126.097-.018.211-.009.29.053-.035.422-.07.668-.158 1.135Z"/></symbol><symbol id="T" overflow="visible"><path d="M3.907 3.406c.167 0 .326.158.326.334 0 .185-.167.326-.405.326-.229 0-.651-.15-.88-.45-.106.071-.396.247-.915.247-.783 0-1.505-.528-1.505-1.337 0-.476.211-.748.458-.986C.739 1.329.598.95.598.651c0-.317.176-.563.405-.677C.528-.308.282-.713.282-1.091c0-.766.721-1.003 1.399-1.003 1.188 0 2.473.572 2.473 1.522 0 .282-.132.502-.388.713-.343.281-.959.29-1.284.29-.159 0-.379-.017-.59-.044C1.76.378 1.672.37 1.628.37c-.255 0-.563.123-.563.501 0 .176.053.361.158.51.211-.123.458-.184.801-.184.774 0 1.487.484 1.487 1.346 0 .414-.123.651-.378.915.061.088.237.212.352.212.061 0 .123-.027.176-.106.035-.07.15-.158.246-.158ZM1.162-.088c.096-.026.237-.044.352-.044.272 0 .519.026.642.026.44 0 .81-.008 1.065-.15.343-.193.449-.316.449-.545 0-.633-.933-.968-1.725-.968-.317 0-1.056.255-1.056.854 0 .299.017.519.273.827Zm1.645 2.543c0-.818-.413-.985-.739-.985-.74 0-.818.624-.818 1.188 0 .616.22.932.704.932.554 0 .853-.404.853-1.135Z"/></symbol><symbol id="U" overflow="visible"><path d="M6.107 2.895c0 1.751-1.302 2.895-2.913 2.895-.88 0-1.645-.378-2.156-.985C.581 4.259.326 3.529.326 2.719.326 1.1 1.514.07 2.886-.07A4.629 4.629 0 0 1 1.55-1.143a1.718 1.718 0 0 1-.15-.202l.343-.264c.097.14.212.272.317.396a.655.655 0 0 0 .326.123c.818 0 1.373-.924 2.517-.924.554 0 .924.317 1.267.81l-.15.193c-.193-.238-.51-.326-.765-.326-.775 0-1.4.81-2.368.81h-.044c.379.264.748.431.986.493A2.688 2.688 0 0 1 5.35.783c.484.528.757 1.25.757 2.112ZM3.09 5.421c.941 0 1.69-.924 1.69-2.71 0-1.461-.511-2.43-1.4-2.43-.968 0-1.725.96-1.725 2.614 0 1.795.652 2.526 1.435 2.526Z"/></symbol><symbol id="V" overflow="visible"><path d="M3.23 1.074V4.25c0 .467.07.968.07.968 0 .115-.07.15-.15.15-.088 0-.237-.035-.44-.132-.536-.246-1.135-.458-1.9-.774.008-.15.07-.29.193-.379.475.203.792.22.915.22.115 0 .168-.035.168-.475V1.074c0-.73-.423-.766-.907-.792-.088-.053-.088-.247 0-.3.722.01 1.135.018 1.487.018.352 0 .748-.009 1.47-.018.088.053.088.247 0 .3-.484.026-.906.061-.906.792Z"/></symbol><symbol id="W" overflow="visible"><path d="M.44 3.995c0-.22.202-.475.52-.475.254 0 .51.194.51.466a.672.672 0 0 1-.044.185.548.548 0 0 0-.053.229c0 .202.308.607.73.607.449 0 .757-.554.757-1.082 0-.59-.035-.968-.502-1.408l-.748-.713C.52.766.37.519.343.282L.378 0h3.397c.106.334.211.942.273 1.443a.776.776 0 0 1-.396.088C3.458.933 3.203.695 2.807.695H1.663c.027.282.115.52.405.783l.52.476c1.046.968 1.398 1.179 1.398 1.997 0 .915-.774 1.417-1.68 1.417C1.047 5.368.44 4.541.44 3.995Z"/></symbol><symbol id="X" overflow="visible"><path d="M2.182 4.998c.37 0 .555-.21.555-.624 0-.67-.537-1.206-1.347-1.39l.062-.353c.185.053.29.07.422.07.458 0 1.1-.131 1.1-1.187C2.974.502 2.376.282 2.05.282c-.343 0-.528.22-.642.37-.097.131-.246.325-.572.325C.563.977.405.748.405.598c0-.184.097-.316.29-.413A2.903 2.903 0 0 1 1.91-.088c1.038 0 2.2.818 2.2 2.042 0 .633-.414 1.188-1.153 1.24.387.194.818.66.818 1.197 0 .387-.211.977-1.425.977-.916 0-1.285-.308-1.567-.563a.763.763 0 0 1-.246-.528c0-.123.044-.326.334-.326.387 0 .493.203.546.484.097.537.466.563.765.563Z"/></symbol><symbol id="Y" overflow="visible"><path d="M4.25 1.84h-.862v3.528h-.792c-.669-.8-1.62-2.314-2.34-3.406-.018-.035-.062-.088-.062-.114 0-.07.193-.29.255-.36.044-.045.079-.062.29-.062h1.558v-.352c0-.73-.335-.766-.819-.792-.088-.053-.088-.247 0-.3C2.2-.008 2.5 0 2.851 0c.352 0 .634-.009 1.355-.018.088.053.088.247 0 .3-.484.026-.818.061-.818.792v.352h.74c.122 0 .254.167.254.272 0 .088-.035.141-.132.141ZM2.297 4.408v-2.57H.677c.44.74 1.153 1.936 1.62 2.57Z"/></symbol><symbol id="Z" overflow="visible"><path d="M2.244-.088c.871 0 2.015.695 2.015 2.79 0 2.076-1.082 2.666-1.971 2.666-1.135 0-2.024-.986-2.024-2.746 0-1.443.695-2.71 1.98-2.71Zm.044 5.086c.343 0 .722-.563.722-2.12C3.01.766 2.605.282 2.253.282c-.722 0-.73 1.496-.73 2.244 0 2.138.413 2.472.765 2.472Z"/></symbol><symbol id="aa" overflow="visible"><path d="M3.494-.088c.853 0 1.636.405 2.235 1.188-.044.08-.194.185-.29.185C4.813.598 4.1.37 3.484.37c-1.021 0-1.83 1.196-1.83 2.57 0 1.363.703 2.49 1.75 2.49 1.215 0 1.611-.687 1.84-1.444a.564.564 0 0 1 .378.044c-.044.458-.114.88-.193 1.364-.45.044-.845.396-1.928.396C1.778 5.79.326 4.708.326 2.772c0-.827.36-1.795 1.064-2.306.564-.404 1.25-.554 2.104-.554Z"/></symbol><symbol id="ab" overflow="visible"><path d="M2.024 1.126V3.38h.757c.158 0 .308.044.308.15v.202c0 .053-.009.088-.176.088h-.889v.449c0 1.311.36 1.505.554 1.505.15 0 .185-.132.247-.343.079-.282.308-.502.625-.502.29 0 .501.185.501.563 0 .238-.273.651-1.205.651-.414 0-.907-.15-1.241-.51C1.179 5.28.88 4.84.88 3.995V3.82H.862c-.299 0-.66-.044-.66-.114v-.238c0-.061.036-.088.238-.088h.44V1.11C.88.387.74.308.202.282.15.229.15.035.202-.018c.37.01.766.018 1.25.018s.871-.009 1.25-.018c.052.053.052.247 0 .3-.537.026-.678.105-.678.844Z"/></symbol><symbol id="ac" overflow="visible"><path d="M3.124.422c.018-.21.035-.36.035-.36.009-.106.08-.15.203-.15.325.088.853.211 1.46.29a.762.762 0 0 1-.017.282c-.475.044-.572.185-.572.686v3.96c0 .572.026.898.026.898 0 .08-.061.114-.14.114-.326-.105-1.03-.202-1.655-.228a.428.428 0 0 1 .026-.3c.555-.044.599-.052.599-.66V3.81a2.086 2.086 0 0 1-.634.097c-1.135 0-2.13-.994-2.13-2.165 0-.519.185-1.126.617-1.46.316-.247.536-.37 1.03-.37.237 0 .888.387 1.073.51Zm-.026.414C2.913.686 2.446.493 2.34.493c-.44 0-.783.493-.783 1.522 0 .467.052.871.22 1.144.15.238.387.379.65.379.23 0 .45-.027.66-.317V1.056c0-.07 0-.15.01-.22Z"/></symbol><symbol id="ad" overflow="visible"><path d="M.537 4.118c0-.184.167-.343.352-.343.15 0 .413.159.413.352 0 .07-.017.123-.035.185-.017.062-.07.14-.07.211 0 .22.229.537.871.537.317 0 .766-.22.766-1.065 0-.563-.203-1.02-.722-1.549l-.651-.642C.598.924.458.502.458-.018c0 0 .448.018.73.018h1.54c.282 0 .686-.018.686-.018.115.467.203 1.127.212 1.39-.053.045-.168.062-.256.045-.15-.625-.299-.845-.616-.845H1.188c0 .422.607 1.02.651 1.065l.889.853c.502.484.88.872.88 1.54 0 .95-.774 1.338-1.487 1.338-.977 0-1.584-.722-1.584-1.25Z"/></symbol><symbol id="ae" overflow="visible"><path d="M2.006-.088c.678 0 1.708.686 1.708 2.754 0 .872-.212 1.62-.599 2.13-.229.308-.598.572-1.073.572-.872 0-1.699-1.038-1.699-2.78 0-.942.29-1.822.775-2.306.246-.247.545-.37.888-.37Zm.036 5.148c.15 0 .29-.053.396-.15.272-.228.51-.897.51-2.076 0-.81-.026-1.364-.15-1.813C2.605.299 2.174.22 2.015.22c-.818 0-.906 1.505-.906 2.27 0 2.165.537 2.57.933 2.57Z"/></symbol><symbol id="af" overflow="visible"><path d="M1.892 5.06c.378 0 .73-.229.73-.792 0-.44-.51-1.118-1.381-1.24l.044-.282c.15.017.308.017.422.017.502 0 1.153-.14 1.153-1.135C2.86.458 2.077.22 1.769.22c-.449 0-.528.202-.634.36C1.047.705.933.81.757.81.572.81.387.642.387.502c0-.352.74-.59 1.267-.59 1.048 0 1.98.678 1.98 1.84 0 .958-.721 1.302-1.24 1.39l-.01.017c.722.343.925.704.925 1.17a.913.913 0 0 1-.273.696c-.194.193-.502.343-.96.343-1.293 0-1.662-.845-1.662-1.135 0-.123.088-.3.299-.3.308 0 .343.291.343.458 0 .563.607.669.836.669Z"/></symbol><symbol id="ag" overflow="visible"><path d="m1.452.695.466 1.223c.044.115.097.15.308.15h1.672L4.391.634c.106-.317-.15-.326-.484-.344-.053 0-.114-.008-.167-.008-.053-.053-.053-.247 0-.3a49.697 49.697 0 0 0 2.684 0c.053.053.053.247 0 .3-.343.035-.634.026-.792.475L3.819 5.79c-.132-.079-.66-.387-.968-.387L.941.898C.714.352.45.308.062.282.01.229.01.035.062-.018.388-.008.547 0 .89 0c.36 0 .845-.009 1.17-.018.053.053.053.247 0 .3-.334.026-.748.052-.607.413Zm.95 1.795c-.193 0-.255.027-.22.115l.775 1.971h.061L3.74 2.49Z"/></symbol><symbol id="ah" overflow="visible"><path d="M4.488 1.17v1.523c0 .739.018.633.018.845 0 .15-.036.246-.088.299a9.225 9.225 0 0 0-.502-.018c-.246 0-.818.009-1.162.018-.052-.053-.052-.247 0-.3.45-.043.59-.105.59-.844V1.065c0-.088 0-.176.009-.264a1.492 1.492 0 0 0-.81-.238c-.352 0-.616.044-.616.66v1.47c0 .739.018.633.018.845 0 .15-.035.246-.088.299a9.55 9.55 0 0 0-.502-.018c-.449 0-.783.009-1.161.018-.053-.053-.053-.247 0-.3.404-.017.59-.105.59-.844V1.32c0-.933.369-1.408 1.126-1.408.316 0 .959.255 1.47.537.017-.22.034-.387.034-.387.01-.106.08-.15.203-.15.325.088.853.211 1.46.29a.762.762 0 0 1-.017.282c-.475.044-.572.185-.572.686Z"/></symbol><symbol id="ai" overflow="visible"><path d="M3.784 1.927h-.73v2.57c0 .44 0 .783.017.853l-.017.018h-.282c-.062 0-.106-.053-.14-.097-.555-.677-1.576-2.13-2.386-3.388.027-.132.08-.37.344-.37h1.795V.705c0-.405-.335-.405-.713-.431-.053-.053-.053-.238 0-.29a30.83 30.83 0 0 0 1.998 0c.052.052.052.237 0 .29-.432.035-.616.017-.616.431v.81h.607c.123 0 .255.167.255.272 0 .088-.035.141-.132.141Zm-1.4 2.535V1.927H.705c.449.722 1.074 1.707 1.68 2.535Z"/></symbol><symbol id="aj" overflow="visible"><path d="M5.676 0H3.59L.04 10.072h1.993l2.6-7.986 2.6 7.986h1.994L5.676 0Z"/></symbol><symbol id="ak" overflow="visible"><path d="M1.188.429q-.673.574-.673 1.604 0 1.109.845 1.69.607.422 1.729.633l2.204.41q-.026.686-.356 1.042-.33.356-.99.356-.515 0-.904-.303-.39-.304-.482-.819H.792Q.977 6.27 1.874 6.917q.898.647 2.086.647.673 0 1.254-.192.58-.191.99-.56.41-.357.594-.832.185-.476.231-.95.046-.476.046-1.176V0H5.293v1.003Q5.016.515 4.62.264 4-.146 2.944-.146q-1.083 0-1.756.575ZM4.33 1.465q.554.277.765.74.211.461.238 1.253l-1.769-.356q-.713-.132-1.03-.422-.237-.238-.237-.581 0-.41.297-.627.297-.218.785-.218.528 0 .95.211Z"/></symbol><symbol id="al" overflow="visible"><path d="M2.495 0q-.845 0-1.28.39Q.778.778.778 1.623v8.448H2.56v-7.92q0-.37.138-.522.139-.152.469-.152h.475V0H2.495Z"/></symbol><symbol id="am" overflow="visible"><path d="M1.082 1.082q-.184.37-.25.812-.066.442-.066 1.248v4.263h1.782V3.128q0-.567.085-.917.086-.35.271-.561.317-.33.937-.33.766 0 1.135.449.225.264.324.7.099.435.099 1.174v3.762H7.18V0H5.399v.937Q4.989.37 4.52.112q-.469-.257-1.129-.257-1.716 0-2.31 1.227Z"/></symbol><symbol id="an" overflow="visible"><path d="M2.297.343Q1.439.832.97 1.696q-.468.865-.468 1.96 0 1.017.415 1.908.416.89 1.254 1.445.839.555 2.053.555 1.003 0 1.848-.416.845-.416 1.36-1.28.514-.865.514-2.146V3.34H2.35q.04-.462.277-.872.264-.514.706-.798.442-.284 1.01-.284.607 0 1.043.31.435.31.62.799h1.822Q7.47 1.32 6.574.587q-.898-.732-2.297-.732-1.122 0-1.98.488Zm3.828 4.33q-.053.422-.277.686-.251.383-.66.588-.41.204-.911.204-.502 0-.904-.198-.403-.198-.654-.594-.237-.29-.29-.686h3.696Z"/></symbol><symbol id="ao" overflow="visible"><path d="M2.587 0H.805v7.405h1.782V0ZM.924 8.5q-.317.278-.317.74 0 .436.317.726t.779.29q.449 0 .772-.29t.323-.726q0-.449-.316-.733-.317-.283-.78-.283-.461 0-.778.277Z"/></symbol><symbol id="ap" overflow="visible"><path d="M.805 0v7.405h1.782v-.937q.423.594.911.845.488.25 1.109.25 1.716 0 2.31-1.24.198-.436.25-.885.053-.448.053-1.174V0H5.452v4.29q0 1.07-.37 1.478-.317.33-.937.33-.753 0-1.122-.448-.225-.264-.33-.707-.106-.442-.106-1.168V0H.805Z"/></symbol><symbol id="aq" overflow="visible"><path d="M7.616 0H.898v10.072h6.718V8.369H2.798V5.887h4.317v-1.69H2.798V1.704h4.818V0Z"/></symbol><symbol id="ar" overflow="visible"><path d="M1.782.838q-.99 1.023-.99 2.818v6.416h1.914V3.656q0-1.016.502-1.577.501-.561 1.65-.561 1.148 0 1.65.561.501.561.501 1.577v6.416h1.914V3.656q0-1.795-.996-2.818Q6.93-.185 4.857-.185q-2.085 0-3.075 1.023Z"/></symbol><symbol id="as" overflow="visible"><path d="M8.66 0H6.64L5.042 4.026H2.798V0h-1.9v10.072H5.24q1.479 0 2.337-.733.858-.733.858-2.237 0-.977-.416-1.677-.416-.7-1.168-1.056L8.659 0ZM2.797 8.369v-2.68h2.178q.766 0 1.169.343.402.344.402 1.004 0 .646-.409.99-.41.343-1.162.343H2.798Z"/></symbol><symbol id="at" overflow="visible"><path d="M2.257 0H1.043v10.072h1.214V0Z"/></symbol><symbol id="au" overflow="visible"><path d="M.937 0v7.3H2.06V6.164q.541.7 1.05.984.508.284 1.115.284 1.544 0 2.152-1.149.224-.435.283-.89.06-.456.06-.997V0H5.597v4.396q0 1.161-.423 1.636-.37.41-1.122.41-.831 0-1.333-.542-.356-.37-.508-1.016-.152-.647-.152-1.769V0H.937Z"/></symbol><symbol id="av" overflow="visible"><path d="M2.06 0H.936v7.3H2.06V0ZM.897 8.798q-.251.244-.251.587 0 .343.25.581.251.238.608.238.356 0 .607-.238.25-.238.25-.58 0-.344-.25-.588t-.607-.244q-.357 0-.607.244Z"/></symbol><symbol id="aw" overflow="visible"><path d="M3.26 0q-.884 0-1.306.396-.423.396-.423 1.439V6.31H.356v.99h1.175v2.772h1.122V7.3H4.29v-.99H2.653V2.06q0-.384.053-.601.053-.218.238-.344.184-.125.58-.125h.753V0H3.26Z"/></symbol><symbol id="ax" overflow="visible"><path d="M1.274.422Q.634.977.634 1.94q0 .95.712 1.505.581.462 1.677.687l2.6.501q0 .858-.449 1.307-.501.502-1.346.502-.673 0-1.168-.363-.495-.363-.627-.97H.91q.185 1.095 1.01 1.709.825.614 1.92.614.647 0 1.201-.192.555-.191.938-.56.501-.476.633-1.096.132-.62.132-1.28V0H5.623v1.148Q5.24.594 4.74.29q-.673-.422-1.73-.422-1.095 0-1.735.554Zm3.03.687q.738.383 1.035 1.016.297.634.297 1.597L3.26 3.247q-.818-.158-1.2-.515-.304-.303-.304-.765 0-.502.376-.805.376-.304 1.01-.304.673 0 1.161.25Z"/></symbol><symbol id="ay" overflow="visible"><path d="M2.64 0q-.884 0-1.307.396Q.911.792.911 1.835v8.237h1.122V2.006q0-.382.053-.587.052-.205.237-.317.185-.112.581-.112h.356V0h-.62Z"/></symbol><symbol id="az" overflow="visible"><path d="M5.267 0H3.894L.184 10.072h1.228L4.58 1.24l3.168 8.83h1.228L5.266 0Z"/></symbol><symbol id="aA" overflow="visible"><path d="M1.254 1.016q-.343.647-.343 1.888V7.3h1.122V2.904q0-1.162.422-1.637.37-.409 1.122-.409.832 0 1.333.541.357.37.509 1.017.151.646.151 1.768V7.3h1.122V0H5.57v1.135Q5.042.462 4.534.165q-.508-.297-1.128-.297-1.532 0-2.152 1.148Z"/></symbol><symbol id="aB" overflow="visible"><path d="M2.343.356q-.812.489-1.26 1.347-.45.858-.45 1.927 0 1.016.423 1.881.422.865 1.221 1.393.799.528 1.881.528.937 0 1.742-.423.806-.422 1.294-1.234t.488-1.947v-.396h-5.94q.027-.383.146-.726.277-.845.89-1.346.614-.502 1.393-.502.792 0 1.36.422.567.423.818 1.07H7.55Q7.194 1.24 6.336.554q-.858-.686-2.152-.686-1.03 0-1.841.488Zm4.138 4.066q-.026.396-.158.713-.277.62-.852.963-.574.344-1.287.344-.726 0-1.273-.344-.548-.343-.852-.963-.132-.29-.211-.713h4.633Z"/></symbol><symbol id="aC" overflow="visible"><path d="M1.69.733Q.7 1.584.62 3.036h1.215q.105-.99.726-1.525.62-.534 1.795-.534.99 0 1.584.521.594.522.594 1.42 0 .99-.726 1.425-.726.435-1.861.435h-.62v1.096h.593q.832 0 1.42.422.587.423.587 1.254 0 .713-.475 1.129-.476.416-1.268.416-.87 0-1.412-.502-.541-.501-.634-1.452H.924q.04.871.475 1.571.436.7 1.155 1.089.72.39 1.578.39.897 0 1.584-.337.686-.337 1.056-.93.37-.595.37-1.347 0-.541-.225-1.003-.225-.462-.588-.766t-.759-.383q.568-.092 1.063-.409.495-.317.805-.865.31-.547.31-1.273 0-.858-.442-1.545Q6.864.647 6.086.264q-.78-.383-1.743-.383-1.663 0-2.653.852Z"/></symbol><symbol id="aD" overflow="visible"><path d="M2.409.264Q1.624.66 1.195 1.373q-.43.713-.43 1.623 0 .898.502 1.591t1.4.917q-.7.198-1.096.76-.396.56-.396 1.234 0 .792.39 1.405.389.614 1.088.957.7.344 1.571.344t1.57-.344q.7-.343 1.09-.957.39-.613.39-1.405 0-.674-.397-1.241-.396-.568-1.095-.753.897-.224 1.399-.917.501-.693.501-1.59 0-.911-.429-1.624Q6.824.66 6.04.264q-.785-.396-1.815-.396-1.03 0-1.815.396Zm3.168 6.065q.482.416.482 1.155 0 .726-.502 1.175-.501.449-1.333.449t-1.333-.449q-.502-.449-.502-1.175 0-.739.482-1.155.482-.415 1.353-.415t1.353.415Zm.264-4.83q.627.534.627 1.497 0 .898-.607 1.446-.607.548-1.637.548t-1.637-.548q-.607-.548-.607-1.446 0-.963.627-1.498.627-.534 1.617-.534t1.617.534Z"/></symbol><symbol id="aE" overflow="visible"><path d="M.62-1.663q.608.092.938.475.33.383.33.95 0 .198-.04.396-.172-.29-.594-.29-.29 0-.488.205Q.568.277.568.62q0 .357.23.581.232.225.614.225.515 0 .825-.423.31-.422.31-1.109 0-.805-.481-1.425-.482-.62-1.446-.726v.594Z"/></symbol><symbol id="aF" overflow="visible"><path d="M4.594 8.527q-.542-.686-1.28-1.148-.74-.462-1.611-.673v1.188q.924.184 1.71.831.785.647 1.207 1.347h1.188V0H4.594v8.527Z"/></symbol><symbol id="aG" overflow="visible"><path d="M1.683 1.188Q.766 2.495.766 5.056q0 2.547.904 3.847.904 1.3 2.528 1.3 1.663 0 2.574-1.313.91-1.313.91-3.887 0-2.535-.897-3.828Q5.887-.12 4.264-.12q-1.664 0-2.581 1.307Zm4.198.799q.587 1.01.587 3.029 0 2.046-.607 3.069-.607 1.023-1.677 1.023-1.056 0-1.63-1.016-.574-1.017-.574-3.05 0-2.032.587-3.049Q3.155.977 4.237.977q1.056 0 1.644 1.01Z"/></symbol><symbol id="aH" overflow="visible"><path d="M.977.099Q.739.33.739.66q0 .317.238.541.237.225.567.225.304 0 .528-.231.225-.231.225-.535 0-.33-.225-.561-.224-.231-.528-.231-.33 0-.567.231Z"/></symbol><symbol id="aI" overflow="visible"><path d="M3.062 0H1.73l4.7 8.976H.685v1.096H7.71V9.029L3.062 0Z"/></symbol><symbol id="aJ" overflow="visible"><path d="M6.752 8.897q.904-1.307.904-3.498 0-2.508-.91-4.02Q5.833-.132 3.972-.132q-1.32 0-2.145.733-.825.732-1.062 1.986h1.148q.224-.805.726-1.214.502-.41 1.333-.41 1.241 0 1.868 1.017.627 1.016.627 2.904-.779-1.373-2.521-1.373-.95 0-1.67.423-.72.422-1.115 1.174-.396.753-.396 1.703 0 .95.409 1.73.409.778 1.148 1.22.74.443 1.677.443 1.848 0 2.752-1.307ZM2.93 8.804q-.462-.303-.706-.811-.244-.509-.244-1.129 0-1.016.548-1.637.548-.62 1.485-.62.647 0 1.175.29t.825.805q.297.515.297 1.162 0 .647-.297 1.155t-.819.799q-.521.29-1.181.29-.62 0-1.083-.304Z"/></symbol><symbol id="aK" overflow="visible"><path d="M7.55 0H1.043v10.072H7.55V8.976H2.257v-3.38H6.93V4.515H2.257V1.096H7.55V0Z"/></symbol><symbol id="aL" overflow="visible"><path d="M2.204.343q-.739.475-1.141 1.333Q.66 2.534.66 3.643t.403 1.974q.402.864 1.135 1.34.732.475 1.71.475.752 0 1.293-.278.541-.277 1.095-.99v3.908h1.122V0H6.296v1.135q-.54-.7-1.082-.983-.541-.284-1.307-.284-.963 0-1.703.475Zm3.01.871q.528.357.825.997.297.64.297 1.432 0 .805-.297 1.439t-.825.997q-.528.363-1.201.363T2.83 6.079q-.508-.363-.778-.997-.271-.634-.271-1.439 0-.792.27-1.425.271-.634.78-.997.508-.363 1.18-.363.674 0 1.202.356Z"/></symbol><symbol id="aM" overflow="visible"><path d="M2-2.363Q1.096-1.822.898-.594h1.148q.343-1.32 2.099-1.32 2.178 0 2.178 1.954v1.095Q5.768.422 5.227.145T3.934-.132q-.964 0-1.703.475-.74.475-1.142 1.327-.403.851-.403 1.947 0 1.122.403 1.986.403.865 1.135 1.347.733.482 1.696.482.766 0 1.307-.284.541-.284 1.096-.984V7.3h1.122V.25q0-1.689-.871-2.421-.872-.733-2.416-.733-1.254 0-2.158.541Zm3.24 3.584q.528.363.825.997.297.633.297 1.438 0 .792-.297 1.426-.297.634-.831.997-.535.363-1.195.363-.673 0-1.181-.363t-.779-.997q-.27-.634-.27-1.426 0-.805.27-1.438.27-.634.779-.997.508-.363 1.181-.363t1.201.363Z"/></symbol><symbol id="aN" overflow="visible"><path d="M1.696 1.175Q.792 2.482.792 4.673q0 2.508.91 4.02.912 1.51 2.773 1.51 1.32 0 2.145-.732.825-.733 1.062-1.987H6.534Q6.31 8.29 5.808 8.7q-.502.409-1.333.409-1.241 0-1.868-1.016-.627-1.017-.627-2.904.779 1.372 2.521 1.372.95 0 1.67-.422t1.115-1.175q.396-.752.396-1.703 0-.95-.409-1.729Q6.864.752 6.125.311q-.74-.443-1.677-.443-1.848 0-2.752 1.307Zm3.822.092q.462.304.706.812.244.508.244 1.129 0 1.016-.548 1.636-.548.62-1.485.62-.647 0-1.175-.29t-.825-.805q-.297-.515-.297-1.161 0-.647.297-1.155.297-.509.819-.799.521-.29 1.181-.29.62 0 1.083.303Z"/></symbol><symbol id="aO" overflow="visible"><path d="M2.528.257Q1.795.634 1.346 1.32q-.448.686-.54 1.57h1.227q.132-.897.739-1.405T4.264.977q1.016 0 1.603.7.588.699.588 1.781 0 1.043-.607 1.664-.608.62-1.61.62-.634 0-1.169-.33t-.825-.898H.911l1.003 5.558h5.28V8.976h-4.37l-.54-3.062q.462.448 1.023.686.56.238 1.168.238.924 0 1.65-.43.726-.428 1.135-1.187.41-.76.41-1.736 0-1.017-.45-1.835Q6.772.832 5.973.356q-.799-.475-1.802-.475-.91 0-1.643.376Z"/></symbol><symbol id="aP" overflow="visible"><path d="M.713 0v1.082l3.22 2.667q1.083.897 1.611 1.683.528.785.528 1.736 0 .91-.475 1.419-.475.508-1.386.508-.99 0-1.545-.6-.554-.601-.633-1.79H.818q.066 1.598.964 2.535.898.937 2.416.937.924 0 1.623-.356.7-.357 1.083-1.017.382-.66.382-1.544 0-1.214-.686-2.237Q5.914 4 4.686 2.97L2.429 1.096h5.346V0H.713Z"/></symbol><symbol id="aQ" overflow="visible"><path d="M1.043 0v10.072h2.772q2.508 0 3.841-1.32 1.333-1.32 1.333-3.75 0-2.388-1.34-3.695T3.802 0h-2.76Zm2.745 1.096q1.822 0 2.904.858 1.083.858 1.083 3.049 0 3.973-3.973 3.973H2.257v-7.88h1.531Z"/></symbol><symbol id="aR" overflow="visible"><path d="M6.164 6.956q.74-.475 1.142-1.333.403-.858.403-1.967 0-1.108-.403-1.973Q6.904.818 6.171.343q-.733-.475-1.71-.475-.752 0-1.293.277-.541.277-1.096.99v-3.907H.95V7.3h1.122V6.164q.542.7 1.083.984.541.284 1.307.284.963 0 1.702-.476Zm-3.01-.87q-.527-.357-.824-.997-.297-.64-.297-1.433 0-.805.297-1.438.297-.634.825-.997T4.356.858q.673 0 1.181.363.509.363.78.997.27.633.27 1.438 0 .792-.27 1.426-.271.634-.78.997-.508.363-1.181.363t-1.201-.357Z"/></symbol><symbol id="aS" overflow="visible"><path d="M2.356.356q-.812.489-1.267 1.36-.455.871-.455 1.967 0 1.069.455 1.927.455.858 1.267 1.34.812.482 1.842.482t1.848-.482q.818-.482 1.28-1.34.462-.858.462-1.927 0-1.096-.455-1.96Q6.877.858 6.059.363 5.24-.132 4.198-.132q-1.03 0-1.842.488Zm3.089.872q.561.37.884 1.01.324.64.324 1.445 0 .765-.317 1.399t-.878.997q-.56.363-1.26.363-.687 0-1.248-.357-.56-.356-.878-.99-.316-.633-.316-1.412 0-.805.316-1.452.317-.647.878-1.01.561-.363 1.248-.363.686 0 1.247.37Z"/></symbol><symbol id="aT" overflow="visible"><path d="M1.624.528Q.752 1.188.568 2.35h1.174q.146-.7.68-1.096.535-.396 1.472-.396.766 0 1.221.29.455.29.455.832 0 .422-.27.68-.27.257-.687.39-.415.131-1.102.263-.858.172-1.38.35-.52.178-.89.574-.37.396-.37 1.096 0 .99.746 1.544.746.555 1.907.555 1.188 0 1.98-.62.792-.621.977-1.704H5.438q-.158.674-.66 1.004-.501.33-1.254.33-.726 0-1.128-.271-.403-.27-.403-.746 0-.37.251-.58.25-.212.62-.324.37-.112 1.043-.244.885-.172 1.439-.363.554-.192.95-.62.396-.43.396-1.195 0-1.03-.739-1.63-.739-.601-2.072-.601-1.386 0-2.257.66Z"/></symbol><symbol id="aU" overflow="visible"><path d="M5.57 10.072 1.003-1.465H-.04l4.568 11.537H5.57Z"/></symbol><symbol id="aV" overflow="visible"><path d="M4.62 0H3.247L.264 10.072h1.267l2.495-8.33 2.482 8.33h1.161l2.495-8.343 2.482 8.343h1.267L10.93 0H9.557L7.088 8.092 4.62 0Z"/></symbol><symbol id="aW" overflow="visible"><path d="M.95 0v10.072h1.122V6.164q.542.7 1.05.984.508.284 1.115.284 1.545 0 2.152-1.149.224-.435.284-.89.059-.456.059-.997V0H5.61v4.396q0 1.161-.422 1.636-.37.41-1.122.41-.832 0-1.334-.542-.356-.37-.508-1.016-.152-.647-.152-1.769V0H.95Z"/></symbol><symbol id="aX" overflow="visible"><path d="M.937 0v7.3H2.06V6.296q.502.608 1.07.872.567.264 1.32.264H4.5V6.31h-.383q-.884 0-1.412-.528-.647-.62-.647-1.94V0H.937Z"/></symbol><symbol id="aY" overflow="visible"><path d="M3.511 0H2.468L.33 7.3h1.201l1.531-5.478L4.897 7.3h1.017l1.834-5.478L9.293 7.3h1.201L8.329 0H7.286L5.412 5.716 3.512 0Z"/></symbol><symbol id="aZ" overflow="visible"><path d="M5.095 0H3.828v3.854L.053 10.072h1.412l2.97-5.016 3.01 5.016H8.83L5.095 3.854V0Z"/></symbol><symbol id="ba" overflow="visible"><path d="M.977.092Q.739.317.739.647q0 .317.238.548.237.23.567.23.304 0 .528-.23.225-.231.225-.548 0-.317-.225-.548-.224-.231-.528-.231-.33 0-.567.224ZM3.914.1q-.231.231-.231.548 0 .317.23.548.232.23.562.23.317 0 .548-.23.23-.231.23-.548 0-.317-.23-.548-.231-.231-.548-.231-.33 0-.561.231ZM6.857.092q-.23.225-.23.555 0 .317.23.548.231.23.561.23.304 0 .535-.23.231-.231.231-.548 0-.317-.224-.548-.225-.231-.542-.231-.33 0-.56.224Z"/></symbol><symbol id="bb" overflow="visible"><path d="M3.155.152q-.541.284-1.083.983V0H.95v10.072h1.122V6.164q.555.713 1.096.99.541.278 1.294.278.976 0 1.709-.476.733-.475 1.135-1.34.403-.864.403-1.973t-.403-1.967Q6.904.818 6.164.343q-.739-.475-1.702-.475-.766 0-1.307.284ZM5.537 1.22q.509.363.78.997.27.633.27 1.425 0 .805-.27 1.439-.271.634-.78.997-.508.363-1.181.363t-1.201-.363q-.528-.363-.825-.997-.297-.634-.297-1.439 0-.792.297-1.432.297-.64.825-.997.528-.356 1.201-.356t1.181.363Z"/></symbol><symbol id="bc" overflow="visible"><path d="M.937-2.772v1.03h.687q.33 0 .501.046.172.046.304.204.132.159.264.515L3.089.106.238 7.3h1.24l2.218-5.663L5.756 7.3H6.97L3.736-1.465q-.29-.779-.66-1.043-.37-.264-1.056-.264H.937Z"/></symbol><symbol id="bd" overflow="visible"><path d="M1.412 0H.185l3.709 10.072h1.373L8.976 0H7.748l-.884 2.468H2.297L1.412 0ZM4.58 8.83 2.706 3.55h3.749L4.58 8.83Z"/></symbol><symbol id="be" overflow="visible"><path d="M14.6 3.986H0v.845h14.6v-.845Z"/></symbol><symbol id="bf" overflow="visible"><path d="M1.934.66Q.792 1.452.554 3.05h1.228q.224-1.11 1.05-1.605Q3.655.95 4.738.95q1.082 0 1.67.45.587.448.587 1.332 0 .674-.37 1.063-.37.39-.924.58-.554.192-1.491.39-1.056.225-1.703.456-.647.23-1.096.759-.448.528-.448 1.452 0 .844.415 1.471.416.627 1.162.964.746.337 1.723.337 1.386 0 2.402-.72Q7.682 8.764 7.92 7.3H6.745q-.198.963-.884 1.392-.687.43-1.61.43-1.004 0-1.538-.423-.535-.423-.535-1.162 0-.58.337-.917.336-.337.844-.508.509-.172 1.393-.357 1.122-.237 1.808-.495.687-.257 1.169-.838.481-.58.481-1.61 0-1.36-.917-2.152T4.686-.132q-1.61 0-2.752.792Z"/></symbol><symbol id="bg" overflow="visible"><path d="M2.336.356q-.805.489-1.254 1.36-.448.871-.448 1.967 0 1.069.448 1.927.45.858 1.254 1.34.806.482 1.835.482 1.228 0 2.08-.627.85-.627 1.101-1.697h-1.2q-.212.608-.747.97-.534.364-1.234.364-.686 0-1.234-.357-.548-.356-.865-.983-.316-.627-.316-1.42 0-.818.31-1.458t.864-1.003Q3.485.858 4.171.858q.753 0 1.3.41.548.408.733 1.082h1.201Q7.168 1.188 6.29.528q-.878-.66-2.119-.66-1.03 0-1.835.488Z"/></symbol><symbol id="bh" overflow="visible"><path d="M2.072 0H.95v10.072h1.122v-5.69L5.28 7.3h1.558L3.26 4.092 7.168 0H5.636L2.072 3.815V0Z"/></symbol><symbol id="bi" overflow="visible"><path d="M1.043 0v10.072H4.83q1.65 0 2.429-.74.673-.633.673-1.782 0-.924-.462-1.557-.462-.634-1.254-.713 1.056-.08 1.637-.726.58-.647.58-1.716 0-1.214-.738-1.954Q7.194.41 6.468.204 5.742 0 4.99 0H1.043ZM4.83 5.702q.885 0 1.38.436.495.436.495 1.214 0 .713-.423 1.11-.528.514-1.716.514h-2.31V5.702h2.574Zm.027-4.606q.528 0 1.016.092t.858.436q.488.448.488 1.293 0 1.096-.646 1.4-.647.303-1.452.303H2.257V1.096h2.6Z"/></symbol><symbol id="bj" overflow="visible"><path d="M2.257 0H1.043v10.072H7.55V8.976H2.257v-3.38H6.93V4.515H2.257V0Z"/></symbol><symbol id="bk" overflow="visible"><path d="M2.693.521q-1.096.707-1.637 1.895Q.515 3.604.515 5.042q0 1.44.541 2.62.541 1.182 1.637 1.888 1.095.706 2.706.706 1.821 0 2.943-.91 1.122-.911 1.334-2.43H7.603q-.132.793-.739 1.215-.607.423-1.518.423-1.36 0-2.105-.957-.746-.957-.746-2.555 0-1.61.746-2.567.745-.957 2.105-.957.924 0 1.518.442t.74 1.314h2.072Q9.464 1.676 8.349.746q-1.115-.93-2.95-.93-1.61 0-2.706.705Z"/></symbol><symbol id="bl" overflow="visible"><path d="M.805 0v7.405h1.782v-.937q.423.58.918.838.495.258 1.102.258.739 0 1.254-.304t.686-.884q.357.62.898.904.541.284 1.28.284 1.215 0 1.822-.713t.607-1.993V0H9.372v4.633q0 1.465-1.162 1.465-.554 0-.884-.356-.25-.277-.35-.713-.099-.435-.099-1.109V0H5.095v4.633q0 .74-.303 1.102-.304.363-.872.363-.554 0-.897-.382-.225-.264-.33-.68-.106-.416-.106-1.116V0H.805Z"/></symbol><symbol id="bm" overflow="visible"><path d="M3.128 0Q1.4 0 1.4 1.624V5.98H.304v1.425h1.095v2.667h1.782V7.405h1.426V5.98H3.18V2.165q0-.343.112-.515.113-.172.495-.172h.806V0H3.128Z"/></symbol><symbol id="bn" overflow="visible"><path d="M4.303 0H2.891L.158 7.405H2.06L3.59 2.732l1.558 4.673h1.9L4.304 0Z"/></symbol><symbol id="bo" overflow="visible"><path d="M.805 0v7.405h1.782v-.884q.41.567.918.805.508.238 1.194.238h.211V5.848h-.409q-.845 0-1.32-.45-.303-.303-.449-.771-.145-.469-.145-1.195V0H.805Z"/></symbol><symbol id="bp" overflow="visible"><path d="M.686 0v1.439L3.841 4.21q.937.818 1.393 1.498.455.68.455 1.366 0 .713-.376 1.129-.376.416-1.155.416-1.69 0-1.782-2.086H.62q.066 1.795.984 2.752.917.957 2.58.957.95 0 1.69-.363t1.155-1.043q.416-.68.416-1.59 0-1.175-.68-2.198t-1.71-1.947l-1.57-1.4H7.88V0H.686Z"/></symbol><symbol id="bq" overflow="visible"><path d="M2.422.205Q1.637.594 1.155 1.3q-.482.706-.587 1.644h1.914q.145-.7.6-1.063.456-.363 1.155-.363.779 0 1.234.535.456.534.456 1.405 0 .832-.469 1.353-.468.522-1.234.522-1.122 0-1.663-1.043H.7l1.082 5.782h5.597V8.369H3.168l-.41-2.165q.37.33.865.528t1.01.198q.937 0 1.67-.436.733-.435 1.135-1.22.403-.786.403-1.802 0-1.07-.462-1.901Q6.917.739 6.092.277q-.825-.462-1.908-.462-.976 0-1.762.39Z"/></symbol><symbol id="br" overflow="visible"><path d="M.772.172Q.45.488.45.924q0 .422.323.733.324.31.76.31.422 0 .725-.31.304-.31.304-.733 0-.449-.304-.759-.303-.31-.726-.31-.435 0-.759.317Z"/></symbol><symbol id="bs" overflow="visible"><path d="M2.323.224Q1.478.634.99 1.393.502 2.152.449 3.18h1.9Q2.535 1.44 4.317 1.44q.806 0 1.248.422.442.423.442 1.162 0 .752-.521 1.122-.522.37-1.472.37h-.62v1.544h.554q.66 0 1.095.35.436.35.436.97 0 .58-.356.91-.357.33-1.004.33-.646 0-1.056-.362-.409-.363-.514-1.116H.818q.04.924.476 1.63.435.707 1.174 1.09.74.382 1.664.382.937 0 1.656-.356.72-.357 1.122-.977.403-.62.403-1.4 0-.752-.416-1.32-.416-.567-1.089-.712.99-.119 1.551-.812.561-.693.561-1.67 0-.924-.462-1.65Q6.996.62 6.171.218q-.825-.403-1.894-.403-1.109 0-1.954.41Z"/></symbol><symbol id="bt" overflow="visible"><path d="M1.604 5.841q-.495.297-.772.832-.278.534-.278 1.234 0 .686.278 1.22.277.535.759.832.481.297 1.075.297T3.75 9.94q.488-.317.765-.858.278-.542.278-1.188 0-.647-.271-1.188-.27-.542-.752-.852-.482-.31-1.063-.31-.607 0-1.102.297ZM2.732 0H1.28l6.204 10.072h1.452L2.732 0Zm.515 7.18q.211.291.211.714 0 .462-.224.745-.224.284-.568.284-.343 0-.56-.264-.218-.264-.218-.752 0-.489.23-.753.232-.264.588-.264.33 0 .541.29ZM6.541.113q-.495.297-.773.832-.277.534-.277 1.22 0 .687.27 1.222.271.534.753.825.482.29 1.09.29.593 0 1.075-.31t.759-.851q.277-.542.277-1.202 0-.646-.27-1.174-.271-.528-.746-.839-.475-.31-1.056-.31-.607 0-1.102.297Zm1.636 1.314q.218.29.218.712 0 .476-.224.753-.225.277-.568.277-.356 0-.567-.257-.212-.258-.212-.746 0-.502.218-.766t.6-.264q.318 0 .535.29Z"/></symbol></defs></svg>