<?xml version="1.0" standalone="no"?>
<!DOCTYPE svg PUBLIC "-//W3C//DTD SVG 20010904//EN"
 "http://www.w3.org/TR/2001/REC-SVG-20010904/DTD/svg10.dtd">
<svg version="1.0" xmlns="http://www.w3.org/2000/svg"
 width="512.000000pt" height="512.000000pt" viewBox="0 0 512.000000 512.000000"
 preserveAspectRatio="xMidYMid meet">

<g transform="translate(0.000000,512.000000) scale(0.100000,-0.100000)"
fill="#000000" stroke="none">
<path d="M3972 4950 c-37 -16 -88 -58 -115 -98 -15 -20 -66 -151 -115 -291
l-89 -255 -5 83 c-4 67 -9 86 -27 104 l-22 22 -1570 3 -1570 2 -30 -29 -29
-29 0 -2127 0 -2126 25 -24 24 -25 1570 0 1570 0 28 24 28 24 3 819 2 818 105
105 104 105 428 1215 c392 1116 427 1221 431 1290 3 63 0 82 -20 120 -13 25
-37 54 -54 66 -44 29 -582 215 -619 214 -16 -1 -40 -5 -53 -10z m316 -240
c140 -49 260 -94 265 -99 19 -19 6 -82 -51 -241 -49 -139 -62 -164 -77 -162
-18 4 -557 192 -564 198 -2 1 23 78 55 170 50 143 90 224 111 224 2 0 120 -40
261 -90z m-800 -610 l2 -256 -255 -724 c-171 -486 -255 -738 -255 -765 0 -22
7 -96 15 -165 8 -69 15 -135 15 -147 l0 -23 -1099 0 -1100 0 -27 -23 c-37 -33
-37 -81 0 -114 l27 -23 1110 0 c880 0 1109 -3 1109 -12 0 -43 43 -397 50 -416
12 -29 51 -46 85 -38 14 4 89 66 166 139 77 73 144 133 150 135 5 2 9 -254 9
-672 l0 -676 -1465 0 -1465 0 0 2020 0 2020 1463 -2 1462 -3 3 -255z m431 114
c56 -20 101 -41 101 -46 0 -10 -637 -1829 -643 -1834 -7 -7 -217 71 -217 81 0
18 645 1835 652 1835 3 0 52 -16 107 -36z m370 -130 c56 -20 101 -40 101 -44
0 -12 -639 -1822 -646 -1829 -8 -9 -204 61 -204 73 -1 19 635 1836 642 1836 3
0 52 -16 107 -36z m-751 -1981 l104 -36 -213 -213 c-117 -117 -214 -212 -215
-211 -4 3 -64 545 -64 572 0 24 0 24 143 -26 78 -28 189 -67 245 -86z"/>
<path d="M786 4209 l-26 -20 0 -529 0 -529 26 -20 c26 -21 36 -21 540 -21
l513 0 28 24 28 24 0 522 0 522 -28 24 -28 24 -513 0 c-504 0 -514 0 -540 -21z
m952 -546 l-3 -408 -407 -3 -408 -2 0 410 0 410 410 0 410 0 -2 -407z"/>
<path d="M2145 4078 c-51 -27 -60 -84 -20 -123 l24 -25 309 0 309 0 21 23 c30
32 29 81 -3 112 l-24 25 -298 0 c-196 -1 -305 -4 -318 -12z"/>
<path d="M2125 3735 c-16 -15 -25 -36 -25 -55 0 -19 9 -40 25 -55 l24 -25 540
0 540 0 27 23 c20 17 27 33 27 57 0 24 -7 40 -27 57 l-27 23 -540 0 -540 0
-24 -25z"/>
<path d="M2125 3365 c-27 -26 -32 -70 -12 -96 27 -35 54 -39 247 -39 l192 0
29 29 c36 36 37 73 4 106 -24 25 -25 25 -230 25 -205 0 -206 0 -230 -25z"/>
<path d="M2721 3373 c-11 -10 -24 -32 -27 -50 -5 -27 -1 -37 24 -63 l30 -30
147 0 147 0 29 29 c36 36 37 73 4 106 -23 24 -28 25 -178 25 -133 0 -158 -2
-176 -17z"/>
<path d="M804 2796 c-48 -21 -61 -89 -24 -126 20 -20 33 -20 955 -20 922 0
935 0 955 20 21 21 26 69 10 100 -5 10 -24 23 -41 29 -51 18 -1814 15 -1855
-3z"/>
<path d="M786 2399 c-35 -27 -36 -86 -3 -117 l23 -22 533 0 532 0 24 25 c40
40 30 96 -22 123 -16 9 -165 12 -541 12 -510 0 -520 0 -546 -21z"/>
<path d="M782 1587 c-32 -34 -30 -89 4 -116 25 -19 40 -21 189 -21 149 0 164
2 189 21 35 27 36 86 3 117 -22 21 -33 22 -193 22 -165 0 -171 -1 -192 -23z"/>
<path d="M1425 1585 c-40 -39 -32 -96 16 -120 42 -22 846 -22 888 0 48 24 56
81 16 120 l-24 25 -436 0 -436 0 -24 -25z"/>
<path d="M853 1186 l-28 -24 0 -312 0 -312 28 -24 28 -24 1142 0 c882 1 1146
3 1158 13 37 28 39 50 39 352 l0 297 -29 29 -29 29 -1141 0 -1140 0 -28 -24z
m2207 -336 l0 -200 -1040 0 -1040 0 0 200 0 200 1040 0 1040 0 0 -200z"/>
</g>
</svg>
